<svg width="34" height="33" viewBox="0 0 34 33" fill="none" xmlns="http://www.w3.org/2000/svg">
<path id="Vector" fill-rule="evenodd" clip-rule="evenodd" d="M32.6357 3.08696C34.4548 4.85104 34.4548 7.71112 32.6357 9.4752L10.6538 30.7923C10.0035 31.4229 9.17535 31.8527 8.27372 32.0276L3.71605 32.9115C1.54327 33.333 -0.372559 31.4752 0.0620308 29.368L0.973595 24.9483C1.15386 24.0738 1.59714 23.2707 2.24739 22.6401L24.2293 1.32303C26.0483 -0.441048 28.9976 -0.441048 30.8167 1.32303L32.6357 3.08696ZM30.4399 7.34584C31.0463 6.75771 31.0463 5.80445 30.4399 5.21633L28.6209 3.4524C28.0145 2.86427 27.0314 2.86427 26.4251 3.4524L22.277 7.47503L26.2919 11.3683L30.4399 7.34584ZM24.0961 13.4978L8.45802 28.6629C8.24127 28.8731 7.96521 29.0164 7.66461 29.0747L3.1071 29.9586L4.01867 25.5389C4.07875 25.2474 4.22641 24.9797 4.44316 24.7695L20.0812 9.60439L24.0961 13.4978Z" fill="#0F0F0F"/>
</svg>
