<svg width="35" height="35" viewBox="0 0 35 35" fill="none" xmlns="http://www.w3.org/2000/svg">
<g id="edit-3_svgrepo.com">
<path id="Vector" d="M31.0337 9.33342L17.1212 23.2458C15.7358 24.6313 11.6232 25.2729 10.7045 24.3542C9.78572 23.4354 10.4128 19.3229 11.7982 17.9375L25.7253 4.01046C26.0688 3.63575 26.4846 3.33455 26.9477 3.12499C27.4107 2.91542 27.9115 2.80182 28.4198 2.79112C28.9278 2.78043 29.433 2.8728 29.9045 3.06269C30.376 3.25258 30.8041 3.53608 31.163 3.89599C31.5219 4.25591 31.8043 4.6848 31.9928 5.15681C32.1814 5.62883 32.2725 6.13414 32.2604 6.6423C32.2483 7.15045 32.1333 7.65094 31.9225 8.11345C31.7117 8.57596 31.4093 8.99099 31.0337 9.33342Z" stroke="black" stroke-width="3.75" stroke-linecap="round" stroke-linejoin="round"/>
<path id="Vector_2" d="M16.041 5.83325H8.74935C7.20225 5.83325 5.71861 6.44782 4.62464 7.54179C3.53069 8.63576 2.91602 10.1195 2.91602 11.6666V26.2499C2.91602 27.7971 3.53069 29.2808 4.62464 30.3747C5.71861 31.4687 7.20225 32.0833 8.74935 32.0833H24.791C28.0139 32.0833 29.166 29.4583 29.166 26.2499V18.9583" stroke="black" stroke-width="3.75" stroke-linecap="round" stroke-linejoin="round"/>
</g>
</svg>
