<svg width="176" height="189" viewBox="0 0 176 189" fill="none" xmlns="http://www.w3.org/2000/svg">
<g id="freepik--Mailbox--inject-25">
<g id="freepik--mailbox--inject-25">
<path id="Vector" d="M28.9928 173.546V169.449H30.0045C31.1828 167.059 33.384 164.808 36.6356 162.935C46.8353 157.043 63.3716 157.043 73.5713 162.935C76.8286 164.808 79.0297 167.059 80.2081 169.449H81.2086V173.412C81.292 177.303 78.7518 181.266 73.5713 184.257C63.3716 190.143 46.8353 190.143 36.6356 184.257C31.5163 181.3 28.9706 177.42 28.9928 173.546Z" fill="#263238"/>
<path id="Vector_2" d="M73.5991 158.783C63.3994 152.897 46.8631 152.897 36.6634 158.783C26.4637 164.669 26.4637 174.219 36.6634 180.111C46.8631 186.003 63.3994 185.997 73.5991 180.111C83.7988 174.224 83.771 164.675 73.5991 158.783Z" fill="#455A64"/>
<path id="Vector_3" d="M61.8319 95.9282V167.632C61.8319 168.621 61.176 169.616 59.8642 170.372C57.2406 171.89 52.9829 171.89 50.3593 170.372C49.0475 169.616 48.3916 168.621 48.3916 167.632V95.9282H61.8319Z" fill="#37474F"/>
<path id="Vector_4" d="M48.3862 112.881V117.739L61.832 125.488V120.663L48.3862 112.881Z" fill="#263238"/>
<path id="Vector_5" d="M124.914 49.5764L123.769 51.872L111.457 76.5514L105.615 88.2797L85.8275 127.933L83.6486 132.302C83.5189 132.302 83.3911 132.302 83.2651 132.302C82.4884 132.312 81.7225 132.12 81.0417 131.746L2.22337 86.1675C1.57712 85.7469 1.03906 85.18 0.652772 84.5127C0.266489 83.8454 0.0428562 83.0965 0 82.3266V48.3647C0 31.3837 11.178 11.1677 24.9795 3.19698C31.544 -0.577188 37.4693 -0.8829 41.916 1.61283V1.57948L124.914 49.5764Z" fill="#455A64"/>
<path id="Vector_6" d="M108.267 51.3716C102.708 53.4338 82.4312 70.1701 82.4312 96.5226C82.4312 118.678 82.4589 130.179 82.4645 132.247C82.7344 132.293 83.0077 132.317 83.2816 132.319C83.4113 132.319 83.5391 132.319 83.6651 132.319L85.844 127.95L105.615 88.2962L111.457 76.5734L112.797 73.8887L108.267 51.3716Z" fill="#37474F"/>
<path id="Vector_7" d="M132.162 104.472C131.93 104.835 131.616 105.14 131.245 105.361L131.017 105.505L85.5049 131.78C84.9398 132.087 84.313 132.264 83.6706 132.297C83.5409 132.297 83.4131 132.297 83.2871 132.297V96.5008C83.2871 90.3866 84.7434 83.8721 87.2447 77.6411L89.4681 78.9418L105.587 88.2577L130.639 102.71L131.923 103.449C132.017 103.49 132.099 103.552 132.164 103.63C132.23 103.709 132.276 103.801 132.299 103.9C132.322 104 132.322 104.103 132.298 104.202C132.274 104.301 132.228 104.394 132.162 104.472Z" fill="#37474F"/>
<path id="Vector_8" d="M124.914 49.5821C120.501 47.2642 114.665 47.67 108.267 51.3719C101.091 55.5018 94.6154 62.9723 90.0686 71.5656C89.0161 73.5513 88.0717 75.5923 87.2393 77.6799C84.738 83.9108 83.2817 90.4309 83.2817 96.5396V132.336C83.4114 132.336 83.5393 132.336 83.6653 132.336C84.3077 132.303 84.9345 132.126 85.4995 131.819L131.012 105.544L131.24 105.4C131.588 105.15 131.897 104.851 132.157 104.51C132.798 103.721 133.172 102.747 133.224 101.731V67.6858C133.23 58.5867 130.017 52.2612 124.914 49.5821ZM130.006 103.11L86.5112 128.223C86.1443 128.434 85.8442 128.261 85.8442 127.839V96.5229C85.8442 91.059 87.1059 85.0003 89.4849 78.9639C89.5236 78.8468 89.5681 78.7318 89.6183 78.6192C90.4983 76.4095 91.5099 74.2546 92.6477 72.1659C97.0666 64.0006 103.109 57.2916 109.551 53.5897C112.858 51.672 115.993 50.7049 118.861 50.7049C120.569 50.6846 122.255 51.0876 123.769 51.8777C128.121 54.1956 130.667 59.8262 130.667 67.6858V101.998C130.649 102.221 130.58 102.438 130.466 102.631C130.351 102.823 130.194 102.987 130.006 103.11Z" fill="#455A64"/>
<path id="Vector_9" d="M175.401 141.89V138.761H175.107V139.206C174.917 138.336 174.644 137.487 174.29 136.671C172.622 132.836 169.181 129.156 163.89 126.11L134.458 109.118C133.769 108.768 133.007 108.585 132.235 108.585C131.462 108.585 130.7 108.768 130.011 109.118L84.9881 135.098C84.4281 134.654 83.9454 134.121 83.5596 133.519V136.677C83.5847 136.953 83.6829 137.217 83.8441 137.443C84.0053 137.669 84.2236 137.847 84.4767 137.961L113.936 154.947C121.813 159.499 132.112 161.734 142.09 161.617C150.722 161.506 159.115 159.616 165.513 155.92C172.127 152.118 175.39 147.071 175.39 141.918L175.401 141.89Z" fill="#263238"/>
<path id="Vector_10" d="M174.29 136.671C172.622 132.836 169.182 129.156 163.89 126.11L134.458 109.118C133.769 108.768 133.008 108.585 132.235 108.585C131.462 108.585 130.7 108.768 130.011 109.118L84.9883 135.098L113.892 151.773C121.768 156.326 132.068 158.56 142.045 158.443C150.678 158.327 159.071 156.442 165.469 152.746C171.405 149.328 174.651 144.914 175.246 140.317C175.106 139.062 174.784 137.834 174.29 136.671Z" fill="#455A64"/>
<path id="Vector_11" d="M175.318 140.312C175.162 139.056 174.823 137.829 174.312 136.671C172.645 132.836 169.204 129.156 163.912 126.11L134.48 109.118C133.792 108.768 133.03 108.586 132.257 108.586C131.484 108.586 130.723 108.768 130.034 109.118L85.0105 135.098L84.4992 134.809C83.2763 134.098 83.2763 132.953 84.4992 132.247L130.011 105.967C130.7 105.617 131.462 105.434 132.235 105.434C133.008 105.434 133.769 105.617 134.458 105.967L163.89 122.959C169.182 126.016 172.645 129.695 174.29 133.52C174.83 134.757 175.181 136.069 175.329 137.411C175.441 138.375 175.437 139.349 175.318 140.312Z" fill="#37474F"/>
<path id="Vector_12" d="M130.667 67.6855V102.748L89.4849 78.9635C89.5235 78.8465 89.5681 78.7315 89.6183 78.6189C94.0317 67.5855 101.48 58.2306 109.551 53.606C112.858 51.6884 115.993 50.7212 118.861 50.7212C126.143 50.7045 130.667 57.2079 130.667 67.6855Z" fill="#263238"/>
<path id="Vector_13" d="M56.5181 94.5718L60.1421 92.4819H60.1699C61.4095 91.7815 63.1159 91.8871 65.0002 92.9766C68.791 95.1666 71.8649 100.492 71.8649 104.872C71.8649 107.056 71.0978 108.596 69.8638 109.318L66.4954 111.247L65.884 110.23C65.1929 110.076 64.5294 109.817 63.9163 109.463C60.1255 107.273 57.0461 101.948 57.0461 97.5678C57.0476 96.9776 57.1204 96.3897 57.2629 95.8169L56.5181 94.5718Z" fill="#E0E0E0"/>
<path id="Vector_14" d="M61.5147 94.9663C65.3056 97.1563 68.3849 102.481 68.3849 106.861C68.3849 111.241 65.3056 113.015 61.5147 110.824C57.7239 108.634 54.6445 103.31 54.6445 98.9295C54.6445 94.5494 57.7183 92.7763 61.5147 94.9663Z" fill="#FAFAFA"/>
<path id="Vector_15" d="M61.5148 104.777C60.9871 104.777 60.4809 104.567 60.1077 104.194C59.7346 103.821 59.5249 103.315 59.5249 102.787V46.4914C59.5249 45.9636 59.7346 45.4575 60.1077 45.0843C60.4809 44.7111 60.9871 44.5015 61.5148 44.5015C62.0426 44.5015 62.5487 44.7111 62.9219 45.0843C63.2951 45.4575 63.5047 45.9636 63.5047 46.4914V102.793C63.5033 103.319 63.293 103.824 62.9199 104.196C62.5469 104.568 62.0416 104.777 61.5148 104.777Z" fill="#EBEBEB"/>
<path id="Vector_16" d="M59.525 52.0556L39.5703 40.5386L45.818 52.5503L39.5703 57.3583L59.525 68.8754V52.0556Z" fill="#3CA55C"/>
</g>
</g>
</svg>
