<svg width="823" height="529" viewBox="0 0 823 529" fill="none" xmlns="http://www.w3.org/2000/svg">
<path d="M78.2476 105.518L178.616 72.3588L101.732 128.145L78.2476 105.518Z" fill="#6E9E7C"/>
<path d="M178.615 72.3597L70.333 91.8603L46.8481 69.2144L178.615 72.3597Z" fill="#6E9E7C"/>
<path d="M70.3329 91.8598L70.6337 119.329L78.2472 105.519L178.615 72.3592L70.3329 91.8598Z" fill="#455A64"/>
<path d="M70.6337 119.329L86.0755 113.068L78.2472 105.519L70.6337 119.329Z" fill="#6E9E7C"/>
<path d="M78.2476 105.519L86.0759 113.068L83.6065 114.051L78.2476 105.519Z" fill="#455A64"/>
<path d="M53.8976 115.372C53.577 115.382 53.2624 115.281 53.0044 115.086C52.7464 114.891 52.56 114.612 52.4751 114.296C52.3902 113.979 52.4117 113.642 52.5363 113.34C52.6608 113.037 52.881 112.786 53.1617 112.627C54.8678 111.632 56.593 110.637 58.3014 109.857C58.4707 109.761 58.6572 109.701 58.8497 109.681C59.0423 109.661 59.2369 109.681 59.4217 109.74C59.6065 109.799 59.7777 109.895 59.9249 110.024C60.0722 110.153 60.1924 110.311 60.2784 110.488C60.3643 110.666 60.4141 110.859 60.4248 111.057C60.4355 111.255 60.4069 111.453 60.3407 111.639C60.2745 111.825 60.1721 111.996 60.0397 112.14C59.9072 112.284 59.7475 112.4 59.5702 112.479C57.9196 113.317 56.2315 114.214 54.5824 115.189C54.3714 115.304 54.1368 115.367 53.8976 115.372Z" fill="#E0E0E0"/>
<path d="M38.0174 273.232C37.7251 273.238 37.4379 273.153 37.1944 272.987C34.0675 270.783 31.1014 268.348 28.3197 265.704C28.144 265.59 27.9947 265.438 27.8821 265.259C27.7695 265.08 27.6964 264.878 27.6679 264.667C27.6394 264.456 27.6561 264.241 27.717 264.038C27.7778 263.834 27.8812 263.647 28.0201 263.489C28.159 263.33 28.3299 263.205 28.5211 263.121C28.7122 263.037 28.9189 262.997 29.1268 263.003C29.3347 263.009 29.5387 263.062 29.7248 263.157C29.9108 263.253 30.0743 263.388 30.204 263.555C32.8871 266.105 35.7503 268.449 38.7704 270.568C39.0194 270.746 39.2065 271.001 39.3048 271.295C39.4031 271.589 39.4075 271.907 39.3173 272.204C39.227 272.501 39.0469 272.76 38.803 272.945C38.559 273.13 38.2638 273.23 37.9602 273.232L38.0174 273.232ZM22.9065 259.183C22.6953 259.188 22.4858 259.144 22.2933 259.055C22.1008 258.966 21.9303 258.833 21.7943 258.668C19.3578 255.692 17.1362 252.538 15.1473 249.232C14.9463 248.9 14.8823 248.5 14.9694 248.12C15.0565 247.74 15.2875 247.411 15.6116 247.206C15.9357 247 16.3263 246.935 16.6976 247.024C17.0689 247.114 17.3904 247.35 17.5913 247.682C19.5073 250.87 21.6446 253.914 23.9868 256.789C24.2283 257.085 24.3461 257.466 24.3146 257.85C24.2831 258.235 24.1048 258.591 23.8185 258.841C23.5654 259.065 23.2411 259.186 22.9065 259.183ZM11.9724 241.535C11.6953 241.54 11.4225 241.464 11.1872 241.314C10.9518 241.164 10.7641 240.947 10.6467 240.69C9.04922 237.173 7.67147 233.555 6.52176 229.86C6.43641 229.5 6.4874 229.12 6.66447 228.798C6.84153 228.475 7.13152 228.233 7.47607 228.12C7.82061 228.007 8.19413 228.033 8.52144 228.19C8.84875 228.348 9.10555 228.627 9.24016 228.971C10.3339 232.545 11.6467 236.046 13.1705 239.452C13.2524 239.626 13.2996 239.816 13.3095 240.009C13.3193 240.203 13.2916 240.396 13.228 240.578C13.1643 240.76 13.066 240.928 12.9387 241.071C12.8113 241.214 12.6575 241.33 12.4861 241.412C12.3246 241.487 12.1499 241.529 11.9724 241.535ZM5.55448 221.67C5.22358 221.67 4.90267 221.553 4.64639 221.339C4.39011 221.125 4.21431 220.826 4.14892 220.494C3.37919 216.709 2.82133 212.882 2.47807 209.031C2.44346 208.643 2.56086 208.257 2.80445 207.958C3.04804 207.659 3.39786 207.471 3.77696 207.436C4.15606 207.4 4.53338 207.521 4.82591 207.77C5.11844 208.02 5.30223 208.378 5.33684 208.766C5.65844 212.505 6.19604 216.222 6.94682 219.897C6.98764 220.085 6.99125 220.28 6.95744 220.47C6.92364 220.659 6.85309 220.84 6.74997 221.001C6.64684 221.162 6.51322 221.301 6.35697 221.408C6.20073 221.516 6.02501 221.59 5.84018 221.627L5.55448 221.67ZM3.51394 200.839C3.32531 200.841 3.13816 200.805 2.96354 200.731C2.78892 200.658 2.63037 200.55 2.49727 200.413C2.36416 200.276 2.2592 200.114 2.18858 199.935C2.11795 199.756 2.0831 199.564 2.08609 199.371C2.08839 195.506 2.30086 191.645 2.72254 187.805C2.72246 187.599 2.76482 187.395 2.84682 187.207C2.92883 187.02 3.04864 186.851 3.19845 186.714C3.34826 186.577 3.5247 186.473 3.71625 186.411C3.9078 186.348 4.11015 186.327 4.3101 186.35C4.51005 186.372 4.70311 186.438 4.87667 186.542C5.05023 186.646 5.20038 186.787 5.31735 186.954C5.43431 187.122 5.51545 187.313 5.55546 187.515C5.59548 187.716 5.59347 187.924 5.54957 188.125C5.1494 191.862 4.94853 195.619 4.94786 199.378C4.94747 199.571 4.91008 199.761 4.83781 199.939C4.76554 200.116 4.65981 200.277 4.52665 200.413C4.3935 200.549 4.23553 200.656 4.06176 200.729C3.888 200.802 3.70185 200.84 3.51394 200.839ZM5.61345 180.022C5.50635 180.042 5.39667 180.043 5.28916 180.025C4.91961 179.945 4.59591 179.719 4.38865 179.396C4.1814 179.072 4.10741 178.678 4.18282 178.3C4.97724 174.509 6.00686 170.774 7.26543 167.117C7.32656 166.926 7.42538 166.75 7.55575 166.6C7.68611 166.45 7.84524 166.329 8.02324 166.245C8.20124 166.161 8.39431 166.115 8.59044 166.11C8.78658 166.105 8.98159 166.142 9.16337 166.218C9.34816 166.283 9.51822 166.385 9.66333 166.519C9.80843 166.653 9.92559 166.816 10.0078 166.997C10.0899 167.179 10.1354 167.375 10.1415 167.575C10.1476 167.775 10.1141 167.974 10.0432 168.16C8.83007 171.696 7.83734 175.307 7.07093 178.971C6.98019 179.289 6.7866 179.566 6.52184 179.757C6.25708 179.948 5.93682 180.041 5.61345 180.022ZM12.1884 160.229C11.9685 160.24 11.75 160.189 11.5572 160.08C11.3856 160 11.2313 159.886 11.1034 159.745C10.9754 159.603 10.8764 159.437 10.8122 159.256C10.748 159.075 10.7199 158.882 10.7295 158.69C10.7391 158.497 10.7862 158.308 10.8682 158.135C12.495 154.638 14.3311 151.246 16.3658 147.98C16.571 147.675 16.8813 147.462 17.2344 147.382C17.5875 147.302 17.9571 147.362 18.2689 147.549C18.5736 147.753 18.7895 148.07 18.8717 148.433C18.9539 148.796 18.8959 149.177 18.71 149.497C16.732 152.652 14.9519 155.932 13.3803 159.318C13.2843 159.568 13.1219 159.786 12.9113 159.947C12.7007 160.108 12.4503 160.206 12.1884 160.229ZM22.9644 142.538C22.6454 142.545 22.3339 142.438 22.0835 142.236C21.9335 142.118 21.8079 141.97 21.7139 141.802C21.6199 141.634 21.5595 141.448 21.5361 141.256C21.5127 141.064 21.5268 140.868 21.5776 140.682C21.6284 140.495 21.7148 140.321 21.832 140.169C24.1827 137.129 26.6987 134.226 29.3679 131.476C29.6332 131.199 29.9951 131.04 30.3742 131.036C30.7533 131.032 31.1187 131.182 31.3899 131.453C31.6608 131.725 31.8154 132.096 31.8197 132.484C31.8239 132.872 31.6775 133.245 31.4126 133.523C28.842 136.206 26.4147 139.028 24.1411 141.979C23.9952 142.148 23.8127 142.279 23.6082 142.363C23.4038 142.446 23.183 142.48 22.9636 142.46L22.9644 142.538ZM37.1451 127.388C36.9371 127.39 36.7312 127.344 36.5423 127.255C36.3533 127.166 36.1859 127.036 36.052 126.873C35.8071 126.576 35.6855 126.193 35.7133 125.806C35.7412 125.418 35.9163 125.058 36.201 124.801C39.0779 122.298 42.0767 119.945 45.1858 117.752C45.4912 117.555 45.8578 117.484 46.2123 117.553C46.5668 117.622 46.8831 117.825 47.0976 118.121C47.3141 118.443 47.3978 118.84 47.3306 119.224C47.2633 119.609 47.0506 119.951 46.7386 120.176C43.7051 122.309 40.7819 124.603 37.9808 127.047C37.7433 127.246 37.4514 127.365 37.1451 127.388Z" fill="#E0E0E0"/>
<path d="M51.2249 280.722C51.0202 280.725 50.8174 280.681 50.6321 280.592C48.8491 279.791 47.0845 278.932 45.3956 278.013C45.2305 277.926 45.0837 277.807 44.9635 277.663C44.8434 277.518 44.7522 277.351 44.6953 277.17C44.6384 276.989 44.6169 276.799 44.6319 276.61C44.6469 276.42 44.6982 276.236 44.7829 276.067C44.9573 275.73 45.2536 275.475 45.6087 275.358C45.9638 275.241 46.3496 275.271 46.6838 275.441C48.3341 276.321 50.0413 277.162 51.7669 277.943C52.0628 278.08 52.3045 278.316 52.4522 278.612C52.5999 278.908 52.6448 279.247 52.5796 279.572C52.5143 279.898 52.3428 280.191 52.0932 280.403C51.8436 280.616 51.5308 280.735 51.2061 280.741L51.2249 280.722Z" fill="#E0E0E0"/>
<path d="M702.93 202.727L783.04 148.975L818.706 160.261L702.93 202.727Z" fill="#6E9E7C"/>
<path d="M702.929 202.727L772.018 142.458L756.309 124.315L702.929 202.727Z" fill="#6E9E7C"/>
<path d="M772.018 142.457L772.169 156.26L702.93 202.727L772.018 142.457Z" fill="#455A64"/>
<path d="M787.693 136.526C787.347 136.531 787.011 136.402 786.754 136.165C786.469 135.91 786.293 135.55 786.264 135.164C786.235 134.777 786.355 134.395 786.598 134.097C789.051 131.234 791.221 128.13 793.078 124.83C793.267 124.491 793.579 124.243 793.946 124.14C794.314 124.038 794.706 124.088 795.037 124.281C795.368 124.475 795.611 124.794 795.711 125.17C795.812 125.546 795.763 125.948 795.574 126.287C793.614 129.746 791.337 133.007 788.775 136.026C788.64 136.184 788.473 136.31 788.287 136.396C788.1 136.483 787.898 136.527 787.693 136.526ZM798.405 118.211C798.234 118.241 798.061 118.243 797.89 118.217C797.708 118.148 797.542 118.043 797.402 117.907C797.261 117.77 797.149 117.607 797.072 117.425C796.995 117.243 796.955 117.048 796.954 116.85C796.954 116.652 796.992 116.456 797.067 116.273C798.376 112.703 799.345 109.011 799.961 105.249C800.025 104.865 800.235 104.523 800.546 104.298C800.856 104.073 801.242 103.984 801.617 104.05C801.992 104.115 802.326 104.331 802.546 104.649C802.766 104.967 802.854 105.361 802.79 105.745C802.13 109.687 801.105 113.556 799.73 117.299C799.625 117.57 799.442 117.803 799.206 117.965C798.969 118.128 798.69 118.214 798.405 118.211ZM802.257 97.2185C802.07 97.2181 801.885 97.1796 801.713 97.1053C801.54 97.031 801.384 96.9223 801.253 96.7857C801.122 96.6491 801.019 96.4871 800.949 96.3093C800.88 96.1316 800.846 95.9414 800.849 95.75C800.843 95.2424 800.838 94.7349 800.832 94.2273C800.787 90.9129 800.496 87.6068 799.961 84.3375C799.901 83.9528 799.992 83.5599 800.214 83.2433C800.435 82.9268 800.769 82.712 801.144 82.6454C801.519 82.5901 801.901 82.6853 802.209 82.9112C802.517 83.137 802.728 83.4761 802.798 83.8574C803.351 87.2756 803.65 90.7317 803.693 94.1959C803.699 94.723 803.705 95.2502 803.711 95.7773C803.7 96.1641 803.542 96.5313 803.271 96.8005C802.999 97.0698 802.635 97.2198 802.257 97.2185ZM799.145 76.0873C798.838 76.0896 798.539 75.9894 798.292 75.8018C798.046 75.6142 797.866 75.3495 797.779 75.0479C796.645 71.3967 795.234 67.8413 793.561 64.4138C793.475 64.2421 793.424 64.0546 793.41 63.8623C793.396 63.6701 793.42 63.477 793.481 63.2943C793.541 63.1117 793.636 62.9433 793.761 62.799C793.886 62.6547 794.038 62.5375 794.207 62.4542C794.547 62.2826 794.939 62.256 795.298 62.3802C795.658 62.5044 795.954 62.7692 796.122 63.1166C797.868 66.6782 799.331 70.3774 800.498 74.1785C800.556 74.3612 800.577 74.5537 800.561 74.745C800.545 74.9362 800.492 75.1222 800.405 75.2922C800.318 75.4622 800.199 75.6128 800.055 75.7351C799.91 75.8574 799.743 75.949 799.564 76.0046C799.431 76.0602 799.289 76.0883 799.145 76.0873ZM790.082 56.798C789.841 56.8029 789.603 56.7437 789.391 56.6262C789.179 56.5088 789 56.3371 788.873 56.1279C786.792 52.9374 784.509 49.8903 782.038 47.0063C781.913 46.8617 781.818 46.6933 781.757 46.5109C781.696 46.3284 781.671 46.1354 781.683 45.9429C781.695 45.7505 781.744 45.5624 781.827 45.3895C781.91 45.2165 782.026 45.0622 782.168 44.9352C782.308 44.8082 782.471 44.7109 782.647 44.6488C782.824 44.5867 783.011 44.5612 783.198 44.5737C783.384 44.5862 783.566 44.6364 783.734 44.7215C783.901 44.8066 784.05 44.9249 784.173 45.0695C786.738 48.0546 789.105 51.2119 791.259 54.5202C791.438 54.8397 791.497 55.2156 791.423 55.5764C791.35 55.9371 791.15 56.2577 790.86 56.4771C790.634 56.6514 790.364 56.7559 790.082 56.7785L790.082 56.798ZM776.549 40.5255C776.185 40.5283 775.834 40.3849 775.572 40.1262C772.796 37.5251 769.884 35.0801 766.849 32.8021C766.698 32.6884 766.569 32.5452 766.472 32.3808C766.374 32.2164 766.309 32.034 766.281 31.8439C766.252 31.6539 766.26 31.4599 766.305 31.2731C766.349 31.0863 766.43 30.9104 766.541 30.7553C766.652 30.6003 766.791 30.4691 766.952 30.3694C767.113 30.2697 767.291 30.2033 767.477 30.174C767.662 30.1448 767.852 30.1533 768.034 30.199C768.217 30.2448 768.389 30.3268 768.54 30.4405C771.667 32.7784 774.663 35.2944 777.513 37.9766C777.728 38.1756 777.878 38.4362 777.945 38.7243C778.011 39.0124 777.991 39.3144 777.887 39.5904C777.782 39.8665 777.599 40.1036 777.36 40.2705C777.121 40.4374 776.838 40.5263 776.549 40.5255ZM759.677 27.7065C759.406 27.7068 759.141 27.6285 758.912 27.4805C757.606 26.6748 756.242 25.8697 754.86 25.0843C752.941 24.0119 751.021 22.9395 748.988 21.9269C748.802 21.8532 748.634 21.7407 748.493 21.5967C748.353 21.4526 748.243 21.2802 748.171 21.0904C748.099 20.9005 748.067 20.6975 748.076 20.4941C748.085 20.2908 748.136 20.0917 748.224 19.9094C748.313 19.7272 748.437 19.5659 748.59 19.4358C748.743 19.3057 748.921 19.2097 749.112 19.1539C749.303 19.0981 749.504 19.0837 749.701 19.1116C749.898 19.1395 750.087 19.2092 750.256 19.3162C752.271 20.3485 754.286 21.4198 756.244 22.5308C757.664 23.3158 759.047 24.1403 760.392 24.9846C760.702 25.1827 760.927 25.4948 761.019 25.8569C761.112 26.219 761.066 26.6036 760.89 26.9317C760.769 27.1559 760.594 27.3447 760.382 27.4803C760.17 27.6159 759.927 27.6937 759.677 27.7065ZM588.654 28.5838C588.402 28.5837 588.154 28.5166 587.935 28.3888C587.717 28.2611 587.534 28.0773 587.406 27.8555C587.221 27.5278 587.17 27.1392 587.262 26.7732C587.354 26.4071 587.583 26.0928 587.899 25.8975C591.197 23.9089 594.59 21.9192 598.025 20.2415C598.362 20.0686 598.753 20.0391 599.112 20.1595C599.47 20.2799 599.768 20.5404 599.94 20.8844C600.103 21.233 600.126 21.6327 600.005 21.9986C599.885 22.3645 599.629 22.6678 599.294 22.844C595.917 24.5796 592.579 26.432 589.339 28.4005C589.126 28.5092 588.89 28.5589 588.653 28.5447L588.654 28.5838ZM740.97 17.9925C740.771 17.996 740.575 17.9513 740.396 17.8621C736.946 16.3574 733.382 14.9516 729.82 13.702C729.459 13.5739 729.163 13.3044 728.996 12.9529C728.83 12.6014 728.806 12.1965 728.931 11.8275C729.056 11.4585 729.319 11.1554 729.663 10.9851C730.006 10.8147 730.402 10.7909 730.762 10.919C734.382 12.2071 738.003 13.6319 741.531 15.1748C741.838 15.3046 742.092 15.54 742.248 15.8404C742.405 16.1409 742.454 16.4877 742.387 16.8212C742.321 17.1546 742.143 17.454 741.885 17.6678C741.626 17.8815 741.303 17.9964 740.97 17.9925ZM607.339 18.8508C607.057 18.8558 606.78 18.7744 606.544 18.6169C606.307 18.4594 606.122 18.2331 606.013 17.9672C605.933 17.789 605.888 17.5962 605.882 17.4001C605.876 17.2041 605.909 17.0088 605.978 16.826C606.047 16.6431 606.152 16.4763 606.285 16.3356C606.418 16.1948 606.578 16.0829 606.754 16.0065C610.267 14.4451 613.876 12.9997 617.486 11.6911C617.667 11.6118 617.863 11.5718 618.06 11.5735C618.257 11.5752 618.452 11.6186 618.632 11.701C618.812 11.7834 618.973 11.9029 619.106 12.0522C619.239 12.2014 619.34 12.3771 619.404 12.5682C619.475 12.7557 619.509 12.9559 619.503 13.1569C619.498 13.358 619.453 13.5559 619.371 13.7389C619.29 13.9219 619.173 14.0862 619.028 14.2221C618.884 14.3581 618.714 14.4629 618.528 14.5303C614.975 15.8189 611.404 17.2443 607.967 18.7658C607.763 18.8264 607.549 18.842 607.338 18.8118L607.339 18.8508ZM721.203 10.848C721.071 10.8684 720.936 10.8699 720.803 10.8524C717.186 9.81813 713.475 8.98013 709.784 8.10287C709.599 8.06387 709.424 7.98804 709.268 7.87973C709.112 7.77141 708.978 7.63273 708.875 7.47159C708.771 7.31046 708.7 7.13003 708.664 6.9406C708.629 6.75118 708.63 6.55647 708.668 6.3676C708.706 6.17872 708.78 5.99937 708.886 5.83979C708.991 5.68022 709.127 5.54355 709.284 5.43757C709.442 5.3316 709.618 5.25839 709.803 5.22215C709.988 5.1859 710.178 5.18732 710.363 5.22632C714.187 6.02402 717.899 6.97916 721.573 8.03233C721.905 8.1274 722.192 8.34171 722.382 8.63592C722.572 8.93012 722.651 9.28447 722.607 9.63392C722.562 9.98337 722.395 10.3045 722.137 10.5382C721.88 10.772 721.548 10.9028 721.204 10.9066L721.203 10.848ZM627.062 11.5862C626.75 11.5884 626.446 11.4861 626.196 11.295C625.946 11.1039 625.763 10.8343 625.677 10.5275C625.623 10.3447 625.604 10.1528 625.623 9.96278C625.641 9.77275 625.696 9.5884 625.785 9.42039C625.874 9.25237 625.994 9.10403 626.139 8.98393C626.284 8.86383 626.451 8.77436 626.63 8.72071C630.3 7.62615 634.067 6.68673 637.816 5.78656C638.006 5.72227 638.206 5.6994 638.405 5.71942C638.604 5.73943 638.797 5.8019 638.971 5.90278C639.145 6.00366 639.296 6.14071 639.415 6.30511C639.534 6.46951 639.618 6.6576 639.662 6.85726C639.706 7.05692 639.708 7.26372 639.669 7.46432C639.63 7.66493 639.55 7.85487 639.435 8.02194C639.32 8.189 639.171 8.32947 639 8.43427C638.828 8.53908 638.637 8.60591 638.438 8.63044C634.746 9.47141 631.056 10.449 627.443 11.5234L627.062 11.5862ZM700.703 6.36696L700.417 6.37009C696.69 5.80562 692.889 5.35913 689.146 5.04866C688.949 5.04861 688.754 5.0069 688.574 4.92615C688.393 4.8454 688.231 4.72734 688.097 4.57939C687.963 4.43143 687.86 4.25677 687.795 4.06633C687.73 3.87589 687.704 3.67378 687.719 3.4727C687.734 3.27161 687.79 3.07587 687.882 2.89774C687.974 2.71961 688.101 2.56294 688.256 2.43754C688.41 2.31215 688.588 2.22073 688.778 2.16901C688.969 2.1173 689.168 2.10642 689.362 2.13704C693.181 2.44667 697.002 2.89296 700.824 3.47591C701.197 3.53886 701.531 3.74819 701.755 4.05935C701.979 4.37051 702.076 4.75893 702.025 5.14192C701.961 5.45859 701.797 5.74475 701.558 5.95576C701.318 6.16677 701.018 6.29075 700.702 6.30839L700.703 6.36696ZM647.5 6.81297C647.16 6.81653 646.83 6.69631 646.569 6.47381C646.308 6.2513 646.133 5.94103 646.074 5.59849C646.015 5.21383 646.106 4.82084 646.328 4.50428C646.549 4.18773 646.883 3.97299 647.258 3.90636C651.067 3.27889 654.876 2.74903 658.688 2.37536C658.875 2.35664 659.065 2.37594 659.245 2.43216C659.426 2.48838 659.594 2.58041 659.739 2.70301C659.885 2.82561 660.006 2.97638 660.095 3.1467C660.183 3.31702 660.239 3.50354 660.257 3.69565C660.275 3.88775 660.257 4.08167 660.202 4.26631C660.147 4.45096 660.057 4.62273 659.937 4.77181C659.818 4.92088 659.671 5.04436 659.504 5.13517C659.338 5.22598 659.156 5.28236 658.968 5.30108C655.156 5.67475 651.442 6.16452 647.728 6.81046L647.5 6.81297ZM679.811 4.50657C675.995 4.41169 672.179 4.43395 668.461 4.63087C668.274 4.64348 668.086 4.61712 667.908 4.5534C667.731 4.48968 667.568 4.38991 667.43 4.26009C667.291 4.13027 667.179 3.97308 667.102 3.798C667.024 3.62292 666.981 3.43355 666.977 3.24131C666.967 3.04843 666.995 2.85553 667.06 2.67401C667.124 2.49248 667.223 2.326 667.352 2.18444C667.48 2.04287 667.635 1.92908 667.807 1.84979C667.979 1.7705 668.164 1.72732 668.353 1.7228C672.167 1.54436 675.982 1.5221 679.798 1.59745C679.986 1.60045 680.172 1.64133 680.345 1.71775C680.517 1.79417 680.673 1.90462 680.804 2.04281C680.935 2.181 681.038 2.3442 681.107 2.52311C681.176 2.70201 681.21 2.8931 681.207 3.08545C681.183 3.45199 681.027 3.79623 680.769 4.05153C680.511 4.30684 680.17 4.45507 679.811 4.46753L679.811 4.50657Z" fill="#E0E0E0"/>
<path d="M675.106 231.578L675.072 228.455L674.328 228.463C673.172 226.359 671.434 224.653 669.333 223.558C665.046 221.391 660.322 220.288 655.542 220.341C650.763 220.393 646.063 221.599 641.826 223.859C639.749 225 638.049 226.744 636.939 228.872L636.195 228.88L636.229 231.906C636.261 234.893 638.202 237.879 642.042 240.121C646.331 242.278 651.055 243.374 655.832 243.322C660.61 243.27 665.308 242.07 669.549 239.82C673.302 237.573 675.157 234.545 675.106 231.578Z" fill="#37474F"/>
<path d="M655.759 240.166C666.495 240.048 675.141 234.805 675.072 228.454C675.002 222.103 666.243 217.05 655.508 217.168C644.772 217.286 636.126 222.529 636.196 228.88C636.265 235.231 645.024 240.284 655.759 240.166Z" fill="#455A64"/>
<path d="M649.587 132.981L650.621 227.375C650.667 227.822 650.827 228.249 651.085 228.613C651.344 228.977 651.692 229.265 652.094 229.448C653.197 230.004 654.412 230.286 655.642 230.273C656.871 230.259 658.08 229.95 659.171 229.37C659.573 229.183 659.919 228.889 660.174 228.519C660.428 228.149 660.581 227.716 660.617 227.265L659.583 132.872L649.587 132.981Z" fill="#37474F"/>
<path d="M676.225 62.0282C671.329 59.2116 666.901 59.0258 663.603 60.9559L602.217 98.1794L633.912 161.465L695.506 124.083L695.201 96.2434C695.059 83.2997 686.554 67.9874 676.225 62.0282Z" fill="#455A64"/>
<path d="M633.607 133.606L633.912 161.465L596.493 139.889L596.188 112.05C596.046 99.1059 604.302 93.4508 614.631 99.41C621.255 103.243 627.119 110.871 630.512 119.269C632.408 123.809 633.458 128.671 633.607 133.606Z" fill="#37474F"/>
<path d="M633.607 133.605L633.912 161.464L596.493 139.889L630.512 119.269C632.408 123.809 633.458 128.671 633.607 133.605Z" fill="#263238"/>
<path d="M627.512 143.221C623.987 133.145 612.741 120.147 602.393 114.208C592.045 108.268 586.549 111.589 590.074 121.665L596.474 139.909L633.912 161.485C633.912 161.485 631.056 153.296 627.512 143.221Z" fill="#455A64"/>
<path d="M652.999 134.447L650.906 133.24C650.458 133.035 649.964 132.955 649.475 133.008C648.987 133.062 648.521 133.247 648.124 133.544C646.984 134.326 646.039 135.372 645.366 136.597C644.694 137.822 644.312 139.192 644.252 140.596C644.206 141.099 644.292 141.606 644.502 142.064C644.711 142.522 645.037 142.914 645.445 143.199L647.365 144.311L647.72 143.701C648.116 143.61 648.494 143.454 648.841 143.24C649.981 142.462 650.926 141.42 651.599 140.198C652.272 138.976 652.653 137.609 652.713 136.208C652.707 135.858 652.659 135.511 652.568 135.174L652.999 134.447Z" fill="#263238"/>
<path d="M650.121 134.714C648.981 135.492 648.036 136.534 647.363 137.756C646.69 138.978 646.309 140.345 646.249 141.746C646.277 144.323 648.062 145.339 650.223 144.026C651.364 143.25 652.31 142.208 652.983 140.985C653.656 139.763 654.037 138.396 654.095 136.994C654.124 134.416 652.205 133.402 650.121 134.714Z" fill="#37474F"/>
<path d="M650.184 140.473C650.034 140.474 649.885 140.446 649.745 140.388C649.606 140.331 649.478 140.246 649.371 140.138C649.264 140.031 649.178 139.903 649.119 139.761C649.06 139.62 649.028 139.468 649.027 139.314L648.586 99.0381C648.582 98.7274 648.7 98.4281 648.912 98.2061C649.124 97.9841 649.414 97.8575 649.717 97.8542C650.021 97.8508 650.313 97.9711 650.53 98.1884C650.747 98.4057 650.871 98.7023 650.875 99.013L651.316 139.289C651.319 139.599 651.202 139.899 650.99 140.121C650.777 140.343 650.488 140.469 650.184 140.473Z" fill="#263238"/>
<path d="M650.772 100.069L650.887 110.572L661.767 98.8941L650.772 100.069Z" fill="#37474F"/>
<path d="M75.911 454.811C74.963 455.349 57.5072 460.617 50.9255 451.922C44.3438 443.227 54.9718 429.443 48.8315 424.473C42.6913 419.502 25.6928 424.726 21.4757 414.19C17.2586 403.653 29.3597 398.952 22.4137 388.348C18.0288 381.659 5.93241 378.082 6.41697 371.809C7.11786 362.644 23.5712 359.906 38.0626 369.647C52.554 379.387 59.1796 371.192 63.7314 370.478C68.2832 369.765 78.1423 371.121 78.0167 387.524C77.8911 403.926 75.911 454.811 75.911 454.811Z" fill="#6E9E7C"/>
<path d="M76.8197 431.547C76.5921 431.549 76.3712 431.469 76.1953 431.321C76.0193 431.173 75.8996 430.966 75.857 430.738C70.498 399.556 34.8744 374.7 16.4261 369.474C16.3041 369.442 16.1897 369.385 16.0898 369.306C15.9898 369.227 15.9065 369.129 15.8446 369.017C15.7828 368.904 15.7438 368.78 15.73 368.652C15.7162 368.524 15.7279 368.394 15.7643 368.271C15.8324 368.021 15.9945 367.81 16.2149 367.683C16.4354 367.556 16.6961 367.524 16.9397 367.594C35.7901 372.952 72.2416 398.502 77.742 430.405C77.7835 430.658 77.7259 430.917 77.5818 431.127C77.4378 431.337 77.2187 431.48 76.9721 431.526L76.8197 431.547Z" fill="white"/>
<path d="M34.8342 405.862C34.6245 405.867 34.4191 405.8 34.2499 405.673C34.0808 405.546 33.9573 405.365 33.8985 405.159C33.8398 404.953 33.8491 404.733 33.925 404.533C34.0009 404.333 34.1391 404.164 34.3184 404.052C34.8868 403.694 48.4176 395.404 61.8504 399.065C62.104 399.129 62.3223 399.294 62.4572 399.523C62.5921 399.753 62.6326 400.027 62.5696 400.287C62.5067 400.546 62.3456 400.77 62.1217 400.908C61.8978 401.046 61.6295 401.087 61.3758 401.022C48.7084 397.568 35.4429 405.699 35.3102 405.779C35.1627 405.853 34.9974 405.882 34.8342 405.862Z" fill="white"/>
<path d="M572.779 284.401C580.306 285.373 593.057 280.781 593.832 267.964C594.608 255.147 599.739 251.616 609.197 249.423C618.655 247.23 621.403 243.822 622.423 237.719C623.444 231.616 616.153 224.413 618.075 215.215C619.997 206.017 626.749 205.963 633.274 195.523C637.455 188.8 628.626 178.704 614.157 183.237C599.689 187.769 600.957 197.342 586.454 198.731C571.951 200.12 562.951 209.239 562.788 220.468C562.624 231.696 572.779 284.401 572.779 284.401Z" fill="#6E9E7C"/>
<path opacity="0.2" d="M572.779 284.401C580.306 285.373 593.057 280.781 593.832 267.964C594.608 255.147 599.739 251.616 609.197 249.423C618.655 247.23 621.403 243.822 622.423 237.719C623.444 231.616 616.153 224.413 618.075 215.215C619.997 206.017 626.749 205.963 633.274 195.523C637.455 188.8 628.626 178.704 614.157 183.237C599.689 187.769 600.957 197.342 586.454 198.731C571.951 200.12 562.951 209.239 562.788 220.468C562.624 231.696 572.779 284.401 572.779 284.401Z" fill="black"/>
<path d="M569.763 259.871L569.648 259.873C569.525 259.848 569.408 259.8 569.303 259.729C569.199 259.658 569.109 259.567 569.039 259.461C568.968 259.355 568.919 259.236 568.894 259.11C568.869 258.984 568.868 258.855 568.892 258.729C575.523 223.14 613.451 190.215 622.743 186.794C622.995 186.706 623.271 186.724 623.51 186.844C623.749 186.964 623.932 187.176 624.019 187.434C624.105 187.692 624.088 187.975 623.97 188.219C623.853 188.464 623.646 188.651 623.394 188.739C614.311 192.08 577.253 224.39 570.747 259.197C570.679 259.405 570.545 259.583 570.367 259.705C570.189 259.827 569.977 259.886 569.763 259.871Z" fill="white"/>
<path d="M79.9485 290.824C80.0223 289.063 80.5013 287.344 81.3464 285.808C82.1914 284.272 83.3788 282.962 84.8119 281.985L336.705 129.389C338.232 128.582 339.923 128.153 341.642 128.134C343.361 128.115 345.06 128.508 346.605 129.281L352.231 132.538C353.688 133.481 354.906 134.764 355.785 136.282C356.664 137.799 357.179 139.509 357.286 141.269L359.465 340.169C359.386 341.929 358.906 343.646 358.061 345.181C357.216 346.716 356.031 348.027 354.601 349.008L102.708 501.584C101.18 502.4 99.4855 502.835 97.7619 502.854C96.0382 502.873 94.3344 502.475 92.7889 501.693L87.1827 498.454C85.7306 497.506 84.5165 496.222 83.6382 494.705C82.76 493.188 82.2423 491.482 82.1268 489.723L79.9485 290.824Z" fill="#6E9E7C"/>
<path opacity="0.3" d="M79.9485 290.824C80.0223 289.063 80.5013 287.344 81.3464 285.808C82.1914 284.272 83.3788 282.962 84.8119 281.985L336.705 129.389C338.232 128.582 339.923 128.153 341.642 128.134C343.361 128.115 345.06 128.508 346.605 129.281L352.231 132.538C353.688 133.481 354.906 134.764 355.785 136.282C356.664 137.799 357.179 139.509 357.286 141.269L359.465 340.169C359.386 341.929 358.906 343.646 358.061 345.181C357.216 346.716 356.031 348.027 354.601 349.008L102.708 501.584C101.18 502.4 99.4855 502.835 97.7619 502.854C96.0382 502.873 94.3344 502.475 92.7889 501.693L87.1827 498.454C85.7306 497.506 84.5165 496.222 83.6382 494.705C82.76 493.188 82.2423 491.482 82.1268 489.723L79.9485 290.824Z" fill="black"/>
<path d="M103.269 298.456L81.3435 285.81C80.4695 287.332 79.9894 289.058 79.9485 290.824L82.1269 489.723C82.2424 491.481 82.7601 493.188 83.6383 494.704C84.5165 496.221 85.7307 497.505 87.1828 498.454L92.789 501.692C94.3344 502.474 96.0383 502.872 97.762 502.853C99.4856 502.834 101.18 502.399 102.708 501.583L105.475 499.913L103.269 298.456Z" fill="#6E9E7C"/>
<path opacity="0.5" d="M103.269 298.456L81.3435 285.81C80.4695 287.332 79.9894 289.058 79.9485 290.824L82.1269 489.723C82.2424 491.481 82.7601 493.188 83.6383 494.704C84.5165 496.221 85.7307 497.505 87.1828 498.454L92.789 501.692C94.3344 502.474 96.0383 502.872 97.762 502.853C99.4856 502.834 101.18 502.399 102.708 501.583L105.475 499.913L103.269 298.456Z" fill="black"/>
<path d="M357.286 141.269L359.465 340.169C359.42 341.99 358.907 343.767 357.976 345.32C357.258 346.627 356.283 347.768 355.113 348.671L354.923 348.79L354.601 349.008L102.708 501.584C102.227 501.94 101.665 502.166 101.076 502.241C100.487 502.315 99.8881 502.236 99.3362 502.012C98.8043 501.677 98.3722 501.199 98.0868 500.631C97.8014 500.063 97.6736 499.425 97.7174 498.788L95.5382 299.811C95.4872 299.099 95.6057 298.386 95.8833 297.731C96.161 297.077 96.5896 296.501 97.1325 296.054C97.6753 295.606 98.3161 295.3 99 295.162C99.6839 295.024 100.39 295.057 101.059 295.26L207.957 320.038L221.957 323.282C223.609 323.58 225.308 323.41 226.872 322.791C228.435 322.171 229.804 321.126 230.828 319.768L246.752 296.534L353.936 140.193C355.739 137.557 357.251 138.029 357.286 141.269Z" fill="#6E9E7C"/>
<path opacity="0.2" d="M357.286 141.269L359.465 340.169C359.42 341.99 358.907 343.767 357.976 345.32C357.258 346.627 356.283 347.768 355.113 348.671L354.923 348.79L354.601 349.008L102.708 501.584C102.227 501.94 101.665 502.166 101.076 502.241C100.487 502.315 99.8881 502.236 99.3362 502.012C98.8043 501.677 98.3722 501.199 98.0868 500.631C97.8014 500.063 97.6736 499.425 97.7174 498.788L95.5382 299.811C95.4872 299.099 95.6057 298.386 95.8833 297.731C96.161 297.077 96.5896 296.501 97.1325 296.054C97.6753 295.606 98.3161 295.3 99 295.162C99.6839 295.024 100.39 295.057 101.059 295.26L207.957 320.038L221.957 323.282C223.609 323.58 225.308 323.41 226.872 322.791C228.435 322.171 229.804 321.126 230.828 319.768L246.752 296.534L353.936 140.193C355.739 137.557 357.251 138.029 357.286 141.269Z" fill="black"/>
<path d="M354.601 349.008L354.923 348.79L355.113 348.67C356.283 347.768 357.258 346.627 357.976 345.32C358.897 343.791 359.41 342.042 359.466 340.246L246.752 296.573L322.705 368.375L354.601 349.008Z" fill="#6E9E7C"/>
<path opacity="0.6" d="M354.601 349.008L354.923 348.79L355.113 348.67C356.283 347.768 357.258 346.627 357.976 345.32C358.897 343.791 359.41 342.042 359.466 340.246L246.752 296.573L322.705 368.375L354.601 349.008Z" fill="black"/>
<path d="M97.7174 498.788C97.6516 499.437 97.7649 500.093 98.0445 500.68C98.324 501.267 98.7586 501.762 99.299 502.109C99.851 502.334 100.449 502.413 101.039 502.338C101.628 502.264 102.19 502.038 102.671 501.682L189.432 448.97L207.955 319.901L97.6804 495.41L97.7174 498.788Z" fill="#6E9E7C"/>
<path opacity="0.6" d="M97.7174 498.788C97.6516 499.437 97.7649 500.093 98.0445 500.68C98.324 501.267 98.7586 501.762 99.299 502.109C99.851 502.334 100.449 502.413 101.039 502.338C101.628 502.264 102.19 502.038 102.671 501.682L189.432 448.97L207.955 319.901L97.6804 495.41L97.7174 498.788Z" fill="black"/>
<path d="M357.976 345.32C357.258 346.627 356.283 347.767 355.113 348.67L354.923 348.789L102.708 501.584C102.227 501.94 101.666 502.165 101.076 502.24C100.487 502.315 99.8883 502.236 99.3364 502.011L218.58 302.309C220.977 298.309 224.702 295.327 229.073 293.91C233.444 292.492 238.168 292.733 242.381 294.59L357.976 345.32Z" fill="#6E9E7C"/>
<path opacity="0.2" d="M357.976 345.32C357.258 346.627 356.283 347.767 355.113 348.67L354.923 348.789L102.708 501.584C102.227 501.94 101.666 502.165 101.076 502.24C100.487 502.315 99.8883 502.236 99.3364 502.011L218.58 302.309C220.977 298.309 224.702 295.327 229.073 293.91C233.444 292.492 238.168 292.733 242.381 294.59L357.976 345.32Z" fill="black"/>
<path d="M95.474 293.954L212.66 345.389C216.88 347.24 221.609 347.472 225.98 346.044C230.352 344.615 234.073 341.621 236.461 337.611L356.71 135.711L95.474 293.954Z" fill="#6E9E7C"/>
<path opacity="0.6" d="M95.474 293.954L212.66 345.389C216.88 347.24 221.609 347.472 225.98 346.044C230.352 344.615 234.073 341.621 236.461 337.611L356.71 135.711L95.474 293.954Z" fill="black"/>
<path d="M95.474 293.954L213.395 337.57C217.47 339.077 221.924 339.119 226.024 337.69C230.124 336.261 233.626 333.446 235.955 329.709L356.71 135.711L95.474 293.954Z" fill="#6E9E7C"/>
<path opacity="0.2" d="M95.474 293.954L213.395 337.57C217.47 339.077 221.924 339.119 226.024 337.69C230.124 336.261 233.626 333.446 235.955 329.709L356.71 135.711L95.474 293.954Z" fill="black"/>
<path d="M123.519 314.851C123.588 313.089 124.065 311.368 124.91 309.832C125.756 308.295 126.946 306.986 128.382 306.012L380.275 153.416C381.803 152.6 383.498 152.165 385.221 152.146C386.945 152.127 388.649 152.525 390.194 153.308L395.82 156.546C397.27 157.494 398.482 158.779 399.357 160.296C400.233 161.813 400.746 163.519 400.856 165.277L403.035 364.176C402.96 365.935 402.483 367.651 401.641 369.187C400.8 370.722 399.618 372.033 398.19 373.015L146.278 525.592C144.751 526.398 143.06 526.828 141.341 526.847C139.622 526.866 137.923 526.473 136.378 525.7L130.753 522.462C129.302 521.512 128.088 520.228 127.21 518.711C126.332 517.195 125.814 515.489 125.697 513.731L123.519 314.851Z" fill="#455A64"/>
<path d="M123.519 314.851C123.588 313.089 124.065 311.368 124.91 309.832C125.756 308.295 126.946 306.986 128.382 306.012L380.275 153.416C381.803 152.6 383.498 152.165 385.221 152.146C386.945 152.127 388.649 152.525 390.194 153.308L395.82 156.546C397.27 157.494 398.482 158.779 399.357 160.296C400.233 161.813 400.746 163.519 400.856 165.277L403.035 364.176C402.96 365.935 402.483 367.651 401.641 369.187C400.8 370.722 399.618 372.033 398.19 373.015L146.278 525.592C144.751 526.398 143.06 526.828 141.341 526.847C139.622 526.866 137.923 526.473 136.378 525.7L130.753 522.462C129.302 521.512 128.088 520.228 127.21 518.711C126.332 517.195 125.814 515.489 125.697 513.731L123.519 314.851Z" fill="#455A64"/>
<path d="M146.859 322.523L124.914 309.896C124.038 311.417 123.558 313.143 123.519 314.909L125.697 513.75C125.814 515.508 126.332 517.214 127.21 518.731C128.089 520.247 129.302 521.532 130.753 522.481L136.378 525.719C137.923 526.492 139.623 526.885 141.342 526.866C143.06 526.847 144.751 526.417 146.278 525.611L149.064 523.921L146.859 322.523Z" fill="#263238"/>
<path d="M400.876 165.276L403.054 364.175C403.01 365.997 402.496 367.774 401.565 369.327C400.847 370.634 399.872 371.775 398.702 372.678L398.512 372.797L398.191 373.015L146.297 525.591C145.816 525.947 145.255 526.173 144.665 526.247C144.076 526.322 143.477 526.243 142.925 526.018C142.385 525.671 141.95 525.176 141.671 524.589C141.391 524.002 141.278 523.346 141.344 522.697L139.166 323.817C139.115 323.106 139.233 322.392 139.511 321.738C139.788 321.083 140.217 320.508 140.76 320.06C141.303 319.613 141.943 319.307 142.627 319.168C143.311 319.03 144.018 319.064 144.686 319.266L251.584 344.044L265.585 347.288C267.236 347.586 268.936 347.416 270.499 346.797C272.063 346.178 273.431 345.132 274.455 343.774L290.36 320.541L397.544 164.2C399.271 161.604 400.84 162.036 400.876 165.276Z" fill="#37474F"/>
<path d="M398.19 373.015L398.512 372.797L398.702 372.678C399.872 371.775 400.847 370.634 401.565 369.327C402.474 367.801 402.981 366.06 403.036 364.273L290.341 320.6L366.275 392.363L398.19 373.015Z" fill="#263238"/>
<path d="M141.305 522.717C141.24 523.366 141.353 524.022 141.633 524.609C141.912 525.196 142.347 525.691 142.887 526.038C143.439 526.263 144.038 526.342 144.627 526.267C145.216 526.193 145.778 525.967 146.259 525.611L232.984 473.076L251.507 344.006L141.231 519.379L141.305 522.717Z" fill="#263238"/>
<path d="M401.546 369.327C400.828 370.635 399.853 371.775 398.683 372.678L398.493 372.797L146.297 525.591C145.816 525.947 145.254 526.173 144.665 526.248C144.075 526.322 143.477 526.244 142.925 526.019L262.15 326.337C264.541 322.33 268.263 319.34 272.634 317.915C277.006 316.49 281.733 316.725 285.95 318.578L401.546 369.327Z" fill="#37474F"/>
<path d="M139.063 317.98L256.25 369.415C260.467 371.261 265.191 371.49 269.559 370.062C273.926 368.634 277.644 365.643 280.031 361.637L400.28 159.64L139.063 317.98Z" fill="#263238"/>
<path d="M139.063 317.98L256.965 361.597C261.043 363.108 265.501 363.153 269.605 361.724C273.709 360.294 277.215 357.477 279.544 353.735L400.28 159.64L139.063 317.98Z" fill="#37474F"/>
<path d="M311.216 470.696L309.037 271.797C309.173 268.021 310.285 264.351 312.259 261.159L431.292 87.5066C433.464 84.3341 436.51 81.8952 440.042 80.5005C443.573 79.1058 447.431 78.8183 451.124 79.6746L565.136 106.093C568.812 107.051 572.362 108.454 575.713 110.273L581.338 113.511C582.786 114.463 583.996 115.748 584.87 117.265C585.745 118.781 586.26 120.486 586.375 122.242L588.554 321.141C588.474 322.899 587.995 324.614 587.154 326.149C586.313 327.683 585.133 328.995 583.709 329.981L331.797 482.557C330.271 483.368 328.58 483.8 326.86 483.819C325.14 483.838 323.44 483.443 321.897 482.665L316.271 479.427C314.819 478.479 313.605 477.194 312.727 475.678C311.849 474.161 311.331 472.455 311.216 470.696Z" fill="#6E9E7C"/>
<path opacity="0.3" d="M311.216 470.696L309.037 271.797C309.173 268.021 310.285 264.351 312.259 261.159L431.292 87.5066C433.464 84.3341 436.51 81.8952 440.042 80.5005C443.573 79.1058 447.431 78.8183 451.124 79.6746L565.136 106.093C568.812 107.051 572.362 108.454 575.713 110.273L581.338 113.511C582.786 114.463 583.996 115.748 584.87 117.265C585.745 118.781 586.26 120.486 586.375 122.242L588.554 321.141C588.474 322.899 587.995 324.614 587.154 326.149C586.313 327.683 585.133 328.995 583.709 329.981L331.797 482.557C330.271 483.368 328.58 483.8 326.86 483.819C325.14 483.838 323.44 483.443 321.897 482.665L316.271 479.427C314.819 478.479 313.605 477.194 312.727 475.678C311.849 474.161 311.331 472.455 311.216 470.696Z" fill="white"/>
<path d="M331.219 175.412L333.998 429.209C334.033 432.431 336.28 433.734 338.99 432.084L575.495 288.912C576.929 287.935 578.117 286.625 578.962 285.089C579.807 283.553 580.286 281.834 580.358 280.072L577.579 26.2746C577.543 23.0338 575.316 21.75 572.587 23.4005L336.082 166.572C334.649 167.55 333.461 168.86 332.616 170.396C331.771 171.932 331.292 173.651 331.219 175.412Z" fill="#FAFAFA"/>
<path d="M336.796 433.806C336.181 433.817 335.574 433.662 335.036 433.357C334.378 432.918 333.849 432.306 333.505 431.584C333.161 430.862 333.015 430.058 333.083 429.258L330.303 175.461C330.373 173.525 330.893 171.635 331.82 169.947C332.747 168.259 334.055 166.823 335.634 165.757L572.139 22.5848C572.755 22.06 573.512 21.7394 574.31 21.6657C575.108 21.592 575.91 21.7685 576.608 22.172C577.306 22.5754 577.867 23.1866 578.218 23.9243C578.569 24.6621 578.692 25.4914 578.571 26.3022L581.351 280.1C581.283 282.033 580.763 283.921 579.836 285.606C578.908 287.291 577.6 288.724 576.019 289.784L339.515 432.956C338.698 433.481 337.76 433.774 336.796 433.806ZM574.802 23.5514C574.186 23.5942 573.591 23.7955 573.072 24.1366L336.568 167.406C335.282 168.301 334.216 169.488 333.453 170.875C332.69 172.262 332.252 173.811 332.172 175.401L334.952 429.199C334.843 429.658 334.883 430.141 335.067 430.574C335.25 431.008 335.567 431.368 335.97 431.6C336.372 431.833 336.837 431.924 337.295 431.86C337.752 431.797 338.177 431.582 338.504 431.249L575.009 288.077C576.296 287.184 577.363 285.997 578.126 284.609C578.889 283.222 579.326 281.672 579.404 280.082L576.625 26.2845C576.674 25.8261 576.607 25.3624 576.432 24.9373C576.258 24.5121 575.98 24.1396 575.625 23.8548C575.383 23.6792 575.098 23.5744 574.802 23.5514Z" fill="#E0E0E0"/>
<path d="M327.193 276.44L309.914 266.476C309.377 268.197 309.088 269.99 309.056 271.797L311.235 470.696C311.35 472.454 311.868 474.161 312.746 475.677C313.624 477.194 314.839 478.478 316.291 479.427L321.897 482.665C323.439 483.447 325.14 483.845 326.86 483.826C328.581 483.807 330.273 483.372 331.797 482.557L334.166 481.144L327.193 276.44Z" fill="#6E9E7C"/>
<g opacity="0.1">
<path d="M327.193 276.44L309.914 266.476C309.377 268.197 309.088 269.99 309.056 271.797L311.235 470.696C311.35 472.454 311.868 474.161 312.746 475.677C313.624 477.194 314.839 478.478 316.291 479.427L321.897 482.665C323.439 483.447 325.14 483.845 326.86 483.826C328.581 483.807 330.273 483.372 331.797 482.557L334.166 481.144L327.193 276.44Z" fill="black"/>
</g>
<path d="M586.394 122.242L588.573 321.141C588.528 322.962 588.015 324.739 587.084 326.292C586.365 327.599 585.391 328.74 584.221 329.643L584.031 329.762L583.709 329.98L331.816 482.556C331.335 482.912 330.773 483.138 330.184 483.213C329.594 483.287 328.996 483.209 328.444 482.984C327.903 482.636 327.469 482.141 327.189 481.554C326.91 480.967 326.796 480.312 326.862 479.662L324.684 280.783C324.633 280.071 324.752 279.357 325.029 278.703C325.307 278.049 325.736 277.473 326.278 277.026C326.821 276.578 327.462 276.272 328.146 276.134C328.83 275.995 329.536 276.029 330.205 276.231L437.045 301.01L451.046 304.254C452.7 304.556 454.404 304.388 455.971 303.768C457.538 303.149 458.91 302.101 459.936 300.74L475.859 277.506L583.044 121.165C584.847 118.568 586.359 119.001 586.394 122.242Z" fill="#6E9E7C"/>
<path opacity="0.3" d="M586.394 122.242L588.573 321.141C588.528 322.962 588.015 324.739 587.084 326.292C586.365 327.599 585.391 328.74 584.221 329.643L584.031 329.762L583.709 329.98L331.816 482.556C331.335 482.912 330.773 483.138 330.184 483.213C329.594 483.287 328.996 483.209 328.444 482.984C327.903 482.636 327.469 482.141 327.189 481.554C326.91 480.967 326.796 480.312 326.862 479.662L324.684 280.783C324.633 280.071 324.752 279.357 325.029 278.703C325.307 278.049 325.736 277.473 326.278 277.026C326.821 276.578 327.462 276.272 328.146 276.134C328.83 275.995 329.536 276.029 330.205 276.231L437.045 301.01L451.046 304.254C452.7 304.556 454.404 304.388 455.971 303.768C457.538 303.149 458.91 302.101 459.936 300.74L475.859 277.506L583.044 121.165C584.847 118.568 586.359 119.001 586.394 122.242Z" fill="white"/>
<path d="M583.709 329.981L584.031 329.762L584.22 329.643C585.391 328.74 586.365 327.599 587.084 326.292C587.994 324.76 588.5 323.012 588.554 321.219L475.86 277.545L551.794 349.328L583.709 329.981Z" fill="#6E9E7C"/>
<path d="M326.824 479.682C326.758 480.331 326.872 480.987 327.151 481.574C327.431 482.161 327.866 482.656 328.406 483.003C328.958 483.228 329.556 483.307 330.146 483.232C330.735 483.158 331.297 482.932 331.778 482.576L418.503 430.04L437.026 300.971L326.75 476.344L326.824 479.682Z" fill="#6E9E7C"/>
<path d="M587.084 326.293C586.366 327.6 585.391 328.741 584.221 329.643L584.031 329.762L331.816 482.557C331.335 482.913 330.773 483.138 330.184 483.213C329.594 483.288 328.996 483.209 328.444 482.984L447.669 283.302C450.059 279.3 453.778 276.313 458.145 274.888C462.512 273.464 467.235 273.696 471.45 275.544L587.084 326.293Z" fill="#6E9E7C"/>
<path opacity="0.3" d="M587.084 326.293C586.366 327.6 585.391 328.741 584.221 329.643L584.031 329.762L331.816 482.557C331.335 482.913 330.773 483.138 330.184 483.213C329.594 483.288 328.996 483.209 328.444 482.984L447.669 283.302C450.059 279.3 453.778 276.313 458.145 274.888C462.512 273.464 467.235 273.696 471.45 275.544L587.084 326.293Z" fill="white"/>
<path d="M436.679 232.715C434.457 233.092 432.179 232.91 430.041 232.185C427.902 231.461 425.968 230.214 424.405 228.554C421.469 225.287 419.963 220.207 419.888 213.354C419.808 205.623 421.344 197.963 424.393 190.89C427.522 183.612 431.879 176.955 437.265 171.224C443.054 164.943 449.673 159.521 456.929 155.115C464.043 150.82 470.128 148.417 475.184 147.906C480.272 147.381 484.121 148.686 486.788 151.781C489.454 154.876 490.804 159.645 490.874 166.048C491.054 172.398 489.653 178.689 486.801 184.33C484.29 189.437 480.422 193.716 475.642 196.675C473.994 197.901 471.964 198.465 469.936 198.26C469.214 198.122 468.546 197.773 468.012 197.256C467.478 196.739 467.102 196.075 466.928 195.345C465.373 198.437 463.386 201.28 461.03 203.786C458.646 206.358 455.922 208.577 452.937 210.376C447.781 213.44 443.652 214.383 440.588 213.382C437.525 212.38 436.04 209.233 435.983 203.962C435.954 197.338 437.877 190.859 441.502 185.372C445.447 179.291 450.722 174.233 456.908 170.599C459.49 168.986 462.303 167.795 465.245 167.071C467.43 166.439 469.741 166.414 471.94 166.998L472.165 187.555C472.184 189.215 472.481 190.227 473.038 190.611C473.596 190.996 474.509 190.79 475.798 190.015C478.197 188.38 479.959 185.935 480.778 183.107C482.026 179.285 482.596 175.265 482.46 171.237C482.404 166.109 481.27 162.392 479.057 160.086C477.875 158.929 476.44 158.079 474.871 157.607C473.302 157.135 471.646 157.055 470.041 157.373C465.392 158.152 460.95 159.902 456.991 162.514C448.61 167.395 441.413 174.148 435.936 182.27C430.876 189.892 428.242 198.93 428.397 208.146C428.459 213.755 429.629 217.836 431.908 220.389C433.089 221.666 434.561 222.624 436.191 223.179C437.822 223.733 439.56 223.866 441.253 223.567C445.993 222.826 450.525 221.066 454.551 218.403C457.331 216.716 459.96 214.779 462.405 212.615C464.682 210.648 466.749 208.44 468.571 206.027C468.76 205.773 468.982 205.547 469.232 205.355C469.402 205.256 469.575 205.352 469.73 205.584L471.871 209.466C471.949 209.62 472.009 209.783 472.048 209.952C471.986 210.388 471.782 210.789 471.469 211.091C469.195 213.952 466.67 216.594 463.925 218.984C461.034 221.521 457.938 223.802 454.67 225.802C449.229 229.403 443.093 231.762 436.679 232.715ZM461.075 195.741C462.867 193.527 463.896 190.771 464.004 187.899L463.873 175.99C461.153 176.255 458.541 177.209 456.273 178.767C452.657 180.902 449.59 183.887 447.325 187.476C445.2 190.769 444.08 194.635 444.108 198.582C444.144 201.881 444.967 203.844 446.595 204.412C448.223 204.98 450.715 204.367 454.107 202.241C456.853 200.574 459.248 198.364 461.152 195.74L461.075 195.741Z" fill="#E0E0E0"/>
<path d="M179.683 216.913L160.964 206.086L160.83 206.088C154.438 202.487 145.688 203.129 136.06 208.956C116.71 220.668 101.241 248.817 101.493 271.815C101.619 283.314 105.636 291.295 112.031 295.13L129.444 305.073L132.514 299.709C136.053 298.856 139.446 297.463 142.58 295.576C161.911 283.845 177.399 255.695 177.147 232.717C177.103 229.611 176.698 226.522 175.94 223.514L179.683 216.913Z" fill="#F28F8F"/>
<path d="M179.683 216.913L160.964 206.086L160.83 206.088C154.438 202.487 145.688 203.129 136.06 208.956C116.71 220.668 101.241 248.817 101.493 271.815C101.619 283.314 105.636 291.295 112.031 295.13L129.444 305.073L132.514 299.709C136.053 298.856 139.446 297.463 142.58 295.576C161.911 283.845 177.399 255.695 177.147 232.717C177.103 229.611 176.698 226.522 175.94 223.514L179.683 216.913Z" fill="#6E9E7C"/>
<path opacity="0.4" d="M179.683 216.913L160.964 206.086L160.83 206.088C154.438 202.487 145.688 203.129 136.06 208.956C116.71 220.668 101.241 248.817 101.493 271.815C101.619 283.314 105.636 291.295 112.031 295.13L129.444 305.073L132.514 299.709C136.053 298.856 139.446 297.463 142.58 295.576C161.911 283.845 177.399 255.695 177.147 232.717C177.103 229.611 176.698 226.522 175.94 223.514L179.683 216.913Z" fill="black"/>
<path d="M154.049 219.244C134.699 230.975 119.23 259.125 119.482 282.103C119.733 305.081 135.611 314.26 154.961 302.548C174.312 290.836 189.781 262.686 189.529 239.689C189.277 216.691 173.399 207.531 154.049 219.244Z" fill="#6E9E7C"/>
<path d="M141.021 287.374C140.659 287.378 140.465 287.165 140.462 286.833C140.495 286.465 140.595 286.107 140.756 285.775L142.485 281.676C142.598 281.275 142.827 280.919 143.141 280.653C143.404 280.528 143.689 280.459 143.979 280.449C145.565 280.335 147.128 279.996 148.623 279.441C150.61 278.731 152.519 277.807 154.316 276.684C157.113 275.093 159.558 272.925 161.496 270.319C162.949 268.347 163.745 265.95 163.767 263.479C163.72 259.165 161.138 258.568 156.02 261.612L151.037 264.771C150.222 265.248 149.652 265.43 149.307 265.278C148.962 265.126 148.785 264.659 148.776 263.878L148.759 262.258C148.724 261.569 148.896 260.885 149.252 260.3C149.705 259.66 150.292 259.133 150.972 258.758L155.918 255.755C157.901 254.622 159.575 253 160.788 251.036C161.805 249.387 162.352 247.481 162.369 245.532C162.323 241.354 159.445 240.995 153.734 244.455C150.221 246.555 147.067 249.227 144.396 252.367C144.145 252.663 143.867 252.935 143.565 253.177C143.454 253.232 143.327 253.248 143.206 253.221C143.084 253.194 142.975 253.126 142.896 253.028L141.177 251.094C141.081 251.005 141.004 250.897 140.95 250.777C140.897 250.657 140.867 250.527 140.864 250.395C140.898 249.946 141.082 249.523 141.385 249.198C143.051 247.016 144.949 245.031 147.044 243.278C149.482 241.199 152.084 239.329 154.823 237.687C157.295 236.075 160.028 234.927 162.894 234.299C163.796 234.063 164.737 234.032 165.652 234.208C166.566 234.383 167.433 234.761 168.19 235.315C168.875 235.976 169.407 236.785 169.746 237.683C170.086 238.582 170.226 239.546 170.155 240.506C170.135 242.656 169.691 244.78 168.85 246.749C167.952 249.022 166.685 251.122 165.102 252.96C165.922 252.669 166.801 252.595 167.657 252.746C168.513 252.897 169.318 253.268 169.995 253.824C170.591 254.518 171.046 255.326 171.334 256.201C171.622 257.076 171.737 258.001 171.673 258.922C171.574 263.251 170.137 267.437 167.568 270.877C164.417 275.304 160.371 278.984 155.706 281.668C149.035 285.763 144.14 287.665 141.021 287.374Z" fill="white"/>
</svg>
