<svg width="918" height="638" viewBox="0 0 918 638" fill="none" xmlns="http://www.w3.org/2000/svg">
<path d="M269.18 64.1572H194.432V169.644H269.18V64.1572Z" fill="#F5F5F5"/>
<path d="M250.236 77.4404H175.489V182.927H250.236V77.4404Z" fill="#E0E0E0"/>
<path d="M602.567 221.692H602.084H600.636H595.007L573.885 221.769L501.019 222.024H500.821V221.82C500.021 218.995 499.879 216.016 500.407 213.124C500.935 210.233 502.118 207.511 503.86 205.18C505.601 202.849 507.852 200.975 510.429 199.712C513.006 198.448 515.835 197.83 518.688 197.908L518.428 198.278C517.967 196.62 517.775 194.896 517.859 193.174C517.944 190.288 518.759 187.475 520.221 185.014C521.684 182.552 523.744 180.527 526.198 179.138C528.587 177.853 531.243 177.19 533.936 177.205C536.63 177.221 539.279 177.915 541.653 179.227L541.269 179.367C542.588 176.218 544.526 173.384 546.96 171.045C549.394 168.706 552.272 166.913 555.412 165.778C558.301 164.652 561.384 164.147 564.47 164.297C567.555 164.446 570.579 165.245 573.353 166.646C578.356 169.366 582.291 173.789 584.489 179.163C586.498 183.879 586.975 189.138 585.85 194.156L585.652 193.914C588.524 193.607 591.425 194.046 594.091 195.19C596.463 196.177 598.599 197.684 600.352 199.605C601.148 200.47 601.812 201.455 602.319 202.527C602.77 203.517 603.122 204.552 603.371 205.615C603.796 207.473 604.037 209.371 604.089 211.28C604.175 213.901 603.955 216.523 603.433 219.089C603.293 219.759 603.116 220.419 602.901 221.067L602.678 221.705" fill="#EBEBEB"/>
<path d="M796.915 171.558C793.466 172.151 790.249 173.734 787.631 176.125C785.014 178.516 783.103 181.619 782.115 185.078C781.128 188.537 781.105 192.213 782.049 195.685C782.993 199.156 784.866 202.284 787.453 204.71C790.04 207.135 793.237 208.76 796.679 209.4C800.12 210.039 803.666 209.666 806.911 208.324C810.156 206.982 812.97 204.724 815.029 201.81C817.088 198.896 818.31 195.443 818.556 191.846L823.666 190.966L826.437 185.02L830.422 189.792L836.819 188.695L839.553 182.774L843.537 187.546L849.031 186.602L850.701 182.991L853.176 185.9L856.381 185.352L859.895 180.554L853.869 173.714L815.821 180.235C813.855 177.022 811.01 174.483 807.644 172.939C804.279 171.394 800.545 170.914 796.915 171.558ZM786.546 192.816C786.373 191.742 786.513 190.64 786.947 189.648C787.381 188.655 788.09 187.818 788.985 187.241C789.88 186.664 790.921 186.373 791.976 186.405C793.031 186.437 794.053 186.79 794.914 187.42C795.774 188.05 796.435 188.929 796.812 189.946C797.189 190.962 797.265 192.071 797.032 193.133C796.799 194.195 796.266 195.161 795.501 195.911C794.736 196.661 793.772 197.16 792.732 197.346C792.037 197.47 791.326 197.451 790.638 197.291C789.95 197.13 789.3 196.83 788.725 196.409C788.149 195.988 787.661 195.454 787.287 194.837C786.913 194.221 786.661 193.534 786.546 192.816Z" fill="#EBEBEB"/>
<path d="M778.02 318.349L780.322 361.861C780.36 362.608 780.673 363.312 781.197 363.829C781.722 364.346 782.418 364.637 783.143 364.642L859.053 365.204C859.427 365.207 859.798 365.135 860.144 364.99C860.491 364.846 860.807 364.632 861.073 364.362C861.34 364.092 861.552 363.77 861.698 363.416C861.844 363.061 861.921 362.68 861.924 362.295L862.159 328.429C862.162 328.042 862.091 327.658 861.95 327.299C861.808 326.94 861.599 326.613 861.334 326.338C861.07 326.063 860.755 325.844 860.408 325.695C860.061 325.546 859.689 325.469 859.313 325.469H812.629C812.255 325.471 811.885 325.394 811.541 325.245C811.197 325.096 810.885 324.877 810.624 324.601L802.569 316.307C802.04 315.763 801.325 315.452 800.577 315.44L780.891 315.299C780.506 315.296 780.124 315.373 779.768 315.526C779.412 315.679 779.091 315.905 778.822 316.19C778.554 316.475 778.344 316.814 778.207 317.185C778.069 317.556 778.005 317.952 778.02 318.349Z" fill="#EBEBEB"/>
<path d="M862.224 320.365L779.275 319.738L778.912 370.853L861.861 371.48L862.224 320.365Z" fill="#F5F5F5"/>
<path d="M772.65 324.27L778.602 377.607C778.651 378.067 778.861 378.493 779.194 378.804C779.527 379.114 779.959 379.288 780.408 379.291L861.243 379.891C861.703 379.896 862.148 379.721 862.488 379.401C862.827 379.081 863.037 378.641 863.075 378.168L867.529 324.895C867.552 324.635 867.521 324.373 867.44 324.126C867.358 323.879 867.228 323.652 867.057 323.46C866.886 323.268 866.677 323.115 866.446 323.011C866.214 322.906 865.963 322.853 865.71 322.854L774.469 322.165C774.21 322.163 773.954 322.218 773.718 322.326C773.481 322.434 773.27 322.593 773.097 322.793C772.925 322.992 772.796 323.227 772.719 323.481C772.642 323.736 772.619 324.005 772.65 324.27Z" fill="#EBEBEB"/>
<path d="M768.146 575.719C769.196 564.995 771.234 554.399 774.234 544.074C777.963 531.488 782.387 519.134 787.486 507.07L791.433 497.551C792.745 494.425 794.031 491.324 795.479 488.376C798.268 482.716 801.362 477.22 804.747 471.916C807.939 466.812 811.144 462.116 814.175 457.74C817.207 453.363 820.127 449.344 822.923 445.796C827.318 440.148 832.142 434.87 837.351 430.012C839.182 428.302 840.654 427.026 841.656 426.184L842.807 425.214C842.929 425.094 843.067 424.991 843.215 424.908L842.857 425.278C842.572 425.521 842.213 425.865 841.743 426.286C840.766 427.179 839.268 428.494 837.524 430.229C832.407 435.137 827.651 440.43 823.294 446.064C820.523 449.624 817.652 453.656 814.633 458.033C811.614 462.41 808.446 467.144 805.266 472.222C801.917 477.541 798.852 483.044 796.085 488.708C794.65 491.643 793.363 494.705 792.064 497.844L788.105 507.363C783.022 519.435 778.594 531.789 774.84 544.367C771.832 554.647 769.76 565.195 768.654 575.872" fill="#E0E0E0"/>
<path d="M795.677 488.3C795.505 487.765 795.385 487.213 795.318 486.654C795.12 485.595 794.885 484.102 794.625 482.137C794.093 478.309 793.549 473.013 792.955 467.156C792.361 461.3 791.718 456.017 791.161 452.214C790.876 450.313 790.629 448.769 790.456 447.71C790.32 447.164 790.249 446.602 790.245 446.039C790.46 446.559 790.617 447.103 790.716 447.659C790.975 448.693 791.297 450.211 791.644 452.125C792.349 455.953 793.054 461.223 793.636 467.08C794.217 472.937 794.712 478.079 795.108 482.073C795.294 483.872 795.455 485.403 795.578 486.615C795.675 487.171 795.708 487.736 795.677 488.3Z" fill="#E0E0E0"/>
<path d="M843.562 479.061C842.932 479.209 842.29 479.29 841.644 479.304C840.407 479.418 838.637 479.572 836.447 479.827C832.067 480.324 826.029 481.218 819.422 482.494C812.814 483.77 806.863 485.237 802.594 486.398C800.453 486.972 798.733 487.483 797.546 487.827C796.937 488.039 796.312 488.196 795.677 488.299C796.252 487.996 796.853 487.749 797.471 487.559C798.634 487.126 800.342 486.551 802.421 485.913C806.665 484.637 812.604 483.093 819.236 481.792C824.9 480.669 830.615 479.847 836.361 479.329C838.563 479.125 840.345 479.048 841.582 479.023C842.242 478.984 842.904 478.997 843.562 479.061Z" fill="#E0E0E0"/>
<path d="M774.828 543.167C774.693 542.978 774.581 542.772 774.494 542.555C774.271 542.083 773.999 541.483 773.677 540.769C772.972 539.225 772.007 536.941 770.856 534.108C768.542 528.455 765.598 520.544 762.455 511.765C759.312 502.986 756.429 495.037 754.239 489.346C753.162 486.577 752.284 484.242 751.616 482.596L750.923 480.758C750.827 480.546 750.757 480.324 750.712 480.095C750.848 480.284 750.96 480.49 751.047 480.707L751.863 482.494C752.568 484.038 753.534 486.322 754.684 489.154C756.998 494.807 759.943 502.718 763.086 511.51C766.229 520.301 769.112 528.225 771.302 533.916L773.925 540.666L774.618 542.504C774.713 542.716 774.784 542.938 774.828 543.167Z" fill="#E0E0E0"/>
<path d="M838.452 522.012C838.254 522.129 838.042 522.219 837.821 522.28L835.965 522.918L829.159 525.202C823.406 527.128 815.487 529.872 806.751 532.858C798.016 535.844 790.047 538.6 784.257 540.399C781.361 541.305 779.01 542.007 777.377 542.453L775.496 542.964C775.279 543.034 775.055 543.081 774.828 543.104C775.025 542.982 775.238 542.887 775.459 542.823L777.303 542.198L784.121 539.914C789.874 537.987 797.731 535.244 806.529 532.181C815.326 529.119 823.22 526.452 829.011 524.653C831.906 523.747 834.257 523.045 835.891 522.599L837.784 522.088C838.003 522.039 838.227 522.013 838.452 522.012Z" fill="#E0E0E0"/>
<path d="M846.73 575.77C846.73 575.961 668.838 576.101 449.447 576.101C230.055 576.101 52.1141 575.961 52.1141 575.77C52.1141 575.578 229.968 575.476 449.447 575.476C668.925 575.476 846.73 575.591 846.73 575.77Z" fill="#263238"/>
<path d="M172.977 289.333H33.0839V385.952H172.977V289.333Z" fill="#FAFAFA"/>
<path d="M134.966 347.939H131.254V324.805C131.164 322.196 130.095 319.724 128.273 317.91C126.451 316.097 124.017 315.084 121.485 315.084C118.953 315.084 116.519 316.097 114.697 317.91C112.875 319.724 111.806 322.196 111.716 324.805V347.939H108.004V324.805C108.111 321.188 109.579 317.755 112.098 315.235C114.617 312.715 117.988 311.306 121.498 311.306C125.007 311.306 128.379 312.715 130.897 315.235C133.416 317.755 134.884 321.188 134.991 324.805L134.966 347.939Z" fill="#263238"/>
<path d="M135.733 337.642H107.213C104.896 337.642 103.018 339.579 103.018 341.968V357.739C103.018 360.128 104.896 362.065 107.213 362.065H135.733C138.05 362.065 139.928 360.128 139.928 357.739V341.968C139.928 339.579 138.05 337.642 135.733 337.642Z" fill="#263238"/>
<path d="M121.479 349.854C120.87 349.854 120.274 349.667 119.767 349.318C119.261 348.969 118.866 348.473 118.633 347.892C118.399 347.312 118.338 346.673 118.457 346.056C118.576 345.44 118.87 344.874 119.3 344.43C119.731 343.985 120.28 343.683 120.878 343.56C121.476 343.437 122.095 343.5 122.658 343.741C123.221 343.981 123.702 344.389 124.041 344.911C124.379 345.434 124.56 346.048 124.56 346.676C124.56 347.519 124.235 348.327 123.658 348.923C123.08 349.519 122.296 349.854 121.479 349.854Z" fill="#455A64"/>
<path d="M122.32 347.939H120.638V354.485H122.32V347.939Z" fill="#455A64"/>
<path d="M102.102 347.659C104.774 346.444 107.042 344.447 108.624 341.916C110.205 339.384 111.031 336.43 110.999 333.418C110.999 324.908 104.812 317.979 97.054 317.941C89.2959 317.902 83.0226 324.767 82.9855 333.253C82.9211 336.294 83.7365 339.285 85.3275 341.847C86.9186 344.408 89.2133 346.422 91.9191 347.633C70.4266 351.015 71.3422 375.144 71.3422 375.144L122.308 375.386C122.308 375.386 123.471 350.989 102.102 347.659Z" fill="#3CA55C"/>
<path d="M172.964 385.964C172.964 385.964 172.964 385.352 172.964 384.191C172.964 383.029 172.964 381.32 172.964 379.087C172.964 374.608 172.964 368.049 172.89 359.653C172.89 342.861 172.816 318.745 172.766 289.333L173.014 289.601H33.1953L33.517 289.269C33.517 323.721 33.517 356.425 33.517 385.9L33.2324 385.594L133.988 385.735L162.794 385.824H170.453H172.432H173.113H170.527H162.917L134.186 385.913L33.2324 386.054H32.9354V385.76C32.9354 356.285 32.9354 323.555 32.9354 289.129V288.797H33.2695L173.15 288.873H173.41V289.129C173.41 318.604 173.311 342.784 173.274 359.615C173.274 367.985 173.274 374.531 173.212 378.997C173.212 381.205 173.212 382.889 173.212 384.101C173.212 385.313 172.964 385.964 172.964 385.964Z" fill="#263238"/>
<path d="M172.94 300.945C172.94 301.123 141.635 301.276 103.043 301.276C64.4503 301.276 33.1458 301.123 33.1458 300.945C33.1458 300.766 64.4379 300.613 103.043 300.613C141.648 300.613 172.94 300.766 172.94 300.945Z" fill="#263238"/>
<path d="M42.2896 295.151C42.2896 295.446 42.2047 295.735 42.0457 295.981C41.8866 296.226 41.6605 296.417 41.396 296.53C41.1314 296.643 40.8404 296.673 40.5595 296.615C40.2787 296.558 40.0208 296.416 39.8183 296.207C39.6158 295.998 39.478 295.732 39.4221 295.442C39.3662 295.153 39.3949 294.853 39.5045 294.58C39.6141 294.307 39.7996 294.074 40.0377 293.91C40.2757 293.746 40.5556 293.658 40.842 293.658C41.2259 293.658 41.5941 293.815 41.8656 294.095C42.1371 294.375 42.2896 294.755 42.2896 295.151Z" fill="#263238"/>
<path d="M47.0287 295.151C47.0287 295.547 46.8761 295.927 46.6046 296.207C46.3332 296.487 45.9649 296.644 45.581 296.644C45.197 296.644 44.8288 296.487 44.5573 296.207C44.2858 295.927 44.1333 295.547 44.1333 295.151C44.1333 294.755 44.2858 294.375 44.5573 294.095C44.8288 293.815 45.197 293.658 45.581 293.658C45.9649 293.658 46.3332 293.815 46.6046 294.095C46.8761 294.375 47.0287 294.755 47.0287 295.151Z" fill="#263238"/>
<path d="M52.1141 295.151C52.114 295.445 52.03 295.732 51.8725 295.976C51.715 296.221 51.491 296.412 51.2287 296.526C50.9663 296.64 50.6771 296.672 50.3974 296.618C50.1176 296.563 49.8597 296.425 49.6558 296.22C49.4519 296.015 49.3112 295.752 49.2512 295.465C49.1913 295.178 49.2147 294.879 49.3186 294.606C49.4225 294.332 49.6023 294.097 49.8354 293.928C50.0685 293.76 50.3447 293.666 50.6293 293.658C50.8225 293.653 51.0148 293.688 51.1947 293.761C51.3747 293.833 51.5387 293.943 51.6771 294.082C51.8154 294.221 51.9254 294.387 52.0005 294.571C52.0755 294.755 52.1142 294.952 52.1141 295.151Z" fill="#263238"/>
<path d="M172.964 385.964C172.964 385.964 172.964 385.352 172.964 384.191C172.964 383.029 172.964 381.32 172.964 379.087C172.964 374.608 172.964 368.049 172.89 359.653C172.89 342.861 172.816 318.745 172.766 289.333L173.014 289.601H33.1953L33.517 289.269C33.517 323.721 33.517 356.425 33.517 385.9L33.2324 385.594L133.988 385.735L162.794 385.824H170.453H172.432H173.113H170.527H162.917L134.186 385.913L33.2324 386.054H32.9354V385.76C32.9354 356.285 32.9354 323.555 32.9354 289.129V288.797H33.2695L173.15 288.873H173.41V289.129C173.41 318.604 173.311 342.784 173.274 359.615C173.274 367.985 173.274 374.531 173.212 378.997C173.212 381.205 173.212 382.889 173.212 384.101C173.212 385.313 172.964 385.964 172.964 385.964Z" fill="#263238"/>
<path d="M102.115 389.18C101.941 389.18 101.793 388.465 101.793 387.585C101.793 386.704 101.941 385.99 102.115 385.99C102.288 385.99 102.449 386.704 102.449 387.585C102.449 388.465 102.3 389.18 102.115 389.18Z" fill="#263238"/>
<path d="M102.115 403.114C101.801 401.978 101.692 400.793 101.793 399.617C101.691 398.446 101.8 397.265 102.115 396.134C102.444 397.262 102.558 398.445 102.449 399.617C102.557 400.794 102.444 401.981 102.115 403.114Z" fill="#263238"/>
<path d="M102.115 417.073C101.801 415.938 101.692 414.753 101.793 413.577C101.691 412.405 101.8 411.224 102.115 410.093C102.444 411.221 102.558 412.404 102.449 413.577C102.557 414.753 102.444 415.941 102.115 417.073Z" fill="#263238"/>
<path d="M102.115 431.032C101.801 429.897 101.692 428.712 101.793 427.536C101.691 426.365 101.8 425.183 102.115 424.053C102.444 425.181 102.558 426.364 102.449 427.536C102.557 428.713 102.444 429.9 102.115 431.032Z" fill="#263238"/>
<path d="M102.115 444.992C101.801 443.857 101.692 442.672 101.793 441.496C101.691 440.324 101.8 439.143 102.115 438.012C102.444 439.14 102.558 440.323 102.449 441.496C102.557 442.672 102.444 443.86 102.115 444.992Z" fill="#263238"/>
<path d="M105.208 455.162C104.209 455.487 103.157 455.6 102.115 455.494L101.793 455.162V453.963C101.793 453.58 101.793 453.235 101.867 452.942C101.867 452.368 102.003 452.01 102.09 452.01C102.177 452.01 102.263 452.368 102.325 452.942C102.325 453.235 102.325 453.58 102.325 453.963V454.562V455.162C102.177 455.009 102.634 455.494 101.991 454.83C103.074 454.707 104.17 454.82 105.208 455.162Z" fill="#263238"/>
<path d="M117.371 455.162C116.389 455.485 115.353 455.598 114.327 455.493C113.305 455.597 112.274 455.484 111.296 455.162C112.274 454.839 113.305 454.726 114.327 454.83C115.353 454.725 116.389 454.838 117.371 455.162Z" fill="#263238"/>
<path d="M129.534 455.162C128.552 455.485 127.516 455.598 126.49 455.493C125.464 455.598 124.428 455.485 123.446 455.162C124.428 454.838 125.464 454.725 126.49 454.83C127.516 454.725 128.552 454.838 129.534 455.162Z" fill="#263238"/>
<path d="M141.697 455.162C140.715 455.485 139.679 455.598 138.653 455.493C137.627 455.598 136.591 455.485 135.609 455.162C136.591 454.838 137.627 454.725 138.653 454.83C139.679 454.725 140.715 454.838 141.697 455.162Z" fill="#263238"/>
<path d="M153.848 455.162C151.845 455.604 149.775 455.604 147.772 455.162C149.775 454.719 151.845 454.719 153.848 455.162Z" fill="#263238"/>
<path d="M166.011 455.162C164.008 455.604 161.938 455.604 159.935 455.162C161.938 454.719 164.008 454.719 166.011 455.162Z" fill="#263238"/>
<path d="M178.174 455.162C176.167 455.604 174.093 455.604 172.086 455.162C174.093 454.72 176.167 454.72 178.174 455.162Z" fill="#263238"/>
<path d="M190.324 455.162C188.322 455.604 186.251 455.604 184.249 455.162C186.251 454.719 188.322 454.719 190.324 455.162Z" fill="#263238"/>
<path d="M202.487 455.162C200.485 455.604 198.414 455.604 196.412 455.162C198.414 454.719 200.485 454.719 202.487 455.162Z" fill="#263238"/>
<path d="M214.65 455.162C212.644 455.604 210.569 455.604 208.562 455.162C210.569 454.72 212.644 454.72 214.65 455.162Z" fill="#263238"/>
<path d="M226.801 455.162C224.798 455.604 222.728 455.604 220.725 455.162C222.728 454.719 224.798 454.719 226.801 455.162Z" fill="#263238"/>
<path d="M235.982 455.162C235.982 455.34 235.289 455.494 234.435 455.494C233.581 455.494 232.888 455.34 232.888 455.162C232.888 454.983 233.581 454.83 234.435 454.83C235.289 454.83 235.982 454.983 235.982 455.162Z" fill="#263238"/>
<path d="M237.43 93.6455H162.682V199.132H237.43V93.6455Z" fill="white"/>
<path d="M237.467 199.056C237.467 199.056 237.467 198.877 237.467 198.533C237.467 198.188 237.467 197.678 237.467 197.04C237.467 195.764 237.467 193.773 237.467 191.272C237.467 186.232 237.467 178.882 237.368 169.58C237.368 151.014 237.232 124.691 237.145 93.5434L237.479 93.8879L162.744 93.9772L163.115 93.5944V199.081L162.818 198.775L217.1 198.89L232.208 198.967H236.18H237.566C237.566 198.967 237.133 198.967 236.254 198.967H232.332L217.286 199.056L162.843 199.26H162.534V198.941C162.534 169.338 162.447 132.857 162.398 93.4541V93.0713H162.781H237.516H237.863V93.4286C237.863 124.665 237.776 151.078 237.739 169.695C237.739 178.946 237.739 186.283 237.665 191.285C237.665 193.76 237.665 195.662 237.665 196.976C237.665 197.601 237.665 198.086 237.665 198.431C237.619 198.645 237.553 198.855 237.467 199.056Z" fill="#263238"/>
<path d="M208.377 114.84C208.377 115.057 200.248 115.223 190.213 115.235C180.178 115.248 172.049 115.082 172.049 114.865C172.049 114.648 180.178 114.47 190.213 114.47C200.248 114.47 208.377 114.623 208.377 114.84Z" fill="#263238"/>
<path d="M228.026 123.989C228.026 124.206 215.492 124.384 200.037 124.397C184.583 124.41 172.049 124.244 172.049 124.027C172.049 123.81 184.583 123.631 200.037 123.631C215.492 123.631 228.026 123.772 228.026 123.989Z" fill="#263238"/>
<path d="M228.038 133.559C228.038 133.763 215.504 133.942 200.05 133.954C184.595 133.967 172.061 133.801 172.061 133.597C172.061 133.393 184.595 133.201 200.05 133.189C215.504 133.176 228.038 133.342 228.038 133.559Z" fill="#263238"/>
<path d="M228.038 143.116C228.038 143.333 215.516 143.511 200.062 143.524C184.608 143.537 172.074 143.371 172.074 143.154C172.074 142.937 184.595 142.759 200.062 142.746C215.529 142.733 228.038 142.912 228.038 143.116Z" fill="#263238"/>
<path d="M228.051 152.673C228.051 152.89 215.516 153.069 200.062 153.082C184.608 153.094 172.074 152.929 172.074 152.724C172.074 152.52 184.608 152.329 200.062 152.316C215.516 152.303 228.051 152.469 228.051 152.673Z" fill="#263238"/>
<path d="M228.051 162.243C228.051 162.46 215.529 162.639 200.075 162.652C184.62 162.664 172.086 162.498 172.086 162.281C172.086 162.065 184.608 161.886 200.075 161.873C215.541 161.86 228.051 162.052 228.051 162.243Z" fill="#263238"/>
<path d="M228.063 171.8C228.063 172.017 215.529 172.196 200.075 172.209C184.62 172.221 172.086 172.056 172.086 171.851C172.086 171.647 184.62 171.456 200.075 171.443C215.529 171.43 228.063 171.596 228.063 171.8Z" fill="#263238"/>
<path d="M202.178 181.383C202.178 181.6 195.447 181.779 187.144 181.779C178.842 181.779 172.098 181.626 172.098 181.409C172.098 181.192 178.829 181.013 187.144 181.013C195.459 181.013 202.178 181.192 202.178 181.383Z" fill="#263238"/>
<path d="M230.934 206.775C239.318 206.775 246.116 199.766 246.116 191.119C246.116 182.472 239.318 175.462 230.934 175.462C222.549 175.462 215.751 182.472 215.751 191.119C215.751 199.766 222.549 206.775 230.934 206.775Z" fill="#3CA55C"/>
<path d="M239.644 185.084C240.288 185.709 237.306 190.086 232.988 194.871C232.282 195.636 231.602 196.364 230.946 197.04L229.894 198.112L228.842 197.206C225.069 193.939 222.594 191.132 223.052 190.519C223.51 189.907 226.764 191.706 230.76 194.679L228.669 194.845C229.276 194.131 229.907 193.365 230.624 192.599C234.992 187.814 238.989 184.458 239.644 185.084Z" fill="#E0E0E0"/>
<path d="M194.395 204.887C193.966 202.784 193.966 200.611 194.395 198.507C194.824 200.611 194.824 202.784 194.395 204.887Z" fill="#263238"/>
<path d="M194.395 217.647C193.966 215.543 193.966 213.371 194.395 211.267C194.824 213.371 194.824 215.543 194.395 217.647Z" fill="#263238"/>
<path d="M194.395 230.407C193.966 228.304 193.966 226.131 194.395 224.027C194.824 226.131 194.824 228.304 194.395 230.407Z" fill="#263238"/>
<path d="M194.395 243.167C193.966 241.063 193.966 238.891 194.395 236.787C194.824 238.891 194.824 241.063 194.395 243.167Z" fill="#263238"/>
<path d="M194.395 255.927C193.966 253.824 193.966 251.651 194.395 249.547C194.824 251.651 194.824 253.824 194.395 255.927Z" fill="#263238"/>
<path d="M194.395 268.687C193.966 266.583 193.966 264.411 194.395 262.307C194.824 264.411 194.824 266.583 194.395 268.687Z" fill="#263238"/>
<path d="M194.395 281.447C193.966 279.344 193.966 277.171 194.395 275.067C194.824 277.171 194.824 279.344 194.395 281.447Z" fill="#263238"/>
<path d="M194.395 294.207C193.966 292.103 193.966 289.931 194.395 287.827C194.824 289.931 194.824 292.103 194.395 294.207Z" fill="#263238"/>
<path d="M200.347 300.804C199.348 301.127 198.296 301.24 197.253 301.136C196.288 301.16 195.323 301.092 194.37 300.931H194.234V300.842C194.234 300.702 194.308 300.625 194.346 300.625C194.383 300.625 194.432 300.702 194.469 300.842L194.346 300.727C195.297 300.554 196.263 300.482 197.229 300.51C198.277 300.39 199.337 300.49 200.347 300.804Z" fill="#263238"/>
<path d="M212.72 300.804C210.68 301.246 208.573 301.246 206.533 300.804C208.573 300.362 210.68 300.362 212.72 300.804Z" fill="#263238"/>
<path d="M225.093 300.804C223.053 301.246 220.947 301.246 218.907 300.804C220.947 300.362 223.053 300.362 225.093 300.804Z" fill="#263238"/>
<path d="M237.467 300.804C235.427 301.246 233.32 301.246 231.28 300.804C233.32 300.362 235.427 300.362 237.467 300.804Z" fill="#263238"/>
<path d="M249.84 300.804C247.8 301.246 245.693 301.246 243.653 300.804C245.693 300.362 247.8 300.362 249.84 300.804Z" fill="#263238"/>
<path d="M455.943 185.377C455.514 183.273 455.514 181.101 455.943 178.997C456.371 181.101 456.371 183.273 455.943 185.377Z" fill="#263238"/>
<path d="M455.943 198.137C455.514 196.033 455.514 193.861 455.943 191.757C456.371 193.861 456.371 196.033 455.943 198.137Z" fill="#263238"/>
<path d="M455.943 210.897C455.514 208.793 455.514 206.621 455.943 204.517C456.371 206.621 456.371 208.793 455.943 210.897Z" fill="#263238"/>
<path d="M455.943 223.644C455.514 221.54 455.514 219.368 455.943 217.264C456.371 219.368 456.371 221.54 455.943 223.644Z" fill="#263238"/>
<path d="M455.943 236.417C455.516 234.313 455.516 232.141 455.943 230.037C456.37 232.141 456.37 234.313 455.943 236.417Z" fill="#263238"/>
<path d="M455.943 249.177C455.514 247.073 455.514 244.901 455.943 242.797C456.371 244.901 456.371 247.073 455.943 249.177Z" fill="#263238"/>
<path d="M455.943 261.937C455.514 259.833 455.514 257.661 455.943 255.557C456.371 257.661 456.371 259.833 455.943 261.937Z" fill="#263238"/>
<path d="M455.943 274.697C455.514 272.593 455.514 270.421 455.943 268.317C456.371 270.421 456.371 272.593 455.943 274.697Z" fill="#263238"/>
<path d="M539.97 193.569H539.24H537.05H528.525L496.552 193.684L386.194 193.952H385.947L385.86 193.658C384.648 189.381 384.432 184.869 385.232 180.49C386.032 176.111 387.824 171.989 390.462 168.46C393.1 164.931 396.509 162.095 400.412 160.183C404.315 158.271 408.601 157.337 412.92 157.458L412.512 158.007C411.834 155.518 411.545 152.933 411.658 150.351C411.992 141.546 416.843 133.048 424.292 129.118C427.904 127.17 431.923 126.163 436 126.186C440.076 126.208 444.085 127.258 447.677 129.246L447.108 129.463C449.098 124.702 452.025 120.418 455.703 116.884C459.381 113.35 463.731 110.642 468.477 108.932C477.584 105.512 487.68 105.959 495.624 110.208C503.179 114.327 509.116 121.019 512.427 129.144C515.468 136.283 516.197 144.243 514.506 151.844L514.196 151.486C518.554 151.01 522.958 151.673 527.003 153.413C530.595 154.913 533.828 157.198 536.481 160.112C537.693 161.413 538.699 162.903 539.463 164.527C540.144 166.03 540.678 167.598 541.059 169.21C541.701 172.019 542.065 174.887 542.148 177.772C542.283 181.746 541.946 185.723 541.145 189.613C540.935 190.619 540.67 191.611 540.353 192.586C540.131 193.25 540.007 193.569 540.007 193.569" fill="#3CA55C"/>
<path d="M525.976 149.866H521.212V120.314C521.212 116.899 519.897 113.624 517.555 111.21C515.214 108.795 512.038 107.439 508.727 107.439C505.416 107.439 502.241 108.795 499.899 111.21C497.558 113.624 496.242 116.899 496.242 120.314V149.866H491.479V120.314C491.479 115.596 493.296 111.072 496.531 107.736C499.765 104.4 504.153 102.526 508.727 102.526C513.302 102.526 517.689 104.4 520.924 107.736C524.158 111.072 525.976 115.596 525.976 120.314V149.866Z" fill="#E0E0E0"/>
<path d="M528.116 136.71H489.338C487.022 136.71 485.144 138.647 485.144 141.036V163.596C485.144 165.985 487.022 167.921 489.338 167.921H528.116C530.433 167.921 532.311 165.985 532.311 163.596V141.036C532.311 138.647 530.433 136.71 528.116 136.71Z" fill="#E0E0E0"/>
<path d="M508.727 152.316C507.945 152.318 507.181 152.081 506.53 151.635C505.879 151.189 505.371 150.553 505.071 149.809C504.77 149.065 504.691 148.245 504.843 147.454C504.995 146.663 505.371 145.937 505.924 145.367C506.477 144.797 507.181 144.409 507.948 144.252C508.715 144.096 509.509 144.177 510.231 144.487C510.953 144.797 511.569 145.32 512.002 145.992C512.435 146.663 512.664 147.452 512.662 148.258C512.662 149.334 512.247 150.366 511.509 151.127C510.772 151.888 509.771 152.316 508.727 152.316Z" fill="#455A64"/>
<path d="M509.804 149.866H507.651V158.224H509.804V149.866Z" fill="#455A64"/>
<path d="M798.733 140.054C802.281 136.65 804.827 132.286 806.081 127.459C807.334 122.633 807.245 117.54 805.822 112.764C804.4 107.988 801.702 103.721 798.037 100.453C794.373 97.1843 789.89 95.0461 785.101 94.2829C780.313 93.5197 775.413 94.1624 770.963 96.1375C766.513 98.1125 762.691 101.34 759.937 105.45C757.183 109.561 755.606 114.388 755.388 119.38C755.171 124.371 756.32 129.325 758.706 133.674L753.447 138.778L754.684 147.71L746.555 145.464L739.985 151.844L741.222 160.776L733.068 158.415L727.451 163.813L728.218 169.287L723.269 167.858L720.027 170.984L719.532 179.316L731.571 182.442L770.634 144.851C775.257 146.985 780.387 147.667 785.384 146.814C790.381 145.961 795.024 143.61 798.733 140.054ZM794.923 107.337C795.928 108.442 796.593 109.831 796.833 111.326C797.073 112.822 796.877 114.357 796.27 115.737C795.662 117.118 794.672 118.281 793.423 119.081C792.174 119.88 790.723 120.279 789.254 120.227C787.785 120.175 786.364 119.674 785.171 118.789C783.978 117.903 783.067 116.673 782.553 115.253C782.039 113.832 781.945 112.287 782.284 110.812C782.622 109.337 783.378 107.999 784.455 106.967C785.893 105.589 787.801 104.855 789.763 104.924C791.724 104.993 793.58 105.861 794.923 107.337Z" fill="#263238"/>
<path d="M794.923 107.337C794.923 107.337 794.44 106.865 793.45 106.24C792.055 105.368 790.418 104.999 788.798 105.194C787.481 105.338 786.23 105.858 785.184 106.695C784.138 107.532 783.338 108.652 782.875 109.931C782.412 111.21 782.304 112.597 782.562 113.936C782.82 115.275 783.435 116.514 784.338 117.512C785.24 118.511 786.395 119.231 787.672 119.591C788.949 119.952 790.298 119.938 791.568 119.552C792.837 119.166 793.978 118.423 794.861 117.406C795.744 116.389 796.336 115.138 796.568 113.794C796.864 112.135 796.621 110.421 795.875 108.92C795.343 107.86 794.873 107.376 794.923 107.337C794.972 107.299 795.059 107.427 795.281 107.669C795.597 108.012 795.871 108.394 796.098 108.805C796.975 110.343 797.303 112.148 797.026 113.909C796.859 114.943 796.494 115.932 795.951 116.818C795.409 117.704 794.7 118.47 793.867 119.07C793.034 119.671 792.093 120.093 791.099 120.313C790.105 120.533 789.079 120.547 788.08 120.352C786.469 120.044 784.997 119.209 783.883 117.97C782.768 116.731 782.071 115.155 781.893 113.475C781.774 112.431 781.858 111.373 782.142 110.363C782.426 109.353 782.903 108.412 783.545 107.596C784.188 106.78 784.983 106.105 785.883 105.611C786.783 105.117 787.77 104.815 788.785 104.721C790.493 104.55 792.205 105.002 793.623 105.997C794.005 106.259 794.354 106.567 794.663 106.916C794.771 107.041 794.858 107.184 794.923 107.337Z" fill="#263238"/>
<path d="M798.733 140.054C798.619 140.187 798.495 140.311 798.362 140.424L797.224 141.47C795.694 142.745 794.035 143.845 792.275 144.749C788.887 146.421 785.188 147.314 781.432 147.37C777.677 147.425 773.955 146.64 770.522 145.068H770.733L731.744 182.723L731.62 182.825H731.472L719.433 179.712L719.185 179.648V179.393C719.334 176.841 719.495 173.957 719.668 171.073V170.946L719.767 170.856L723.046 167.692L723.169 167.577H723.343L728.292 169.019L727.896 169.376C727.661 167.666 727.401 165.791 727.129 163.902V163.724L727.24 163.609L732.895 158.173L733.019 158.045H733.192L741.346 160.406L740.938 160.763C740.542 157.918 740.109 154.855 739.7 151.831V151.665L739.812 151.538L741.556 149.866L746.382 145.222L746.518 145.094H746.691L754.845 147.455L754.437 147.812C754.016 144.792 753.604 141.815 753.2 138.88V138.714L753.323 138.599L758.57 133.495L758.508 133.891C756.491 130.179 755.343 126.032 755.155 121.781C755.062 119.717 755.207 117.648 755.588 115.618C755.938 113.624 756.516 111.68 757.308 109.825C759.277 105.114 762.517 101.085 766.641 98.2164C770.766 95.348 775.603 93.7611 780.577 93.6442C785.55 93.5273 790.452 94.8853 794.699 97.5569C798.947 100.228 802.361 104.101 804.537 108.715C806.582 113.076 807.437 117.928 807.011 122.751C806.73 126.322 805.744 129.795 804.116 132.959L803.633 133.903L803.114 134.746C802.755 135.282 802.47 135.817 802.124 136.251C801.431 137.119 800.886 137.897 800.367 138.446L799.129 139.722L798.709 140.118L799.092 139.671L800.243 138.395C800.75 137.846 801.27 137.119 801.938 136.2C802.272 135.754 802.557 135.218 802.891 134.682L803.411 133.84L803.868 132.895C805.704 129.198 806.678 125.111 806.712 120.957C806.747 116.804 805.841 112.699 804.066 108.97C801.346 103.329 796.758 98.8781 791.132 96.423C785.506 93.9678 779.213 93.6706 773.393 95.5852C769.939 96.7217 766.759 98.6032 764.065 101.105C761.37 103.606 759.223 106.67 757.765 110.093C756.996 111.904 756.435 113.801 756.095 115.746C755.723 117.725 755.586 119.743 755.687 121.756C755.866 125.911 756.993 129.964 758.978 133.584L759.089 133.801L758.916 133.98L753.67 139.084L753.769 138.803C754.181 141.764 754.594 144.741 755.006 147.735L755.08 148.233L754.61 148.105L746.456 145.745L746.765 145.668L741.94 150.313L740.195 151.984L740.294 151.704C740.727 154.779 741.148 157.841 741.532 160.636L741.606 161.133L741.136 161.006L732.982 158.645L733.291 158.569L727.636 164.004L727.735 163.711C727.995 165.599 728.255 167.475 728.502 169.185V169.683L728.045 169.555L723.095 168.113L723.392 168.036L720.113 171.201L720.212 170.984C720.039 173.868 719.866 176.713 719.705 179.304L719.482 178.985L731.521 182.124H731.249L770.374 144.622L770.46 144.533H770.584C773.97 146.098 777.642 146.894 781.353 146.868C785.063 146.842 788.725 145.993 792.089 144.379C793.863 143.511 795.543 142.45 797.1 141.215C797.607 140.794 797.991 140.462 798.263 140.22L798.733 140.054Z" fill="#263238"/>
<path d="M797.867 137.042C801.414 133.639 803.961 129.274 805.214 124.448C806.468 119.622 806.379 114.529 804.956 109.753C803.533 104.977 800.835 100.71 797.171 97.4416C793.506 94.1731 789.023 92.0349 784.235 91.2717C779.447 90.5085 774.547 91.1512 770.097 93.1262C765.646 95.1013 761.825 98.3288 759.071 102.439C756.316 106.55 754.74 111.377 754.522 116.368C754.305 121.36 755.454 126.313 757.84 130.662L752.593 135.766L753.831 144.698L745.677 142.338L739.106 148.718L740.344 157.65L732.19 155.289L726.584 160.776L727.352 166.25L722.402 164.821L719.123 167.985L718.628 176.305L730.668 179.431L769.73 141.853C774.359 143.993 779.497 144.678 784.502 143.822C789.507 142.966 794.155 140.608 797.867 137.042ZM794.056 104.313C795.064 105.418 795.73 106.806 795.971 108.302C796.212 109.798 796.017 111.334 795.411 112.716C794.804 114.097 793.813 115.262 792.564 116.062C791.314 116.862 789.863 117.261 788.393 117.209C786.923 117.157 785.502 116.656 784.309 115.77C783.115 114.883 782.204 113.652 781.691 112.23C781.178 110.809 781.085 109.263 781.425 107.787C781.765 106.312 782.522 104.974 783.601 103.943C785.038 102.569 786.944 101.837 788.902 101.906C790.861 101.976 792.714 102.841 794.056 104.313Z" fill="#E0E0E0"/>
<path d="M794.056 104.313C794.056 104.313 793.574 103.854 792.584 103.228C791.191 102.351 789.553 101.978 787.932 102.169C786.616 102.316 785.366 102.838 784.322 103.676C783.277 104.514 782.48 105.635 782.019 106.914C781.557 108.193 781.45 109.58 781.71 110.918C781.969 112.256 782.585 113.493 783.488 114.491C784.391 115.489 785.545 116.207 786.822 116.567C788.098 116.926 789.447 116.912 790.716 116.525C791.985 116.139 793.125 115.396 794.008 114.379C794.891 113.363 795.482 112.113 795.714 110.769C796.012 109.113 795.764 107.402 795.009 105.908C794.477 104.849 794.007 104.364 794.056 104.313C794.106 104.262 794.192 104.415 794.415 104.645C794.731 104.988 795.005 105.369 795.232 105.78C796.108 107.318 796.437 109.123 796.16 110.884C795.997 111.922 795.635 112.917 795.095 113.808C794.554 114.7 793.847 115.472 793.014 116.078C792.18 116.684 791.238 117.113 790.242 117.338C789.246 117.564 788.217 117.582 787.214 117.392C785.603 117.077 784.133 116.238 783.02 114.998C781.906 113.758 781.208 112.182 781.027 110.502C780.845 108.942 781.125 107.363 781.832 105.972C782.419 104.796 783.285 103.792 784.349 103.053C785.413 102.315 786.642 101.866 787.919 101.748C789.626 101.585 791.336 102.035 792.757 103.024C793.142 103.282 793.491 103.591 793.797 103.943C793.986 104.181 794.073 104.304 794.056 104.313Z" fill="#263238"/>
<path d="M797.867 137.042C797.75 137.169 797.627 137.288 797.496 137.4L796.37 138.446C794.841 139.721 793.181 140.821 791.421 141.725C788.033 143.396 784.334 144.29 780.579 144.345C776.824 144.4 773.101 143.615 769.669 142.044H769.879L730.841 179.661L730.73 179.776H730.569L718.53 176.662H718.282V176.407C718.431 173.855 718.592 170.958 718.765 168.075V167.947L718.851 167.871C719.866 166.888 720.992 165.791 722.13 164.706L722.266 164.578H722.427L727.377 166.008L726.981 166.365C726.733 164.655 726.473 162.779 726.214 160.891V160.725L726.325 160.597L731.979 155.174L732.103 155.047H732.276L740.43 157.395L740.022 157.765C739.626 154.906 739.193 151.857 738.785 148.833V148.667L738.909 148.552L740.641 146.868L745.466 142.223L745.602 142.095H745.776L753.93 144.456L753.521 144.826C753.101 141.789 752.68 138.803 752.284 135.894V135.728L752.408 135.613L757.654 130.509V130.905C755.628 127.196 754.475 123.048 754.289 118.796C754.123 114.698 754.859 110.615 756.442 106.852C758.411 102.141 761.651 98.1116 765.775 95.2432C769.9 92.3749 774.737 90.7879 779.711 90.671C784.684 90.5541 789.586 91.9121 793.833 94.5837C798.081 97.2553 801.495 101.128 803.671 105.742C805.726 110.072 806.603 114.897 806.207 119.702C805.927 123.272 804.942 126.746 803.312 129.91L802.842 130.854L802.31 131.696C801.951 132.245 801.666 132.768 801.332 133.214C800.627 134.082 800.095 134.848 799.575 135.396L798.338 136.672C798.065 136.953 797.917 137.081 797.917 137.081C797.917 137.081 798.041 136.915 798.301 136.634L799.451 135.358C799.959 134.809 800.478 134.082 801.159 133.151C801.48 132.704 801.765 132.168 802.099 131.632L802.619 130.79L803.089 129.846C804.539 126.718 805.378 123.327 805.557 119.865C805.736 116.403 805.253 112.938 804.133 109.669C803.014 106.4 801.282 103.391 799.035 100.812C796.788 98.2334 794.07 96.1364 791.037 94.6409C788.005 93.1454 784.716 92.2805 781.359 92.0957C778.002 91.9109 774.642 92.4098 771.472 93.5638C768.302 94.7179 765.384 96.5046 762.883 98.8218C760.383 101.139 758.35 103.942 756.899 107.069C755.359 110.749 754.648 114.741 754.821 118.745C755 122.895 756.128 126.944 758.112 130.56L758.236 130.79L758.05 130.956L752.804 136.06L752.903 135.779C753.307 138.739 753.719 141.717 754.14 144.711L754.214 145.222L753.744 145.081L745.59 142.721L745.899 142.644L741.074 147.289L739.329 148.973L739.428 148.679C739.861 151.755 740.282 154.817 740.666 157.611L740.74 158.122L740.27 157.982L732.14 155.672L732.45 155.595L726.795 161.031L726.894 160.75C727.154 162.639 727.426 164.578 727.661 166.225L727.723 166.709L727.265 166.582L722.316 165.14L722.613 165.063L719.322 168.228L719.421 168.011C719.247 170.895 719.074 173.74 718.913 176.33L718.69 176.011L730.73 179.15L730.458 179.227L769.52 141.713L769.619 141.623H769.73C773.613 143.414 777.86 144.198 782.104 143.907C785.255 143.666 788.34 142.845 791.211 141.483C792.958 140.601 794.616 139.54 796.16 138.318L797.323 137.31L797.867 137.042Z" fill="#263238"/>
<path d="M795.504 134.962C796.774 133.559 797.933 132.053 798.968 130.458C800.147 128.567 801.04 126.502 801.616 124.333C802.411 121.471 802.663 118.477 802.359 115.516C802.006 111.932 800.84 108.483 798.956 105.449C796.793 101.964 793.769 99.1368 790.196 97.2567C788.279 96.2334 786.222 95.519 784.096 95.1385C783 94.9353 781.892 94.8032 780.78 94.7429C779.643 94.7264 778.506 94.786 777.377 94.9216C772.641 95.4842 768.206 97.5988 764.723 100.955C761.239 104.31 758.892 108.73 758.025 113.564C757.817 114.715 757.68 115.878 757.617 117.047C757.598 118.198 757.647 119.348 757.765 120.493C758.001 122.691 758.551 124.841 759.399 126.873C760.965 130.682 763.489 133.99 766.711 136.455C769.277 138.406 772.215 139.775 775.33 140.472C778.446 141.169 781.669 141.179 784.789 140.5C786.927 140.059 788.988 139.284 790.901 138.203C792.515 137.243 794.053 136.155 795.504 134.95C795.504 134.95 795.417 135.052 795.244 135.218L794.44 135.958C794.01 136.376 793.546 136.756 793.054 137.093C792.405 137.564 791.727 137.99 791.025 138.369C789.096 139.503 787.009 140.325 784.838 140.807C781.66 141.533 778.369 141.555 775.182 140.871C771.995 140.187 768.985 138.812 766.352 136.838C763.044 134.322 760.443 130.945 758.817 127.051C757.943 124.978 757.379 122.779 757.147 120.531C757.012 119.362 756.958 118.186 756.986 117.009C757.036 115.805 757.172 114.607 757.394 113.424C758.288 108.455 760.704 103.914 764.288 100.468C767.872 97.0227 772.434 94.8547 777.303 94.2836C778.461 94.1456 779.627 94.0902 780.792 94.1177C781.934 94.1759 783.071 94.3123 784.195 94.526C786.378 94.9289 788.49 95.6733 790.456 96.7335C794.11 98.6725 797.195 101.585 799.389 105.168C801.305 108.276 802.476 111.81 802.804 115.478C803.078 118.484 802.788 121.517 801.951 124.41C801.334 126.599 800.395 128.678 799.167 130.573C798.737 131.273 798.257 131.938 797.731 132.564C797.356 133.026 796.942 133.453 796.494 133.84L795.714 134.618C795.603 134.886 795.504 134.975 795.504 134.962Z" fill="#263238"/>
<path d="M794.452 116.116C794.452 116.116 794.997 115.542 795.69 114.355C796.539 112.938 796.982 111.302 796.969 109.636C796.956 107.97 796.487 106.341 795.615 104.938C794.801 103.634 793.659 102.58 792.312 101.889C790.841 101.108 789.176 100.806 787.536 101.021C785.767 101.23 784.109 102.018 782.806 103.27C781.504 104.521 780.624 106.17 780.297 107.975C779.979 109.653 780.156 111.391 780.804 112.964C781.268 114.082 781.952 115.089 782.812 115.921C783.671 116.753 784.689 117.393 785.8 117.799C786.912 118.205 788.092 118.37 789.268 118.282C790.445 118.195 791.59 117.857 792.633 117.29C793.871 116.627 794.378 116.014 794.428 116.116C794.477 116.218 794.316 116.282 794.044 116.537C793.671 116.914 793.255 117.244 792.807 117.52C791.338 118.393 789.655 118.808 787.962 118.715C786.269 118.622 784.638 118.025 783.267 116.997C781.898 115.973 780.839 114.57 780.212 112.951C779.586 111.331 779.418 109.562 779.728 107.848C780.077 105.906 781.021 104.131 782.423 102.784C783.824 101.438 785.608 100.592 787.511 100.37C788.691 100.224 789.888 100.323 791.031 100.663C792.173 101.003 793.238 101.576 794.161 102.349C795.085 103.121 795.848 104.077 796.406 105.16C796.964 106.243 797.305 107.43 797.409 108.652C797.595 110.715 797.079 112.781 795.949 114.496C795.649 114.959 795.301 115.387 794.91 115.772C794.775 115.909 794.621 116.025 794.452 116.116Z" fill="#263238"/>
<path d="M727.451 177.964C727.327 177.836 736.112 169.172 747.087 158.619C758.062 148.067 767.058 139.607 767.182 139.747C767.305 139.888 758.52 148.539 747.533 159.104C736.545 169.67 727.612 178.104 727.451 177.964Z" fill="#263238"/>
<path d="M689.477 293.238C687.437 293.68 685.33 293.68 683.29 293.238C685.33 292.795 687.437 292.795 689.477 293.238Z" fill="#263238"/>
<path d="M701.85 293.238C699.81 293.68 697.703 293.68 695.664 293.238C697.703 292.795 699.81 292.795 701.85 293.238Z" fill="#263238"/>
<path d="M714.224 293.238C712.184 293.68 710.077 293.68 708.037 293.238C710.077 292.795 712.184 292.795 714.224 293.238Z" fill="#263238"/>
<path d="M726.597 293.238C724.557 293.68 722.45 293.68 720.41 293.238C722.45 292.795 724.557 292.795 726.597 293.238Z" fill="#263238"/>
<path d="M738.97 293.238C736.93 293.68 734.824 293.68 732.784 293.238C734.824 292.795 736.93 292.795 738.97 293.238Z" fill="#263238"/>
<path d="M751.344 293.238C749.304 293.68 747.197 293.68 745.157 293.238C747.197 292.795 749.304 292.795 751.344 293.238Z" fill="#263238"/>
<path d="M761.849 291.311C761.972 291.311 762.096 292.102 762.146 293.237V293.48H761.836H760.599C759.557 293.584 758.505 293.471 757.506 293.148C758.505 292.825 759.557 292.712 760.599 292.816H761.836L761.539 293.122C761.601 292.102 761.713 291.311 761.849 291.311Z" fill="#263238"/>
<path d="M761.849 278.551C762.277 280.654 762.277 282.827 761.849 284.931C761.42 282.827 761.42 280.654 761.849 278.551Z" fill="#263238"/>
<path d="M761.849 265.791C762.277 267.895 762.277 270.067 761.849 272.171C761.42 270.067 761.42 267.895 761.849 265.791Z" fill="#263238"/>
<path d="M761.849 253.031C762.277 255.134 762.277 257.307 761.849 259.411C761.42 257.307 761.42 255.134 761.849 253.031Z" fill="#263238"/>
<path d="M761.849 240.271C762.277 242.375 762.277 244.547 761.849 246.651C761.42 244.547 761.42 242.375 761.849 240.271Z" fill="#263238"/>
<path d="M761.849 227.511C762.277 229.614 762.277 231.787 761.849 233.891C761.42 231.787 761.42 229.614 761.849 227.511Z" fill="#263238"/>
<path d="M761.849 214.751C762.277 216.855 762.277 219.027 761.849 221.131C761.42 219.027 761.42 216.855 761.849 214.751Z" fill="#263238"/>
<path d="M761.849 201.991C762.277 204.094 762.277 206.267 761.849 208.371C761.42 206.267 761.42 204.094 761.849 201.991Z" fill="#263238"/>
<path d="M761.849 189.231C762.277 191.335 762.277 193.507 761.849 195.611C761.42 193.507 761.42 191.335 761.849 189.231Z" fill="#263238"/>
<path d="M761.849 176.471C762.277 178.574 762.277 180.747 761.849 182.851C761.42 180.747 761.42 178.574 761.849 176.471Z" fill="#263238"/>
<path d="M761.849 163.711C762.277 165.815 762.277 167.987 761.849 170.091C761.42 167.987 761.42 165.815 761.849 163.711Z" fill="#263238"/>
<path d="M669.073 420.416C667.033 420.859 664.927 420.859 662.887 420.416C664.927 419.974 667.033 419.974 669.073 420.416Z" fill="#263238"/>
<path d="M681.447 420.416C679.407 420.859 677.3 420.859 675.26 420.416C677.3 419.974 679.407 419.974 681.447 420.416Z" fill="#263238"/>
<path d="M693.82 420.416C691.78 420.859 689.673 420.859 687.633 420.416C689.673 419.974 691.78 419.974 693.82 420.416Z" fill="#263238"/>
<path d="M706.193 420.416C704.153 420.859 702.047 420.859 700.007 420.416C702.047 419.974 704.153 419.974 706.193 420.416Z" fill="#263238"/>
<path d="M718.567 420.416C716.527 420.859 714.42 420.859 712.38 420.416C714.42 419.974 716.527 419.974 718.567 420.416Z" fill="#263238"/>
<path d="M730.94 420.416C728.9 420.859 726.793 420.859 724.753 420.416C726.793 419.974 728.9 419.974 730.94 420.416Z" fill="#263238"/>
<path d="M743.313 420.416C741.273 420.859 739.167 420.859 737.127 420.416C739.167 419.974 741.273 419.974 743.313 420.416Z" fill="#263238"/>
<path d="M755.687 420.416C753.647 420.859 751.54 420.859 749.5 420.416C751.54 419.974 753.647 419.974 755.687 420.416Z" fill="#263238"/>
<path d="M768.06 420.416C766.02 420.859 763.913 420.859 761.873 420.416C763.913 419.974 766.02 419.974 768.06 420.416Z" fill="#263238"/>
<path d="M780.433 420.416C778.393 420.859 776.287 420.859 774.247 420.416C776.287 419.974 778.393 419.974 780.433 420.416Z" fill="#263238"/>
<path d="M791.656 419.229C791.767 419.229 791.842 419.689 791.903 420.429V420.659H791.631C791.112 420.659 790.394 420.722 789.701 420.722C788.659 420.834 787.605 420.721 786.608 420.391C787.607 420.067 788.659 419.954 789.701 420.059C790.443 420.059 791.112 420.059 791.631 420.135L791.384 420.391C791.458 419.689 791.557 419.229 791.656 419.229Z" fill="#263238"/>
<path d="M791.792 406.47C792.104 407.5 792.205 408.587 792.089 409.66C792.182 410.737 792.06 411.823 791.73 412.85C791.426 411.817 791.329 410.732 791.446 409.66C791.352 408.583 791.47 407.498 791.792 406.47Z" fill="#263238"/>
<path d="M791.903 393.709C792.208 394.742 792.309 395.826 792.2 396.899C792.293 397.977 792.171 399.063 791.842 400.089C791.537 399.057 791.44 397.972 791.557 396.899C791.464 395.823 791.582 394.738 791.903 393.709Z" fill="#263238"/>
<path d="M792.027 380.95C792.332 381.982 792.433 383.067 792.324 384.14C792.41 385.217 792.288 386.301 791.965 387.33C791.66 386.298 791.559 385.213 791.668 384.14C791.583 383.062 791.705 381.978 792.027 380.95Z" fill="#263238"/>
<path d="M751.084 340.96L753.36 384.076C753.395 384.817 753.705 385.517 754.225 386.029C754.746 386.542 755.437 386.83 756.157 386.832L831.399 387.406C832.148 387.41 832.869 387.107 833.402 386.564C833.935 386.021 834.238 385.282 834.245 384.51L834.48 350.951C834.483 350.567 834.413 350.186 834.272 349.83C834.132 349.474 833.925 349.15 833.663 348.877C833.4 348.604 833.088 348.388 832.744 348.24C832.4 348.092 832.031 348.016 831.659 348.016H785.383C784.635 348.015 783.919 347.707 783.391 347.161L775.41 338.931C775.151 338.661 774.842 338.447 774.503 338.3C774.163 338.153 773.798 338.077 773.43 338.076L753.917 337.923C753.536 337.923 753.158 338.002 752.807 338.156C752.455 338.31 752.138 338.535 751.873 338.819C751.609 339.103 751.402 339.438 751.267 339.806C751.131 340.174 751.069 340.566 751.084 340.96Z" fill="#3CA55C"/>
<path d="M834.534 342.944L752.315 342.322L751.955 392.978L834.174 393.6L834.534 342.944Z" fill="#F5F5F5"/>
<path d="M745.751 346.817L751.653 399.694C751.699 400.151 751.908 400.574 752.24 400.88C752.571 401.187 753.002 401.355 753.447 401.353L833.564 401.965C834.023 401.97 834.466 401.795 834.804 401.475C835.142 401.155 835.349 400.714 835.383 400.243L839.801 347.442C839.821 347.184 839.79 346.925 839.708 346.68C839.627 346.435 839.497 346.211 839.327 346.02C839.158 345.83 838.952 345.677 838.722 345.573C838.493 345.468 838.245 345.414 837.994 345.413L747.57 344.737C747.313 344.735 747.059 344.79 746.825 344.896C746.59 345.003 746.38 345.16 746.208 345.356C746.036 345.553 745.907 345.784 745.828 346.036C745.749 346.288 745.723 346.554 745.751 346.817Z" fill="#3CA55C"/>
<path d="M678.601 264.604H264.478C254.521 264.604 246.45 272.928 246.45 283.195V553.018C246.45 563.286 254.521 571.61 264.478 571.61H678.601C688.557 571.61 696.629 563.286 696.629 553.018V283.195C696.629 272.928 688.557 264.604 678.601 264.604Z" fill="#263238"/>
<path d="M227.568 548.91H715.362V553.057C715.362 559.08 713.041 564.858 708.911 569.117C704.781 573.377 699.179 575.769 693.337 575.769H249.654C243.813 575.769 238.211 573.377 234.081 569.117C229.95 564.858 227.63 559.08 227.63 553.057V548.91H227.568Z" fill="#263238"/>
<path d="M683.29 276.803H258.538V536.06H683.29V276.803Z" fill="#455A64"/>
<path d="M427.162 548.91L433.213 558.837H518.378L524.008 548.91H427.162Z" fill="#455A64"/>
<path d="M671.375 285.582H271.332C269.098 285.582 267.286 287.45 267.286 289.754V531.058C267.286 533.363 269.098 535.231 271.332 535.231H671.375C673.609 535.231 675.421 533.363 675.421 531.058V289.754C675.421 287.45 673.609 285.582 671.375 285.582Z" fill="#EBEBEB"/>
<path d="M675.421 303.879H267.286V535.244H675.421V303.879Z" fill="#FAFAFA"/>
<path d="M300.756 295.228C300.756 295.895 300.564 296.547 300.205 297.101C299.845 297.655 299.334 298.087 298.737 298.341C298.139 298.596 297.482 298.662 296.848 298.531C296.214 298.4 295.632 298.078 295.176 297.605C294.719 297.133 294.409 296.532 294.284 295.877C294.16 295.223 294.226 294.545 294.475 293.93C294.725 293.315 295.145 292.79 295.684 292.421C296.223 292.052 296.856 291.857 297.502 291.859C297.93 291.859 298.355 291.947 298.75 292.116C299.146 292.286 299.505 292.534 299.808 292.847C300.11 293.16 300.349 293.531 300.512 293.94C300.675 294.349 300.758 294.786 300.756 295.228Z" fill="#263238"/>
<path d="M281.008 295.228C281.008 295.894 280.817 296.546 280.458 297.1C280.099 297.654 279.589 298.085 278.992 298.34C278.395 298.595 277.738 298.662 277.105 298.532C276.471 298.402 275.889 298.081 275.432 297.61C274.975 297.139 274.664 296.539 274.538 295.885C274.412 295.232 274.477 294.554 274.724 293.939C274.971 293.323 275.39 292.797 275.927 292.427C276.464 292.057 277.096 291.859 277.742 291.859C278.608 291.859 279.439 292.214 280.052 292.846C280.664 293.478 281.008 294.335 281.008 295.228Z" fill="#263238"/>
<path d="M290.486 295.228C290.486 295.895 290.294 296.547 289.935 297.101C289.576 297.655 289.065 298.087 288.467 298.341C287.869 298.596 287.212 298.662 286.578 298.531C285.944 298.4 285.362 298.078 284.906 297.605C284.449 297.133 284.139 296.532 284.015 295.877C283.89 295.223 283.956 294.545 284.205 293.93C284.455 293.315 284.875 292.79 285.414 292.421C285.953 292.052 286.586 291.857 287.232 291.859C287.661 291.859 288.085 291.947 288.48 292.116C288.876 292.286 289.235 292.534 289.538 292.847C289.84 293.16 290.079 293.531 290.242 293.94C290.405 294.349 290.488 294.786 290.486 295.228Z" fill="#263238"/>
<path d="M692.805 548.91C692.805 549.076 592.891 549.216 469.665 549.216C346.439 549.216 246.487 549.076 246.487 548.91C246.487 548.744 346.389 548.604 469.665 548.604C592.94 548.604 692.805 548.744 692.805 548.91Z" fill="#455A64"/>
<path d="M388.706 420.429H295.572V426.86H388.706V420.429Z" fill="#E0E0E0"/>
<path d="M508.999 331.224H415.865V337.655H508.999V331.224Z" fill="#E0E0E0"/>
<path d="M647.519 355.149C647.519 355.315 595.662 355.455 531.692 355.455C467.722 355.455 415.865 355.315 415.865 355.149C415.865 354.983 467.722 354.855 531.692 354.855C595.662 354.855 647.519 354.983 647.519 355.149Z" fill="#E0E0E0"/>
<path d="M647.519 369.185C647.519 369.351 595.662 369.479 531.692 369.479C467.722 369.479 415.865 369.351 415.865 369.185C415.865 369.019 467.722 368.879 531.692 368.879C595.662 368.879 647.519 369.019 647.519 369.185Z" fill="#E0E0E0"/>
<path d="M647.519 383.208C647.519 383.374 595.662 383.514 531.692 383.514C467.722 383.514 415.865 383.374 415.865 383.208C415.865 383.042 467.722 382.915 531.692 382.915C595.662 382.915 647.519 383.042 647.519 383.208Z" fill="#E0E0E0"/>
<path d="M647.519 397.244C647.519 397.41 595.662 397.538 531.692 397.538C467.722 397.538 415.865 397.41 415.865 397.244C415.865 397.078 467.722 396.938 531.692 396.938C595.662 396.938 647.519 397.078 647.519 397.244Z" fill="#E0E0E0"/>
<path d="M647.519 411.268C647.519 411.433 595.662 411.574 531.692 411.574C467.722 411.574 415.865 411.433 415.865 411.268C415.865 411.102 467.722 410.974 531.692 410.974C595.662 410.974 647.519 411.102 647.519 411.268Z" fill="#E0E0E0"/>
<path d="M506.29 425.303C506.29 425.469 486.047 425.597 461.078 425.597C436.108 425.597 415.865 425.469 415.865 425.303C415.865 425.137 436.108 424.997 461.078 424.997C486.047 424.997 506.29 425.137 506.29 425.303Z" fill="#E0E0E0"/>
<path d="M645.787 452.521C645.787 452.686 611.698 452.827 569.666 452.827C527.634 452.827 493.533 452.686 493.533 452.521C493.533 452.355 527.609 452.227 569.666 452.227C611.723 452.227 645.787 452.355 645.787 452.521Z" fill="#E0E0E0"/>
<path d="M645.787 467.424C645.787 467.59 611.698 467.718 569.666 467.718C527.634 467.718 493.533 467.59 493.533 467.424C493.533 467.259 527.609 467.118 569.666 467.118C611.723 467.118 645.787 467.259 645.787 467.424Z" fill="#E0E0E0"/>
<path d="M645.787 482.328C645.787 482.494 611.698 482.621 569.666 482.621C527.634 482.621 493.595 482.481 493.595 482.328C493.595 482.175 527.671 482.021 569.728 482.021C611.785 482.021 645.787 482.149 645.787 482.328Z" fill="#E0E0E0"/>
<path d="M645.787 497.206C645.787 497.372 611.698 497.5 569.666 497.5C527.634 497.5 493.533 497.372 493.533 497.206C493.533 497.04 527.609 496.9 569.666 496.9C611.723 496.9 645.787 497.04 645.787 497.206Z" fill="#E0E0E0"/>
<path d="M388.941 451.104C388.941 451.27 368.624 451.398 343.556 451.398C318.487 451.398 298.17 451.27 298.17 451.104C298.17 450.938 318.487 450.798 343.556 450.798C368.624 450.798 388.941 450.938 388.941 451.104Z" fill="#E0E0E0"/>
<path d="M388.941 462.793C388.941 462.958 368.624 463.099 343.556 463.099C318.487 463.099 298.17 462.958 298.17 462.793C298.17 462.627 318.487 462.499 343.556 462.499C368.624 462.499 388.941 462.627 388.941 462.793Z" fill="#E0E0E0"/>
<path d="M388.941 474.493C388.941 474.659 368.624 474.8 343.556 474.8C318.487 474.8 298.17 474.659 298.17 474.493C298.17 474.327 318.487 474.187 343.556 474.187C368.624 474.187 388.941 474.327 388.941 474.493Z" fill="#E0E0E0"/>
<path d="M388.941 486.156C388.941 486.322 368.624 486.449 343.556 486.449C318.487 486.449 298.17 486.322 298.17 486.156C298.17 485.99 318.487 485.85 343.556 485.85C368.624 485.85 388.941 486.028 388.941 486.156Z" fill="#E0E0E0"/>
<path d="M388.941 497.882C388.941 498.048 368.624 498.189 343.556 498.189C318.487 498.189 298.17 498.048 298.17 497.882C298.17 497.716 318.487 497.589 343.556 497.589C368.624 497.589 388.941 497.716 388.941 497.882Z" fill="#E0E0E0"/>
<path d="M481.877 445.426H415.803V511.357H481.877V445.426Z" fill="#F5F5F5"/>
<path d="M420.926 505.704L439.214 471.775L454.161 493.467L463.255 481.945L476.767 505.704H420.926Z" fill="#EBEBEB"/>
<path d="M460.533 465.179C460.536 466.151 460.258 467.103 459.735 467.913C459.213 468.723 458.469 469.354 457.598 469.728C456.727 470.101 455.768 470.199 454.843 470.01C453.918 469.821 453.068 469.353 452.401 468.665C451.734 467.977 451.28 467.101 451.097 466.147C450.913 465.193 451.009 464.204 451.371 463.306C451.733 462.407 452.345 461.64 453.13 461.101C453.916 460.563 454.838 460.276 455.782 460.279C457.042 460.279 458.25 460.795 459.141 461.714C460.032 462.633 460.533 463.879 460.533 465.179Z" fill="#EBEBEB"/>
<path d="M476.767 505.896C476.755 505.803 476.755 505.708 476.767 505.615C476.767 505.424 476.767 505.168 476.767 504.849C476.767 504.148 476.767 503.165 476.767 501.889C476.767 499.273 476.767 495.509 476.693 490.686C476.693 481.052 476.618 467.348 476.557 450.875L476.829 451.155H421L421.31 450.836V465.74C421.31 470.589 421.31 475.336 421.31 479.942C421.31 489.18 421.31 497.908 421.31 505.947L421.037 505.653L461.399 505.806L472.783 505.87H475.802H476.594H476.866H475.864H472.894L461.572 505.934L421.037 506.087H420.753V505.806C420.753 497.768 420.753 489.04 420.753 479.802C420.753 475.195 420.753 470.448 420.753 465.6V450.9L421.075 450.568H476.903H477.175V450.836C477.113 467.424 477.064 481.154 477.039 490.826C477.039 495.598 476.977 499.363 476.965 501.966C476.965 503.216 476.965 504.186 476.965 504.875C476.965 505.181 476.965 505.424 476.965 505.615C476.908 505.715 476.842 505.81 476.767 505.896Z" fill="#EBEBEB"/>
<path d="M386.949 320.25H297.329V409.673H386.949V320.25Z" fill="#F5F5F5"/>
<path d="M304.27 402.016L329.066 356.004L349.346 385.416L361.67 369.797L379.995 402.016H304.27Z" fill="#E0E0E0"/>
<path d="M357.983 347.072C357.983 348.387 357.605 349.672 356.897 350.765C356.188 351.858 355.181 352.711 354.003 353.214C352.825 353.717 351.529 353.849 350.279 353.592C349.028 353.335 347.88 352.702 346.978 351.773C346.077 350.843 345.463 349.658 345.214 348.369C344.965 347.079 345.093 345.742 345.581 344.528C346.069 343.313 346.895 342.275 347.955 341.544C349.015 340.814 350.261 340.424 351.536 340.424C353.246 340.424 354.886 341.124 356.095 342.371C357.304 343.618 357.983 345.309 357.983 347.072Z" fill="#E0E0E0"/>
<path d="M379.995 402.271C379.995 402.271 379.995 402.144 379.995 401.901C379.995 401.659 379.995 401.289 379.995 400.855C379.995 399.911 379.995 398.571 379.995 396.836C379.995 393.288 379.933 388.159 379.896 381.651C379.896 368.585 379.785 349.994 379.71 327.664L380.069 328.034L304.357 328.098C304.258 328.187 305.161 327.268 304.778 327.677V347.735C304.778 354.311 304.778 360.733 304.778 367.003C304.778 379.52 304.778 391.362 304.778 402.259L304.406 401.876L359.158 402.067L374.6 402.169H378.708H379.76H380.131H379.809H378.782H374.761L359.406 402.271L304.406 402.463H304.035V402.08C304.035 391.183 304.035 379.342 304.035 366.824C304.035 360.563 304.035 354.141 304.035 347.557V327.689C303.652 328.072 304.555 327.128 304.468 327.23L380.181 327.294H380.552V327.677C380.478 350.109 380.416 368.789 380.366 381.907C380.366 388.376 380.292 393.48 380.267 397.002C380.267 398.699 380.267 400.026 380.267 400.957C380.267 401.378 380.267 401.697 380.267 401.952C380.202 402.08 380.109 402.189 379.995 402.271Z" fill="#E0E0E0"/>
<path d="M398.963 354.23L403.393 363.481L413.292 364.962L406.128 372.171L407.81 382.341L398.963 377.543L390.104 382.341L391.799 372.171L384.635 364.962L394.534 363.481L398.963 354.23Z" fill="#3CA55C"/>
<path d="M430.144 322.075L434.574 331.326L444.473 332.806L437.308 340.016L439.004 350.185L430.144 345.375L421.285 350.185L422.98 340.016L415.816 332.806L425.715 331.326L430.144 322.075Z" fill="#3CA55C"/>
<path d="M471.818 309.456L476.247 318.707L486.146 320.187L478.982 327.383L480.677 337.553L471.818 332.755L462.958 337.553L464.653 327.383L457.489 320.187L467.388 318.707L471.818 309.456Z" fill="#3CA55C"/>
<path d="M514.951 322.381L519.381 331.632L529.279 333.113L522.115 340.309L523.81 350.479L514.951 345.681L506.092 350.479L507.787 340.309L500.623 333.113L510.521 331.632L514.951 322.381Z" fill="#3CA55C"/>
<path d="M544.672 353.031L549.101 362.282L559 363.762L551.836 370.971L553.531 381.128L544.672 376.33L535.825 381.128L537.508 370.971L530.344 363.762L540.242 362.282L544.672 353.031Z" fill="#3CA55C"/>
<path d="M555.461 397.512L559.891 406.763L569.79 408.243L562.626 415.44L564.308 425.61L555.461 420.812L546.602 425.61L548.297 415.44L541.133 408.243L551.032 406.763L555.461 397.512Z" fill="#3CA55C"/>
<path d="M544.969 441.688L549.398 450.939L559.297 452.419L552.133 459.628L553.828 469.798L544.969 464.987L536.109 469.798L537.805 459.628L530.64 452.419L540.539 450.939L544.969 441.688Z" fill="#3CA55C"/>
<path d="M513.392 472.35L517.822 481.601L527.72 483.081L520.556 490.277L522.251 500.447L513.392 495.649L504.545 500.447L506.228 490.277L499.076 483.081L508.975 481.601L513.392 472.35Z" fill="#3CA55C"/>
<path d="M470.976 484.982L475.406 494.233L485.305 495.713L478.14 502.923L479.836 513.079L470.976 508.282L462.129 513.079L463.812 502.923L456.648 495.713L466.547 494.233L470.976 484.982Z" fill="#3CA55C"/>
<path d="M430.466 472.362L434.896 481.613L444.794 483.093L437.63 490.29L439.325 500.46L430.466 495.662L421.619 500.46L423.302 490.29L416.138 483.093L426.049 481.613L430.466 472.362Z" fill="#3CA55C"/>
<path d="M398.419 440.883L402.836 450.134L412.735 451.627L405.583 458.824L407.266 468.994L398.419 464.196L389.56 468.994L391.255 458.824L384.091 451.627L393.989 450.134L398.419 440.883Z" fill="#3CA55C"/>
<path d="M387.629 397.563L392.059 406.814L401.958 408.294L394.794 415.504L396.489 425.66L387.629 420.863L378.77 425.66L380.465 415.504L373.301 408.294L383.2 406.814L387.629 397.563Z" fill="#3CA55C"/>
<path d="M502.367 429.297H493.706V380.682C493.706 375.179 491.586 369.902 487.813 366.011C484.04 362.12 478.923 359.934 473.587 359.934C468.251 359.934 463.134 362.12 459.361 366.011C455.588 369.902 453.468 375.179 453.468 380.682V429.297H444.807V380.682C444.807 376.784 445.551 372.925 446.997 369.324C448.444 365.723 450.564 362.451 453.236 359.695C455.909 356.939 459.081 354.753 462.573 353.261C466.065 351.77 469.807 351.002 473.587 351.002C477.366 351.002 481.109 351.77 484.601 353.261C488.093 354.753 491.265 356.939 493.938 359.695C496.61 362.451 498.73 365.723 500.177 369.324C501.623 372.925 502.367 376.784 502.367 380.682V429.297Z" fill="#263238"/>
<path d="M505.189 407.669H441.986C438.015 407.669 434.797 410.988 434.797 415.083V451.589C434.797 455.683 438.015 459.002 441.986 459.002H505.189C509.159 459.002 512.377 455.683 512.377 451.589V415.083C512.377 410.988 509.159 407.669 505.189 407.669Z" fill="#3CA55C"/>
<path d="M480.071 426.643C480.071 427.966 479.69 429.258 478.978 430.358C478.266 431.457 477.253 432.315 476.068 432.821C474.883 433.327 473.58 433.459 472.322 433.201C471.064 432.943 469.909 432.306 469.002 431.371C468.096 430.436 467.478 429.245 467.228 427.948C466.978 426.651 467.106 425.306 467.597 424.085C468.088 422.863 468.919 421.819 469.985 421.084C471.051 420.349 472.305 419.957 473.587 419.957C475.307 419.957 476.956 420.661 478.172 421.915C479.388 423.169 480.071 424.87 480.071 426.643Z" fill="#263238"/>
<path d="M475.356 429.297H471.818V443.053H475.356V429.297Z" fill="#263238"/>
<path d="M438.929 454.128C438.756 454.128 438.608 445.566 438.608 434.988C438.608 424.41 438.756 415.848 438.929 415.848C439.102 415.848 439.251 424.41 439.251 434.988C439.251 445.566 439.152 454.128 438.929 454.128Z" fill="#FAFAFA"/>
<path d="M468.514 435.218C468.514 435.218 468.205 435.116 467.747 434.772C467.106 434.276 466.542 433.683 466.076 433.011C465.274 431.91 464.717 430.64 464.444 429.293C464.171 427.945 464.19 426.551 464.498 425.211C464.806 423.872 465.397 422.618 466.228 421.54C467.059 420.463 468.11 419.587 469.306 418.975C470.017 418.593 470.781 418.326 471.57 418.184C471.856 418.122 472.151 418.122 472.436 418.184C471.438 418.534 470.466 418.961 469.529 419.46C468.429 420.084 467.468 420.939 466.708 421.969C465.948 422.999 465.405 424.182 465.115 425.442C464.825 426.701 464.793 428.01 465.023 429.282C465.252 430.555 465.738 431.764 466.448 432.832C467.073 433.683 467.764 434.481 468.514 435.218Z" fill="#FAFAFA"/>
</svg>
