<svg width="656" height="685" viewBox="0 0 656 685" fill="none" xmlns="http://www.w3.org/2000/svg">
<path d="M526.256 86.543C526.256 86.543 455.093 31.6471 364.132 61.883C273.171 92.1189 236.16 173.785 184.638 231.229C157.637 261.369 117.28 273.849 85.0307 297.55C-18.1056 373.352 -0.183724 531.82 81.0947 587.99C151.497 636.667 238.535 637.954 351.078 594.196C463.621 550.439 544.296 523.6 612.704 410.411C681.112 297.222 614.016 161.482 526.256 86.543Z" fill="#FFD700"/>
<path opacity="0.8" d="M526.256 86.543C526.256 86.543 455.093 31.6471 364.132 61.883C273.171 92.1189 236.16 173.785 184.638 231.229C157.637 261.369 117.28 273.849 85.0307 297.55C-18.1056 373.352 -0.183724 531.82 81.0947 587.99C151.497 636.667 238.535 637.954 351.078 594.196C463.621 550.439 544.296 523.6 612.704 410.411C681.112 297.222 614.016 161.482 526.256 86.543Z" fill="white"/>
<g opacity="0.3">
<path d="M100.512 196.513H38.0874V115.203H91.1972L100.512 123.314V196.513Z" fill="white" stroke="black" stroke-linejoin="round"/>
<path d="M91.1973 115.203V123.451H100.512L91.1973 115.203Z" fill="white" stroke="black" stroke-linejoin="round"/>
<path d="M72.5537 122.04H25.9514V139.809H72.5537V122.04Z" fill="black"/>
<path d="M44.9885 144.891H95.2512" stroke="black" stroke-miterlimit="10"/>
<path d="M44.9885 154.632H95.2512" stroke="black" stroke-miterlimit="10"/>
<path d="M44.9885 164.359H95.2512" stroke="black" stroke-miterlimit="10"/>
<path d="M44.9885 174.1H95.2512" stroke="black" stroke-miterlimit="10"/>
<path d="M44.9885 183.827H95.2512" stroke="black" stroke-miterlimit="10"/>
<path d="M40.1734 137.274V125.752H37.9167V124.382H43.7814V125.752H41.5247V137.274H40.1734Z" fill="white"/>
<path d="M47.77 131.753L45.7102 137.233H44.3982L46.8779 130.63L44.6081 124.451H46.0382L47.9275 129.588L49.8561 124.451H51.1681L48.8721 130.671L51.3256 137.274H49.8561L47.77 131.753Z" fill="white"/>
<path d="M54.1201 137.274V125.752H51.8503V124.382H57.7281V125.752H55.4583V137.274H54.1201Z" fill="white"/>
</g>
<g opacity="0.3">
<path d="M608.571 375.38H546.146V294.057H599.243L608.571 302.167V375.38Z" fill="white" stroke="black" stroke-linejoin="round"/>
<path d="M599.243 294.057V302.304H608.571L599.243 294.057Z" fill="white" stroke="black" stroke-linejoin="round"/>
<path d="M580.599 300.907H533.997V318.676H580.599V300.907Z" fill="black"/>
<path d="M553.047 323.759H603.297" stroke="black" stroke-miterlimit="10"/>
<path d="M553.047 333.486H603.297" stroke="black" stroke-miterlimit="10"/>
<path d="M553.047 343.212H603.297" stroke="black" stroke-miterlimit="10"/>
<path d="M553.047 352.953H603.297" stroke="black" stroke-miterlimit="10"/>
<path d="M553.047 362.68H603.297" stroke="black" stroke-miterlimit="10"/>
<path d="M548.232 316.141V304.62H545.962V303.318H551.84V304.62H549.584V316.141H548.232Z" fill="white"/>
<path d="M555.829 310.606L553.769 316.086H552.457L554.936 309.469L552.614 303.263H554.031L555.934 308.387L557.849 303.263H559.161L556.865 309.469L559.319 316.086H557.862L555.829 310.606Z" fill="white"/>
<path d="M562.166 316.141V304.62H559.909V303.318H565.787V304.62H563.517V316.141H562.166Z" fill="white"/>
</g>
<g opacity="0.3">
<path d="M404.503 514.284H342.078V432.961H395.188L404.503 441.072V514.284Z" fill="white" stroke="black" stroke-linejoin="round"/>
<path d="M395.188 432.961V441.222H404.503L395.188 432.961Z" fill="white" stroke="black" stroke-linejoin="round"/>
<path d="M376.544 439.811H329.942V457.58H376.544V439.811Z" fill="black"/>
<path d="M348.992 462.663H399.242" stroke="black" stroke-miterlimit="10"/>
<path d="M348.992 472.39H399.242" stroke="black" stroke-miterlimit="10"/>
<path d="M348.992 482.117H399.242" stroke="black" stroke-miterlimit="10"/>
<path d="M348.992 491.857H399.242" stroke="black" stroke-miterlimit="10"/>
<path d="M348.992 501.584H399.242" stroke="black" stroke-miterlimit="10"/>
<path d="M344.164 455.046V443.524H341.907V442.222H347.785V443.524H345.515V455.046H344.164Z" fill="white"/>
<path d="M351.76 449.511L349.701 454.991H348.389L350.855 448.374L348.546 442.168H349.963L351.852 447.292L353.768 442.168H355.08L352.771 448.374L355.237 454.991H353.794L351.76 449.511Z" fill="white"/>
<path d="M358.176 455.046V443.524H355.906V442.222H361.784V443.524H359.488V455.046H358.176Z" fill="white"/>
</g>
<g opacity="0.3">
<path d="M126.372 393.807H42.2988V284.289H113.829L126.372 295.208V393.807Z" fill="white" stroke="black" stroke-linejoin="round"/>
<path d="M113.829 284.289V295.4H126.372L113.829 284.289Z" fill="white" stroke="black" stroke-linejoin="round"/>
<path d="M88.7175 293.509H25.9514V317.443H88.7175V293.509Z" fill="black"/>
<path d="M51.6011 324.279H119.287" stroke="black" stroke-miterlimit="10"/>
<path d="M51.6011 337.39H119.287" stroke="black" stroke-miterlimit="10"/>
<path d="M51.6011 350.487H119.287" stroke="black" stroke-miterlimit="10"/>
<path d="M51.6011 363.598H119.287" stroke="black" stroke-miterlimit="10"/>
<path d="M51.6011 376.709H119.287" stroke="black" stroke-miterlimit="10"/>
<path d="M46.3399 296.756C48.9639 296.756 50.0528 298.359 50.0528 300.975V303.044C50.0528 305.784 48.8196 307.154 46.1956 307.154H44.608V314.004H42.7712V296.742L46.3399 296.756ZM46.1956 305.51C47.5076 305.51 48.2292 304.839 48.2292 303.195V300.893C48.2292 299.318 47.6912 298.523 46.3399 298.523H44.608V305.51H46.1956Z" fill="white"/>
<path d="M55.4321 296.756C58.0561 296.756 59.1844 298.372 59.1844 301.044V309.743C59.1844 312.388 58.0036 314.018 55.4321 314.018H51.4961V296.756H55.4321ZM55.4321 312.264C56.7441 312.264 57.4001 311.401 57.4001 309.826V300.948C57.4001 299.359 56.7572 298.496 55.419 298.496H53.3985V312.264H55.4321Z" fill="white"/>
<path d="M66.5579 304.798V306.538H62.7531V314.018H60.9163V296.756H67.4763V298.496H62.7531V304.798H66.5579Z" fill="white"/>
</g>
<g opacity="0.3">
<path d="M91.8399 543.616H50.407V489.652H85.6473L91.8399 495.036V543.616Z" fill="white" stroke="black" stroke-linejoin="round"/>
<path d="M85.6472 489.652V495.132H91.8399L85.6472 489.652Z" fill="white" stroke="black" stroke-linejoin="round"/>
<path d="M73.2752 494.187H42.3513V505.982H73.2752V494.187Z" fill="black"/>
<path d="M54.999 509.353H88.3501" stroke="black" stroke-miterlimit="10"/>
<path d="M54.999 515.819H88.3501" stroke="black" stroke-miterlimit="10"/>
<path d="M54.999 522.271H88.3501" stroke="black" stroke-miterlimit="10"/>
<path d="M54.999 528.738H88.3501" stroke="black" stroke-miterlimit="10"/>
<path d="M54.999 535.191H88.3501" stroke="black" stroke-miterlimit="10"/>
<path d="M52.4013 495.79C53.7133 495.79 54.2249 496.584 54.2249 497.872V498.886C54.2249 500.256 53.6214 500.941 52.3225 500.941H51.5222V504.297H50.6169V495.79H52.4013ZM52.3225 500.05C53.0048 500.05 53.3328 499.721 53.3328 498.913V497.776C53.3328 497.009 53.0573 496.612 52.4013 496.612H51.5222V500.05H52.3225Z" fill="white"/>
<path d="M56.8751 495.79C58.1871 495.79 58.725 496.598 58.725 497.913V502.201C58.725 503.503 58.1477 504.297 56.8751 504.297H54.9727V495.79H56.8751ZM56.8751 503.434C57.5311 503.434 57.8459 503.009 57.8459 502.229V497.858C57.8459 497.077 57.5311 496.653 56.8619 496.653H55.8911V503.503L56.8751 503.434Z" fill="white"/>
<path d="M62.3593 499.749V500.612H60.4832V504.297H59.5779V495.79H62.8185V496.653H60.4832V499.749H62.3593Z" fill="white"/>
</g>
<g opacity="0.3">
<path d="M618.569 143.014H577.136V89.0364H612.376L618.569 94.4205V143.014Z" fill="white" stroke="black" stroke-linejoin="round"/>
<path d="M612.376 89.0364V94.5164H618.569L612.376 89.0364Z" fill="white" stroke="black" stroke-linejoin="round"/>
<path d="M600.004 93.5847H569.08V105.38H600.004V93.5847Z" fill="black"/>
<path d="M581.715 108.751H615.066" stroke="black" stroke-miterlimit="10"/>
<path d="M581.715 115.203H615.066" stroke="black" stroke-miterlimit="10"/>
<path d="M581.715 121.67H615.066" stroke="black" stroke-miterlimit="10"/>
<path d="M581.715 128.123H615.066" stroke="black" stroke-miterlimit="10"/>
<path d="M581.715 134.589H615.066" stroke="black" stroke-miterlimit="10"/>
<path d="M579.13 95.1877C580.442 95.1877 580.954 95.9686 580.954 97.2701V98.2839C580.954 99.6539 580.35 100.339 579.051 100.339H578.251V103.695H577.346V95.1877H579.13ZM579.051 99.4895C579.734 99.4895 580.062 99.1607 580.062 98.3387V97.2701C580.062 96.4892 579.786 96.1056 579.13 96.1056H578.251V99.5443L579.051 99.4895Z" fill="white"/>
<path d="M583.604 95.1877C584.916 95.1877 585.454 95.9823 585.454 97.2975V101.586C585.454 102.887 584.876 103.695 583.604 103.695H581.701V95.1877H583.604ZM583.604 102.832C584.26 102.832 584.575 102.408 584.575 101.627V97.2701C584.575 96.4892 584.26 96.0645 583.591 96.0645H582.62V102.915L583.604 102.832Z" fill="white"/>
<path d="M589.088 99.147V100.01H587.212V103.695H586.307V95.1877H589.547V96.0508H587.212V99.147H589.088Z" fill="white"/>
</g>
<path d="M545.11 67.9382H106.298V426.07H545.11V67.9382Z" fill="#263238" stroke="#263238" stroke-miterlimit="10"/>
<path d="M560.67 53.9231H120.533V412.904H560.67V53.9231Z" fill="#FFD700"/>
<path d="M560.67 53.9231H120.533V412.904H560.67V53.9231Z" fill="#F4F2E6" stroke="#263238" stroke-linecap="round" stroke-linejoin="round"/>
<path d="M225.664 104.791H132.512V166.441H225.664V104.791Z" fill="#F4F2E6" stroke="#263238" stroke-linecap="round" stroke-linejoin="round"/>
<path d="M158.096 131.52H197.456" stroke="#263238" stroke-miterlimit="10"/>
<path d="M148.256 141.795H213.2" stroke="#263238" stroke-miterlimit="10"/>
<path d="M225.664 178.086H132.512V239.736H225.664V178.086Z" fill="#F4F2E6" stroke="#263238" stroke-linecap="round" stroke-linejoin="round"/>
<path d="M142.208 192.718H174.877" stroke="#263238" stroke-miterlimit="10"/>
<path d="M142.208 200.883H174.877" stroke="#263238" stroke-miterlimit="10"/>
<path d="M142.208 209.048H174.877" stroke="#263238" stroke-miterlimit="10"/>
<path d="M142.208 217.213H174.877" stroke="#263238" stroke-miterlimit="10"/>
<path d="M142.208 225.379H174.877" stroke="#263238" stroke-miterlimit="10"/>
<path d="M182.657 192.718H215.326" stroke="#263238" stroke-miterlimit="10"/>
<path d="M182.657 200.883H215.326" stroke="#263238" stroke-miterlimit="10"/>
<path d="M182.657 209.048H215.326" stroke="#263238" stroke-miterlimit="10"/>
<path d="M182.657 217.213H215.326" stroke="#263238" stroke-miterlimit="10"/>
<path d="M182.657 225.379H215.326" stroke="#263238" stroke-miterlimit="10"/>
<path d="M225.664 251.381H132.512V313.031H225.664V251.381Z" fill="#F4F2E6" stroke="#263238" stroke-linecap="round" stroke-linejoin="round"/>
<path d="M142.208 266.013H174.877" stroke="#263238" stroke-miterlimit="10"/>
<path d="M142.208 274.178H174.877" stroke="#263238" stroke-miterlimit="10"/>
<path d="M142.208 282.343H174.877" stroke="#263238" stroke-miterlimit="10"/>
<path d="M142.208 290.508H174.877" stroke="#263238" stroke-miterlimit="10"/>
<path d="M142.208 298.674H174.877" stroke="#263238" stroke-miterlimit="10"/>
<path d="M182.657 266.013H215.326" stroke="#263238" stroke-miterlimit="10"/>
<path d="M182.657 274.178H215.326" stroke="#263238" stroke-miterlimit="10"/>
<path d="M182.657 282.343H215.326" stroke="#263238" stroke-miterlimit="10"/>
<path d="M182.657 290.508H215.326" stroke="#263238" stroke-miterlimit="10"/>
<path d="M182.657 298.674H215.326" stroke="#263238" stroke-miterlimit="10"/>
<path d="M225.664 324.676H132.512V386.326H225.664V324.676Z" fill="#F4F2E6" stroke="#263238" stroke-linecap="round" stroke-linejoin="round"/>
<path d="M142.208 339.308H174.877" stroke="#263238" stroke-miterlimit="10"/>
<path d="M142.208 347.473H174.877" stroke="#263238" stroke-miterlimit="10"/>
<path d="M142.208 355.638H174.877" stroke="#263238" stroke-miterlimit="10"/>
<path d="M142.208 363.803H174.877" stroke="#263238" stroke-miterlimit="10"/>
<path d="M142.208 371.969H174.877" stroke="#263238" stroke-miterlimit="10"/>
<path d="M182.657 339.308H215.326" stroke="#263238" stroke-miterlimit="10"/>
<path d="M182.657 347.473H215.326" stroke="#263238" stroke-miterlimit="10"/>
<path d="M182.657 355.638H215.326" stroke="#263238" stroke-miterlimit="10"/>
<path d="M182.657 363.803H215.326" stroke="#263238" stroke-miterlimit="10"/>
<path d="M182.657 371.969H215.326" stroke="#263238" stroke-miterlimit="10"/>
<path d="M560.657 53.9231H238.784V412.904H560.657V53.9231Z" fill="#B8B8B8" stroke="#263238" stroke-linecap="round" stroke-linejoin="round"/>
<path d="M539.232 121.93H247.968V328.8H539.232V121.93Z" fill="#F4F2E6" stroke="#263238" stroke-linecap="round" stroke-linejoin="round"/>
<path d="M315.641 204.048H475.495" stroke="#263238" stroke-miterlimit="10"/>
<path d="M293.914 222.187H497.222" stroke="#263238" stroke-miterlimit="10"/>
<path d="M560.657 53.9231H549.282V412.904H560.657V53.9231Z" fill="#DBDBDB" stroke="#263238" stroke-miterlimit="10"/>
<path d="M560.657 165.14H549.282V262.136H560.657V165.14Z" fill="#878787"/>
<path d="M560.67 53.9231H120.533V77.2405H560.67V53.9231Z" fill="#FFD700" stroke="#263238" stroke-linecap="round" stroke-linejoin="round"/>
<path d="M432.448 57.896H149.476V71.048H432.448V57.896Z" fill="#F4F2E6"/>
<path d="M539.219 85.4878H517.374" stroke="#263238" stroke-miterlimit="10"/>
<path d="M539.219 92.5161H517.374" stroke="#263238" stroke-miterlimit="10"/>
<path d="M539.219 99.5303H517.374" stroke="#263238" stroke-miterlimit="10"/>
<path d="M565.472 559.563L570.786 543.698" stroke="#263238" stroke-linecap="round" stroke-linejoin="round"/>
<path d="M565.853 516.723V575.825" stroke="#263238" stroke-linecap="round" stroke-linejoin="round"/>
<path d="M557.141 547.383C557.141 547.383 549.269 538.41 541.397 539.903C533.525 541.397 529.93 551.137 529.93 557.124C529.93 563.111 537.802 582.565 537.802 582.565C537.802 582.565 543.535 575.838 556.445 566.125C569.356 556.412 570.051 546.63 557.141 547.383Z" fill="#FFD700" stroke="#263238" stroke-linecap="round" stroke-linejoin="round"/>
<path d="M557.141 547.383C550.383 551.38 544.907 557.371 541.397 564.604" stroke="#263238" stroke-linecap="round" stroke-linejoin="round"/>
<path d="M569.998 536.848C569.998 536.848 576.558 529.464 583 530.71C589.442 531.957 592.434 539.985 592.42 544.917C592.407 549.849 585.86 565.878 585.86 565.878C581.194 560.828 576.066 556.267 570.549 552.26C559.935 544.219 559.358 536.204 569.998 536.848Z" fill="#FFD700" stroke="#263238" stroke-linecap="round" stroke-linejoin="round"/>
<path d="M569.999 536.848C575.567 540.147 580.073 545.096 582.948 551.069" stroke="#263238" stroke-linecap="round" stroke-linejoin="round"/>
<path d="M564.711 527.039L574.59 511.955" stroke="#263238" stroke-linecap="round" stroke-linejoin="round"/>
<path d="M563.058 522.669C563.058 522.669 562.901 512.64 557.246 509.064C551.591 505.489 544.31 509.434 541.174 513.174C538.038 516.915 532.672 533.327 532.672 533.327C532.672 533.327 539.731 532.437 552.785 533.807C565.839 535.177 571.402 529.573 563.058 522.669Z" fill="#FFD700" stroke="#263238" stroke-linecap="round" stroke-linejoin="round"/>
<path d="M563.058 522.669C556.797 521.268 550.279 521.83 544.323 524.285" stroke="#263238" stroke-linecap="round" stroke-linejoin="round"/>
<path d="M571.547 509.215C571.547 509.215 571.665 501.831 575.824 499.201C579.983 496.57 585.362 499.475 587.632 502.187C589.901 504.9 593.864 517.052 593.864 517.052C588.931 516.666 583.975 516.786 579.064 517.408C569.487 518.408 565.472 514.298 571.547 509.215Z" fill="#FFD700" stroke="#263238" stroke-linecap="round" stroke-linejoin="round"/>
<path d="M571.547 509.215C576.155 508.184 580.953 508.598 585.336 510.407" stroke="#263238" stroke-linecap="round" stroke-linejoin="round"/>
<path d="M589.993 570.756H539.074L544.231 626.104H584.837L589.993 570.756Z" fill="white" stroke="#263238" stroke-linecap="round" stroke-linejoin="round"/>
<path d="M576.493 594.868C576.493 595.339 576.627 595.8 576.877 596.192C577.128 596.584 577.485 596.89 577.902 597.07C578.319 597.25 578.778 597.298 579.221 597.206C579.664 597.114 580.071 596.887 580.39 596.553C580.709 596.22 580.927 595.795 581.015 595.333C581.103 594.87 581.058 594.391 580.885 593.955C580.712 593.52 580.419 593.148 580.044 592.886C579.668 592.624 579.227 592.484 578.776 592.484C578.475 592.482 578.178 592.543 577.9 592.662C577.622 592.781 577.37 592.956 577.157 593.178C576.945 593.4 576.777 593.663 576.663 593.953C576.549 594.243 576.491 594.554 576.493 594.868Z" fill="#263238" stroke="#263238" stroke-linecap="round" stroke-linejoin="round"/>
<path d="M568.096 594.868C568.096 595.339 568.23 595.8 568.481 596.192C568.732 596.584 569.088 596.89 569.505 597.07C569.922 597.25 570.381 597.298 570.824 597.206C571.267 597.114 571.674 596.887 571.993 596.553C572.312 596.22 572.53 595.795 572.618 595.333C572.706 594.87 572.661 594.391 572.488 593.955C572.315 593.52 572.023 593.148 571.647 592.886C571.272 592.624 570.83 592.484 570.379 592.484C570.079 592.482 569.781 592.543 569.503 592.662C569.225 592.781 568.973 592.956 568.761 593.178C568.548 593.4 568.38 593.663 568.266 593.953C568.152 594.243 568.094 594.554 568.096 594.868Z" fill="#263238" stroke="#263238" stroke-linecap="round" stroke-linejoin="round"/>
<path d="M540.767 588.908H588.301L588.524 586.538H540.544L540.767 588.908Z" fill="#263238" stroke="#263238" stroke-linecap="round" stroke-linejoin="round"/>
<path d="M586.267 610.732L587.225 600.416H541.843L542.801 610.732H586.267Z" fill="#263238" stroke="#263238" stroke-linecap="round" stroke-linejoin="round"/>
<path d="M584.85 594.868C584.85 595.18 584.91 595.489 585.024 595.778C585.139 596.066 585.308 596.328 585.52 596.548C585.732 596.769 585.984 596.943 586.261 597.061C586.537 597.18 586.834 597.24 587.133 597.238H587.527L587.947 592.689C587.687 592.585 587.412 592.529 587.133 592.525C586.535 592.525 585.96 592.77 585.533 593.209C585.106 593.647 584.861 594.243 584.85 594.868Z" fill="#263238" stroke="#263238" stroke-linecap="round" stroke-linejoin="round"/>
<path d="M559.778 594.868C559.778 595.339 559.912 595.8 560.163 596.192C560.413 596.584 560.77 596.89 561.187 597.07C561.604 597.25 562.063 597.298 562.506 597.206C562.949 597.114 563.356 596.887 563.675 596.553C563.994 596.22 564.212 595.795 564.3 595.333C564.388 594.87 564.343 594.391 564.17 593.955C563.997 593.52 563.704 593.148 563.329 592.886C562.954 592.624 562.512 592.484 562.061 592.484C561.76 592.482 561.463 592.543 561.185 592.662C560.907 592.781 560.655 592.956 560.443 593.178C560.23 593.4 560.062 593.663 559.948 593.953C559.834 594.243 559.776 594.554 559.778 594.868Z" fill="#263238" stroke="#263238" stroke-linecap="round" stroke-linejoin="round"/>
<path d="M543.063 594.868C543.063 595.339 543.197 595.8 543.448 596.192C543.699 596.584 544.055 596.89 544.472 597.07C544.889 597.25 545.348 597.298 545.791 597.206C546.234 597.114 546.641 596.887 546.96 596.553C547.279 596.22 547.497 595.795 547.585 595.333C547.673 594.87 547.628 594.391 547.455 593.955C547.282 593.52 546.99 593.148 546.614 592.886C546.239 592.624 545.797 592.484 545.346 592.484C545.046 592.482 544.748 592.543 544.47 592.662C544.192 592.781 543.94 592.956 543.728 593.178C543.515 593.4 543.347 593.663 543.233 593.953C543.119 594.243 543.061 594.554 543.063 594.868Z" fill="#263238" stroke="#263238" stroke-linecap="round" stroke-linejoin="round"/>
<path d="M551.42 594.868C551.42 595.339 551.554 595.8 551.805 596.192C552.056 596.584 552.413 596.89 552.83 597.07C553.247 597.25 553.706 597.298 554.149 597.206C554.592 597.114 554.998 596.887 555.318 596.553C555.637 596.22 555.854 595.795 555.942 595.333C556.03 594.87 555.985 594.391 555.812 593.955C555.64 593.52 555.347 593.148 554.972 592.886C554.596 592.624 554.155 592.484 553.703 592.484C553.403 592.482 553.105 592.543 552.828 592.662C552.55 592.781 552.298 592.956 552.085 593.178C551.873 593.4 551.705 593.663 551.591 593.953C551.477 594.243 551.419 594.554 551.42 594.868Z" fill="#263238" stroke="#263238" stroke-linecap="round" stroke-linejoin="round"/>
<path d="M218.146 626.241C224.444 618.13 235.688 603.827 239.558 600.074C243.281 596.351 246.785 592.398 250.054 588.237C250.054 588.237 243.402 601.704 254.738 612.321C266.073 622.939 299.713 614.774 307.139 609.061C314.565 603.348 315.352 588.648 308.713 567.002C302.075 545.356 292.668 505.352 293.061 491.46C293.455 477.568 284.848 438.373 280.938 427.755C277.029 417.138 260.996 409.383 244.57 405.712C228.144 402.04 183.955 421.22 183.955 421.22L174.968 424.892C174.968 424.892 138.232 446.127 128.432 454.703C118.631 463.279 123.341 486.966 121.006 509.832C118.67 532.697 118.657 559.248 118.657 559.248C118.657 559.248 95.9727 580.072 79.5464 603.745C71.6744 615.144 67.0956 622.089 64.4978 626.241H218.146Z" fill="#FFD700" stroke="#263238" stroke-miterlimit="10"/>
<path d="M298.795 582.003C298.795 582.003 285.675 578.784 271.925 588.415C258.175 598.046 261.928 612.472 274.221 615.678C286.514 618.884 302.639 618.884 311.088 605.252C319.537 591.621 304.948 581.195 298.795 582.003Z" fill="white" stroke="#263238" stroke-miterlimit="10"/>
<path d="M302.062 581.88C294.707 580.661 287.186 582.458 281.07 586.894C270.285 594.402 273.277 605.677 282.867 608.184C292.458 610.691 305.053 610.691 311.652 600.046C318.252 589.401 306.851 581.264 302.062 581.88Z" fill="white" stroke="#263238" stroke-miterlimit="10"/>
<path d="M271.702 490.556C272.135 483.103 272.41 478.02 272.41 477.568" stroke="#263238" stroke-miterlimit="10"/>
<path d="M250.12 588.237C250.12 588.237 264.197 573.948 266.533 557.604C267.989 547.534 269.878 520.093 271.112 500.132" stroke="#263238" stroke-miterlimit="10"/>
<path d="M288.338 518.23C284.796 530.122 278.236 547.973 268.107 560.056" stroke="#263238" stroke-miterlimit="10"/>
<path d="M291.566 505.749C291.566 505.749 291.015 508.489 289.847 512.873" stroke="#263238" stroke-miterlimit="10"/>
<path d="M290.332 552.315C283.417 560.587 275.249 567.618 266.152 573.126" stroke="#263238" stroke-miterlimit="10"/>
<path d="M297.037 543.315C295.604 545.57 294.049 547.738 292.379 549.809" stroke="#263238" stroke-miterlimit="10"/>
<path d="M310.734 578.03C297.686 573.901 283.721 574.184 270.836 578.839C248.939 586.607 251.287 604.156 253.242 607.02" stroke="#263238" stroke-miterlimit="10"/>
<path d="M251.379 293.468C251.379 293.468 251.379 288.659 245.042 278.398C238.705 268.136 206.443 272.383 195.501 283.809C184.559 295.235 200.106 309.675 193.192 318.059C186.278 326.444 163.239 322.265 155.747 337.308C148.256 352.35 167.267 359.557 171.308 364.968C175.349 370.38 164.394 372.188 165.548 377.599C166.703 383.011 184.546 383.614 184.546 383.614C184.546 383.614 173.027 387.231 178.786 392.039C186.723 398.307 196.5 401.499 206.443 401.068C217.963 400.465 215.076 376.997 213.935 359.557C212.793 342.116 227.75 322.868 245.042 324.663C262.334 326.457 280.755 346.925 277.842 355.953C274.93 364.982 282.447 354.145 298.008 343.911C313.568 333.677 306.654 312.634 303.256 308.428C299.858 304.222 288.286 303.017 285.977 295.194C283.667 287.371 278.485 279.562 268.698 279.562C258.91 279.562 261.167 292.865 251.379 293.468Z" fill="#263238" stroke="#263238" stroke-miterlimit="10"/>
<path d="M202.048 401.616C202.048 401.616 194.622 403.657 191.552 407.753C188.482 411.849 175.808 419.22 175.034 424.892C174.26 430.564 178.97 460.019 188.324 471.855C197.679 483.692 202.402 484.514 202.402 484.514C202.402 484.514 205.144 473.088 207.099 472.266C209.054 471.444 227.042 483.226 227.042 483.226C227.042 483.226 230.164 464.046 232.132 464.046C234.1 464.046 240.332 470.581 240.332 470.581C240.332 470.581 242.681 454.237 241.119 441.578C239.558 428.92 229.39 413.411 221.964 408.096C214.538 402.78 208.608 397.944 202.048 401.616Z" fill="white" stroke="#263238" stroke-miterlimit="10"/>
<path d="M205.866 386.107L191.434 422.193C191.434 422.193 195.147 439.003 200.027 449.812C206.679 464.512 223.119 471.513 223.119 471.513C223.013 462.987 224.786 454.55 228.301 446.853C231.584 439.901 235.439 433.259 239.82 427.002C239.82 427.002 213.935 400.547 205.866 386.107Z" fill="white" stroke="#263238" stroke-miterlimit="10"/>
<path d="M209.592 399.793C209.592 399.793 216.217 439.345 225.69 451.703L234.677 433.893L211.061 395.327L209.592 399.793Z" fill="#263238" stroke="#263238" stroke-miterlimit="10"/>
<path d="M203.963 517.189C203.963 517.189 227.041 454.292 230.203 450.62C233.365 446.949 240.371 440.414 243.507 435.92C246.643 431.427 255.236 420.001 258.372 420.001C261.508 420.001 268.868 422.851 272.45 423.673C276.032 424.495 278.314 425.714 278.695 431.893C279.075 438.071 274.011 438.427 274.011 438.427L272.056 435.975C272.056 435.975 257.978 458.032 253.688 460.882C251.125 462.604 248.366 463.985 245.475 464.992L226.7 538.095L203.963 517.189Z" fill="white" stroke="#263238" stroke-miterlimit="10"/>
<path d="M285.36 334.814C285.36 334.814 290.831 339.582 287.184 355.748C283.536 371.914 282.631 380.011 282.631 389.532C282.631 399.054 279.902 412.37 272.135 420.932C264.368 429.495 254.83 441.866 243.441 441.387C225.401 440.633 216.559 414.74 210.641 402.848C204.724 390.957 203.36 374.777 203.36 368.119C203.36 361.461 204.265 345.761 212.465 333.869C220.665 321.977 242.995 317.223 252.56 318.648C262.124 320.073 273.972 321.498 285.36 334.814Z" fill="white" stroke="#263238" stroke-miterlimit="10"/>
<path d="M207.453 377.64C207.453 377.64 209.277 370.982 217.477 367.174C225.677 363.365 230.689 356.707 227.973 350.515C225.257 344.322 226.661 338.185 238.469 334.814C250.277 331.444 253.504 343.856 264.893 341.952C276.281 340.048 279.469 335.294 285.386 338.143C291.303 340.993 288.574 349.103 288.574 349.103C288.574 349.103 295.869 335.307 281.752 319.607C267.635 303.907 233.457 298.194 209.762 316.278C186.068 334.362 199.739 376.695 199.739 376.695C199.739 376.695 201.077 378.586 207.453 377.64Z" fill="#263238" stroke="#263238" stroke-miterlimit="10"/>
<path d="M264.407 385.724L263.043 413.315L253.465 409.507" stroke="#263238" stroke-miterlimit="10"/>
<path d="M257.152 423.33C257.152 423.33 248.047 424.7 243.94 418.097" stroke="#263238" stroke-miterlimit="10"/>
<path d="M247.063 385.436C246.643 388.176 245.186 390.176 243.822 389.943C242.458 389.71 241.697 387.313 242.116 384.586C242.536 381.86 243.993 379.846 245.357 380.079C246.722 380.312 247.482 382.71 247.063 385.436Z" fill="#263238"/>
<path d="M276.255 386.203C275.835 388.943 274.378 390.943 273.014 390.71C271.649 390.477 270.875 388.08 271.308 385.367C271.741 382.655 273.184 380.613 274.549 380.846C275.913 381.079 276.674 383.477 276.255 386.203Z" fill="#263238"/>
<path d="M235.425 373.01C235.425 373.01 245.226 364.091 253.124 371.023" stroke="#263238" stroke-width="2" stroke-miterlimit="10" stroke-linecap="round"/>
<path d="M269.878 371.023C269.878 371.023 276.517 365.091 282.211 370.694" stroke="#263238" stroke-width="2" stroke-miterlimit="10" stroke-linecap="round"/>
<path d="M259.448 378.956C259.448 378.956 245.541 376.64 224.024 380.326C224.024 380.326 222.135 395.505 232.25 402.109C242.366 408.712 252.166 402.438 254.685 398.807C259.776 391.573 259.448 378.956 259.448 378.956Z" stroke="#263238" stroke-width="2" stroke-miterlimit="10"/>
<path d="M291.369 376.873C291.369 376.873 281.424 374.668 266.047 378.134C266.047 378.134 264.735 392.656 271.925 398.958C279.115 405.26 286.173 399.273 287.984 395.807C291.552 388.943 291.369 376.873 291.369 376.873Z" stroke="#263238" stroke-width="2" stroke-miterlimit="10"/>
<path d="M259.448 378.956C259.448 378.956 260.944 374.681 266.008 378.134" stroke="#263238" stroke-width="2" stroke-miterlimit="10"/>
<path d="M202.861 371.352L224.037 380.271" stroke="#263238" stroke-width="2" stroke-miterlimit="10"/>
<path d="M209.277 380.011C209.277 380.011 206.089 360.516 197.469 370.023C188.849 379.531 196.564 389.053 200.657 393.313C204.751 397.574 209.841 393.313 209.841 393.313" fill="white"/>
<path d="M209.277 380.011C209.277 380.011 206.089 360.516 197.469 370.023C188.849 379.531 196.564 389.053 200.657 393.313C204.751 397.574 209.841 393.313 209.841 393.313" stroke="#263238" stroke-miterlimit="10"/>
<path d="M175.139 476.13C180.753 487.006 184.551 498.802 186.369 511.01C189.112 530.615 188.718 534.3 188.718 534.3L202.402 517.161C202.402 517.161 224.706 533.492 228.209 538.794C231.712 544.096 232.145 545.74 232.145 545.74C232.145 545.74 232.145 577.592 219.235 596.786C206.325 615.979 200.067 615.966 187.563 615.966C175.06 615.966 159.014 603.704 150.408 583.291C141.801 562.878 134.755 533.108 133.194 530.19C131.633 527.272 126.542 511.01 126.542 511.01" fill="#FFD700"/>
<path d="M175.139 476.13C180.753 487.006 184.551 498.802 186.369 511.01C189.112 530.615 188.718 534.3 188.718 534.3L202.402 517.161C202.402 517.161 224.706 533.492 228.209 538.794C231.712 544.096 232.145 545.74 232.145 545.74C232.145 545.74 232.145 577.592 219.235 596.786C206.325 615.979 200.067 615.966 187.563 615.966C175.06 615.966 159.014 603.704 150.408 583.291C141.801 562.878 134.755 533.108 133.194 530.19C131.633 527.272 126.542 511.01 126.542 511.01" stroke="#263238" stroke-miterlimit="10"/>
<path d="M170.009 558.261C168.579 560.015 167.385 561.481 166.427 562.508" stroke="#263238" stroke-miterlimit="10"/>
<path d="M188.718 534.3C188.718 534.3 181.41 543.89 174.85 552.179" stroke="#263238" stroke-miterlimit="10"/>
<path d="M190.673 532.286C199.178 534.85 207.328 538.557 214.919 543.315C228.209 551.535 229.351 560.467 233.287 557.206C237.223 553.946 240.319 543.726 236.409 538.026C232.499 532.327 220.376 518.846 211.783 514.736C203.189 510.626 199.66 513.092 196.918 519.23C194.176 525.368 187.931 528.614 190.673 532.286Z" fill="white" stroke="#263238" stroke-miterlimit="10"/>
<path d="M190.24 565.714C190.343 569.603 190.907 573.464 191.919 577.208" stroke="#263238" stroke-miterlimit="10"/>
<path d="M190.673 532.286C190.673 532.286 189.741 545.986 189.938 558.741" stroke="#263238" stroke-miterlimit="10"/>
<path d="M203.963 539.232C203.963 539.232 206.705 555.165 209.841 562.097" stroke="#263238" stroke-miterlimit="10"/>
<path d="M296.656 578.839C296.656 578.839 283.353 603.348 285.307 606.239C287.262 609.129 330.676 606.239 330.676 606.239L333.012 596.443C333.012 596.443 342.012 600.115 349.058 600.115C356.103 600.115 350.619 598.073 348.27 595.621C345.922 593.169 332.238 584.195 331.057 583.373C329.876 582.551 307.205 576.386 296.656 578.839Z" fill="white" stroke="#263238" stroke-miterlimit="10"/>
<path d="M324.982 576.016C324.982 576.016 331.267 574.044 332.946 578.208C334.625 582.373 333.786 600.128 333.156 604.677C332.526 609.225 329.6 609.047 328.341 604.677C327.081 600.307 324.143 576.674 324.143 576.674L324.982 576.016Z" fill="white" stroke="#263238" stroke-miterlimit="10"/>
<path d="M311.783 577.989C311.783 577.989 321.217 571.208 323.946 574.701C326.675 578.195 329.194 605.773 330.02 607.746C330.847 609.718 326.452 611.239 324.772 609.266C323.093 607.294 318.278 597.238 316.822 593.525C315.365 589.812 311.783 577.989 311.783 577.989Z" fill="white" stroke="#263238" stroke-miterlimit="10"/>
<path d="M293.14 585.428C293.14 585.428 298.388 575.359 302.783 572.523C307.179 569.687 311.967 574.92 314.303 578.866C316.638 582.812 318.488 593.087 319.551 598.115C320.613 603.142 323.487 608.828 321.86 609.486C320.233 610.143 313.686 604.458 311.797 601.403C309.907 598.347 305.302 586.524 305.302 586.524" fill="white"/>
<path d="M293.14 585.428C293.14 585.428 298.388 575.359 302.783 572.523C307.179 569.687 311.967 574.92 314.303 578.866C316.638 582.812 318.488 593.087 319.551 598.115C320.613 603.142 323.487 608.828 321.86 609.486C320.233 610.143 313.686 604.458 311.797 601.403C309.907 598.347 305.302 586.524 305.302 586.524" stroke="#263238" stroke-miterlimit="10"/>
<path d="M301.76 604.458C301.76 604.458 294.216 596.799 291.697 594.388C289.178 591.977 285.622 590.895 283.116 593.744C280.611 596.594 279.338 600.087 283.116 603.8C286.895 607.513 295.869 612.39 301.76 612.39C307.651 612.39 306.575 609.321 305.106 607.581C304.112 606.406 302.989 605.358 301.76 604.458Z" fill="white" stroke="#263238" stroke-miterlimit="10"/>
<path d="M227.094 626.104H502.024V617.897H227.094V626.104Z" fill="#B8B8B8" stroke="#263238" stroke-linecap="round" stroke-linejoin="round"/>
<path d="M227.094 626.104H323.605V617.897H227.094V626.104Z" fill="#263238" stroke="#263238" stroke-linecap="round" stroke-linejoin="round"/>
<path d="M315.824 617.87H494.335L504.648 493.899C504.789 492.536 504.652 491.158 504.244 489.856C503.836 488.553 503.168 487.356 502.283 486.344C501.398 485.332 500.317 484.528 499.112 483.986C497.907 483.444 496.605 483.175 495.293 483.199H337.263C334.476 483.254 331.806 484.373 329.756 486.345C327.706 488.316 326.418 491.003 326.137 493.899L315.824 617.87Z" fill="#263238" stroke="#263238" stroke-linecap="round" stroke-linejoin="round"/>
<path d="M319.249 617.87H497.76L508.072 493.899C508.213 492.536 508.076 491.158 507.668 489.856C507.261 488.553 506.592 487.356 505.707 486.344C504.823 485.332 503.742 484.528 502.536 483.986C501.331 483.444 500.029 483.175 498.717 483.199H340.687C337.901 483.254 335.23 484.373 333.18 486.345C331.13 488.316 329.843 491.003 329.561 493.899L319.249 617.87Z" fill="#B8B8B8" stroke="#263238" stroke-linecap="round" stroke-linejoin="round"/>
<path d="M409.698 546.63C410.006 543.466 411.413 540.529 413.655 538.376C415.896 536.222 418.815 535.001 421.86 534.944C423.294 534.918 424.716 535.21 426.033 535.802C427.35 536.394 428.531 537.272 429.497 538.377C430.464 539.483 431.194 540.79 431.64 542.213C432.085 543.636 432.236 545.142 432.081 546.63C431.773 549.794 430.366 552.731 428.125 554.884C425.883 557.038 422.964 558.258 419.919 558.316C418.485 558.342 417.063 558.05 415.746 557.458C414.43 556.866 413.249 555.988 412.282 554.882C411.315 553.777 410.585 552.469 410.139 551.047C409.694 549.624 409.543 548.118 409.698 546.63Z" fill="#263238" stroke="#263238" stroke-linecap="round" stroke-linejoin="round"/>
<path d="M637.671 626.104H22.855" stroke="#263238" stroke-miterlimit="10"/>
</svg>
