<svg width="910" height="469" viewBox="0 0 910 469" fill="none" xmlns="http://www.w3.org/2000/svg">
<g clip-path="url(#clip0_199_879)">
<path d="M908.792 468.896H1.20879C0.888914 468.895 0.582464 468.767 0.356605 468.54C0.130746 468.314 0.00390625 468.007 0.00390625 467.687C0.00390625 467.368 0.130746 467.061 0.356605 466.835C0.582464 466.608 0.888914 466.48 1.20879 466.479H908.792C909.112 466.48 909.418 466.608 909.644 466.835C909.87 467.061 909.997 467.368 909.997 467.687C909.997 468.007 909.87 468.314 909.644 468.54C909.418 468.767 909.112 468.895 908.792 468.896Z" fill="#152522"/>
<path d="M284.519 58.2832C288.144 58.2832 291.082 55.3457 291.082 51.7221C291.082 48.0986 288.144 45.1611 284.519 45.1611C280.894 45.1611 277.956 48.0986 277.956 51.7221C277.956 55.3457 280.894 58.2832 284.519 58.2832Z" fill="#F2F2F2"/>
<path d="M258.363 58.2832C261.987 58.2832 264.926 55.3457 264.926 51.7221C264.926 48.0986 261.987 45.1611 258.363 45.1611C254.738 45.1611 251.8 48.0986 251.8 51.7221C251.8 55.3457 254.738 58.2832 258.363 58.2832Z" fill="#F2F2F2"/>
<path d="M232.207 58.2832C235.831 58.2832 238.77 55.3457 238.77 51.7221C238.77 48.0986 235.831 45.1611 232.207 45.1611C228.582 45.1611 225.644 48.0986 225.644 51.7221C225.644 55.3457 228.582 58.2832 232.207 58.2832Z" fill="#F2F2F2"/>
<path d="M206.05 58.2832C209.675 58.2832 212.613 55.3457 212.613 51.7221C212.613 48.0986 209.675 45.1611 206.05 45.1611C202.426 45.1611 199.487 48.0986 199.487 51.7221C199.487 55.3457 202.426 58.2832 206.05 58.2832Z" fill="#F2F2F2"/>
<path d="M284.519 85.6762C288.144 85.6762 291.082 82.7388 291.082 79.1152C291.082 75.4917 288.144 72.5542 284.519 72.5542C280.894 72.5542 277.956 75.4917 277.956 79.1152C277.956 82.7388 280.894 85.6762 284.519 85.6762Z" fill="#F2F2F2"/>
<path d="M258.363 85.6762C261.987 85.6762 264.926 82.7388 264.926 79.1152C264.926 75.4917 261.987 72.5542 258.363 72.5542C254.738 72.5542 251.8 75.4917 251.8 79.1152C251.8 82.7388 254.738 85.6762 258.363 85.6762Z" fill="#F2F2F2"/>
<path d="M232.207 85.6762C235.831 85.6762 238.77 82.7388 238.77 79.1152C238.77 75.4917 235.831 72.5542 232.207 72.5542C228.582 72.5542 225.644 75.4917 225.644 79.1152C225.644 82.7388 228.582 85.6762 232.207 85.6762Z" fill="#F2F2F2"/>
<path d="M206.05 85.6762C209.675 85.6762 212.613 82.7388 212.613 79.1152C212.613 75.4917 209.675 72.5542 206.05 72.5542C202.426 72.5542 199.487 75.4917 199.487 79.1152C199.487 82.7388 202.426 85.6762 206.05 85.6762Z" fill="#F2F2F2"/>
<path d="M284.519 113.069C288.144 113.069 291.082 110.132 291.082 106.508C291.082 102.885 288.144 99.9473 284.519 99.9473C280.894 99.9473 277.956 102.885 277.956 106.508C277.956 110.132 280.894 113.069 284.519 113.069Z" fill="#F2F2F2"/>
<path d="M258.363 113.069C261.987 113.069 264.926 110.132 264.926 106.508C264.926 102.885 261.987 99.9473 258.363 99.9473C254.738 99.9473 251.8 102.885 251.8 106.508C251.8 110.132 254.738 113.069 258.363 113.069Z" fill="#F2F2F2"/>
<path d="M232.207 113.069C235.831 113.069 238.77 110.132 238.77 106.508C238.77 102.885 235.831 99.9473 232.207 99.9473C228.582 99.9473 225.644 102.885 225.644 106.508C225.644 110.132 228.582 113.069 232.207 113.069Z" fill="#F2F2F2"/>
<path d="M206.05 113.069C209.675 113.069 212.613 110.132 212.613 106.508C212.613 102.885 209.675 99.9473 206.05 99.9473C202.426 99.9473 199.487 102.885 199.487 106.508C199.487 110.132 202.426 113.069 206.05 113.069Z" fill="#F2F2F2"/>
<path d="M284.519 140.462C288.144 140.462 291.082 137.525 291.082 133.901C291.082 130.278 288.144 127.34 284.519 127.34C280.894 127.34 277.956 130.278 277.956 133.901C277.956 137.525 280.894 140.462 284.519 140.462Z" fill="#F2F2F2"/>
<path d="M258.363 140.462C261.987 140.462 264.926 137.525 264.926 133.901C264.926 130.278 261.987 127.34 258.363 127.34C254.738 127.34 251.8 130.278 251.8 133.901C251.8 137.525 254.738 140.462 258.363 140.462Z" fill="#F2F2F2"/>
<path d="M232.207 140.462C235.831 140.462 238.77 137.525 238.77 133.901C238.77 130.278 235.831 127.34 232.207 127.34C228.582 127.34 225.644 130.278 225.644 133.901C225.644 137.525 228.582 140.462 232.207 140.462Z" fill="#F2F2F2"/>
<path d="M206.05 140.462C209.675 140.462 212.613 137.525 212.613 133.901C212.613 130.278 209.675 127.34 206.05 127.34C202.426 127.34 199.487 130.278 199.487 133.901C199.487 137.525 202.426 140.462 206.05 140.462Z" fill="#F2F2F2"/>
<path d="M284.519 167.855C288.144 167.855 291.082 164.918 291.082 161.294C291.082 157.671 288.144 154.733 284.519 154.733C280.894 154.733 277.956 157.671 277.956 161.294C277.956 164.918 280.894 167.855 284.519 167.855Z" fill="#F2F2F2"/>
<path d="M258.363 167.855C261.987 167.855 264.926 164.918 264.926 161.294C264.926 157.671 261.987 154.733 258.363 154.733C254.738 154.733 251.8 157.671 251.8 161.294C251.8 164.918 254.738 167.855 258.363 167.855Z" fill="#F2F2F2"/>
<path d="M232.207 167.855C235.831 167.855 238.77 164.918 238.77 161.294C238.77 157.671 235.831 154.733 232.207 154.733C228.582 154.733 225.644 157.671 225.644 161.294C225.644 164.918 228.582 167.855 232.207 167.855Z" fill="#F2F2F2"/>
<path d="M206.05 167.855C209.675 167.855 212.613 164.918 212.613 161.294C212.613 157.671 209.675 154.733 206.05 154.733C202.426 154.733 199.487 157.671 199.487 161.294C199.487 164.918 202.426 167.855 206.05 167.855Z" fill="#F2F2F2"/>
<path d="M284.519 195.248C288.144 195.248 291.082 192.311 291.082 188.687C291.082 185.064 288.144 182.126 284.519 182.126C280.894 182.126 277.956 185.064 277.956 188.687C277.956 192.311 280.894 195.248 284.519 195.248Z" fill="#F2F2F2"/>
<path d="M258.363 195.248C261.987 195.248 264.926 192.311 264.926 188.687C264.926 185.064 261.987 182.126 258.363 182.126C254.738 182.126 251.8 185.064 251.8 188.687C251.8 192.311 254.738 195.248 258.363 195.248Z" fill="#F2F2F2"/>
<path d="M232.207 195.248C235.831 195.248 238.77 192.311 238.77 188.687C238.77 185.064 235.831 182.126 232.207 182.126C228.582 182.126 225.644 185.064 225.644 188.687C225.644 192.311 228.582 195.248 232.207 195.248Z" fill="#F2F2F2"/>
<path d="M206.05 195.248C209.675 195.248 212.613 192.311 212.613 188.687C212.613 185.064 209.675 182.126 206.05 182.126C202.426 182.126 199.487 185.064 199.487 188.687C199.487 192.311 202.426 195.248 206.05 195.248Z" fill="#F2F2F2"/>
<path d="M226.85 367.675V369.704C226.853 373.066 228.19 376.29 230.568 378.668C232.947 381.046 236.172 382.383 239.535 382.386H330.873C334.237 382.384 337.463 381.048 339.842 378.67C342.22 376.292 343.557 373.067 343.559 369.704V367.675C343.565 364.707 342.522 361.832 340.615 359.558C339.98 358.803 339.262 358.122 338.474 357.529C338.474 357.529 288.259 356.393 288.259 354.993H239.535C236.172 354.997 232.948 356.335 230.57 358.712C228.192 361.09 226.854 364.313 226.85 367.675Z" fill="#CCCCCC"/>
<path d="M292.535 381.882H279.342V467.104H292.535V381.882Z" fill="#CCCCCC"/>
<path d="M330.085 466.641C330.085 468.066 310.093 467.192 285.431 467.192C260.77 467.192 240.777 468.066 240.777 466.641C240.777 465.216 260.77 453.915 285.431 453.915C310.093 453.915 330.085 465.216 330.085 466.641Z" fill="#CCCCCC"/>
<path d="M311.947 365.954C312.899 364.676 313.56 363.205 313.882 361.645C314.204 360.084 314.181 358.472 313.812 356.922C313.444 355.372 312.74 353.921 311.75 352.672C310.76 351.423 309.509 350.407 308.083 349.694L280.121 254.442L258.828 264.867L293.01 355.218C291.97 357.692 291.874 360.46 292.74 362.999C293.607 365.538 295.374 367.672 297.708 368.995C300.043 370.318 302.781 370.739 305.406 370.179C308.03 369.618 310.357 368.115 311.947 365.954Z" fill="#A0616A"/>
<path d="M286.455 270.349L262.623 276.798C261.945 276.982 261.236 277.017 260.543 276.902C259.85 276.786 259.19 276.523 258.608 276.129C258.026 275.736 257.536 275.222 257.17 274.622C256.805 274.022 256.573 273.351 256.491 272.653L253.611 248.215C252.692 244.742 253.188 241.046 254.99 237.937C256.793 234.829 259.754 232.562 263.226 231.633C266.698 230.704 270.397 231.19 273.511 232.983C276.626 234.776 278.902 237.731 279.84 241.199L289.658 263.678C289.939 264.321 290.078 265.018 290.065 265.72C290.052 266.422 289.889 267.113 289.585 267.746C289.281 268.38 288.844 268.94 288.304 269.389C287.764 269.838 287.133 270.165 286.455 270.349Z" fill="#395143"/>
<path d="M318.175 456.652L330.617 456.651L336.537 424.392H318.173L318.175 456.652Z" fill="#A0616A"/>
<path d="M315.001 452.591L339.504 452.59H339.505C341.555 452.59 343.586 452.994 345.48 453.778C347.375 454.563 349.096 455.712 350.546 457.162C351.996 458.612 353.146 460.332 353.931 462.226C354.716 464.12 355.12 466.15 355.12 468.2V468.708L315.002 468.709L315.001 452.591Z" fill="#152522"/>
<path d="M332.617 439.353C332.472 439.353 332.326 439.346 332.18 439.333L314.962 438.079C314.265 438.015 313.593 437.791 312.997 437.426C312.401 437.06 311.896 436.563 311.523 435.972C311.149 435.381 310.917 434.712 310.842 434.017C310.768 433.321 310.855 432.619 311.096 431.962L334.14 380.205C334.304 379.744 334.372 379.253 334.337 378.764C334.303 378.276 334.168 377.799 333.941 377.365C333.714 376.926 333.396 376.54 333.01 376.233C332.623 375.925 332.175 375.702 331.696 375.58C320.861 372.748 293.059 365.209 268.992 356.387C258.681 352.607 252.187 347.145 249.691 340.152C246.399 330.933 251.268 322.525 251.477 322.172L251.64 321.896L274.287 323.954L298.837 326.041L352.639 354.883C357.147 357.32 360.571 361.365 362.23 366.213C363.888 371.061 363.659 376.355 361.588 381.042L336.784 436.647C336.425 437.453 335.841 438.137 335.101 438.617C334.362 439.097 333.499 439.353 332.617 439.353Z" fill="#152522"/>
<path d="M278.224 221.555C291.99 221.555 303.15 210.399 303.15 196.637C303.15 182.875 291.99 171.718 278.224 171.718C264.458 171.718 253.298 182.875 253.298 196.637C253.298 210.399 264.458 221.555 278.224 221.555Z" fill="#A0616A"/>
<path d="M311.07 455.638L323.513 455.636L329.432 423.378H311.068L311.07 455.638Z" fill="#A0616A"/>
<path d="M307.896 451.577L332.399 451.576H332.4C334.451 451.576 336.481 451.979 338.376 452.764C340.27 453.548 341.992 454.698 343.442 456.148C344.892 457.597 346.042 459.318 346.827 461.212C347.611 463.106 348.015 465.136 348.015 467.186V467.693L307.897 467.695L307.896 451.577Z" fill="#152522"/>
<path d="M325.512 442.397C325.367 442.397 325.222 442.39 325.076 442.376L307.857 441.123C307.161 441.058 306.489 440.834 305.892 440.469C305.296 440.104 304.792 439.606 304.418 439.015C304.045 438.424 303.812 437.755 303.738 437.06C303.664 436.365 303.751 435.662 303.991 435.006L327.035 383.248C327.2 382.787 327.267 382.296 327.233 381.808C327.199 381.319 327.063 380.843 326.836 380.409C326.609 379.97 326.292 379.584 325.905 379.276C325.518 378.968 325.071 378.746 324.592 378.623C313.756 375.792 285.954 368.252 261.887 359.43C251.577 355.65 245.083 350.188 242.586 343.195C239.295 333.976 244.164 325.568 244.373 325.216L244.536 324.939L267.182 326.997L291.733 329.085L345.534 357.926C350.042 360.363 353.467 364.409 355.125 369.257C356.784 374.104 356.555 379.399 354.484 384.086L329.68 439.691C329.321 440.496 328.736 441.18 327.997 441.661C327.257 442.141 326.394 442.396 325.512 442.397Z" fill="#152522"/>
<path d="M285.911 235.685L259.525 226.554C259.525 226.554 242.96 239.277 250.918 270.838C255.072 287.125 253.862 304.317 247.467 319.862C246.697 321.785 245.81 323.659 244.81 325.473C244.81 325.473 274.241 360.983 301.642 334.604L290.986 283.369C290.986 283.369 307.731 249.382 285.911 235.685Z" fill="#152522"/>
<path d="M281.319 222.403C277.771 217.094 274.972 209.734 278.878 204.683C282.733 199.697 290.337 200.432 296.242 198.225C304.467 195.153 309.237 185.494 307.749 176.843C306.261 168.193 299.315 161.022 291.04 158.088C282.766 155.153 273.434 156.108 265.331 159.487C255.355 163.646 246.798 171.692 243.21 181.884C239.622 192.076 241.54 204.314 248.984 212.148C256.965 220.547 269.49 222.785 281.077 222.649" fill="#152522"/>
<path d="M258.132 177.121C253.662 180.759 246.842 179.143 242.043 175.95C237.245 172.757 233.351 168.211 228.159 165.708C219.006 161.294 207.939 164.228 199.031 169.117C190.122 174.005 182.225 180.759 172.816 184.595C163.406 188.431 151.398 188.621 144.273 181.377C142.519 186.456 142.376 191.951 143.862 197.115C145.349 202.278 148.392 206.857 152.578 210.227C156.763 213.597 161.887 215.594 167.25 215.945C172.613 216.297 177.953 214.985 182.543 212.19C192.854 205.912 198.549 192.748 210.113 189.282C216.512 187.365 223.383 188.909 229.851 190.582C236.319 192.255 243.062 194.063 249.589 192.638C256.116 191.214 262.221 185.351 261.391 178.724L258.132 177.121Z" fill="#152522"/>
<path d="M339.274 411.916C336.635 394.778 336.635 377.337 339.274 360.199C339.442 359.179 339.966 358.251 340.753 357.581C341.541 356.911 342.54 356.543 343.574 356.541H384.039C384.695 356.538 385.343 356.686 385.933 356.972C386.523 357.258 387.04 357.675 387.445 358.19C387.858 358.713 388.147 359.324 388.289 359.975C388.431 360.626 388.422 361.301 388.264 361.949C384.479 377.798 384.479 394.316 388.264 410.166C388.422 410.813 388.431 411.488 388.289 412.14C388.147 412.791 387.858 413.401 387.445 413.924C387.04 414.44 386.523 414.857 385.933 415.143C385.343 415.429 384.695 415.576 384.039 415.574H343.574C342.54 415.572 341.541 415.203 340.753 414.533C339.966 413.864 339.442 412.936 339.274 411.916Z" fill="#395143"/>
<path d="M371.587 381.576H350.352C349.545 381.575 348.771 381.254 348.2 380.684C347.63 380.113 347.308 379.34 347.308 378.533V377.344C347.308 376.537 347.63 375.763 348.2 375.192C348.771 374.622 349.545 374.301 350.352 374.3H371.587C372.394 374.301 373.168 374.622 373.739 375.192C374.309 375.763 374.63 376.537 374.631 377.344V378.533C374.63 379.34 374.309 380.113 373.739 380.684C373.168 381.254 372.394 381.575 371.587 381.576Z" fill="white"/>
<path d="M371.587 394.1H350.352C349.545 394.1 348.771 393.779 348.2 393.208C347.63 392.637 347.308 391.864 347.308 391.057V389.867C347.308 389.06 347.63 388.287 348.2 387.716C348.771 387.146 349.545 386.825 350.352 386.824H371.587C372.394 386.825 373.168 387.146 373.739 387.716C374.309 388.287 374.63 389.06 374.631 389.867V391.057C374.63 391.864 374.309 392.637 373.739 393.208C373.168 393.779 372.394 394.1 371.587 394.1Z" fill="white"/>
<path d="M349.916 361.389C350.519 359.914 350.791 358.324 350.713 356.733C350.635 355.142 350.209 353.586 349.465 352.177C348.721 350.768 347.677 349.54 346.406 348.578C345.136 347.616 343.669 346.944 342.111 346.609L291.231 261.362L273.219 276.775L328.896 355.724C328.508 358.378 329.107 361.083 330.58 363.325C332.053 365.567 334.298 367.191 336.889 367.89C339.48 368.588 342.237 368.312 344.638 367.114C347.039 365.915 348.917 363.878 349.916 361.389Z" fill="#A0616A"/>
<path d="M301.34 275.183L279.876 287.38C279.265 287.727 278.587 287.938 277.887 288C277.187 288.061 276.482 287.971 275.82 287.735C275.159 287.5 274.555 287.124 274.052 286.635C273.548 286.145 273.156 285.553 272.902 284.898L264.006 261.954C262.248 258.82 261.804 255.118 262.773 251.658C263.741 248.198 266.043 245.263 269.172 243.497C272.302 241.73 276.005 241.277 279.468 242.235C282.932 243.193 285.874 245.486 287.65 248.61L302.774 267.923C303.207 268.476 303.515 269.116 303.679 269.799C303.842 270.482 303.856 271.192 303.72 271.881C303.584 272.57 303.301 273.222 302.89 273.791C302.479 274.361 301.95 274.836 301.34 275.183Z" fill="#152522"/>
<path d="M529.724 305.127H117.69C115.941 305.127 114.263 305.822 113.026 307.058C111.789 308.295 111.094 309.973 111.094 311.722C111.094 313.471 111.789 315.148 113.026 316.385C114.263 317.621 115.941 318.316 117.69 318.316H129.361V461.876C129.361 463.625 130.056 465.302 131.293 466.539C132.53 467.775 134.208 468.47 135.958 468.47C137.707 468.47 139.385 467.775 140.622 466.539C141.859 465.302 142.554 463.625 142.554 461.876V330.988L216.508 464.988C217.385 466.499 218.825 467.601 220.514 468.051C222.202 468.502 224 468.264 225.513 467.391C227.026 466.517 228.131 465.079 228.585 463.393C229.039 461.706 228.805 459.908 227.934 458.394L150.626 318.316H503.845V318.402L426.584 458.394C425.71 459.908 425.473 461.708 425.925 463.398C426.378 465.087 427.484 466.527 428.999 467.402C430.514 468.276 432.314 468.513 434.004 468.061C435.694 467.608 437.135 466.503 438.01 464.988L503.845 345.699V461.876C503.845 463.625 504.54 465.302 505.777 466.539C507.014 467.775 508.692 468.47 510.441 468.47C512.191 468.47 513.869 467.775 515.106 466.539C516.343 465.302 517.038 463.625 517.038 461.876V321.793L518.957 318.316H529.724C531.473 318.316 533.151 317.621 534.388 316.385C535.625 315.148 536.32 313.471 536.32 311.722C536.32 309.973 535.625 308.295 534.388 307.058C533.151 305.822 531.473 305.127 529.724 305.127Z" fill="#152522"/>
<path d="M359.227 301.069H279.053C277.091 301.069 275.501 302.658 275.501 304.62C275.501 306.581 277.091 308.17 279.053 308.17H359.227C361.189 308.17 362.779 306.581 362.779 304.62C362.779 302.658 361.189 301.069 359.227 301.069Z" fill="#CCCCCC"/>
<path d="M413.015 308.17H322.692C320.943 308.168 319.267 307.473 318.03 306.237C316.793 305 316.098 303.324 316.096 301.576V251.863C316.098 250.114 316.793 248.438 318.03 247.202C319.267 245.965 320.943 245.27 322.692 245.268H413.015C414.764 245.27 416.441 245.965 417.677 247.202C418.914 248.438 419.609 250.114 419.611 251.863V301.576C419.609 303.324 418.914 305 417.677 306.237C416.44 307.473 414.764 308.168 413.015 308.17Z" fill="#CCCCCC"/>
<path d="M367.854 282.807C371.217 282.807 373.943 280.081 373.943 276.719C373.943 273.357 371.217 270.632 367.854 270.632C364.491 270.632 361.765 273.357 361.765 276.719C361.765 280.081 364.491 282.807 367.854 282.807Z" fill="white"/>
<path d="M481.945 185.685V7.6309C481.948 5.60776 482.753 3.66815 484.184 2.23758C485.615 0.807002 487.555 0.00230125 489.579 0H630.369C632.392 0.00230125 634.333 0.807002 635.764 2.23758C637.195 3.66815 637.999 5.60776 638.002 7.6309V185.685C637.999 187.708 637.195 189.648 635.764 191.079C634.333 192.509 632.392 193.314 630.369 193.316H489.579C487.555 193.314 485.615 192.509 484.184 191.079C482.753 189.648 481.948 187.708 481.945 185.685ZM489.579 1.69576C488.004 1.69753 486.495 2.3234 485.382 3.43607C484.269 4.54875 483.643 6.05734 483.642 7.6309V185.685C483.643 187.259 484.269 188.767 485.382 189.88C486.495 190.993 488.004 191.619 489.579 191.62H630.369C631.943 191.619 633.452 190.993 634.565 189.88C635.678 188.767 636.304 187.259 636.305 185.685V7.6309C636.304 6.05734 635.678 4.54875 634.565 3.43607C633.452 2.3234 631.943 1.69753 630.369 1.69576H489.579Z" fill="#E6E6E6"/>
<path d="M567.868 81.7709V45.2107C567.869 44.1991 568.272 43.2293 568.987 42.514C569.703 41.7987 570.673 41.3964 571.685 41.3953H602.676C603.687 41.3964 604.658 41.7987 605.373 42.514C606.089 43.2293 606.491 44.1991 606.492 45.2107V81.7709C606.491 82.7825 606.089 83.7523 605.373 84.4676C604.658 85.1829 603.687 85.5852 602.676 85.5863H571.685C570.673 85.5852 569.703 85.1829 568.987 84.4676C568.272 83.7523 567.869 82.7825 567.868 81.7709Z" fill="#395143"/>
<path d="M507.65 98.7284V62.1683C507.652 61.1567 508.054 60.1868 508.769 59.4716C509.485 58.7563 510.455 58.3539 511.467 58.3528H542.458C543.47 58.3539 544.44 58.7563 545.155 59.4716C545.871 60.1868 546.273 61.1567 546.274 62.1683V98.7284C546.273 99.74 545.871 100.71 545.155 101.425C544.44 102.14 543.47 102.543 542.458 102.544H511.467C510.455 102.543 509.485 102.14 508.769 101.425C508.054 100.71 507.652 99.74 507.65 98.7284Z" fill="#CCCCCC"/>
<path d="M555.994 150.449V113.889C555.995 112.877 556.398 111.907 557.113 111.192C557.829 110.477 558.799 110.074 559.811 110.073H590.801C591.813 110.074 592.783 110.477 593.499 111.192C594.215 111.907 594.617 112.877 594.618 113.889V150.449C594.617 151.46 594.215 152.43 593.499 153.146C592.783 153.861 591.813 154.263 590.801 154.264H559.811C558.799 154.263 557.829 153.861 557.113 153.146C556.398 152.43 555.995 151.46 555.994 150.449Z" fill="#D6B80A"/>
<path d="M792.343 18.5534C795.968 18.5534 798.906 15.616 798.906 11.9924C798.906 8.36886 795.968 5.4314 792.343 5.4314C788.719 5.4314 785.78 8.36886 785.78 11.9924C785.78 15.616 788.719 18.5534 792.343 18.5534Z" fill="#F2F2F2"/>
<path d="M792.343 44.7019C795.968 44.7019 798.906 41.7644 798.906 38.1408C798.906 34.5173 795.968 31.5798 792.343 31.5798C788.719 31.5798 785.78 34.5173 785.78 38.1408C785.78 41.7644 788.719 44.7019 792.343 44.7019Z" fill="#F2F2F2"/>
<path d="M792.343 70.8503C795.968 70.8503 798.906 67.9128 798.906 64.2893C798.906 60.6657 795.968 57.7283 792.343 57.7283C788.719 57.7283 785.78 60.6657 785.78 64.2893C785.78 67.9128 788.719 70.8503 792.343 70.8503Z" fill="#F2F2F2"/>
<path d="M792.343 96.9985C795.968 96.9985 798.906 94.061 798.906 90.4375C798.906 86.8139 795.968 83.8765 792.343 83.8765C788.719 83.8765 785.78 86.8139 785.78 90.4375C785.78 94.061 788.719 96.9985 792.343 96.9985Z" fill="#F2F2F2"/>
<path d="M764.942 18.5534C768.566 18.5534 771.505 15.616 771.505 11.9924C771.505 8.36886 768.566 5.4314 764.942 5.4314C761.317 5.4314 758.379 8.36886 758.379 11.9924C758.379 15.616 761.317 18.5534 764.942 18.5534Z" fill="#F2F2F2"/>
<path d="M764.942 44.7019C768.566 44.7019 771.505 41.7644 771.505 38.1408C771.505 34.5173 768.566 31.5798 764.942 31.5798C761.317 31.5798 758.379 34.5173 758.379 38.1408C758.379 41.7644 761.317 44.7019 764.942 44.7019Z" fill="#F2F2F2"/>
<path d="M764.942 70.8503C768.566 70.8503 771.505 67.9128 771.505 64.2893C771.505 60.6657 768.566 57.7283 764.942 57.7283C761.317 57.7283 758.379 60.6657 758.379 64.2893C758.379 67.9128 761.317 70.8503 764.942 70.8503Z" fill="#F2F2F2"/>
<path d="M764.942 96.9985C768.566 96.9985 771.505 94.061 771.505 90.4375C771.505 86.8139 768.566 83.8765 764.942 83.8765C761.317 83.8765 758.379 86.8139 758.379 90.4375C758.379 94.061 761.317 96.9985 764.942 96.9985Z" fill="#F2F2F2"/>
<path d="M737.54 18.5534C741.165 18.5534 744.104 15.616 744.104 11.9924C744.104 8.36886 741.165 5.4314 737.54 5.4314C733.916 5.4314 730.978 8.36886 730.978 11.9924C730.978 15.616 733.916 18.5534 737.54 18.5534Z" fill="#F2F2F2"/>
<path d="M737.54 44.7019C741.165 44.7019 744.104 41.7644 744.104 38.1408C744.104 34.5173 741.165 31.5798 737.54 31.5798C733.916 31.5798 730.978 34.5173 730.978 38.1408C730.978 41.7644 733.916 44.7019 737.54 44.7019Z" fill="#F2F2F2"/>
<path d="M737.54 70.8503C741.165 70.8503 744.104 67.9128 744.104 64.2893C744.104 60.6657 741.165 57.7283 737.54 57.7283C733.916 57.7283 730.978 60.6657 730.978 64.2893C730.978 67.9128 733.916 70.8503 737.54 70.8503Z" fill="#F2F2F2"/>
<path d="M737.54 96.9985C741.165 96.9985 744.104 94.061 744.104 90.4375C744.104 86.8139 741.165 83.8765 737.54 83.8765C733.916 83.8765 730.978 86.8139 730.978 90.4375C730.978 94.061 733.916 96.9985 737.54 96.9985Z" fill="#F2F2F2"/>
<path d="M710.139 18.5534C713.764 18.5534 716.702 15.616 716.702 11.9924C716.702 8.36886 713.764 5.4314 710.139 5.4314C706.514 5.4314 703.576 8.36886 703.576 11.9924C703.576 15.616 706.514 18.5534 710.139 18.5534Z" fill="#F2F2F2"/>
<path d="M710.139 44.7019C713.764 44.7019 716.702 41.7644 716.702 38.1408C716.702 34.5173 713.764 31.5798 710.139 31.5798C706.514 31.5798 703.576 34.5173 703.576 38.1408C703.576 41.7644 706.514 44.7019 710.139 44.7019Z" fill="#F2F2F2"/>
<path d="M710.139 70.8503C713.764 70.8503 716.702 67.9128 716.702 64.2893C716.702 60.6657 713.764 57.7283 710.139 57.7283C706.514 57.7283 703.576 60.6657 703.576 64.2893C703.576 67.9128 706.514 70.8503 710.139 70.8503Z" fill="#F2F2F2"/>
<path d="M710.139 96.9985C713.764 96.9985 716.702 94.061 716.702 90.4375C716.702 86.8139 713.764 83.8765 710.139 83.8765C706.514 83.8765 703.576 86.8139 703.576 90.4375C703.576 94.061 706.514 96.9985 710.139 96.9985Z" fill="#F2F2F2"/>
<path d="M682.738 18.5534C686.362 18.5534 689.301 15.616 689.301 11.9924C689.301 8.36886 686.362 5.4314 682.738 5.4314C679.113 5.4314 676.175 8.36886 676.175 11.9924C676.175 15.616 679.113 18.5534 682.738 18.5534Z" fill="#F2F2F2"/>
<path d="M682.738 44.7019C686.362 44.7019 689.301 41.7644 689.301 38.1408C689.301 34.5173 686.362 31.5798 682.738 31.5798C679.113 31.5798 676.175 34.5173 676.175 38.1408C676.175 41.7644 679.113 44.7019 682.738 44.7019Z" fill="#F2F2F2"/>
<path d="M682.738 70.8503C686.362 70.8503 689.301 67.9128 689.301 64.2893C689.301 60.6657 686.362 57.7283 682.738 57.7283C679.113 57.7283 676.175 60.6657 676.175 64.2893C676.175 67.9128 679.113 70.8503 682.738 70.8503Z" fill="#F2F2F2"/>
<path d="M682.738 96.9985C686.362 96.9985 689.301 94.061 689.301 90.4375C689.301 86.8139 686.362 83.8765 682.738 83.8765C679.113 83.8765 676.175 86.8139 676.175 90.4375C676.175 94.061 679.113 96.9985 682.738 96.9985Z" fill="#F2F2F2"/>
<path d="M655.337 18.5534C658.962 18.5534 661.9 15.616 661.9 11.9924C661.9 8.36886 658.962 5.4314 655.337 5.4314C651.713 5.4314 648.774 8.36886 648.774 11.9924C648.774 15.616 651.713 18.5534 655.337 18.5534Z" fill="#F2F2F2"/>
<path d="M655.337 44.7019C658.962 44.7019 661.9 41.7644 661.9 38.1408C661.9 34.5173 658.962 31.5798 655.337 31.5798C651.713 31.5798 648.774 34.5173 648.774 38.1408C648.774 41.7644 651.713 44.7019 655.337 44.7019Z" fill="#F2F2F2"/>
<path d="M655.337 70.8503C658.962 70.8503 661.9 67.9128 661.9 64.2893C661.9 60.6657 658.962 57.7283 655.337 57.7283C651.713 57.7283 648.774 60.6657 648.774 64.2893C648.774 67.9128 651.713 70.8503 655.337 70.8503Z" fill="#F2F2F2"/>
<path d="M655.337 96.9985C658.962 96.9985 661.9 94.061 661.9 90.4375C661.9 86.8139 658.962 83.8765 655.337 83.8765C651.713 83.8765 648.774 86.8139 648.774 90.4375C648.774 94.061 651.713 96.9985 655.337 96.9985Z" fill="#F2F2F2"/>
<path d="M681.778 244.764C681.239 243.286 681.019 241.712 681.132 240.143C681.245 238.575 681.688 237.047 682.432 235.662C683.177 234.277 684.205 233.064 685.451 232.104C686.697 231.143 688.131 230.457 689.661 230.09C690.146 229.976 690.638 229.895 691.134 229.85L715.797 186.631L709.57 175.935L725.072 163.979L736.933 180.447C738.347 182.427 739.085 184.81 739.038 187.242C738.99 189.674 738.159 192.027 736.668 193.949L702.808 237.285C702.931 237.629 703.036 237.98 703.123 238.335C703.49 239.864 703.53 241.454 703.24 242.999C702.95 244.545 702.336 246.012 701.439 247.304C700.543 248.597 699.383 249.685 698.036 250.498C696.689 251.31 695.186 251.829 693.624 252.021C693.171 252.078 692.714 252.107 692.257 252.107C689.97 252.099 687.739 251.392 685.865 250.079C683.992 248.766 682.565 246.911 681.778 244.764Z" fill="#FFB8B8"/>
<path d="M633.659 457.451L621.216 457.45L615.298 409.473L633.661 409.474L633.659 457.451Z" fill="#FFB8B8"/>
<path d="M612.329 453.896H636.324V468.999H597.221C597.221 467.016 597.611 465.052 598.371 463.219C599.13 461.387 600.243 459.722 601.646 458.319C603.049 456.917 604.714 455.804 606.547 455.045C608.38 454.286 610.345 453.896 612.329 453.896Z" fill="#152522"/>
<path d="M736.16 457.451L723.717 457.45L717.799 409.473L736.162 409.474L736.16 457.451Z" fill="#FFB8B8"/>
<path d="M714.83 453.896H738.825V468.999H699.722C699.722 467.016 700.112 465.052 700.872 463.219C701.631 461.387 702.744 459.722 704.147 458.319C705.55 456.917 707.215 455.804 709.048 455.045C710.881 454.286 712.846 453.896 714.83 453.896Z" fill="#152522"/>
<path d="M728.523 166.315L700.589 176.927L693.77 157.988C692.864 155.474 692.877 152.72 693.806 150.214C694.735 147.707 696.52 145.61 698.846 144.292C701.199 142.959 703.951 142.511 706.606 143.03C709.26 143.548 711.642 144.997 713.32 147.117L728.523 166.315Z" fill="#395143"/>
<path d="M634.732 418.593L611.305 413.252C610.059 412.966 608.967 412.219 608.25 411.161C607.532 410.104 607.241 408.814 607.436 407.551C616.836 347.987 625.88 313.105 649.187 268.808C649.513 267.982 653.152 251.218 655.527 240.111C655.5 238.887 655.919 237.696 656.706 236.758C657.493 235.82 658.594 235.2 659.804 235.014L703.488 228.293C704.147 228.065 704.842 227.96 705.539 227.984L705.976 228.067L705.971 228.497C705.965 228.941 705.523 229.008 705.357 229.034L704.776 229.123C705.439 229.432 706.047 229.845 706.578 230.347C725.718 253.361 735.671 328.8 748.312 412.14C748.382 412.817 748.299 413.5 748.07 414.141C747.842 414.781 747.472 415.362 746.989 415.841C746.531 416.34 745.977 416.741 745.36 417.02C744.743 417.3 744.076 417.451 743.398 417.464L715.488 418.145C714.262 418.172 713.068 417.753 712.128 416.966C711.188 416.179 710.566 415.077 710.378 413.865L691.579 305.258C691.45 304.41 691.053 303.625 690.446 303.017C689.84 302.41 689.055 302.012 688.207 301.881C687.358 301.751 686.49 301.894 685.729 302.29C684.967 302.687 684.352 303.316 683.973 304.085C668.807 334.963 654.663 361.666 640.734 414.942C640.457 416.022 639.83 416.98 638.949 417.664C638.069 418.349 636.985 418.721 635.87 418.722C635.487 418.722 635.105 418.679 634.732 418.593Z" fill="#152522"/>
<path d="M657.473 241.352C656.885 240.936 656.392 240.4 656.028 239.779C655.663 239.158 655.435 238.467 655.358 237.751C651.781 204.362 654.273 178.233 662.976 157.87C664.509 154.358 666.818 151.239 669.73 148.747C672.642 146.256 676.081 144.456 679.789 143.484L702.369 142.345L702.486 142.401C707.581 144.896 711.737 148.966 714.336 154.008C716.935 159.05 717.84 164.795 716.916 170.391C709.654 189.529 703.573 209.454 708.21 225.528C708.405 226.2 708.462 226.905 708.377 227.599C708.293 228.294 708.069 228.964 707.719 229.57C707.38 230.155 706.925 230.665 706.381 231.068C705.837 231.471 705.216 231.758 704.557 231.912L661.549 242.14C660.853 242.306 660.129 242.321 659.426 242.185C658.723 242.049 658.057 241.765 657.473 241.352Z" fill="#395143"/>
<path d="M647.752 193.437L604.444 159.281C604.099 159.402 603.748 159.505 603.392 159.591C601.864 159.948 600.277 159.98 598.735 159.685C597.194 159.389 595.731 158.772 594.443 157.875C593.147 156.977 592.058 155.812 591.248 154.459C590.438 153.106 589.927 151.595 589.748 150.029C589.458 147.524 590.022 144.995 591.351 142.852C592.679 140.709 594.692 139.077 597.064 138.221C598.545 137.69 600.121 137.478 601.69 137.598C603.258 137.719 604.783 138.169 606.166 138.92C607.548 139.671 608.756 140.705 609.71 141.955C610.665 143.204 611.345 144.642 611.705 146.173C611.817 146.658 611.894 147.15 611.937 147.646L655.05 172.51L665.779 166.335L677.664 181.89L661.006 193.76C659.056 195.138 656.713 195.851 654.326 195.792C651.938 195.734 649.633 194.908 647.752 193.437Z" fill="#FFB8B8"/>
<path d="M682.949 186.734L658.238 169.936L669.851 153.493C671.393 151.31 673.658 149.742 676.244 149.066C678.831 148.39 681.573 148.65 683.987 149.8C686.428 150.964 688.373 152.961 689.47 155.433C690.567 157.904 690.744 160.686 689.969 163.276L682.949 186.734Z" fill="#395143"/>
<path d="M694.833 133.914C708.599 133.914 719.759 122.757 719.759 108.995C719.759 95.2331 708.599 84.0767 694.833 84.0767C681.067 84.0767 669.907 95.2331 669.907 108.995C669.907 122.757 681.067 133.914 694.833 133.914Z" fill="#FFB8B8"/>
<path d="M685.695 105.284C679.288 109.667 670.876 114.173 664.333 109.505C660.037 106.44 658.683 100.764 660.425 95.7832C663.558 86.8262 672.167 82.8828 680.398 79.8602C691.099 75.9308 702.751 72.8048 713.799 75.6188C724.846 78.4329 734.609 89.1255 732.615 100.346C731.011 109.37 722.496 116.879 723.705 125.964C724.922 135.107 735.207 139.92 744.288 141.554C753.369 143.188 763.53 143.713 770.056 150.234C778.381 158.552 776.302 173.419 768.469 182.202C760.635 190.984 748.814 194.965 737.359 197.671C722.183 201.257 705.768 203.141 691.354 197.191C676.94 191.24 665.723 175.221 669.898 160.2C671.662 153.855 675.817 148.493 679.832 143.273C683.848 138.052 687.914 132.594 689.445 126.189C690.722 120.851 689.777 114.655 686.237 110.651C685.593 109.95 685.187 109.064 685.079 108.118C684.971 107.173 685.165 106.217 685.633 105.389L685.695 105.284Z" fill="#152522"/>
</g>
<defs>
<clipPath id="clip0_199_879">
<rect width="910" height="469" fill="white"/>
</clipPath>
</defs>
</svg>
