<svg width="400" height="400" viewBox="0 0 400 400" fill="none" xmlns="http://www.w3.org/2000/svg">
<path d="M360.76 318.704H48.76V331.504H360.76V318.704Z" fill="#395143"/>
<path opacity="0.5" d="M360.76 318.704H48.76V331.504H360.76V318.704Z" fill="white"/>
<path d="M122.336 181.032C120.81 181.53 119.312 182.109 117.848 182.768C118.648 182.184 119.448 181.576 120.248 180.96C123.81 178.095 127.2 175.023 130.4 171.76C126.645 175.408 122.634 178.785 118.4 181.864C118.984 180.85 119.497 179.797 119.936 178.712C120.736 176.72 120.88 174.712 118.984 173.648C116.64 172.336 113.808 174.296 114.552 177.648C115.006 179.519 115.891 181.259 117.136 182.728C114.373 184.641 111.486 186.37 108.496 187.904L108.216 188.048C108.848 186.953 109.407 185.817 109.888 184.648C110.64 182.664 110.832 180.648 108.928 179.592C106.584 178.272 103.752 180.24 104.504 183.592C104.95 185.438 105.815 187.157 107.032 188.616C103.44 190.384 99.728 191.888 96.032 193.52L95.496 193.76C96.2174 192.985 96.8881 192.165 97.504 191.304C98.704 189.544 99.352 187.64 97.752 186.16C95.784 184.336 92.56 185.584 92.512 189.04C92.5141 190.947 92.9577 192.828 93.808 194.536C90.3494 196.152 87.0633 198.114 84 200.392L83.904 200.472C84.3183 199.815 84.6976 199.137 85.04 198.44C85.944 196.512 86.28 194.528 84.456 193.32C84.0854 193.065 83.6618 192.897 83.2171 192.83C82.7723 192.762 82.3181 192.796 81.8884 192.93C81.4588 193.063 81.0649 193.292 80.7365 193.599C80.408 193.906 80.1535 194.284 79.992 194.704C79.7515 194.329 79.4252 194.016 79.04 193.792C77.208 192.736 75.408 193.88 73.864 195.496C73.464 195.92 73.064 196.376 72.72 196.824C73.9111 193.518 75.4082 190.331 77.192 187.304C78.8907 188.046 80.7224 188.435 82.576 188.448C86.224 188.448 87.76 185.408 85.968 183.52C84.512 181.992 82.464 182.576 80.528 183.696C79.8905 184.068 79.2736 184.474 78.68 184.912C80.5345 182.119 82.6392 179.5 84.968 177.088C86.494 178.322 88.2673 179.214 90.168 179.704C93.712 180.576 95.936 178.008 94.656 175.744C93.616 173.904 91.456 173.976 89.336 174.592C88.3213 174.895 87.3272 175.264 86.36 175.696C87.328 174.752 88.328 173.848 89.344 172.952C90.672 171.816 92.048 170.72 93.448 169.648C94.9533 170.849 96.6953 171.719 98.56 172.2C102.104 173.072 104.328 170.504 103.048 168.24C102.008 166.4 99.848 166.472 97.72 167.088C97.224 167.232 96.72 167.408 96.232 167.592C98.08 166.272 99.952 164.984 101.832 163.704L103.568 162.512C105.132 163.822 106.969 164.768 108.944 165.28C112.488 166.152 114.72 163.584 113.44 161.32C112.392 159.48 110.24 159.552 108.112 160.168C107.275 160.424 106.451 160.72 105.64 161.056L106.712 160.256C107.368 159.784 108.024 159.304 108.664 158.8C109.464 158.2 110.224 157.536 111 156.896C111.448 156.544 111.872 156.168 112.296 155.784C113.867 157.108 115.715 158.062 117.704 158.576C121.248 159.448 123.472 156.88 122.192 154.616C121.152 152.776 118.992 152.848 116.872 153.464C115.683 153.831 114.518 154.272 113.384 154.784C114.832 153.44 116.232 152.04 117.56 150.584C117.648 150.48 117.728 150.376 117.824 150.28C118.392 149.648 118.952 149.008 119.496 148.344C120.04 147.68 120.744 146.808 121.336 146.008C123.767 142.817 125.768 139.32 127.288 135.608C125.695 139.276 123.627 142.719 121.136 145.848C118.672 148.99 115.922 151.896 112.92 154.528L112.592 154.808C113.274 153.647 113.878 152.441 114.4 151.2C115.16 149.216 115.344 147.2 113.44 146.144C111.104 144.824 108.264 146.792 109.016 150.144C109.499 152.129 110.463 153.964 111.824 155.488L111.12 156.096L110.32 156.784C109.856 157.16 109.376 157.52 108.896 157.88C108.64 158.072 108.392 158.272 108.096 158.464C107.416 158.968 106.728 159.456 106.032 159.936L105.032 160.616L103.896 161.416C104.56 160.283 105.143 159.104 105.64 157.888C106.4 155.896 106.584 153.888 104.688 152.832C102.344 151.512 99.504 153.48 100.256 156.832C100.72 158.757 101.639 160.543 102.936 162.04L102.136 162.584L99.024 164.624L98.408 165.024L96.672 166.184L95.92 166.688C95.12 167.24 94.32 167.8 93.52 168.376C94.1628 167.225 94.7242 166.03 95.2 164.8C96 162.816 96.144 160.8 94.248 159.744C91.904 158.424 89.072 160.392 89.824 163.744C90.2939 165.695 91.2331 167.502 92.56 169.008C91.2 170.008 89.856 171.032 88.56 172.104C87.608 172.904 86.672 173.704 85.752 174.568C86.1528 173.826 86.5107 173.062 86.824 172.28C87.576 170.288 87.768 168.28 85.864 167.224C83.52 165.904 80.688 167.872 81.44 171.224C81.8865 173.07 82.7514 174.789 83.968 176.248C81.377 178.823 79.0433 181.644 77 184.672C77.232 183.799 77.4083 182.912 77.528 182.016C77.784 179.904 77.48 177.92 75.376 177.344C72.784 176.632 70.512 179.224 72.056 182.312C72.9442 184.012 74.2149 185.482 75.768 186.608C73.7528 189.899 72.0698 193.383 70.744 197.008C70.7094 196.25 70.6346 195.494 70.52 194.744C70.16 192.64 69.312 190.824 67.128 190.864C64.44 190.92 62.992 194.064 65.352 196.576C66.6106 197.888 68.1468 198.902 69.848 199.544C68.9382 202.342 68.1982 205.193 67.632 208.08C67.536 208.536 67.464 208.992 67.376 209.448C67.28 209.536 67.184 209.624 67.096 209.72C67 209.328 66.888 208.92 66.76 208.544C66.088 206.528 64.968 204.856 62.816 205.24C60.176 205.704 59.224 209.016 61.944 211.152C63.3264 212.207 64.9199 212.952 66.616 213.336C66.616 213.416 66.68 213.488 66.72 213.568C66.424 215.736 66.2 217.92 66.064 220.112C65.96 221.712 65.904 223.384 65.872 225.024C63.584 225.024 61.968 227.536 63.544 230.256C64.209 231.384 65.0612 232.39 66.064 233.232C66.256 236.312 66.56 239.392 66.968 242.448C66.6445 242.149 66.2486 241.939 65.8193 241.839C65.39 241.74 64.9422 241.754 64.52 241.88C63.08 242.272 62.432 243.432 62.2 244.856C61.6876 245.386 61.4008 246.095 61.4 246.832C60.328 245.232 59.312 243.632 58.328 241.944C59.8301 240.792 61.0753 239.34 61.984 237.68C63.704 234.48 61.76 231.672 59.256 232.352C57.208 232.912 56.76 234.992 56.856 237.224C56.888 238.07 56.9681 238.914 57.096 239.752L56.04 237.896C55.16 236.296 54.44 234.696 53.576 233.096C53.368 232.704 53.184 232.296 53.016 231.896C54.7014 231.047 56.1917 229.856 57.392 228.4C59.688 225.568 58.304 222.456 55.712 222.656C53.6 222.824 52.76 224.784 52.408 226.992C52.2708 227.955 52.1854 228.924 52.152 229.896L51.4 228.16C49.7984 224.222 48.4803 220.174 47.456 216.048C49.3637 215.372 51.0965 214.279 52.528 212.848C55.096 210.248 54.032 207.024 51.432 206.96C49.32 206.912 48.288 208.776 47.712 210.96C47.4297 212.119 47.2186 213.295 47.08 214.48C46.52 212.112 46.04 209.712 45.64 207.28C45.368 205.792 45.192 204.28 45.008 202.776C47.0585 202.37 48.9899 201.502 50.656 200.24C53.536 198 52.904 194.64 50.328 194.264C48.24 193.936 46.976 195.656 46.128 197.728C45.6315 199.035 45.2148 200.371 44.88 201.728C44.72 199.984 44.536 198.232 44.456 196.48C44.216 192.863 44.216 189.233 44.456 185.616C44.0908 189.23 43.9652 192.865 44.08 196.496C44.08 198.168 44.224 199.832 44.328 201.504C43.871 200.367 43.3364 199.263 42.728 198.2C41.64 196.368 40.184 195 38.168 195.8C35.68 196.824 35.464 200.264 38.584 201.768C40.4139 202.609 42.4213 202.99 44.432 202.88C44.576 204.376 44.704 205.864 44.928 207.344C45.24 209.744 45.64 212.048 46.112 214.376C45.6001 213.484 45.0309 212.626 44.408 211.808C43.088 210.136 41.472 208.952 39.608 210.032C37.28 211.368 37.504 214.832 40.792 215.896C42.6526 216.474 44.6231 216.606 46.544 216.28C47.4567 220.451 48.6569 224.554 50.136 228.56L50.608 229.76C50.1847 229.199 49.7279 228.665 49.24 228.16C47.76 226.624 46.04 225.608 44.256 226.88C42.072 228.48 42.656 231.84 46.016 232.592C47.8704 232.967 49.7861 232.913 51.616 232.432C51.784 232.84 51.952 233.232 52.152 233.648C52.952 235.296 53.664 236.984 54.504 238.6L55.2 240C54.784 239.64 54.352 239.296 53.904 238.976C52.16 237.752 50.272 237.08 48.768 238.656C46.912 240.6 48.112 243.832 51.568 243.936C53.3672 243.978 55.1536 243.623 56.8 242.896C57.792 244.688 58.808 246.456 59.912 248.192C60.32 248.856 60.712 249.512 61.176 250.168C60.5484 249.594 59.8858 249.06 59.192 248.568C57.448 247.344 55.56 246.672 54.048 248.248C52.2 250.192 53.4 253.424 56.856 253.528C58.8313 253.552 60.7838 253.105 62.552 252.224C63.128 253.024 63.72 253.824 64.328 254.624C63.04 256.12 63.464 258.624 66.08 259.768C67.3505 260.297 68.7047 260.598 70.08 260.656C70.24 260.784 70.4 260.912 70.576 261.032L70.656 261.096C72.3093 267.272 74.2693 273.357 76.536 279.352C77.496 281.904 78.528 284.432 79.592 286.944H69.992V324.8H99.328V286.912H83.712C82.376 283.992 81.088 281.04 79.888 278.056C77.928 273.16 76.152 268.184 74.608 263.136C74.8707 263.213 75.1379 263.275 75.408 263.32C75.7633 263.392 76.1277 263.408 76.488 263.368L76.072 260.736H75.792C75.6251 260.712 75.4596 260.68 75.296 260.64C74.9264 260.534 74.5654 260.4 74.216 260.24L73.8 260.048C75.344 259.51 76.7778 258.697 78.032 257.648C80.808 255.248 80.024 251.968 77.432 251.688C75.336 251.456 74.152 253.232 73.432 255.336C73.216 255.936 73.04 256.56 72.888 257.168C72.736 256.608 72.584 256.048 72.44 255.488C72.016 253.832 71.64 252.16 71.256 250.488C72.9316 249.965 74.4888 249.12 75.84 248C78.616 245.6 77.824 242.328 75.24 242.048C73.136 241.816 71.96 243.592 71.24 245.696C71.024 246.304 70.84 246.936 70.68 247.56C70.44 246.344 70.208 245.12 69.992 243.896C69.84 242.992 69.696 242.08 69.56 241.168C69.512 239.872 69.488 238.576 69.504 237.272C69.504 236.56 69.504 235.848 69.568 235.136C71.1365 235.632 72.7815 235.84 74.424 235.752C78.072 235.512 79.416 232.392 77.512 230.624C75.96 229.176 73.952 229.896 72.088 231.128C71.2521 231.696 70.4507 232.313 69.688 232.976C69.9127 229.931 70.3754 226.909 71.072 223.936C71.4802 222.185 71.9904 220.459 72.6 218.768C74.2727 219.344 76.0413 219.592 77.808 219.496C81.456 219.264 82.8 216.144 80.896 214.368C79.352 212.928 77.336 213.64 75.472 214.88C74.8213 215.327 74.1963 215.811 73.6 216.328C74.3035 214.673 75.1214 213.069 76.048 211.528C77.8855 208.419 80.1897 205.61 82.88 203.2C84.2742 204.486 85.9232 205.464 87.72 206.072C91.192 207.208 93.6 204.808 92.52 202.456C91.616 200.544 89.488 200.456 87.296 200.912C86.4513 201.092 85.6179 201.322 84.8 201.6L84.856 201.552C87.8412 199.223 91.0581 197.207 94.456 195.536C95.6548 197.105 97.1773 198.399 98.92 199.328C102.168 201 104.928 199.016 104.208 196.52C103.624 194.488 101.536 194.064 99.304 194.12C98.4274 194.168 97.554 194.264 96.688 194.408C100.296 192.704 103.976 191.096 107.528 189.216H107.608C109.198 190.589 111.085 191.575 113.12 192.096C116.664 192.976 118.888 190.4 117.608 188.096C116.568 186.256 114.408 186.336 112.288 186.944C111.688 187.12 111.088 187.336 110.504 187.56C112.876 186.181 115.175 184.681 117.392 183.064L117.576 183.264V183.16C119.182 184.545 121.084 185.544 123.136 186.08C126.672 186.952 128.904 184.384 127.624 182.08C126.616 180.344 124.488 180.416 122.336 181.032ZM66.4 253.52C65.672 252.672 64.984 251.784 64.312 250.888C64.472 250.744 64.648 250.584 64.824 250.408C65.8237 250.719 66.8584 250.905 67.904 250.96V251.128L68.392 251.024C68.648 252.288 68.912 253.544 69.192 254.8C68.8669 254.374 68.4423 254.035 67.9555 253.812C67.4687 253.589 66.9346 253.488 66.4 253.52ZM69.008 223.4C68.76 224.344 68.552 225.288 68.352 226.24L68.232 226.072C68.232 224.12 68.2613 222.173 68.32 220.232C68.376 218.872 68.472 217.52 68.592 216.16C69.2502 216.83 69.9738 217.433 70.752 217.96C70.0749 219.74 69.4954 221.556 69.016 223.4H69.008ZM72.288 214.44C72.336 214.088 72.376 213.728 72.392 213.376V212.84C72.68 212.752 72.976 212.648 73.264 212.528C72.944 213.16 72.608 213.8 72.296 214.44H72.288ZM76.456 207.68C76.3178 207.363 76.1168 207.078 75.8651 206.842C75.6135 206.605 75.3164 206.422 74.992 206.304C73.016 205.504 71.416 206.944 70.144 208.784L70.08 208.872H69.952C69.8179 208.842 69.6814 208.823 69.544 208.816C69.5345 208.704 69.5538 208.591 69.6 208.488C70.1065 205.598 70.7905 202.742 71.648 199.936C73.4845 200.169 75.3492 200.025 77.128 199.512C78.227 199.223 79.1828 198.543 79.816 197.6C80.1681 199.213 80.84 200.739 81.792 202.088C79.8239 203.762 78.038 205.639 76.464 207.688L76.456 207.68Z" fill="#395143"/>
<path opacity="0.3" d="M122.336 181.032C120.81 181.53 119.312 182.109 117.848 182.768C118.648 182.184 119.448 181.576 120.248 180.96C123.81 178.095 127.2 175.023 130.4 171.76C126.645 175.408 122.634 178.785 118.4 181.864C118.984 180.85 119.497 179.797 119.936 178.712C120.736 176.72 120.88 174.712 118.984 173.648C116.64 172.336 113.808 174.296 114.552 177.648C115.006 179.519 115.891 181.259 117.136 182.728C114.373 184.641 111.486 186.37 108.496 187.904L108.216 188.048C108.848 186.953 109.407 185.817 109.888 184.648C110.64 182.664 110.832 180.648 108.928 179.592C106.584 178.272 103.752 180.24 104.504 183.592C104.95 185.438 105.815 187.157 107.032 188.616C103.44 190.384 99.728 191.888 96.032 193.52L95.496 193.76C96.2174 192.985 96.8881 192.165 97.504 191.304C98.704 189.544 99.352 187.64 97.752 186.16C95.784 184.336 92.56 185.584 92.512 189.04C92.5141 190.947 92.9577 192.828 93.808 194.536C90.3494 196.152 87.0633 198.114 84 200.392L83.904 200.472C84.3183 199.815 84.6976 199.137 85.04 198.44C85.944 196.512 86.28 194.528 84.456 193.32C84.0854 193.065 83.6618 192.897 83.2171 192.83C82.7723 192.762 82.3181 192.796 81.8884 192.93C81.4588 193.063 81.0649 193.292 80.7365 193.599C80.408 193.906 80.1535 194.284 79.992 194.704C79.7515 194.329 79.4252 194.016 79.04 193.792C77.208 192.736 75.408 193.88 73.864 195.496C73.464 195.92 73.064 196.376 72.72 196.824C73.9111 193.518 75.4082 190.331 77.192 187.304C78.8907 188.046 80.7224 188.435 82.576 188.448C86.224 188.448 87.76 185.408 85.968 183.52C84.512 181.992 82.464 182.576 80.528 183.696C79.8905 184.068 79.2736 184.474 78.68 184.912C80.5345 182.119 82.6392 179.5 84.968 177.088C86.494 178.322 88.2673 179.214 90.168 179.704C93.712 180.576 95.936 178.008 94.656 175.744C93.616 173.904 91.456 173.976 89.336 174.592C88.3213 174.895 87.3272 175.264 86.36 175.696C87.328 174.752 88.328 173.848 89.344 172.952C90.672 171.816 92.048 170.72 93.448 169.648C94.9533 170.849 96.6953 171.719 98.56 172.2C102.104 173.072 104.328 170.504 103.048 168.24C102.008 166.4 99.848 166.472 97.72 167.088C97.224 167.232 96.72 167.408 96.232 167.592C98.08 166.272 99.952 164.984 101.832 163.704L103.568 162.512C105.132 163.822 106.969 164.768 108.944 165.28C112.488 166.152 114.72 163.584 113.44 161.32C112.392 159.48 110.24 159.552 108.112 160.168C107.275 160.424 106.451 160.72 105.64 161.056L106.712 160.256C107.368 159.784 108.024 159.304 108.664 158.8C109.464 158.2 110.224 157.536 111 156.896C111.448 156.544 111.872 156.168 112.296 155.784C113.867 157.108 115.715 158.062 117.704 158.576C121.248 159.448 123.472 156.88 122.192 154.616C121.152 152.776 118.992 152.848 116.872 153.464C115.683 153.831 114.518 154.272 113.384 154.784C114.832 153.44 116.232 152.04 117.56 150.584C117.648 150.48 117.728 150.376 117.824 150.28C118.392 149.648 118.952 149.008 119.496 148.344C120.04 147.68 120.744 146.808 121.336 146.008C123.767 142.817 125.768 139.32 127.288 135.608C125.695 139.276 123.627 142.719 121.136 145.848C118.672 148.99 115.922 151.896 112.92 154.528L112.592 154.808C113.274 153.647 113.878 152.441 114.4 151.2C115.16 149.216 115.344 147.2 113.44 146.144C111.104 144.824 108.264 146.792 109.016 150.144C109.499 152.129 110.463 153.964 111.824 155.488L111.12 156.096L110.32 156.784C109.856 157.16 109.376 157.52 108.896 157.88C108.64 158.072 108.392 158.272 108.096 158.464C107.416 158.968 106.728 159.456 106.032 159.936L105.032 160.616L103.896 161.416C104.56 160.283 105.143 159.104 105.64 157.888C106.4 155.896 106.584 153.888 104.688 152.832C102.344 151.512 99.504 153.48 100.256 156.832C100.72 158.757 101.639 160.543 102.936 162.04L102.136 162.584L99.024 164.624L98.408 165.024L96.672 166.184L95.92 166.688C95.12 167.24 94.32 167.8 93.52 168.376C94.1628 167.225 94.7242 166.03 95.2 164.8C96 162.816 96.144 160.8 94.248 159.744C91.904 158.424 89.072 160.392 89.824 163.744C90.2939 165.695 91.2331 167.502 92.56 169.008C91.2 170.008 89.856 171.032 88.56 172.104C87.608 172.904 86.672 173.704 85.752 174.568C86.1528 173.826 86.5107 173.062 86.824 172.28C87.576 170.288 87.768 168.28 85.864 167.224C83.52 165.904 80.688 167.872 81.44 171.224C81.8865 173.07 82.7514 174.789 83.968 176.248C81.377 178.823 79.0433 181.644 77 184.672C77.232 183.799 77.4083 182.912 77.528 182.016C77.784 179.904 77.48 177.92 75.376 177.344C72.784 176.632 70.512 179.224 72.056 182.312C72.9442 184.012 74.2149 185.482 75.768 186.608C73.7528 189.899 72.0698 193.383 70.744 197.008C70.7094 196.25 70.6346 195.494 70.52 194.744C70.16 192.64 69.312 190.824 67.128 190.864C64.44 190.92 62.992 194.064 65.352 196.576C66.6106 197.888 68.1468 198.902 69.848 199.544C68.9382 202.342 68.1982 205.193 67.632 208.08C67.536 208.536 67.464 208.992 67.376 209.448C67.28 209.536 67.184 209.624 67.096 209.72C67 209.328 66.888 208.92 66.76 208.544C66.088 206.528 64.968 204.856 62.816 205.24C60.176 205.704 59.224 209.016 61.944 211.152C63.3264 212.207 64.9199 212.952 66.616 213.336C66.616 213.416 66.68 213.488 66.72 213.568C66.424 215.736 66.2 217.92 66.064 220.112C65.96 221.712 65.904 223.384 65.872 225.024C63.584 225.024 61.968 227.536 63.544 230.256C64.209 231.384 65.0612 232.39 66.064 233.232C66.256 236.312 66.56 239.392 66.968 242.448C66.6445 242.149 66.2486 241.939 65.8193 241.839C65.39 241.74 64.9422 241.754 64.52 241.88C63.08 242.272 62.432 243.432 62.2 244.856C61.6876 245.386 61.4008 246.095 61.4 246.832C60.328 245.232 59.312 243.632 58.328 241.944C59.8301 240.792 61.0753 239.34 61.984 237.68C63.704 234.48 61.76 231.672 59.256 232.352C57.208 232.912 56.76 234.992 56.856 237.224C56.888 238.07 56.9681 238.914 57.096 239.752L56.04 237.896C55.16 236.296 54.44 234.696 53.576 233.096C53.368 232.704 53.184 232.296 53.016 231.896C54.7014 231.047 56.1917 229.856 57.392 228.4C59.688 225.568 58.304 222.456 55.712 222.656C53.6 222.824 52.76 224.784 52.408 226.992C52.2708 227.955 52.1854 228.924 52.152 229.896L51.4 228.16C49.7984 224.222 48.4803 220.174 47.456 216.048C49.3637 215.372 51.0965 214.279 52.528 212.848C55.096 210.248 54.032 207.024 51.432 206.96C49.32 206.912 48.288 208.776 47.712 210.96C47.4297 212.119 47.2186 213.295 47.08 214.48C46.52 212.112 46.04 209.712 45.64 207.28C45.368 205.792 45.192 204.28 45.008 202.776C47.0585 202.37 48.9899 201.502 50.656 200.24C53.536 198 52.904 194.64 50.328 194.264C48.24 193.936 46.976 195.656 46.128 197.728C45.6315 199.035 45.2148 200.371 44.88 201.728C44.72 199.984 44.536 198.232 44.456 196.48C44.216 192.863 44.216 189.233 44.456 185.616C44.0908 189.23 43.9652 192.865 44.08 196.496C44.08 198.168 44.224 199.832 44.328 201.504C43.871 200.367 43.3364 199.263 42.728 198.2C41.64 196.368 40.184 195 38.168 195.8C35.68 196.824 35.464 200.264 38.584 201.768C40.4139 202.609 42.4213 202.99 44.432 202.88C44.576 204.376 44.704 205.864 44.928 207.344C45.24 209.744 45.64 212.048 46.112 214.376C45.6001 213.484 45.0309 212.626 44.408 211.808C43.088 210.136 41.472 208.952 39.608 210.032C37.28 211.368 37.504 214.832 40.792 215.896C42.6526 216.474 44.6231 216.606 46.544 216.28C47.4567 220.451 48.6569 224.554 50.136 228.56L50.608 229.76C50.1847 229.199 49.7279 228.665 49.24 228.16C47.76 226.624 46.04 225.608 44.256 226.88C42.072 228.48 42.656 231.84 46.016 232.592C47.8704 232.967 49.7861 232.913 51.616 232.432C51.784 232.84 51.952 233.232 52.152 233.648C52.952 235.296 53.664 236.984 54.504 238.6L55.2 240C54.784 239.64 54.352 239.296 53.904 238.976C52.16 237.752 50.272 237.08 48.768 238.656C46.912 240.6 48.112 243.832 51.568 243.936C53.3672 243.978 55.1536 243.623 56.8 242.896C57.792 244.688 58.808 246.456 59.912 248.192C60.32 248.856 60.712 249.512 61.176 250.168C60.5484 249.594 59.8858 249.06 59.192 248.568C57.448 247.344 55.56 246.672 54.048 248.248C52.2 250.192 53.4 253.424 56.856 253.528C58.8313 253.552 60.7838 253.105 62.552 252.224C63.128 253.024 63.72 253.824 64.328 254.624C63.04 256.12 63.464 258.624 66.08 259.768C67.3505 260.297 68.7047 260.598 70.08 260.656C70.24 260.784 70.4 260.912 70.576 261.032L70.656 261.096C72.3093 267.272 74.2693 273.357 76.536 279.352C77.496 281.904 78.528 284.432 79.592 286.944H69.992V324.8H99.328V286.912H83.712C82.376 283.992 81.088 281.04 79.888 278.056C77.928 273.16 76.152 268.184 74.608 263.136C74.8707 263.213 75.1379 263.275 75.408 263.32C75.7633 263.392 76.1277 263.408 76.488 263.368L76.072 260.736H75.792C75.6251 260.712 75.4596 260.68 75.296 260.64C74.9264 260.534 74.5654 260.4 74.216 260.24L73.8 260.048C75.344 259.51 76.7778 258.697 78.032 257.648C80.808 255.248 80.024 251.968 77.432 251.688C75.336 251.456 74.152 253.232 73.432 255.336C73.216 255.936 73.04 256.56 72.888 257.168C72.736 256.608 72.584 256.048 72.44 255.488C72.016 253.832 71.64 252.16 71.256 250.488C72.9316 249.965 74.4888 249.12 75.84 248C78.616 245.6 77.824 242.328 75.24 242.048C73.136 241.816 71.96 243.592 71.24 245.696C71.024 246.304 70.84 246.936 70.68 247.56C70.44 246.344 70.208 245.12 69.992 243.896C69.84 242.992 69.696 242.08 69.56 241.168C69.512 239.872 69.488 238.576 69.504 237.272C69.504 236.56 69.504 235.848 69.568 235.136C71.1365 235.632 72.7815 235.84 74.424 235.752C78.072 235.512 79.416 232.392 77.512 230.624C75.96 229.176 73.952 229.896 72.088 231.128C71.2521 231.696 70.4507 232.313 69.688 232.976C69.9127 229.931 70.3754 226.909 71.072 223.936C71.4802 222.185 71.9904 220.459 72.6 218.768C74.2727 219.344 76.0413 219.592 77.808 219.496C81.456 219.264 82.8 216.144 80.896 214.368C79.352 212.928 77.336 213.64 75.472 214.88C74.8213 215.327 74.1963 215.811 73.6 216.328C74.3035 214.673 75.1214 213.069 76.048 211.528C77.8855 208.419 80.1897 205.61 82.88 203.2C84.2742 204.486 85.9232 205.464 87.72 206.072C91.192 207.208 93.6 204.808 92.52 202.456C91.616 200.544 89.488 200.456 87.296 200.912C86.4513 201.092 85.6179 201.322 84.8 201.6L84.856 201.552C87.8412 199.223 91.0581 197.207 94.456 195.536C95.6548 197.105 97.1773 198.399 98.92 199.328C102.168 201 104.928 199.016 104.208 196.52C103.624 194.488 101.536 194.064 99.304 194.12C98.4274 194.168 97.554 194.264 96.688 194.408C100.296 192.704 103.976 191.096 107.528 189.216H107.608C109.198 190.589 111.085 191.575 113.12 192.096C116.664 192.976 118.888 190.4 117.608 188.096C116.568 186.256 114.408 186.336 112.288 186.944C111.688 187.12 111.088 187.336 110.504 187.56C112.876 186.181 115.175 184.681 117.392 183.064L117.576 183.264V183.16C119.182 184.545 121.084 185.544 123.136 186.08C126.672 186.952 128.904 184.384 127.624 182.08C126.616 180.344 124.488 180.416 122.336 181.032ZM66.4 253.52C65.672 252.672 64.984 251.784 64.312 250.888C64.472 250.744 64.648 250.584 64.824 250.408C65.8237 250.719 66.8584 250.905 67.904 250.96V251.128L68.392 251.024C68.648 252.288 68.912 253.544 69.192 254.8C68.8669 254.374 68.4423 254.035 67.9555 253.812C67.4687 253.589 66.9346 253.488 66.4 253.52ZM69.008 223.4C68.76 224.344 68.552 225.288 68.352 226.24L68.232 226.072C68.232 224.12 68.2613 222.173 68.32 220.232C68.376 218.872 68.472 217.52 68.592 216.16C69.2502 216.83 69.9738 217.433 70.752 217.96C70.0749 219.74 69.4954 221.556 69.016 223.4H69.008ZM72.288 214.44C72.336 214.088 72.376 213.728 72.392 213.376V212.84C72.68 212.752 72.976 212.648 73.264 212.528C72.944 213.16 72.608 213.8 72.296 214.44H72.288ZM76.456 207.68C76.3178 207.363 76.1168 207.078 75.8651 206.842C75.6135 206.605 75.3164 206.422 74.992 206.304C73.016 205.504 71.416 206.944 70.144 208.784L70.08 208.872H69.952C69.8179 208.842 69.6814 208.823 69.544 208.816C69.5345 208.704 69.5538 208.591 69.6 208.488C70.1065 205.598 70.7905 202.742 71.648 199.936C73.4845 200.169 75.3492 200.025 77.128 199.512C78.227 199.223 79.1828 198.543 79.816 197.6C80.1681 199.213 80.84 200.739 81.792 202.088C79.8239 203.762 78.038 205.639 76.464 207.688L76.456 207.68Z" fill="white"/>
<path d="M319.592 289.896C319.592 289.896 315.72 281.248 314.792 280.36C313.864 279.472 306.448 276.784 304.392 269.96C302.336 263.136 298.432 244.92 308.272 246.112C318.112 247.304 315.72 266.384 319.296 265.784C322.872 265.184 316.32 234.792 322.576 230.584C328.832 226.376 338.968 230.288 337.776 246.384C336.584 262.48 334.2 271.712 336.288 270.824C338.376 269.936 344.336 266.648 344.336 273.504C344.336 280.36 338.672 285.128 335.392 285.424C332.112 285.72 330.592 286.024 330.592 286.024V290.488L319.592 289.896Z" fill="#2E353A" stroke="#2E353A" stroke-linecap="round" stroke-linejoin="round"/>
<path d="M316.44 273.136C314.192 271.008 312.128 268.944 311.176 267.048C309.288 263.264 307.864 252.648 307.864 252.648" stroke="white" stroke-width="0.5" stroke-linecap="round" stroke-linejoin="round"/>
<path d="M304.512 257.832C306 264.032 306.208 268.704 310.704 274.144C313.104 277.088 319.456 279.584 320.168 282.184C320.805 285.312 321.283 288.471 321.6 291.648L325.152 291.888C325.152 291.888 325.872 285.728 323.84 281.336" stroke="white" stroke-width="0.5" stroke-linecap="round" stroke-linejoin="round"/>
<path d="M305.504 247.888C305.504 247.888 302.848 249.928 303.792 254.952" stroke="white" stroke-width="0.5" stroke-linecap="round" stroke-linejoin="round"/>
<path d="M322.52 266.184L321.112 268.464" stroke="white" stroke-width="0.5" stroke-linecap="round" stroke-linejoin="round"/>
<path d="M323.008 265.392L322.52 266.184" stroke="white" stroke-width="0.5" stroke-linecap="round" stroke-linejoin="round"/>
<path d="M327.736 231.328C327.736 231.328 322.296 231.096 322.296 236.296C322.296 240.688 323.64 255.68 323.352 262.536" stroke="white" stroke-width="0.5" stroke-linecap="round" stroke-linejoin="round"/>
<path d="M332 273.928C331.872 275.712 331.792 276.976 331.792 277.456C331.792 280.056 338.408 270.12 341.488 269.888C341.488 269.888 344.56 269.648 343.376 275.328C342.945 277.436 341.947 279.387 340.49 280.971C339.032 282.554 337.17 283.709 335.104 284.312C332.496 285.024 330.368 283.84 329.896 285.024C329.519 286.416 329.281 287.841 329.184 289.28" stroke="white" stroke-width="0.5" stroke-linecap="round" stroke-linejoin="round"/>
<path d="M333.544 236.264C333.955 237.979 334.149 239.74 334.12 241.504C334.12 247.04 333.064 260.096 332.36 268.912" stroke="white" stroke-width="0.5" stroke-linecap="round" stroke-linejoin="round"/>
<path d="M330.808 231.808C331.518 232.215 332.094 232.821 332.464 233.552" stroke="white" stroke-width="0.5" stroke-linecap="round" stroke-linejoin="round"/>
<path d="M326.96 272.488L326.792 275.8" stroke="white" stroke-width="0.5" stroke-linecap="round" stroke-linejoin="round"/>
<path d="M328.208 234.64C328.208 234.64 326.792 235.112 327.264 240.08C327.656 244.184 327.264 262.816 327.08 269.176" stroke="white" stroke-width="0.5" stroke-linecap="round" stroke-linejoin="round"/>
<path d="M343.112 271.304C341.083 275.101 337.833 278.102 333.888 279.824C327.488 282.424 327.264 281.24 327.264 283.824C327.264 286.408 327.024 291.16 327.024 291.16" stroke="white" stroke-width="0.5" stroke-linecap="round" stroke-linejoin="round"/>
<path d="M334.24 324.776H313.568L309.144 294.832H338.664L334.24 324.776Z" fill="#FFF3B2" stroke="#2E353A" stroke-linecap="round" stroke-linejoin="round"/>
<path d="M341.2 290.112H306.608V298.128H341.2V290.112Z" fill="#FFD700" stroke="#2E353A" stroke-linecap="round" stroke-linejoin="round"/>
<path d="M220.736 304.616V288.36H172.864V304.616C172.856 309.911 171.064 315.049 167.776 319.2L165.68 321.84H227.92L225.824 319.2C222.536 315.049 220.744 309.911 220.736 304.616Z" fill="white" stroke="#2E353A" stroke-linecap="round" stroke-linejoin="round"/>
<path d="M169.92 316H223.68C221.75 312.516 220.737 308.599 220.736 304.616V288.36H172.864V304.616C172.863 308.599 171.85 312.516 169.92 316Z" fill="#2E353A"/>
<path d="M286.216 149.176H107.376C103.629 149.176 100.592 152.213 100.592 155.96V286.704C100.592 290.451 103.629 293.488 107.376 293.488H286.216C289.963 293.488 293 290.451 293 286.704V155.96C293 152.213 289.963 149.176 286.216 149.176Z" fill="#2E353A" stroke="#2E353A" stroke-linecap="round" stroke-linejoin="round"/>
<path d="M100.592 271.056H293.008V286.696C293.008 288.495 292.293 290.221 291.021 291.493C289.749 292.765 288.023 293.48 286.224 293.48H107.384C105.585 293.48 103.859 292.765 102.587 291.493C101.315 290.221 100.6 288.495 100.6 286.696V271.056H100.592Z" fill="white" stroke="#2E353A" stroke-linecap="round" stroke-linejoin="round"/>
<path d="M283.328 158.16H110.272V260.112H283.328V158.16Z" fill="white" stroke="#2E353A" stroke-linecap="round" stroke-linejoin="round"/>
<path d="M200.352 282.272C200.352 281.569 200.144 280.883 199.753 280.299C199.363 279.714 198.808 279.259 198.159 278.99C197.51 278.722 196.796 278.651 196.107 278.788C195.418 278.925 194.785 279.264 194.288 279.76C193.792 280.257 193.453 280.89 193.316 281.579C193.179 282.268 193.25 282.982 193.518 283.631C193.787 284.28 194.243 284.835 194.827 285.225C195.411 285.616 196.098 285.824 196.8 285.824C197.742 285.824 198.646 285.45 199.312 284.784C199.978 284.117 200.352 283.214 200.352 282.272Z" fill="#2E353A" stroke="#2E353A" stroke-linecap="round" stroke-linejoin="round"/>
<path d="M227.928 321.872H165.68V324.776H227.928V321.872Z" fill="white" stroke="#2E353A" stroke-linecap="round" stroke-linejoin="round"/>
<path d="M281.704 165.344H111.632V174.28H281.704V165.344Z" fill="white" stroke="#2E353A" stroke-linecap="round" stroke-linejoin="round"/>
<path d="M139.696 174.28L137.656 168.76H111.632V174.28V181.6V255.768H281.704V174.28H139.696Z" fill="white" stroke="#2E353A" stroke-linecap="round" stroke-linejoin="round"/>
<path d="M157.408 214.688H237.152" stroke="#2E353A" stroke-width="2" stroke-linecap="round" stroke-linejoin="round"/>
<path d="M157.408 222.528H237.152" stroke="#2E353A" stroke-width="2" stroke-linecap="round" stroke-linejoin="round"/>
<path d="M157.408 230.368H237.152" stroke="#2E353A" stroke-width="2" stroke-linecap="round" stroke-linejoin="round"/>
<path d="M157.408 238.216H237.152" stroke="#2E353A" stroke-width="2" stroke-linecap="round" stroke-linejoin="round"/>
<path d="M232.936 193.784H160.672C159.928 193.785 159.191 193.64 158.504 193.356C157.816 193.072 157.191 192.656 156.665 192.131C156.138 191.606 155.72 190.982 155.434 190.295C155.149 189.608 155.001 188.872 155 188.128C154.999 187.384 155.144 186.648 155.428 185.96C155.712 185.272 156.128 184.647 156.653 184.121C157.178 183.594 157.802 183.176 158.489 182.89C159.176 182.605 159.912 182.457 160.656 182.456H232.936C233.681 182.455 234.419 182.601 235.108 182.886C235.796 183.17 236.422 183.588 236.949 184.115C237.476 184.642 237.894 185.268 238.178 185.956C238.463 186.645 238.609 187.383 238.608 188.128C238.607 188.872 238.459 189.608 238.174 190.295C237.888 190.982 237.47 191.606 236.943 192.131C236.417 192.656 235.792 193.072 235.104 193.356C234.417 193.64 233.68 193.785 232.936 193.784Z" fill="white" stroke="#2E353A" stroke-linecap="round" stroke-linejoin="round"/>
<path d="M232.936 193.784H223.064V182.44H232.936C233.681 182.439 234.419 182.585 235.108 182.87C235.797 183.154 236.422 183.572 236.949 184.099C237.476 184.626 237.894 185.251 238.178 185.94C238.463 186.629 238.609 187.367 238.608 188.112C238.609 188.857 238.463 189.595 238.178 190.284C237.894 190.972 237.476 191.598 236.949 192.125C236.422 192.652 235.797 193.07 235.108 193.354C234.419 193.639 233.681 193.785 232.936 193.784Z" fill="#2E353A" stroke="#2E353A" stroke-linecap="round" stroke-linejoin="round"/>
<path d="M230.736 183.88C230.266 183.44 229.676 183.148 229.04 183.044C228.405 182.939 227.753 183.024 227.166 183.29C226.579 183.556 226.085 183.99 225.745 184.537C225.405 185.084 225.234 185.72 225.256 186.364C225.277 187.007 225.489 187.63 225.864 188.154C226.239 188.677 226.762 189.077 227.365 189.304C227.968 189.53 228.624 189.573 229.251 189.426C229.879 189.28 230.448 188.95 230.888 188.48C231.181 188.17 231.41 187.804 231.562 187.405C231.713 187.006 231.784 186.581 231.771 186.154C231.757 185.727 231.66 185.307 231.484 184.918C231.307 184.53 231.056 184.179 230.744 183.888L230.736 183.88ZM230.416 188.04C230.063 188.415 229.606 188.677 229.104 188.793C228.602 188.909 228.077 188.873 227.595 188.691C227.113 188.509 226.696 188.188 226.396 187.769C226.097 187.35 225.928 186.851 225.911 186.336C225.894 185.821 226.031 185.313 226.303 184.875C226.574 184.438 226.97 184.09 227.439 183.877C227.908 183.664 228.43 183.595 228.938 183.678C229.447 183.761 229.919 183.993 230.296 184.344C230.802 184.818 231.099 185.474 231.121 186.167C231.144 186.86 230.89 187.534 230.416 188.04Z" fill="white"/>
<path d="M233.184 189.664C233.112 189.594 233.022 189.547 232.925 189.527C232.827 189.507 232.725 189.516 232.632 189.552L231.456 188.448C231.396 188.389 231.316 188.356 231.232 188.356C231.148 188.356 231.068 188.389 231.008 188.448L230.904 188.56C230.847 188.622 230.815 188.703 230.815 188.788C230.815 188.872 230.847 188.954 230.904 189.016L232.064 190.104C232.03 190.203 232.024 190.31 232.048 190.412C232.072 190.514 232.125 190.607 232.2 190.68L234.2 192.64C234.332 192.771 234.51 192.844 234.696 192.844C234.882 192.844 235.06 192.771 235.192 192.64C235.323 192.508 235.396 192.33 235.396 192.144C235.396 191.958 235.323 191.78 235.192 191.648L233.184 189.664Z" fill="white"/>
<path d="M253.84 228C254.074 228.579 254.421 229.106 254.863 229.549C255.304 229.991 255.829 230.34 256.408 230.576C257.312 230.944 258.52 230.864 259.912 231.648C263.056 233.416 270.904 231.84 276.592 232.448C282.28 233.056 289.944 226.76 289.944 226.76L312.512 228V205.6C312.512 205.6 288.96 206.584 283.856 204.616C278.752 202.648 273.064 198.536 270.512 198.728C267.96 198.92 246.96 201.28 246.96 201.28L253.832 228H253.84Z" fill="white" stroke="#2E353A" stroke-linecap="round" stroke-linejoin="round"/>
<path d="M248 137.68C243.34 138.196 238.938 140.082 235.35 143.099C231.762 146.117 229.15 150.131 227.843 154.633C226.537 159.136 226.594 163.925 228.009 168.394C229.424 172.864 232.133 176.814 235.793 179.744C239.452 182.674 243.899 184.453 248.569 184.856C253.24 185.259 257.926 184.268 262.034 182.009C266.141 179.749 269.486 176.322 271.646 172.161C273.806 168 274.684 163.292 274.168 158.632C273.828 155.537 272.88 152.54 271.381 149.812C269.881 147.083 267.858 144.677 265.427 142.731C262.997 140.785 260.207 139.338 257.217 138.471C254.226 137.604 251.094 137.335 248 137.68ZM252.704 180.144C248.966 180.559 245.189 179.857 241.85 178.125C238.511 176.394 235.761 173.711 233.947 170.417C232.133 167.122 231.336 163.364 231.658 159.617C231.98 155.869 233.406 152.302 235.755 149.365C238.105 146.428 241.272 144.254 244.857 143.117C248.443 141.981 252.284 141.933 255.897 142.98C259.509 144.026 262.73 146.121 265.152 148.998C267.574 151.875 269.089 155.406 269.504 159.144C269.78 161.626 269.564 164.138 268.869 166.537C268.174 168.935 267.013 171.173 265.453 173.123C263.893 175.074 261.964 176.697 259.777 177.902C257.589 179.106 255.186 179.868 252.704 180.144Z" fill="white" stroke="#2E353A" stroke-linecap="round" stroke-linejoin="round"/>
<path d="M247.872 136.328C243.212 136.844 238.81 138.73 235.222 141.747C231.634 144.765 229.022 148.779 227.715 153.281C226.409 157.784 226.466 162.573 227.881 167.042C229.296 171.512 232.005 175.462 235.665 178.392C239.324 181.322 243.771 183.101 248.442 183.504C253.112 183.907 257.798 182.916 261.906 180.657C266.013 178.397 269.359 174.97 271.518 170.809C273.678 166.648 274.556 161.94 274.04 157.28C273.346 151.032 270.2 145.316 265.293 141.387C260.386 137.458 254.12 135.638 247.872 136.328ZM252.576 178.792C248.838 179.207 245.061 178.505 241.722 176.773C238.383 175.042 235.633 172.359 233.819 169.065C232.005 165.77 231.208 162.012 231.53 158.265C231.852 154.517 233.278 150.95 235.627 148.013C237.977 145.076 241.144 142.902 244.73 141.765C248.315 140.629 252.156 140.581 255.769 141.628C259.381 142.674 262.602 144.769 265.024 147.646C267.446 150.523 268.961 154.054 269.376 157.792C269.652 160.274 269.436 162.786 268.741 165.185C268.046 167.583 266.885 169.821 265.325 171.771C263.765 173.721 261.837 175.345 259.649 176.55C257.461 177.754 255.058 178.516 252.576 178.792Z" fill="white" stroke="#2E353A" stroke-linecap="round" stroke-linejoin="round"/>
<path d="M253.869 183.888L252.748 184.012C251.483 184.152 250.571 185.291 250.711 186.556L252.531 202.983C252.671 204.248 253.809 205.16 255.074 205.02L256.195 204.896C257.46 204.756 258.372 203.617 258.232 202.352L256.412 185.924C256.272 184.66 255.133 183.748 253.869 183.888Z" fill="#395143" stroke="#2E353A" stroke-linecap="round" stroke-linejoin="round"/>
<path d="M253.504 197.6L255.904 197.344C256.936 197.234 257.97 197.534 258.782 198.181C259.594 198.828 260.118 199.769 260.24 200.8L263.832 233.288C263.978 234.616 263.591 235.948 262.755 236.99C261.919 238.033 260.704 238.701 259.376 238.848H259.216C258.558 238.921 257.892 238.864 257.257 238.68C256.621 238.495 256.028 238.187 255.512 237.773C254.995 237.36 254.565 236.848 254.247 236.268C253.929 235.687 253.728 235.05 253.656 234.392L250.064 201.912C250.006 201.398 250.05 200.877 250.194 200.38C250.338 199.882 250.578 199.418 250.901 199.014C251.225 198.61 251.624 198.273 252.078 198.024C252.531 197.774 253.03 197.617 253.544 197.56L253.504 197.6Z" fill="#2E353A" stroke="#2E353A" stroke-linecap="round" stroke-linejoin="round"/>
<path d="M256.992 224.672C256.992 224.672 251.304 224.88 250.504 225.864C249.704 226.848 249.848 230.272 251.392 230.664C255.328 231.696 263.696 231.096 264.024 230.392C264.352 229.688 265.024 225.592 263.296 225.152C261.21 224.832 259.102 224.672 256.992 224.672Z" fill="white" stroke="#2E353A" stroke-linecap="round" stroke-linejoin="round"/>
<path d="M255.352 216.736C255.352 216.736 248.736 216.488 247.704 217.68C246.672 218.872 246.472 223.328 248.216 224C252.664 225.704 262.672 225.04 263.128 224.16C263.584 223.28 264.576 218.712 262.616 217.976C260.656 217.24 255.352 216.736 255.352 216.736Z" fill="white" stroke="#2E353A" stroke-linecap="round" stroke-linejoin="round"/>
<path d="M254.4 207.776C254.4 207.776 247.328 207.504 246.224 208.784C245.12 210.064 244.904 214.816 246.768 215.536C251.568 217.36 261.968 217.36 262.456 216.416C262.944 215.472 264.256 209.888 262.16 209.096C260.064 208.304 254.4 207.776 254.4 207.776Z" fill="white" stroke="#2E353A" stroke-linecap="round" stroke-linejoin="round"/>
<path d="M250.32 199.392C250.32 199.392 243.248 199.128 242.144 200.4C241.04 201.672 240.776 206.576 242.688 207.152C244.6 207.728 257.888 208.976 258.376 208.04C258.864 207.104 260.176 201.504 258.08 200.712C255.984 199.92 250.32 199.392 250.32 199.392Z" fill="white" stroke="#2E353A" stroke-linecap="round" stroke-linejoin="round"/>
<path d="M273.48 222.92C272.211 222.571 271.008 222.014 269.92 221.272C264.232 217.344 264.424 208.32 264.424 208.32L263.056 207.928C261.926 207.498 260.866 206.902 259.912 206.16C260.37 208.024 260.638 209.93 260.712 211.848C260.691 212.902 260.28 213.911 259.557 214.678C258.834 215.446 257.851 215.917 256.8 216C255.032 216.2 254.248 216.392 253.656 214.04C253.064 211.688 250.128 202.264 249.928 200.888C249.752 199.64 251.848 197.416 255.184 196.888C260.312 197.304 265.368 198.736 270.536 198.736C272.334 198.905 274.057 199.539 275.536 200.576" fill="white"/>
<path d="M273.48 222.92C272.211 222.571 271.008 222.014 269.92 221.272C264.232 217.344 264.424 208.32 264.424 208.32L263.056 207.928C261.926 207.498 260.866 206.902 259.912 206.16C260.37 208.024 260.638 209.93 260.712 211.848C260.691 212.902 260.28 213.911 259.557 214.678C258.834 215.446 257.851 215.917 256.8 216C255.032 216.2 254.248 216.392 253.656 214.04C253.064 211.688 250.128 202.264 249.928 200.888C249.752 199.64 251.848 197.416 255.184 196.888C260.312 197.304 265.368 198.736 270.536 198.736C272.334 198.905 274.057 199.539 275.536 200.576" stroke="#2E353A" stroke-linecap="round" stroke-linejoin="round"/>
<path d="M278.888 223.416C278.264 223.448 277.64 223.448 277.016 223.416H278.888Z" fill="white"/>
<path d="M278.888 223.416C278.264 223.448 277.64 223.448 277.016 223.416" stroke="#2E353A" stroke-linecap="round" stroke-linejoin="round"/>
<path d="M283.072 222.64C281.714 223.07 280.309 223.338 278.888 223.44L283.072 222.64Z" fill="white"/>
<path d="M283.072 222.64C281.714 223.07 280.309 223.338 278.888 223.44" stroke="#2E353A" stroke-linecap="round" stroke-linejoin="round"/>
<path d="M290.136 220.096H297.2" stroke="#2E353A" stroke-linecap="round" stroke-linejoin="round"/>
<path d="M290.728 222.056H293.672" stroke="#2E353A" stroke-linecap="round" stroke-linejoin="round"/>
<path d="M264.424 208.32C264.424 208.32 268.328 208.32 270.888 205.992" stroke="#2E353A" stroke-linecap="round" stroke-linejoin="round"/>
<path d="M259.824 205.904C259.712 204.839 259.489 203.788 259.16 202.768" stroke="#2E353A" stroke-linecap="round" stroke-linejoin="round"/>
<path d="M253.6 213.008C253.6 213.008 252.856 210.944 253.76 210.2C254.664 209.456 257.064 208.384 257.48 209.208C257.896 210.032 258.8 213.832 258.552 214.576L258.304 215.32" stroke="#2E353A" stroke-width="0.5" stroke-linecap="round" stroke-linejoin="round"/>
<path d="M362.04 238.04H294.4V204.792H362.04" fill="#86A091"/>
<path d="M362.04 238.04H294.4V204.792H362.04" stroke="#2E353A" stroke-linecap="round" stroke-linejoin="round"/>
<path d="M299.36 235.816C300.199 235.816 300.88 235.135 300.88 234.296C300.88 233.456 300.199 232.776 299.36 232.776C298.521 232.776 297.84 233.456 297.84 234.296C297.84 235.135 298.521 235.816 299.36 235.816Z" fill="white" stroke="#2E353A" stroke-linecap="round" stroke-linejoin="round"/>
<path d="M191.864 173.128C192.444 172.894 192.97 172.546 193.413 172.105C193.855 171.664 194.205 171.139 194.44 170.56C194.808 169.656 194.72 168.456 195.512 167.056C197.272 163.92 195.704 156.072 196.312 150.376C196.92 144.68 190.616 137.032 190.616 137.032L191.84 114.464H169.44C169.44 114.464 170.416 138.016 168.456 143.112C166.496 148.208 162.376 153.912 162.568 156.464C162.76 159.016 165.136 180 165.136 180L191.824 173.128H191.864Z" fill="white" stroke="#2E353A" stroke-linecap="round" stroke-linejoin="round"/>
<path d="M101.6 178.952C102.112 183.612 103.995 188.016 107.01 191.606C110.026 195.196 114.038 197.812 118.539 199.122C123.041 200.432 127.83 200.377 132.301 198.965C136.771 197.553 140.723 194.847 143.656 191.19C146.588 187.532 148.371 183.086 148.777 178.416C149.183 173.745 148.195 169.059 145.938 164.949C143.681 160.84 140.256 157.493 136.096 155.33C131.936 153.167 127.228 152.287 122.568 152.8H122.512C116.274 153.502 110.569 156.649 106.648 161.552C102.728 166.455 100.912 172.712 101.6 178.952ZM144 174.24C144.417 177.979 143.715 181.758 141.984 185.099C140.253 188.44 137.57 191.192 134.275 193.008C130.98 194.824 127.22 195.622 123.472 195.302C119.723 194.981 116.153 193.556 113.214 191.206C110.275 188.857 108.099 185.689 106.961 182.103C105.822 178.517 105.773 174.674 106.819 171.059C107.864 167.445 109.958 164.222 112.836 161.798C115.713 159.374 119.245 157.857 122.984 157.44C127.998 156.883 133.029 158.339 136.97 161.49C140.91 164.64 143.439 169.226 144 174.24Z" fill="white" stroke="#2E353A" stroke-linecap="round" stroke-linejoin="round"/>
<path d="M100.216 179.096C100.733 183.753 102.62 188.153 105.637 191.738C108.654 195.323 112.666 197.934 117.167 199.239C121.667 200.544 126.454 200.486 130.921 199.071C135.388 197.657 139.336 194.949 142.265 191.291C145.193 187.633 146.972 183.189 147.375 178.521C147.779 173.852 146.789 169.169 144.531 165.063C142.273 160.957 138.848 157.612 134.69 155.452C130.531 153.292 125.826 152.414 121.168 152.928C118.074 153.269 115.077 154.217 112.349 155.717C109.621 157.217 107.216 159.24 105.27 161.671C103.324 164.101 101.876 166.89 101.009 169.88C100.142 172.87 99.8725 176.002 100.216 179.096ZM142.68 174.4C143.095 178.138 142.393 181.915 140.661 185.254C138.93 188.593 136.247 191.343 132.953 193.157C129.658 194.971 125.9 195.768 122.153 195.446C118.406 195.124 114.838 193.698 111.901 191.349C108.964 188.999 106.79 185.832 105.653 182.246C104.517 178.661 104.469 174.82 105.516 171.207C106.562 167.595 108.657 164.374 111.534 161.952C114.411 159.53 117.942 158.015 121.68 157.6C124.162 157.324 126.674 157.54 129.073 158.235C131.471 158.93 133.709 160.091 135.659 161.651C137.61 163.211 139.233 165.139 140.438 167.327C141.642 169.515 142.404 171.918 142.68 174.4Z" fill="white" stroke="#2E353A" stroke-linecap="round" stroke-linejoin="round"/>
<path d="M166.246 168.748L149.818 170.568C148.553 170.708 147.642 171.847 147.782 173.112L147.906 174.233C148.046 175.497 149.185 176.409 150.45 176.269L166.877 174.45C168.142 174.31 169.053 173.171 168.913 171.906L168.789 170.785C168.649 169.52 167.51 168.608 166.246 168.748Z" fill="#395143" stroke="#2E353A" stroke-linecap="round" stroke-linejoin="round"/>
<path d="M161.488 173.472L161.224 171.072C161.11 170.032 161.413 168.99 162.067 168.174C162.721 167.358 163.672 166.835 164.712 166.72L197.192 163.128C197.853 163.051 198.522 163.106 199.161 163.288C199.801 163.471 200.398 163.778 200.918 164.192C201.438 164.606 201.872 165.119 202.194 165.701C202.515 166.283 202.718 166.923 202.792 167.584V167.744C202.869 168.405 202.814 169.074 202.632 169.713C202.449 170.353 202.142 170.95 201.728 171.47C201.314 171.99 200.801 172.424 200.219 172.745C199.637 173.067 198.997 173.27 198.336 173.344L165.856 176.936C164.818 177.053 163.776 176.755 162.957 176.105C162.139 175.456 161.61 174.509 161.488 173.472Z" fill="#2E353A" stroke="#2E353A" stroke-linecap="round" stroke-linejoin="round"/>
<path d="M188.552 169.984C188.552 169.984 188.768 175.664 189.744 176.464C190.72 177.264 194.16 177.12 194.544 175.576C195.584 171.648 194.976 163.272 194.272 162.952C193.568 162.632 189.472 161.944 189.04 163.68C188.718 165.766 188.555 167.873 188.552 169.984Z" fill="white" stroke="#2E353A" stroke-linecap="round" stroke-linejoin="round"/>
<path d="M180.624 171.616C180.624 171.616 180.368 178.232 181.56 179.264C182.752 180.296 187.208 180.504 187.88 178.752C189.592 174.304 188.92 164.296 188.04 163.848C187.16 163.4 182.592 162.4 181.856 164.36C181.12 166.32 180.624 171.616 180.624 171.616Z" fill="white" stroke="#2E353A" stroke-linecap="round" stroke-linejoin="round"/>
<path d="M171.664 172.584C171.664 172.584 171.392 179.656 172.664 180.76C173.936 181.864 178.704 182.08 179.424 180.208C181.248 175.456 181.248 165.008 180.304 164.528C179.36 164.048 173.768 162.728 172.984 164.824C172.2 166.92 171.664 172.584 171.664 172.584Z" fill="white" stroke="#2E353A" stroke-linecap="round" stroke-linejoin="round"/>
<path d="M163.28 176.656C163.28 176.656 163.008 183.728 164.288 184.832C165.568 185.936 170.464 186.2 171.04 184.28C171.616 182.36 172.864 169.08 171.92 168.592C170.976 168.104 165.392 166.8 164.6 168.896C163.808 170.992 163.28 176.656 163.28 176.656Z" fill="white" stroke="#2E353A" stroke-linecap="round" stroke-linejoin="round"/>
<path d="M187.296 148.064C187.622 151.215 186.866 154.384 185.152 157.048C181.232 162.744 172.2 162.544 172.2 162.544L171.808 163.92C171.381 165.049 170.785 166.106 170.04 167.056C171.907 166.598 173.815 166.33 175.736 166.256C176.787 166.286 177.789 166.705 178.549 167.43C179.31 168.155 179.775 169.136 179.856 170.184C180.056 171.952 180.248 172.736 177.896 173.32C175.544 173.904 166.12 176.856 164.744 177.056C163.496 177.232 161.272 175.136 160.744 171.8C161.168 166.672 162.6 161.608 162.6 156.448C162.767 154.647 163.402 152.921 164.44 151.44" fill="white"/>
<path d="M187.296 148.064C187.622 151.215 186.866 154.384 185.152 157.048C181.232 162.744 172.2 162.544 172.2 162.544L171.808 163.92C171.381 165.049 170.785 166.106 170.04 167.056C171.907 166.598 173.815 166.33 175.736 166.256C176.787 166.286 177.789 166.705 178.549 167.43C179.31 168.155 179.775 169.136 179.856 170.184C180.056 171.952 180.248 172.736 177.896 173.32C175.544 173.904 166.12 176.856 164.744 177.056C163.496 177.232 161.272 175.136 160.744 171.8C161.168 166.672 162.6 161.608 162.6 156.448C162.767 154.647 163.402 152.921 164.44 151.44" stroke="#2E353A" stroke-linecap="round" stroke-linejoin="round"/>
<path d="M186.528 143.904C186.765 144.652 186.947 145.417 187.072 146.192L186.528 143.904Z" fill="white"/>
<path d="M186.528 143.904C186.765 144.652 186.947 145.417 187.072 146.192" stroke="#2E353A" stroke-linecap="round" stroke-linejoin="round"/>
<path d="M183.976 136.832V129.768" stroke="#2E353A" stroke-linecap="round" stroke-linejoin="round"/>
<path d="M185.936 136.248V133.304" stroke="#2E353A" stroke-linecap="round" stroke-linejoin="round"/>
<path d="M172.2 162.544C172.2 162.544 172.2 158.64 169.872 156.08" stroke="#2E353A" stroke-linecap="round" stroke-linejoin="round"/>
<path d="M169.792 167.152C168.727 167.262 167.676 167.481 166.656 167.808" stroke="#2E353A" stroke-linecap="round" stroke-linejoin="round"/>
<path d="M176.896 173.344C176.896 173.344 174.832 174.088 174.088 173.176C173.344 172.264 172.272 169.872 173.096 169.464C173.92 169.056 177.72 168.144 178.464 168.392L179.208 168.632" stroke="#2E353A" stroke-width="0.5" stroke-linecap="round" stroke-linejoin="round"/>
<path d="M201.928 64.928V132.568H168.672V64.928" fill="#9AB4A5"/>
<path d="M201.928 64.928V132.568H168.672V64.928" stroke="#2E353A" stroke-linecap="round" stroke-linejoin="round"/>
<path d="M198.176 129.128C199.015 129.128 199.696 128.447 199.696 127.608C199.696 126.768 199.015 126.088 198.176 126.088C197.337 126.088 196.656 126.768 196.656 127.608C196.656 128.447 197.337 129.128 198.176 129.128Z" fill="white" stroke="#2E353A" stroke-linecap="round" stroke-linejoin="round"/>
<path d="M158.4 293.6C158.168 294.18 157.82 294.708 157.379 295.15C156.938 295.593 156.412 295.942 155.832 296.176C154.928 296.552 153.728 296.464 152.328 297.248C149.192 299.016 141.344 297.448 135.648 298.048C129.952 298.648 122.304 292.36 122.304 292.36L99.712 293.6V271.2C99.712 271.2 123.264 272.184 128.368 270.224C133.472 268.264 139.16 264.136 141.712 264.336C144.264 264.536 165.264 266.888 165.264 266.888L158.4 293.6Z" fill="white" stroke="#2E353A" stroke-linecap="round" stroke-linejoin="round"/>
<path d="M164.2 203.328C168.86 203.844 173.262 205.73 176.85 208.747C180.438 211.765 183.05 215.779 184.357 220.281C185.663 224.784 185.606 229.573 184.191 234.042C182.776 238.512 180.067 242.461 176.407 245.392C172.748 248.322 168.301 250.101 163.631 250.504C158.96 250.907 154.274 249.916 150.166 247.657C146.059 245.397 142.714 241.97 140.554 237.809C138.394 233.648 137.516 228.94 138.032 224.28C138.724 218.034 141.868 212.318 146.774 208.39C151.68 204.462 157.946 202.644 164.192 203.336L164.2 203.328ZM159.496 245.792C163.235 246.209 167.014 245.507 170.355 243.776C173.696 242.045 176.448 239.362 178.264 236.067C180.08 232.772 180.878 229.012 180.558 225.263C180.237 221.515 178.812 217.945 176.462 215.006C174.113 212.067 170.945 209.891 167.359 208.753C163.773 207.614 159.93 207.565 156.315 208.61C152.701 209.656 149.478 211.75 147.054 214.628C144.63 217.505 143.113 221.037 142.696 224.776C142.139 229.79 143.595 234.821 146.746 238.762C149.896 242.702 154.482 245.231 159.496 245.792Z" fill="white" stroke="#2E353A" stroke-linecap="round" stroke-linejoin="round"/>
<path d="M164.344 201.976C169.002 202.493 173.401 204.38 176.987 207.398C180.572 210.415 183.182 214.428 184.487 218.929C185.792 223.43 185.733 228.217 184.317 232.684C182.902 237.152 180.194 241.099 176.535 244.027C172.876 246.956 168.432 248.733 163.763 249.136C159.094 249.538 154.41 248.547 150.304 246.288C146.199 244.028 142.855 240.603 140.696 236.443C138.537 232.284 137.66 227.578 138.176 222.92C138.518 219.826 139.467 216.83 140.968 214.103C142.468 211.376 144.491 208.972 146.921 207.027C149.351 205.082 152.141 203.635 155.13 202.768C158.12 201.902 161.25 201.632 164.344 201.976ZM159.64 244.44C163.379 244.857 167.158 244.155 170.499 242.424C173.84 240.693 176.592 238.01 178.408 234.715C180.224 231.42 181.022 227.66 180.701 223.911C180.381 220.163 178.956 216.593 176.606 213.654C174.257 210.715 171.089 208.539 167.503 207.401C163.917 206.262 160.074 206.213 156.459 207.258C152.845 208.304 149.622 210.398 147.198 213.276C144.774 216.153 143.257 219.685 142.84 223.424C142.285 228.436 143.743 233.464 146.893 237.401C150.043 241.339 154.628 243.865 159.64 244.424V244.44Z" fill="white" stroke="#2E353A" stroke-linecap="round" stroke-linejoin="round"/>
<path d="M155.798 251.573L153.979 268.001C153.839 269.266 154.75 270.404 156.015 270.544L157.136 270.669C158.401 270.809 159.54 269.897 159.68 268.632L161.499 252.205C161.639 250.94 160.728 249.801 159.463 249.661L158.342 249.537C157.077 249.397 155.938 250.308 155.798 251.573Z" fill="#395143" stroke="#2E353A" stroke-linecap="round" stroke-linejoin="round"/>
<path d="M153.016 304.528H152.856C152.195 304.456 151.554 304.253 150.972 303.932C150.389 303.61 149.876 303.177 149.462 302.656C149.047 302.136 148.74 301.538 148.558 300.898C148.376 300.258 148.322 299.589 148.4 298.928L151.992 266.448C152.048 265.933 152.205 265.434 152.454 264.979C152.703 264.525 153.039 264.124 153.444 263.8C153.848 263.476 154.312 263.235 154.81 263.091C155.308 262.947 155.829 262.902 156.344 262.96L158.744 263.224C159.784 263.339 160.735 263.862 161.389 264.678C162.043 265.494 162.347 266.536 162.232 267.576L158.64 300.096C158.565 300.757 158.361 301.396 158.039 301.978C157.718 302.559 157.284 303.071 156.764 303.485C156.244 303.899 155.647 304.206 155.008 304.39C154.369 304.573 153.7 304.628 153.04 304.552L153.016 304.528Z" fill="#2E353A" stroke="#2E353A" stroke-linecap="round" stroke-linejoin="round"/>
<path d="M155.2 290.312C155.2 290.312 160.88 290.528 161.68 291.504C162.48 292.48 162.336 295.912 160.792 296.304C156.864 297.344 148.488 296.736 148.168 296.032C147.848 295.328 147.16 291.232 148.896 290.792C150.982 290.472 153.09 290.312 155.2 290.312Z" fill="white" stroke="#2E353A" stroke-linecap="round" stroke-linejoin="round"/>
<path d="M156.864 282.4C156.864 282.4 163.48 282.144 164.512 283.336C165.544 284.528 165.752 288.984 164 289.656C159.552 291.36 149.544 290.696 149.096 289.816C148.648 288.936 147.648 284.368 149.608 283.632C151.568 282.896 156.864 282.4 156.864 282.4Z" fill="white" stroke="#2E353A" stroke-linecap="round" stroke-linejoin="round"/>
<path d="M157.832 273.416C157.832 273.416 164.904 273.152 166.008 274.424C167.112 275.696 167.328 280.464 165.464 281.176C160.664 283.008 150.264 283 149.776 282.064C149.288 281.128 147.976 275.528 150.072 274.736C152.168 273.944 157.832 273.416 157.832 273.416Z" fill="white" stroke="#2E353A" stroke-linecap="round" stroke-linejoin="round"/>
<path d="M161.904 265.04C161.904 265.04 168.976 264.768 170.08 266.04C171.184 267.312 171.448 272.224 169.528 272.8C167.608 273.376 154.328 274.616 153.84 273.68C153.352 272.744 152.048 267.144 154.144 266.36C156.24 265.576 161.904 265.04 161.904 265.04Z" fill="white" stroke="#2E353A" stroke-linecap="round" stroke-linejoin="round"/>
<path d="M134.4 289.096C137.19 289.206 139.945 288.442 142.28 286.912C147.976 282.984 147.776 273.96 147.776 273.96L149.152 273.568C150.281 273.141 151.338 272.545 152.288 271.8C151.83 273.664 151.562 275.57 151.488 277.488C151.518 278.539 151.936 279.542 152.661 280.304C153.386 281.066 154.367 281.533 155.416 281.616C157.184 281.808 157.968 282.008 158.56 279.648C159.152 277.288 162.088 267.872 162.288 266.504C162.488 265.136 160.368 263.024 157.032 262.504C151.904 262.928 146.84 264.36 141.68 264.36C139.88 264.528 138.155 265.159 136.672 266.192" fill="white"/>
<path d="M134.4 289.096C137.19 289.206 139.945 288.442 142.28 286.912C147.976 282.984 147.776 273.96 147.776 273.96L149.152 273.568C150.281 273.141 151.338 272.545 152.288 271.8C151.83 273.664 151.562 275.57 151.488 277.488C151.518 278.539 151.936 279.542 152.661 280.304C153.386 281.066 154.367 281.533 155.416 281.616C157.184 281.808 157.968 282.008 158.56 279.648C159.152 277.288 162.088 267.872 162.288 266.504C162.488 265.136 160.368 263.024 157.032 262.504C151.904 262.928 146.84 264.36 141.68 264.36C139.88 264.528 138.155 265.159 136.672 266.192" stroke="#2E353A" stroke-linecap="round" stroke-linejoin="round"/>
<path d="M129.152 288.288C130.27 288.632 131.42 288.865 132.584 288.984L129.152 288.288Z" fill="white"/>
<path d="M129.152 288.288C130.27 288.632 131.42 288.865 132.584 288.984" stroke="#2E353A" stroke-linecap="round" stroke-linejoin="round"/>
<path d="M122.08 285.736H115.016" stroke="#2E353A" stroke-linecap="round" stroke-linejoin="round"/>
<path d="M121.496 287.696H118.552" stroke="#2E353A" stroke-linecap="round" stroke-linejoin="round"/>
<path d="M147.792 273.96C147.792 273.96 143.888 273.96 141.328 271.632" stroke="#2E353A" stroke-linecap="round" stroke-linejoin="round"/>
<path d="M152.4 271.544C152.51 270.479 152.73 269.428 153.056 268.408" stroke="#2E353A" stroke-linecap="round" stroke-linejoin="round"/>
<path d="M158.592 278.648C158.592 278.648 159.336 276.584 158.424 275.84C157.512 275.096 155.12 274.024 154.712 274.848C154.304 275.672 153.392 279.48 153.64 280.216L153.888 280.96" stroke="#2E353A" stroke-width="0.5" stroke-linecap="round" stroke-linejoin="round"/>
<path d="M50.176 303.688H117.816V270.432H50.176" fill="#9AB4A5"/>
<path d="M50.176 303.688H117.816V270.432H50.176" stroke="#2E353A" stroke-linecap="round" stroke-linejoin="round"/>
<path d="M111.336 299.936C111.336 300.237 111.425 300.531 111.592 300.78C111.759 301.03 111.997 301.225 112.274 301.34C112.552 301.455 112.858 301.485 113.153 301.427C113.447 301.368 113.718 301.223 113.931 301.011C114.143 300.798 114.288 300.527 114.347 300.233C114.406 299.938 114.375 299.632 114.26 299.354C114.145 299.077 113.95 298.839 113.701 298.672C113.451 298.505 113.157 298.416 112.856 298.416C112.453 298.416 112.066 298.576 111.781 298.861C111.496 299.146 111.336 299.533 111.336 299.936Z" fill="white" stroke="#2E353A" stroke-linecap="round" stroke-linejoin="round"/>
</svg>
