<svg width="897" height="503" viewBox="0 0 897 503" fill="none" xmlns="http://www.w3.org/2000/svg">
<g clip-path="url(#clip0_201_1240)">
<path d="M294.754 366.906C272.878 366.382 249.426 378.653 243.201 399.654L361.951 394.814C359.706 393.26 357.45 391.726 355.184 390.21C336.964 378.078 316.63 367.43 294.754 366.906Z" fill="#F2F2F2"/>
<path d="M361.952 394.814C377.744 405.742 393.155 417.404 410.75 424.99C454.319 443.775 504.474 435.014 550.317 422.805C596.16 410.596 642.955 395.084 689.974 401.376C716.637 404.944 741.808 415.387 767.544 423.222C793.28 431.057 820.97 436.303 846.936 429.269C872.901 422.235 896.321 399.929 897 373.009C700.976 336.726 519.24 335.648 361.952 394.814Z" fill="#6C7D73" fill-opacity="0.72"/>
<path d="M51.5529 405.793C29.6769 405.269 6.22493 417.54 0 438.541L118.75 433.702C116.504 432.148 114.249 430.613 111.982 429.098C93.7624 416.966 73.4288 406.317 51.5529 405.793Z" fill="#8E998E"/>
<path d="M118.75 433.702C134.541 444.629 149.953 456.292 167.548 463.878C211.117 482.662 261.272 473.901 307.114 461.693C352.957 449.484 399.753 433.971 446.772 440.264C473.435 443.832 498.606 454.275 524.342 462.109C550.077 469.944 577.768 475.19 603.733 468.156C629.699 461.122 653.119 438.817 653.798 411.896C457.774 375.613 276.038 374.536 118.75 433.702Z" fill="#8E998E"/>
<path d="M381.976 252.657H259.227C257.476 252.658 255.797 253.355 254.558 254.594C253.32 255.834 252.624 257.515 252.623 259.268V304.039C252.624 305.792 253.32 307.473 254.558 308.712C255.797 309.952 257.476 310.649 259.227 310.65H381.976C383.727 310.649 385.406 309.952 386.644 308.712C387.882 307.473 388.578 305.792 388.579 304.039V259.268C388.578 257.515 387.882 255.834 386.644 254.594C385.406 253.355 383.727 252.658 381.976 252.657Z" fill="#E6E6E6"/>
<path d="M264.867 252.657H261.489V310.65H264.867V252.657Z" fill="#CCCCCC"/>
<path d="M279.223 252.657H275.845V310.65H279.223V252.657Z" fill="#CCCCCC"/>
<path d="M293.579 252.657H290.201V310.65H293.579V252.657Z" fill="#CCCCCC"/>
<path d="M307.934 252.657H304.557V310.65H307.934V252.657Z" fill="#CCCCCC"/>
<path d="M322.29 252.657H318.912V310.65H322.29V252.657Z" fill="#CCCCCC"/>
<path d="M336.645 252.657H333.268V310.65H336.645V252.657Z" fill="#CCCCCC"/>
<path d="M351.001 252.657H347.623V310.65H351.001V252.657Z" fill="#CCCCCC"/>
<path d="M365.357 252.657H361.979V310.65H365.357V252.657Z" fill="#CCCCCC"/>
<path d="M379.713 252.657H376.335V310.65H379.713V252.657Z" fill="#CCCCCC"/>
<path d="M508.685 147.937L493.615 115.478C492.509 113.096 490.746 111.081 488.535 109.668C486.323 108.256 483.754 107.505 481.131 107.505H463.374C464.713 105.193 465.42 102.567 465.424 99.8938C465.427 97.2204 464.727 94.5932 463.394 92.2767C462.061 89.9603 460.142 88.0363 457.83 86.6986C455.518 85.3608 452.894 84.6565 450.224 84.6565C447.553 84.6565 444.93 85.3608 442.618 86.6986C440.306 88.0363 438.386 89.9603 437.053 92.2767C435.72 94.5932 435.02 97.2204 435.024 99.8938C435.027 102.567 435.734 105.193 437.074 107.505H419.317C416.693 107.505 414.125 108.256 411.913 109.668C409.701 111.081 407.939 113.096 406.833 115.478L391.763 147.937C390.788 150.037 390.357 152.349 390.511 154.66C390.664 156.971 391.397 159.206 392.641 161.158C393.885 163.11 395.601 164.717 397.629 165.83C399.657 166.944 401.933 167.527 404.247 167.527H446.002V324.768H454.446V167.527H496.201C498.514 167.527 500.79 166.944 502.819 165.83C504.847 164.717 506.562 163.11 507.807 161.158C509.051 159.206 509.783 156.971 509.937 154.66C510.09 152.349 509.66 150.037 508.685 147.937Z" fill="#E6E6E6"/>
<path d="M683.445 252.657H560.695C558.944 252.658 557.265 253.355 556.027 254.594C554.789 255.834 554.093 257.515 554.092 259.268V304.039C554.093 305.792 554.789 307.473 556.027 308.712C557.265 309.952 558.944 310.649 560.695 310.65H683.445C685.196 310.649 686.875 309.952 688.113 308.712C689.351 307.473 690.047 305.792 690.048 304.039V259.268C690.047 257.515 689.351 255.834 688.113 254.594C686.875 253.355 685.196 252.658 683.445 252.657Z" fill="#E6E6E6"/>
<path d="M566.336 252.657H562.958V310.65H566.336V252.657Z" fill="#CCCCCC"/>
<path d="M580.691 252.657H577.313V310.65H580.691V252.657Z" fill="#CCCCCC"/>
<path d="M595.048 252.657H591.67V310.65H595.048V252.657Z" fill="#CCCCCC"/>
<path d="M609.403 252.657H606.025V310.65H609.403V252.657Z" fill="#CCCCCC"/>
<path d="M623.759 252.657H620.381V310.65H623.759V252.657Z" fill="#CCCCCC"/>
<path d="M638.114 252.657H634.736V310.65H638.114V252.657Z" fill="#CCCCCC"/>
<path d="M652.47 252.657H649.092V310.65H652.47V252.657Z" fill="#CCCCCC"/>
<path d="M666.825 252.657H663.447V310.65H666.825V252.657Z" fill="#CCCCCC"/>
<path d="M681.182 252.657H677.804V310.65H681.182V252.657Z" fill="#CCCCCC"/>
<path d="M546.644 252.657H423.895C422.144 252.658 420.465 253.355 419.226 254.594C417.988 255.834 417.292 257.515 417.291 259.268V304.039C417.292 305.792 417.988 307.473 419.226 308.712C420.465 309.952 422.144 310.649 423.895 310.65H546.644C548.395 310.649 550.074 309.952 551.312 308.712C552.55 307.473 553.246 305.792 553.247 304.039V259.268C553.246 257.515 552.55 255.834 551.312 254.594C550.074 253.355 548.395 252.658 546.644 252.657Z" fill="#E6E6E6"/>
<path d="M429.535 252.657H426.157V310.65H429.535V252.657Z" fill="#CCCCCC"/>
<path d="M443.89 252.657H440.513V310.65H443.89V252.657Z" fill="#CCCCCC"/>
<path d="M458.246 252.657H454.868V310.65H458.246V252.657Z" fill="#CCCCCC"/>
<path d="M472.602 252.657H469.225V310.65H472.602V252.657Z" fill="#CCCCCC"/>
<path d="M486.958 252.657H483.58V310.65H486.958V252.657Z" fill="#CCCCCC"/>
<path d="M501.313 252.657H497.936V310.65H501.313V252.657Z" fill="#CCCCCC"/>
<path d="M515.669 252.657H512.291V310.65H515.669V252.657Z" fill="#CCCCCC"/>
<path d="M530.024 252.657H526.646V310.65H530.024V252.657Z" fill="#CCCCCC"/>
<path d="M544.38 252.657H541.002V310.65H544.38V252.657Z" fill="#CCCCCC"/>
<path d="M692.734 194.326H569.984C568.233 194.327 566.554 195.024 565.316 196.263C564.078 197.503 563.382 199.184 563.381 200.936V245.708C563.382 247.461 564.078 249.142 565.316 250.381C566.554 251.621 568.233 252.317 569.984 252.319H692.734C694.485 252.317 696.164 251.621 697.402 250.381C698.64 249.142 699.336 247.461 699.337 245.708V200.936C699.336 199.184 698.64 197.503 697.402 196.263C696.164 195.024 694.485 194.327 692.734 194.326Z" fill="#E6E6E6"/>
<path d="M575.625 194.326H572.247V252.319H575.625V194.326Z" fill="#CCCCCC"/>
<path d="M589.98 194.326H586.603V252.319H589.98V194.326Z" fill="#CCCCCC"/>
<path d="M604.336 194.326H600.958V252.319H604.336V194.326Z" fill="#CCCCCC"/>
<path d="M618.692 194.326H615.314V252.319H618.692V194.326Z" fill="#CCCCCC"/>
<path d="M633.048 194.326H629.67V252.319H633.048V194.326Z" fill="#CCCCCC"/>
<path d="M647.403 194.326H644.025V252.319H647.403V194.326Z" fill="#CCCCCC"/>
<path d="M661.759 194.326H658.381V252.319H661.759V194.326Z" fill="#CCCCCC"/>
<path d="M676.114 194.326H672.736V252.319H676.114V194.326Z" fill="#CCCCCC"/>
<path d="M690.471 194.326H687.093V252.319H690.471V194.326Z" fill="#CCCCCC"/>
<path d="M656.422 256.884H533.673C531.922 256.885 530.243 257.582 529.005 258.821C527.767 260.061 527.07 261.742 527.069 263.495V308.266C527.07 310.019 527.767 311.7 529.005 312.939C530.243 314.179 531.922 314.876 533.673 314.877H656.422C658.173 314.876 659.852 314.179 661.09 312.939C662.329 311.7 663.025 310.019 663.026 308.266V263.495C663.025 261.742 662.329 260.061 661.09 258.821C659.852 257.582 658.173 256.885 656.422 256.884Z" fill="#395143" fill-opacity="0.72"/>
<path d="M539.313 256.884H535.936V314.877H539.313V256.884Z" fill="#152522"/>
<path d="M553.669 256.884H550.291V314.877H553.669V256.884Z" fill="#152522"/>
<path d="M568.025 256.884H564.647V314.877H568.025V256.884Z" fill="#152522"/>
<path d="M582.381 256.884H579.003V314.877H582.381V256.884Z" fill="#152522"/>
<path d="M596.736 256.884H593.358V314.877H596.736V256.884Z" fill="#152522"/>
<path d="M611.092 256.884H607.714V314.877H611.092V256.884Z" fill="#152522"/>
<path d="M625.447 256.884H622.069V314.877H625.447V256.884Z" fill="#152522"/>
<path d="M639.803 256.884H636.425V314.877H639.803V256.884Z" fill="#152522"/>
<path d="M654.159 256.884H650.781V314.877H654.159V256.884Z" fill="#152522"/>
<path d="M501.888 256.884H379.139C377.388 256.885 375.709 257.582 374.471 258.821C373.232 260.061 372.536 261.742 372.535 263.495V308.266C372.536 310.019 373.232 311.7 374.471 312.939C375.709 314.179 377.388 314.876 379.139 314.877H501.888C503.639 314.876 505.318 314.179 506.556 312.939C507.794 311.7 508.49 310.019 508.492 308.266V263.495C508.49 261.742 507.794 260.061 506.556 258.821C505.318 257.582 503.639 256.885 501.888 256.884Z" fill="#395143" fill-opacity="0.72"/>
<path d="M384.779 256.884H381.401V314.877H384.779V256.884Z" fill="#152522"/>
<path d="M399.135 256.884H395.757V314.877H399.135V256.884Z" fill="#152522"/>
<path d="M413.49 256.884H410.112V314.877H413.49V256.884Z" fill="#152522"/>
<path d="M427.847 256.884H424.469V314.877H427.847V256.884Z" fill="#152522"/>
<path d="M442.202 256.884H438.824V314.877H442.202V256.884Z" fill="#152522"/>
<path d="M456.557 256.884H453.18V314.877H456.557V256.884Z" fill="#152522"/>
<path d="M470.913 256.884H467.535V314.877H470.913V256.884Z" fill="#152522"/>
<path d="M485.268 256.884H481.891V314.877H485.268V256.884Z" fill="#152522"/>
<path d="M499.625 256.884H496.247V314.877H499.625V256.884Z" fill="#152522"/>
<path d="M548.332 198.553H425.583C423.832 198.554 422.153 199.251 420.915 200.49C419.677 201.73 418.981 203.411 418.979 205.164V249.935C418.981 251.688 419.677 253.369 420.915 254.608C422.153 255.848 423.832 256.544 425.583 256.546H548.332C550.083 256.544 551.762 255.848 553.001 254.608C554.239 253.369 554.935 251.688 554.936 249.935V205.164C554.935 203.411 554.239 201.73 553.001 200.49C551.762 199.251 550.083 198.554 548.332 198.553Z" fill="#395143" fill-opacity="0.72"/>
<path d="M431.224 198.553H427.846V256.546H431.224V198.553Z" fill="#152522"/>
<path d="M445.58 198.553H442.202V256.546H445.58V198.553Z" fill="#152522"/>
<path d="M459.935 198.553H456.558V256.546H459.935V198.553Z" fill="#152522"/>
<path d="M474.291 198.553H470.913V256.546H474.291V198.553Z" fill="#152522"/>
<path d="M488.646 198.553H485.269V256.546H488.646V198.553Z" fill="#152522"/>
<path d="M503.002 198.553H499.624V256.546H503.002V198.553Z" fill="#152522"/>
<path d="M517.358 198.553H513.98V256.546H517.358V198.553Z" fill="#152522"/>
<path d="M531.714 198.553H528.336V256.546H531.714V198.553Z" fill="#152522"/>
<path d="M546.069 198.553H542.691V256.546H546.069V198.553Z" fill="#152522"/>
<path d="M337.22 256.884H214.471C212.72 256.885 211.041 257.582 209.803 258.821C208.564 260.061 207.868 261.742 207.867 263.495V308.266C207.868 310.019 208.564 311.7 209.803 312.939C211.041 314.179 212.72 314.876 214.471 314.877H337.22C338.971 314.876 340.65 314.179 341.888 312.939C343.126 311.7 343.823 310.019 343.824 308.266V263.495C343.822 261.742 343.126 260.061 341.888 258.821C340.65 257.582 338.971 256.885 337.22 256.884Z" fill="#395143" fill-opacity="0.72"/>
<path d="M220.111 256.884H216.733V314.877H220.111V256.884Z" fill="#152522"/>
<path d="M234.467 256.884H231.089V314.877H234.467V256.884Z" fill="#152522"/>
<path d="M248.823 256.884H245.445V314.877H248.823V256.884Z" fill="#152522"/>
<path d="M263.179 256.884H259.801V314.877H263.179V256.884Z" fill="#152522"/>
<path d="M277.534 256.884H274.156V314.877H277.534V256.884Z" fill="#152522"/>
<path d="M291.89 256.884H288.512V314.877H291.89V256.884Z" fill="#152522"/>
<path d="M306.245 256.884H302.867V314.877H306.245V256.884Z" fill="#152522"/>
<path d="M320.601 256.884H317.224V314.877H320.601V256.884Z" fill="#152522"/>
<path d="M334.957 256.884H331.579V314.877H334.957V256.884Z" fill="#152522"/>
<path d="M367.62 198.553H244.871C243.12 198.554 241.441 199.251 240.203 200.49C238.965 201.73 238.269 203.411 238.268 205.164V249.935C238.269 251.688 238.965 253.369 240.203 254.608C241.441 255.848 243.12 256.544 244.871 256.546H367.62C369.371 256.544 371.05 255.848 372.289 254.608C373.527 253.369 374.223 251.688 374.224 249.935V205.164C374.223 203.411 373.527 201.73 372.289 200.49C371.05 199.251 369.371 198.554 367.62 198.553Z" fill="#395143" fill-opacity="0.72"/>
<path d="M250.512 198.553H247.134V256.546H250.512V198.553Z" fill="#152522"/>
<path d="M264.867 198.553H261.489V256.546H264.867V198.553Z" fill="#152522"/>
<path d="M279.223 198.553H275.845V256.546H279.223V198.553Z" fill="#152522"/>
<path d="M293.579 198.553H290.201V256.546H293.579V198.553Z" fill="#152522"/>
<path d="M307.934 198.553H304.557V256.546H307.934V198.553Z" fill="#152522"/>
<path d="M322.29 198.553H318.912V256.546H322.29V198.553Z" fill="#152522"/>
<path d="M336.645 198.553H333.268V256.546H336.645V198.553Z" fill="#152522"/>
<path d="M351.001 198.553H347.623V256.546H351.001V198.553Z" fill="#152522"/>
<path d="M365.357 198.553H361.979V256.546H365.357V198.553Z" fill="#152522"/>
<path d="M764.492 318.3C764.289 317.57 764.027 316.856 763.709 316.168L748.639 283.708C747.533 281.327 745.771 279.311 743.559 277.899C741.347 276.486 738.779 275.736 736.155 275.736H674.341C671.718 275.736 669.149 276.486 666.937 277.899C664.726 279.311 662.963 281.327 661.857 283.708L649.467 310.396H296.189L284.191 284.554C283.086 282.172 281.323 280.156 279.111 278.744C276.9 277.331 274.331 276.581 271.708 276.581H209.894C207.521 276.582 205.189 277.198 203.125 278.369L192.732 259.789C192.046 258.562 190.972 257.598 189.68 257.047C188.388 256.496 186.949 256.39 185.59 256.745C184.231 257.1 183.028 257.896 182.169 259.009C181.311 260.122 180.845 261.488 180.845 262.895V408.813C180.845 410.987 181.272 413.14 182.104 415.148C182.935 417.157 184.153 418.982 185.688 420.519C187.224 422.056 189.047 423.275 191.053 424.107C193.059 424.939 195.21 425.368 197.381 425.368H670.423C672.626 425.368 674.806 424.927 676.837 424.072C678.867 423.217 680.706 421.964 682.246 420.388L762.214 338.526C764.812 335.903 766.451 332.48 766.864 328.809C767.277 325.139 766.441 321.436 764.492 318.3Z" fill="#152522"/>
<path d="M681.265 308.283H673.498C671.841 308.281 670.252 307.621 669.081 306.448C667.909 305.275 667.25 303.685 667.248 302.026V293.405C667.25 291.746 667.909 290.156 669.081 288.983C670.252 287.81 671.841 287.15 673.498 287.148H681.265C682.922 287.15 684.51 287.81 685.682 288.983C686.854 290.156 687.513 291.746 687.515 293.405V302.026C687.513 303.685 686.854 305.275 685.682 306.448C684.51 307.621 682.922 308.281 681.265 308.283Z" fill="white"/>
<path d="M709.131 308.283H701.364C699.707 308.281 698.119 307.621 696.947 306.448C695.775 305.275 695.116 303.685 695.114 302.026V293.405C695.116 291.746 695.775 290.156 696.947 288.983C698.119 287.81 699.707 287.15 701.364 287.148H709.131C710.788 287.15 712.377 287.81 713.548 288.983C714.72 290.156 715.379 291.746 715.381 293.405V302.026C715.379 303.685 714.72 305.275 713.548 306.448C712.377 307.621 710.788 308.281 709.131 308.283Z" fill="white"/>
<path d="M736.998 308.283H729.232C727.574 308.281 725.986 307.621 724.814 306.448C723.642 305.275 722.983 303.685 722.981 302.026V293.405C722.983 291.746 723.642 290.156 724.814 288.983C725.986 287.81 727.574 287.15 729.232 287.148H736.998C738.655 287.15 740.244 287.81 741.416 288.983C742.587 290.156 743.246 291.746 743.248 293.405V302.026C743.246 303.685 742.587 305.275 741.415 306.448C740.244 307.621 738.655 308.281 736.998 308.283Z" fill="white"/>
<path d="M426.24 140.052H418.474C416.817 140.05 415.228 139.391 414.056 138.218C412.885 137.045 412.226 135.454 412.224 133.795V125.175C412.226 123.516 412.885 121.926 414.056 120.753C415.228 119.58 416.817 118.92 418.474 118.918H426.24C427.897 118.92 429.486 119.58 430.658 120.753C431.829 121.926 432.489 123.516 432.49 125.175V133.795C432.489 135.454 431.829 137.045 430.658 138.218C429.486 139.391 427.897 140.05 426.24 140.052Z" fill="white"/>
<path d="M454.108 140.052H446.341C444.684 140.05 443.095 139.391 441.924 138.218C440.752 137.045 440.093 135.454 440.091 133.795V125.175C440.093 123.516 440.752 121.926 441.924 120.753C443.095 119.58 444.684 118.92 446.341 118.918H454.108C455.765 118.92 457.353 119.58 458.525 120.753C459.697 121.926 460.356 123.516 460.358 125.175V133.795C460.356 135.454 459.697 137.045 458.525 138.218C457.353 139.391 455.765 140.05 454.108 140.052Z" fill="white"/>
<path d="M481.975 140.052H474.208C472.551 140.05 470.962 139.391 469.791 138.218C468.619 137.045 467.96 135.454 467.958 133.795V125.175C467.96 123.516 468.619 121.926 469.791 120.753C470.962 119.58 472.551 118.92 474.208 118.918H481.975C483.632 118.92 485.22 119.58 486.392 120.753C487.564 121.926 488.223 123.516 488.225 125.175V133.795C488.223 135.454 487.564 137.045 486.392 138.218C485.22 139.391 483.632 140.05 481.975 140.052Z" fill="white"/>
<path d="M216.817 309.128H209.05C207.393 309.126 205.804 308.466 204.633 307.293C203.461 306.12 202.802 304.53 202.8 302.871V294.251C202.802 292.592 203.461 291.001 204.633 289.828C205.804 288.655 207.393 287.996 209.05 287.994H216.817C218.474 287.996 220.062 288.655 221.234 289.828C222.406 291.001 223.065 292.592 223.067 294.251V302.871C223.065 304.53 222.406 306.12 221.234 307.293C220.062 308.466 218.474 309.126 216.817 309.128Z" fill="white"/>
<path d="M244.684 309.128H236.917C235.26 309.126 233.671 308.466 232.5 307.293C231.328 306.12 230.669 304.53 230.667 302.871V294.251C230.669 292.592 231.328 291.001 232.5 289.828C233.671 288.655 235.26 287.996 236.917 287.994H244.684C246.341 287.996 247.929 288.655 249.101 289.828C250.273 291.001 250.932 292.592 250.934 294.251V302.871C250.932 304.53 250.273 306.12 249.101 307.293C247.929 308.466 246.341 309.126 244.684 309.128Z" fill="white"/>
<path d="M272.551 309.128H264.784C263.127 309.126 261.539 308.466 260.367 307.293C259.195 306.12 258.536 304.53 258.534 302.871V294.251C258.536 292.592 259.195 291.001 260.367 289.828C261.539 288.655 263.127 287.996 264.784 287.994H272.551C274.208 287.996 275.797 288.655 276.968 289.828C278.14 291.001 278.799 292.592 278.801 294.251V302.871C278.799 304.53 278.14 306.12 276.968 307.293C275.797 308.466 274.208 309.126 272.551 309.128Z" fill="white"/>
<path d="M168.619 398.159C146.743 397.635 123.291 409.906 117.066 430.907L235.817 426.067C233.571 424.513 231.315 422.979 229.049 421.463C210.829 409.332 190.495 398.683 168.619 398.159Z" fill="#395143" fill-opacity="0.72"/>
<path d="M235.816 426.067C251.608 436.995 267.019 448.657 284.614 456.243C328.183 475.028 378.338 466.267 424.181 454.058C470.024 441.849 516.82 426.337 563.839 432.629C590.501 436.197 615.672 446.64 641.408 454.475C667.144 462.31 694.834 467.556 720.8 460.522C746.765 453.488 770.186 431.182 770.865 404.262C574.84 367.979 393.104 366.902 235.816 426.067Z" fill="#395143" fill-opacity="0.72"/>
<path d="M647.757 73.4023C660.21 73.4023 670.305 63.2963 670.305 50.83C670.305 38.3637 660.21 28.2578 647.757 28.2578C635.305 28.2578 625.21 38.3637 625.21 50.83C625.21 63.2963 635.305 73.4023 647.757 73.4023Z" fill="#FFD700"/>
<path d="M698.22 40.1417C697.584 38.0544 696.353 36.1989 694.677 34.8035C693.001 33.4081 690.954 32.5338 688.788 32.2882C688.737 32.2839 688.686 32.2839 688.636 32.2882C688.575 32.2692 688.513 32.255 688.45 32.2459C680.901 31.2653 672.507 33.6492 666.857 38.8399L666.795 38.8968C665.364 40.2228 663.617 41.1602 661.721 41.6199C659.825 42.0795 657.844 42.0461 655.965 41.5229C654.931 41.2374 653.859 41.1192 652.789 41.1731C650.504 41.3243 648.321 42.1774 646.537 43.6162C644.754 45.0549 643.458 47.0092 642.824 49.2126C642.755 49.4818 642.774 49.7663 642.879 50.0237C642.984 50.2812 643.169 50.4978 643.407 50.6413C644.086 51.2228 644.894 51.6343 645.763 51.8417C647.629 52.2391 649.512 52.6026 651.395 52.9323C655.077 53.5748 658.779 54.0961 662.5 54.4962C664.957 54.7583 667.42 54.9668 669.889 55.1218C674.989 55.443 680.115 55.5191 685.224 55.3585C687.757 55.274 690.189 55.1894 692.503 54.0735C694.189 53.2434 695.63 51.9876 696.683 50.4299C697.675 48.9317 698.326 47.234 698.592 45.4565C698.857 43.679 698.731 41.8649 698.22 40.1417Z" fill="#E6E6E6"/>
<path d="M651.835 73.0268C651.792 72.081 651.633 71.1441 651.362 70.2371C650.723 68.1499 649.489 66.295 647.812 64.8999C646.135 63.5047 644.087 62.6302 641.921 62.3835C641.873 62.3793 641.825 62.3793 641.777 62.3835C641.713 62.3654 641.649 62.3513 641.583 62.3413C637.405 61.8289 633.165 62.2652 629.178 63.6178C625.754 64.7365 622.604 66.566 619.934 68.9868C618.503 70.3143 616.756 71.253 614.86 71.7136C612.964 72.1741 610.982 72.1413 609.103 71.618C608.068 71.3326 606.994 71.2145 605.922 71.2684C603.637 71.4197 601.454 72.2728 599.67 73.7115C597.887 75.1503 596.591 77.1045 595.957 79.308C595.892 79.5772 595.913 79.8603 596.017 80.1169C596.122 80.3735 596.305 80.5904 596.54 80.7366C597.22 81.3166 598.027 81.7278 598.896 81.9371C600.771 82.3344 602.645 82.6979 604.537 83.0276C608.219 83.6701 611.918 84.1914 615.633 84.5916C623.182 85.4028 630.777 85.6909 638.366 85.4539C640.891 85.3693 643.331 85.2848 645.645 84.1689C647.328 83.3385 648.766 82.0826 649.816 80.5253C651.297 78.317 652.006 75.6807 651.835 73.0268Z" fill="#E6E6E6"/>
<path d="M660.206 128.184C659.936 129.36 660.125 130.595 660.734 131.637C661.09 132.166 661.612 132.563 662.217 132.763C662.823 132.964 663.478 132.957 664.079 132.745C666.441 132.01 668.771 131.151 671.113 130.354C671.432 130.258 671.703 130.042 671.868 129.752C672.032 129.461 672.079 129.118 671.998 128.794C671.905 128.472 671.691 128.198 671.399 128.033C671.108 127.867 670.763 127.822 670.439 127.909L664.587 129.899C664.146 130.049 663.706 130.22 663.256 130.344C663.209 130.356 663.038 130.394 663.047 130.393C663.068 130.391 663.202 130.406 663.054 130.395C662.969 130.37 662.97 130.375 663.055 130.412L662.944 130.348C663.046 130.433 662.931 130.337 662.896 130.301C662.865 130.27 662.774 130.144 662.844 130.247C662.793 130.173 662.749 130.096 662.712 130.014C662.773 130.151 662.657 129.812 662.649 129.765C662.602 129.237 662.632 128.704 662.739 128.184C662.737 127.848 662.603 127.527 662.366 127.289C662.129 127.052 661.808 126.918 661.472 126.916C661.139 126.924 660.821 127.061 660.586 127.297C660.35 127.533 660.214 127.85 660.206 128.184Z" fill="#152522"/>
<path d="M565.895 132.637L572.139 140.518C572.933 141.521 574.636 140.435 574.256 139.284C573.477 136.93 576.164 135.619 578.018 135.231C580.478 134.717 582.947 134.8 585.281 133.742C586.764 133.069 585.477 130.883 584.002 131.552C581.272 132.79 578.088 132.222 575.323 133.427C572.851 134.503 570.897 137.188 571.813 139.958L573.93 138.724L567.687 130.844C567.448 130.608 567.126 130.476 566.791 130.476C566.456 130.476 566.134 130.608 565.895 130.844C565.665 131.085 565.536 131.406 565.536 131.74C565.536 132.074 565.665 132.395 565.895 132.637Z" fill="#152522"/>
<path d="M553.228 40.4907L559.472 48.3714C560.266 49.3743 561.969 48.2886 561.589 47.1377C560.81 44.7839 563.497 43.4724 565.351 43.0848C567.811 42.5706 570.28 42.654 572.614 41.5955C574.097 40.9231 572.81 38.7368 571.335 39.4056C568.605 40.6438 565.421 40.0762 562.656 41.2806C560.184 42.3571 558.23 45.0417 559.146 47.8119L561.263 46.5782L555.02 38.6974C554.781 38.4617 554.459 38.3296 554.124 38.3296C553.789 38.3296 553.467 38.4617 553.228 38.6974C552.998 38.9388 552.869 39.26 552.869 39.594C552.869 39.9281 552.998 40.2492 553.228 40.4907Z" fill="#152522"/>
</g>
<defs>
<clipPath id="clip0_201_1240">
<rect width="897" height="503" fill="white"/>
</clipPath>
</defs>
</svg>
