<svg width="663" height="623" viewBox="0 0 663 623" fill="none" xmlns="http://www.w3.org/2000/svg">
<path d="M615.927 137.374C613.823 134.056 611.613 130.776 609.297 127.534C578.573 84.8147 525.679 55.5931 473.647 42.3818C450.819 36.6806 427.366 33.4664 403.753 32.803C249.115 27.8892 187.522 142.275 136.418 171.733C85.3144 201.191 6.62955 251.598 11.9336 357.338C17.2376 463.078 98.4153 562.598 255.666 568.818C412.916 575.038 423.405 508.583 511.199 483.989C569.304 467.718 610.649 412.758 630.804 361.978C658.359 292.749 657.059 202.845 615.927 137.374Z" fill="#FFD700"/>
<path opacity="0.7" d="M615.927 137.374C613.823 134.056 611.613 130.776 609.297 127.534C578.573 84.8147 525.679 55.5931 473.647 42.3818C450.819 36.6806 427.366 33.4664 403.753 32.803C249.115 27.8892 187.522 142.275 136.418 171.733C85.3144 201.191 6.62955 251.598 11.9336 357.338C17.2376 463.078 98.4153 562.598 255.666 568.818C412.916 575.038 423.405 508.583 511.199 483.989C569.304 467.718 610.649 412.758 630.804 361.978C658.359 292.749 657.059 202.845 615.927 137.374Z" fill="white"/>
<path d="M646.107 580.822H62.3223" stroke="#263238" stroke-linecap="round" stroke-linejoin="round"/>
<g opacity="0.3">
<path d="M317.656 50.6543V505.374H475.105V50.6543H317.656ZM467.176 60.7556V127.932H401.645V60.7556H467.176ZM391.846 60.7556V127.932H325.546V60.7556H391.846ZM325.546 138.518H391.846V205.109H325.546V138.518ZM467.176 495.272H325.586V216.616H467.176V495.272ZM401.645 205.109V138.518H467.176V205.109H401.645Z" stroke="black" stroke-linecap="round" stroke-linejoin="round"/>
<path d="M474.495 50.6543V505.374H631.931V50.6543H474.495ZM624.015 60.7556V127.932H558.484V60.7556H624.015ZM548.685 60.7556V127.932H482.385V60.7556H548.685ZM482.385 138.518H548.685V205.109H482.385V138.518ZM624.015 495.272H482.425V216.616H624.015V495.272ZM558.484 205.109V138.518H624.015V205.109H558.484Z" stroke="black" stroke-linecap="round" stroke-linejoin="round"/>
<path d="M431.931 292.14L392.403 338.292" stroke="black" stroke-linecap="round" stroke-linejoin="round"/>
<path d="M441.743 280.682L435.458 288.022" stroke="black" stroke-linecap="round" stroke-linejoin="round"/>
<path d="M349.427 371.942L341.325 380.874" stroke="black" stroke-linecap="round" stroke-linejoin="round"/>
<path d="M401.924 314.084L355.487 365.262" stroke="black" stroke-linecap="round" stroke-linejoin="round"/>
<path d="M591.197 306.234L551.669 352.386" stroke="black" stroke-linecap="round" stroke-linejoin="round"/>
<path d="M601.009 294.777L594.724 302.104" stroke="black" stroke-linecap="round" stroke-linejoin="round"/>
<path d="M508.693 386.037L500.604 394.969" stroke="black" stroke-linecap="round" stroke-linejoin="round"/>
<path d="M561.189 328.166L514.753 379.357" stroke="black" stroke-linecap="round" stroke-linejoin="round"/>
<path d="M609.456 71.3047L590.534 93.3981" stroke="black" stroke-linecap="round" stroke-linejoin="round"/>
<path d="M614.15 65.8188L611.14 69.3394" stroke="black" stroke-linecap="round" stroke-linejoin="round"/>
<path d="M569.967 109.508L566.082 113.775" stroke="black" stroke-linecap="round" stroke-linejoin="round"/>
<path d="M595.095 81.8042L572.858 106.311" stroke="black" stroke-linecap="round" stroke-linejoin="round"/>
<path d="M535.624 71.3047L516.702 93.3981" stroke="black" stroke-linecap="round" stroke-linejoin="round"/>
<path d="M540.319 65.8188L537.309 69.3394" stroke="black" stroke-linecap="round" stroke-linejoin="round"/>
<path d="M496.136 109.508L492.264 113.775" stroke="black" stroke-linecap="round" stroke-linejoin="round"/>
<path d="M521.264 81.8042L499.04 106.311" stroke="black" stroke-linecap="round" stroke-linejoin="round"/>
<path d="M535.624 154.068L516.702 176.161" stroke="black" stroke-linecap="round" stroke-linejoin="round"/>
<path d="M540.319 148.582L537.309 152.103" stroke="black" stroke-linecap="round" stroke-linejoin="round"/>
<path d="M496.136 192.271L492.264 196.538" stroke="black" stroke-linecap="round" stroke-linejoin="round"/>
<path d="M521.264 164.567L499.04 189.074" stroke="black" stroke-linecap="round" stroke-linejoin="round"/>
<path d="M601.473 154.068L582.551 176.161" stroke="black" stroke-linecap="round" stroke-linejoin="round"/>
<path d="M606.167 148.582L603.157 152.103" stroke="black" stroke-linecap="round" stroke-linejoin="round"/>
<path d="M561.985 192.271L558.113 196.538" stroke="black" stroke-linecap="round" stroke-linejoin="round"/>
<path d="M587.112 164.567L564.889 189.074" stroke="black" stroke-linecap="round" stroke-linejoin="round"/>
<path d="M453.81 71.3047L434.888 93.3981" stroke="black" stroke-linecap="round" stroke-linejoin="round"/>
<path d="M458.504 65.8188L455.494 69.3394" stroke="black" stroke-linecap="round" stroke-linejoin="round"/>
<path d="M414.322 109.508L410.45 113.775" stroke="black" stroke-linecap="round" stroke-linejoin="round"/>
<path d="M439.449 81.8042L417.226 106.311" stroke="black" stroke-linecap="round" stroke-linejoin="round"/>
<path d="M453.81 152.14L434.888 174.233" stroke="black" stroke-linecap="round" stroke-linejoin="round"/>
<path d="M458.504 146.666L455.494 150.174" stroke="black" stroke-linecap="round" stroke-linejoin="round"/>
<path d="M414.322 190.343L410.45 194.623" stroke="black" stroke-linecap="round" stroke-linejoin="round"/>
<path d="M439.449 162.652L417.226 187.146" stroke="black" stroke-linecap="round" stroke-linejoin="round"/>
<path d="M381.981 152.14L363.059 174.233" stroke="black" stroke-linecap="round" stroke-linejoin="round"/>
<path d="M386.674 146.666L383.664 150.174" stroke="black" stroke-linecap="round" stroke-linejoin="round"/>
<path d="M342.479 190.343L338.607 194.623" stroke="black" stroke-linecap="round" stroke-linejoin="round"/>
<path d="M367.607 162.652L345.383 187.146" stroke="black" stroke-linecap="round" stroke-linejoin="round"/>
<path d="M376.982 71.3047L358.06 93.3981" stroke="black" stroke-linecap="round" stroke-linejoin="round"/>
<path d="M381.689 65.8188L378.679 69.3394" stroke="black" stroke-linecap="round" stroke-linejoin="round"/>
<path d="M337.493 109.508L333.621 113.775" stroke="black" stroke-linecap="round" stroke-linejoin="round"/>
<path d="M362.621 81.8042L340.397 106.311" stroke="black" stroke-linecap="round" stroke-linejoin="round"/>
</g>
<path d="M134.788 427.897C134.788 427.897 120.202 420.322 119.155 437.514C118.107 454.706 115.362 566.442 115.362 566.442" stroke="#263238" stroke-miterlimit="10" stroke-linecap="round"/>
<path d="M111.596 439.019C111.596 439.019 123.53 463.799 118.08 564.924" stroke="#263238" stroke-miterlimit="10" stroke-linecap="round"/>
<path d="M123.318 431.355C123.318 431.355 117.749 434.702 114.579 430.883C111.41 427.064 116.688 420.035 111.994 417.049C107.3 414.064 99.2376 418.629 99.2376 418.629C99.2376 418.629 105.457 420.334 105.258 423.531C105.059 426.728 102.049 427.922 101.651 426.529C101.253 425.135 98.2829 418.119 93.2308 421.03C91.773 421.841 90.5056 422.92 89.505 424.203C88.5045 425.486 87.7917 426.946 87.4097 428.494C87.4097 428.494 99.1713 427.312 99.8874 431.467C100.603 435.622 95.0607 430.734 90.2076 430.472C85.3544 430.211 80.9256 430.87 81.2438 433.632C81.3581 436.066 81.2071 438.504 80.793 440.909C83.443 438.845 86.79 437.734 90.2341 437.775C95.5381 438.073 95.379 441.258 90.5258 440.996C85.6726 440.735 81.509 445.064 81.509 445.064C81.509 445.064 85.9246 452.13 91.4938 455.613C97.063 459.097 99.1448 457.865 99.7946 455.166C100.444 452.466 98.9459 445.525 102.34 445.711C105.735 445.898 96.7182 457.728 101.014 458.425C105.311 459.122 108.838 457.952 109.978 455.278L111.119 452.591C111.119 452.591 109.607 445.662 110.27 442.95C110.933 440.238 111.715 443.037 112.484 446.271C113.253 449.505 113.744 457.305 115.229 456.932C116.714 456.559 121.448 450.886 122.562 448.66C123.676 446.433 116.317 439.641 116.396 438.272C116.476 436.904 122.164 439.516 123.026 440.922C123.669 441.99 124.248 443.091 124.763 444.218C124.763 444.218 128.304 442.129 128.224 435.722C128.144 429.315 123.318 431.355 123.318 431.355Z" fill="#FFD700"/>
<path opacity="0.3" d="M123.318 431.355C123.318 431.355 117.749 434.702 114.579 430.883C111.41 427.064 116.688 420.035 111.994 417.049C107.3 414.064 99.2376 418.629 99.2376 418.629C99.2376 418.629 105.457 420.334 105.258 423.531C105.059 426.728 102.049 427.922 101.651 426.529C101.253 425.135 98.2829 418.119 93.2308 421.03C91.773 421.841 90.5056 422.92 89.505 424.203C88.5045 425.486 87.7917 426.946 87.4097 428.494C87.4097 428.494 99.1713 427.312 99.8874 431.467C100.603 435.622 95.0607 430.734 90.2076 430.472C85.3544 430.211 80.9256 430.87 81.2438 433.632C81.3581 436.066 81.2071 438.504 80.793 440.909C83.443 438.845 86.79 437.734 90.2341 437.775C95.5381 438.073 95.379 441.258 90.5258 440.996C85.6726 440.735 81.509 445.064 81.509 445.064C81.509 445.064 85.9246 452.13 91.4938 455.613C97.063 459.097 99.1448 457.865 99.7946 455.166C100.444 452.466 98.9459 445.525 102.34 445.711C105.735 445.898 96.7182 457.728 101.014 458.425C105.311 459.122 108.838 457.952 109.978 455.278L111.119 452.591C111.119 452.591 109.607 445.662 110.27 442.95C110.933 440.238 111.715 443.037 112.484 446.271C113.253 449.505 113.744 457.305 115.229 456.932C116.714 456.559 121.448 450.886 122.562 448.66C123.676 446.433 116.317 439.641 116.396 438.272C116.476 436.904 122.164 439.516 123.026 440.922C123.669 441.99 124.248 443.091 124.763 444.218C124.763 444.218 128.304 442.129 128.224 435.722C128.144 429.315 123.318 431.355 123.318 431.355Z" fill="#263238"/>
<path d="M95.0479 446.371C98.6678 442.154 104.025 436.419 108.507 433.744" stroke="#263238" stroke-miterlimit="10" stroke-linecap="round"/>
<path d="M90.8311 451.496C90.8311 451.496 91.7725 450.252 93.2709 448.448" stroke="#263238" stroke-miterlimit="10" stroke-linecap="round"/>
<path d="M110.867 434.789C110.867 434.789 116.264 441.942 117.259 449.294" stroke="#263238" stroke-miterlimit="10" stroke-linecap="round"/>
<path d="M104.754 439.018C104.754 439.018 106.266 438.185 105.695 447.291" stroke="#263238" stroke-miterlimit="10" stroke-linecap="round"/>
<path d="M108.731 430.559C108.731 430.559 111.808 427.984 110.19 422.872" stroke="#263238" stroke-miterlimit="10" stroke-linecap="round"/>
<path d="M104.542 434.888L102.341 431.119" stroke="#263238" stroke-miterlimit="10" stroke-linecap="round"/>
<path d="M99.9136 438.745C99.9136 438.745 92.9256 433.769 88.5498 433.545" stroke="#263238" stroke-miterlimit="10" stroke-linecap="round"/>
<path d="M143.102 417.871C143.102 417.871 142.876 425.335 136.631 425.745C130.385 426.156 126.513 416.341 120.122 418.692C113.731 421.043 113.121 431.754 113.121 431.754C113.121 431.754 119.181 427.076 122.403 429.44C125.625 431.803 124.922 435.436 123.159 434.851C121.395 434.267 111.888 432.289 111.556 439.019C111.423 440.938 111.708 442.863 112.391 444.676C113.075 446.489 114.144 448.154 115.534 449.568C115.534 449.568 122.297 437.725 127.203 439.877C132.109 442.029 123.145 443.92 119.552 448.286C115.958 452.653 113.664 457.281 116.82 458.86C119.512 460.433 122.023 462.263 124.312 464.322C123.916 460.422 125.016 456.518 127.415 453.312C131.393 448.498 134.629 450.824 131.035 455.228C127.442 459.632 129.232 466.424 129.232 466.424C129.232 466.424 139.84 467.108 147.398 464.222C154.956 461.336 155.009 458.574 152.569 456.111C150.129 453.648 141.696 450.339 144.216 447.279C146.735 444.219 153.219 460.751 156.919 457.156C160.618 453.561 161.732 449.481 159.65 446.582L157.568 443.684C157.568 443.684 149.148 440.387 146.708 437.924C144.269 435.461 147.782 436.605 151.76 438.098C155.738 439.591 164.397 444.43 165.02 442.788C165.644 441.146 162.806 432.836 161.188 430.261C159.571 427.686 147.305 429.975 145.9 429.017C144.494 428.059 151.204 424.439 153.259 424.576C154.838 424.703 156.409 424.906 157.966 425.185C157.966 425.185 158.152 420.433 151.257 416.154C144.361 411.875 143.102 417.871 143.102 417.871Z" fill="#FFD700"/>
<path opacity="0.2" d="M143.102 417.871C143.102 417.871 142.876 425.335 136.631 425.745C130.385 426.156 126.513 416.341 120.122 418.692C113.731 421.043 113.121 431.754 113.121 431.754C113.121 431.754 119.181 427.076 122.403 429.44C125.625 431.803 124.922 435.436 123.159 434.851C121.395 434.267 111.888 432.289 111.556 439.019C111.423 440.938 111.708 442.863 112.391 444.676C113.075 446.489 114.144 448.154 115.534 449.568C115.534 449.568 122.297 437.725 127.203 439.877C132.109 442.029 123.145 443.92 119.552 448.286C115.958 452.653 113.664 457.281 116.82 458.86C119.512 460.433 122.023 462.263 124.312 464.322C123.916 460.422 125.016 456.518 127.415 453.312C131.393 448.498 134.629 450.824 131.035 455.228C127.442 459.632 129.232 466.424 129.232 466.424C129.232 466.424 139.84 467.108 147.398 464.222C154.956 461.336 155.009 458.574 152.569 456.111C150.129 453.648 141.696 450.339 144.216 447.279C146.735 444.219 153.219 460.751 156.919 457.156C160.618 453.561 161.732 449.481 159.65 446.582L157.568 443.684C157.568 443.684 149.148 440.387 146.708 437.924C144.269 435.461 147.782 436.605 151.76 438.098C155.738 439.591 164.397 444.43 165.02 442.788C165.644 441.146 162.806 432.836 161.188 430.261C159.571 427.686 147.305 429.975 145.9 429.017C144.494 428.059 151.204 424.439 153.259 424.576C154.838 424.703 156.409 424.906 157.966 425.185C157.966 425.185 158.152 420.433 151.257 416.154C144.361 411.875 143.102 417.871 143.102 417.871Z" fill="#263238"/>
<path d="M139.88 454.606C137.864 448.324 135.424 439.417 135.584 433.358" stroke="#263238" stroke-miterlimit="10" stroke-linecap="round"/>
<path d="M142.478 462.045C142.478 462.045 141.815 460.341 140.9 457.679" stroke="#263238" stroke-miterlimit="10" stroke-linecap="round"/>
<path d="M138.314 431.841C138.314 431.841 149.612 431.654 158.204 435.734" stroke="#263238" stroke-miterlimit="10" stroke-linecap="round"/>
<path d="M138.66 440.462C138.66 440.462 138.806 438.471 148.128 445.214" stroke="#263238" stroke-miterlimit="10" stroke-linecap="round"/>
<path d="M132.322 430.995C132.322 430.995 131.672 426.342 125.108 424.389" stroke="#263238" stroke-miterlimit="10" stroke-linecap="round"/>
<path d="M134.111 437.862L128.582 437.352" stroke="#263238" stroke-miterlimit="10" stroke-linecap="round"/>
<path d="M135.067 444.841C135.067 444.841 125.016 448.025 121.807 451.957" stroke="#263238" stroke-miterlimit="10" stroke-linecap="round"/>
<path d="M76.0459 467.842C76.0459 467.842 107.87 487.56 107.3 563.904" stroke="#263238" stroke-miterlimit="10" stroke-linecap="round"/>
<path d="M115.242 462.63C115.242 462.63 114.235 471.275 106.995 471.151C99.7547 471.027 96.2673 459.345 88.6561 461.547C81.0448 463.749 79.2547 475.99 79.2547 475.99C79.2547 475.99 86.7201 471.139 90.2605 474.149C93.801 477.16 92.5413 481.29 90.5788 480.469C88.6163 479.648 77.8227 476.513 76.7751 484.201C76.4287 486.403 76.5615 488.649 77.1654 490.802C77.7693 492.955 78.8319 494.97 80.289 496.728C80.289 496.728 89.2926 483.653 94.7424 486.577C100.192 489.5 89.6506 490.881 85.0626 495.608C80.4747 500.335 77.3586 505.498 80.8857 507.613C83.8144 509.644 86.5156 511.949 88.9478 514.492C88.9478 514.492 88.5765 507.264 93.6286 502.052C98.6806 496.84 102.208 499.863 97.6066 504.54C93.0054 509.217 94.3844 517.366 94.3844 517.366C94.3844 517.366 106.531 519.082 115.6 516.42C124.67 513.758 124.882 510.573 122.39 507.526C119.897 504.478 110.456 499.9 113.638 496.591C116.82 493.282 122.655 512.937 127.296 509.118C131.937 505.299 133.621 500.684 131.512 497.163L129.404 493.63C129.404 493.63 120.016 489.065 117.47 486.017C114.924 482.969 118.796 484.599 123.291 486.664C127.786 488.729 137.227 495.098 138.103 493.244C138.978 491.391 136.538 481.551 134.947 478.453C133.356 475.356 118.942 476.898 117.43 475.605C115.919 474.311 123.941 470.79 126.368 471.139C128.177 471.425 129.969 471.799 131.738 472.258C131.738 472.258 132.427 466.797 124.909 461.249C117.39 455.701 115.242 462.63 115.242 462.63Z" fill="#FFD700"/>
<path opacity="0.3" d="M115.242 462.63C115.242 462.63 114.235 471.275 106.995 471.151C99.7547 471.027 96.2673 459.345 88.6561 461.547C81.0448 463.749 79.2547 475.99 79.2547 475.99C79.2547 475.99 86.7201 471.139 90.2605 474.149C93.801 477.16 92.5413 481.29 90.5788 480.469C88.6163 479.648 77.8227 476.513 76.7751 484.201C76.4287 486.403 76.5615 488.649 77.1654 490.802C77.7693 492.955 78.8319 494.97 80.289 496.728C80.289 496.728 89.2926 483.653 94.7424 486.577C100.192 489.5 89.6506 490.881 85.0626 495.608C80.4747 500.335 77.3586 505.498 80.8857 507.613C83.8144 509.644 86.5156 511.949 88.9478 514.492C88.9478 514.492 88.5765 507.264 93.6286 502.052C98.6806 496.84 102.208 499.863 97.6066 504.54C93.0054 509.217 94.3844 517.366 94.3844 517.366C94.3844 517.366 106.531 519.082 115.6 516.42C124.67 513.758 124.882 510.573 122.39 507.526C119.897 504.478 110.456 499.9 113.638 496.591C116.82 493.282 122.655 512.937 127.296 509.118C131.937 505.299 133.621 500.684 131.512 497.163L129.404 493.63C129.404 493.63 120.016 489.065 117.47 486.017C114.924 482.969 118.796 484.599 123.291 486.664C127.786 488.729 137.227 495.098 138.103 493.244C138.978 491.391 136.538 481.551 134.947 478.453C133.356 475.356 118.942 476.898 117.43 475.605C115.919 474.311 123.941 470.79 126.368 471.139C128.177 471.425 129.969 471.799 131.738 472.258C131.738 472.258 132.427 466.797 124.909 461.249C117.39 455.701 115.242 462.63 115.242 462.63Z" fill="#263238"/>
<path d="M107.83 504.739C106.133 497.275 104.224 486.813 105.019 479.859" stroke="#263238" stroke-miterlimit="10" stroke-linecap="round"/>
<path d="M110.057 513.559C110.057 513.559 109.474 511.532 108.731 508.384" stroke="#263238" stroke-miterlimit="10" stroke-linecap="round"/>
<path d="M108.321 478.329C108.321 478.329 121.382 479.113 130.863 484.549" stroke="#263238" stroke-miterlimit="10" stroke-linecap="round"/>
<path d="M107.856 488.306C107.856 488.306 108.214 486.03 118.305 494.638" stroke="#263238" stroke-miterlimit="10" stroke-linecap="round"/>
<path d="M101.491 476.824C101.491 476.824 101.213 471.4 93.8271 468.563" stroke="#263238" stroke-miterlimit="10" stroke-linecap="round"/>
<path d="M102.857 484.91L96.5322 483.828" stroke="#263238" stroke-miterlimit="10" stroke-linecap="round"/>
<path d="M103.269 493.033C103.269 493.033 91.3348 495.832 87.2109 500.087" stroke="#263238" stroke-miterlimit="10" stroke-linecap="round"/>
<path d="M88.4443 528.014C88.4443 528.014 108.918 542.694 111.079 564.414L106.756 491.603" stroke="#263238" stroke-miterlimit="10" stroke-linecap="round"/>
<path d="M138.023 517.391C111.079 512.838 111.079 564.414 111.079 564.414" stroke="#263238" stroke-miterlimit="10" stroke-linecap="round"/>
<path d="M114.302 563.904C114.302 563.904 98.6813 457.231 143.951 457.231" stroke="#263238" stroke-miterlimit="10" stroke-linecap="round"/>
<path d="M127.747 514.33C124.074 510.437 116.25 510.437 111.649 520.376C107.048 530.316 111.185 528.574 111.185 528.574C111.185 528.574 119.937 525.987 125.453 524.258C130.969 522.528 138.328 518.212 138.792 520.799C139.257 523.387 135.119 525.987 130.054 526.845C124.989 527.703 111.649 531.162 113.028 533.749C114.407 536.337 117.629 544.112 117.629 544.112C121.566 540.983 125.716 538.099 130.054 535.478C136.034 532.02 139.721 533.314 136.498 537.208C133.276 541.101 124.074 545.406 125.89 550.581C127.707 555.756 138.766 562.237 138.766 562.237C138.766 562.237 140.092 551.451 143.367 547.993C146.642 544.535 146.589 548.428 145.674 554.474C145.21 557.043 144.9 559.635 144.746 562.237L157.635 566.554C159.742 563.545 162.045 560.662 164.53 557.92L166.837 555.768C166.837 555.768 156.707 547.57 156.229 542.383C155.752 537.195 163.125 542.383 165.432 543.253C167.739 544.124 171.412 550.158 171.412 550.158C171.412 550.158 173.706 540.206 174.17 536.772L174.634 533.314C174.634 533.314 164.968 529.868 161.281 529.868C157.595 529.868 155.765 532.455 155.765 528.997C155.765 525.539 159.452 523.387 163.589 523.822C167.337 524.412 171.03 525.277 174.634 526.41C174.634 526.41 177.392 524.258 176.464 517.776C175.536 511.295 173.255 511.307 167.726 513.037C162.196 514.766 158.523 518.647 154.386 518.647C150.249 518.647 152.543 513.895 155.301 512.601C158.059 511.307 164.968 508.72 166.347 508.285C167.726 507.849 158.987 501.803 154.413 500.945C149.838 500.087 143.805 503.122 144.295 507.426C145.237 516.483 131.433 518.212 127.747 514.33Z" fill="#FFD700"/>
<path d="M157.369 558.766C157.502 560.072 157.608 561.378 157.661 562.672" stroke="#263238" stroke-miterlimit="10" stroke-linecap="round"/>
<path d="M148.127 527.766C152.167 536.32 155.075 545.306 156.786 554.524" stroke="#263238" stroke-miterlimit="10" stroke-linecap="round"/>
<path d="M146.47 524.32C144.189 519.717 142.492 516.856 142.492 516.856C145 515.741 147.086 513.936 148.472 511.681C149.547 509.634 151.124 507.856 153.074 506.493" stroke="#263238" stroke-miterlimit="10" stroke-linecap="round"/>
<path d="M126.367 531.597C126.367 531.597 142.929 525.116 142.929 526.41" stroke="#263238" stroke-miterlimit="10" stroke-linecap="round"/>
<path d="M152.132 523.387C152.132 523.387 159.504 519.941 165.935 519.941" stroke="#263238" stroke-miterlimit="10" stroke-linecap="round"/>
<path d="M149.374 533.749C146.186 536.211 143.26 538.956 140.636 541.947C137.946 544.928 135.771 548.286 134.191 551.899" stroke="#263238" stroke-miterlimit="10" stroke-linecap="round"/>
<path d="M154.439 535.479C154.439 535.479 164.106 532.891 169.158 537.208" stroke="#263238" stroke-miterlimit="10" stroke-linecap="round"/>
<path d="M171.943 477.147C166.93 474.373 161.335 474.311 158.683 471.375C156.031 468.439 161.335 466.959 164.146 468.066C166.957 469.173 173.6 472.37 174.86 473.042C176.12 473.714 175.244 463.575 172.924 459.756C170.603 455.937 164.252 453.698 161.069 456.82C154.439 463.426 143.938 454.768 144.654 449.617C145.37 444.467 140.238 438.919 129.232 442.153C118.226 445.388 122.337 447.204 122.337 447.204C122.337 447.204 130.147 451.707 135.159 454.481C140.172 457.256 148.419 459.644 146.682 461.672C144.945 463.699 140.052 462.455 136.074 459.445C132.096 456.435 120.547 449.269 119.34 451.944C118.134 454.618 114.036 461.995 114.036 461.995C119.135 462.73 124.176 463.782 129.126 465.143C135.756 467.108 137.201 470.566 131.964 470.84C126.726 471.114 117.219 467.407 114.248 472.084C111.278 476.761 113.32 488.853 113.32 488.853C113.32 488.853 122.907 482.758 127.8 482.77C132.693 482.782 129.564 485.333 124.101 488.642C121.726 490.007 119.433 491.494 117.232 493.095L122.204 505.05C126.011 504.563 129.846 504.306 133.688 504.279L136.923 504.49C136.923 504.49 136.923 491.938 140.755 488.219C144.587 484.499 145.29 493.108 146.059 495.31C146.828 497.511 144.415 504.018 144.415 504.018C144.415 504.018 153.922 499.141 156.999 497.2L160.088 495.272C160.088 495.272 156.521 486.154 154.108 483.554C151.695 480.954 148.406 481.339 151.191 479.075C153.975 476.811 158.126 478.005 160.473 481.215C162.504 484.278 164.269 487.489 165.75 490.819C165.75 490.819 169.291 491.354 173.905 486.465C178.52 481.576 176.955 479.934 171.943 477.147ZM128.397 490.968C124.711 489.239 133.462 485.793 133.462 485.793C136.684 485.358 132.083 492.697 128.397 490.968ZM134.589 474.858C133.025 474.124 137.732 472.644 137.732 472.644C144.534 473.875 136.167 475.592 134.589 474.858Z" fill="#FFD700"/>
<path d="M128.304 499.763C127.349 500.709 126.354 501.629 125.347 502.525" stroke="#263238" stroke-miterlimit="10" stroke-linecap="round"/>
<path d="M147.185 472.905C142.934 481.366 137.59 489.304 131.273 496.541" stroke="#263238" stroke-miterlimit="10" stroke-linecap="round"/>
<path d="M148.883 469.459C151.164 464.819 152.224 461.833 152.224 461.833C154.765 462.884 157.588 463.179 160.313 462.679C162.663 462.101 165.126 462.055 167.5 462.543" stroke="#263238" stroke-miterlimit="10" stroke-linecap="round"/>
<path d="M129.855 459.98C129.855 459.98 145.927 467.444 144.879 468.327" stroke="#263238" stroke-miterlimit="10" stroke-linecap="round"/>
<path d="M153.352 472.868C153.352 472.868 160.95 475.816 165.179 480.332" stroke="#263238" stroke-miterlimit="10" stroke-linecap="round"/>
<path d="M143.208 477.694C139.135 477.053 135.005 476.782 130.877 476.886C126.723 476.931 122.602 477.585 118.664 478.826" stroke="#263238" stroke-miterlimit="10" stroke-linecap="round"/>
<path d="M145.131 482.409C145.131 482.409 153.551 487.559 153.392 493.978" stroke="#263238" stroke-miterlimit="10" stroke-linecap="round"/>
<path d="M100.444 536.959C96.4661 534.732 91.9577 534.682 89.8361 532.318C87.7145 529.955 91.9444 528.761 94.2384 529.656C96.5324 530.552 101.85 533.115 102.857 533.674C103.865 534.234 103.162 526.061 101.306 522.976C99.4496 519.891 94.3179 518.112 91.772 520.625C86.3752 525.937 77.9816 518.97 78.512 514.828C79.0424 510.685 74.9583 506.219 66.1007 508.832C57.243 511.444 60.5447 512.9 60.5447 512.9C60.5447 512.9 66.8432 516.52 70.8743 518.746C74.9053 520.973 81.5751 522.914 80.1563 524.543C78.7375 526.173 74.8523 525.165 71.6301 522.74C68.4079 520.314 59.1259 514.529 58.1712 516.681C57.2165 518.834 53.8882 524.767 53.8882 524.767C57.9903 525.348 62.0476 526.179 66.0344 527.255C71.4312 528.848 72.5318 531.634 68.3151 531.846C64.0984 532.057 56.3811 529.084 54.0738 532.866C51.7666 536.648 53.2783 546.425 53.2783 546.425C53.2783 546.425 60.9956 541.449 64.9736 541.512C68.9516 541.574 66.3924 543.577 61.9901 546.239C60.0818 547.331 58.2402 548.523 56.4739 549.809L60.4519 559.425C63.5292 559.04 66.6293 558.836 69.7339 558.816L72.3859 558.99C72.3859 558.99 72.3859 548.889 75.4755 545.891C78.5651 542.892 79.1087 549.822 79.7585 551.588C80.4082 553.355 78.4325 558.642 78.4325 558.642C78.4325 558.642 86.0835 554.723 88.5631 553.155L91.0427 551.6C91.0427 551.6 88.1786 544.273 86.2293 542.171C84.2801 540.069 81.6414 540.392 83.8823 538.563C86.1233 536.735 89.4515 537.705 91.361 540.293C92.9465 542.74 94.3211 545.303 95.4716 547.956C95.4716 547.956 98.3225 548.391 102.102 544.447C105.881 540.504 104.475 539.198 100.444 536.959ZM65.3979 548.08C62.4409 546.699 69.482 543.937 69.482 543.937C72.0677 543.564 68.3681 549.473 65.3979 548.08ZM70.3969 535.117C69.0709 534.52 72.9163 533.339 72.9163 533.339C78.3927 534.321 71.6036 535.702 70.3969 535.117Z" fill="#FFD700"/>
<path d="M65.3188 555.134C64.5498 555.893 63.7674 556.639 62.9453 557.361" stroke="#263238" stroke-miterlimit="10" stroke-linecap="round"/>
<path d="M80.5149 533.538C77.1205 540.377 72.8358 546.795 67.7588 552.645" stroke="#263238" stroke-miterlimit="10" stroke-linecap="round"/>
<path d="M81.8936 530.763C83.6704 527.031 84.5456 524.543 84.5456 524.543C86.5908 525.389 88.8624 525.627 91.0562 525.228C92.9514 524.763 94.9369 524.724 96.8508 525.116" stroke="#263238" stroke-miterlimit="10" stroke-linecap="round"/>
<path d="M66.5781 523.15C66.5781 523.15 79.5066 529.171 78.6712 529.856" stroke="#263238" stroke-miterlimit="10" stroke-linecap="round"/>
<path d="M85.4873 533.513C85.4873 533.513 91.6002 535.889 94.9947 539.559" stroke="#263238" stroke-miterlimit="10" stroke-linecap="round"/>
<path d="M77.3189 537.407C74.0392 536.884 70.7128 536.663 67.3872 536.748C64.0447 536.784 60.729 537.313 57.5615 538.315" stroke="#263238" stroke-miterlimit="10" stroke-linecap="round"/>
<path d="M78.8701 541.201C78.8701 541.201 85.646 545.343 85.5001 550.506" stroke="#263238" stroke-miterlimit="10" stroke-linecap="round"/>
<path d="M84.002 465.69C84.002 465.69 78.9499 469.136 75.7277 465.69C72.5055 462.244 77.0537 455.328 72.5055 452.74C67.9574 450.153 60.5715 454.892 60.5715 454.892C60.5715 454.892 66.5518 456.136 66.5518 459.209C66.5518 462.282 63.7937 463.526 63.3296 462.232C62.8655 460.938 59.6433 454.457 55.0421 457.48C53.7139 458.318 52.5812 459.401 51.7127 460.663C50.8443 461.925 50.2582 463.339 49.9901 464.819C49.9901 464.819 61.0224 463.09 61.9241 466.984C62.8257 470.878 57.3228 466.548 52.7216 466.548C48.1204 466.548 43.9833 467.407 44.4341 470.007C44.6861 472.302 44.6861 474.616 44.4341 476.911C46.8178 474.815 49.922 473.588 53.1857 473.453C58.2378 473.453 58.2378 476.476 53.6366 476.476C49.0353 476.476 45.3623 480.792 45.3623 480.792C45.3623 480.792 49.9635 487.261 55.4797 490.284C60.9959 493.307 62.839 492.013 63.3031 489.426C63.7672 486.838 61.9771 480.357 65.1462 480.357C68.3154 480.357 60.545 492.013 64.6821 492.449C68.8193 492.884 72.0414 491.59 72.9696 488.99L73.8846 486.403C73.8846 486.403 72.0415 479.934 72.5586 477.334C73.0757 474.734 73.8846 477.334 74.8526 480.357C75.8205 483.38 76.6957 490.719 78.0748 490.309C79.4538 489.898 83.5379 484.226 84.4661 482.086C85.3943 479.946 78.0217 473.888 78.0217 472.594C78.0217 471.301 83.5511 473.453 84.4661 474.746C85.381 476.04 86.3092 477.769 86.3092 477.769C86.3092 477.769 89.5314 475.617 89.0673 469.571C88.6032 463.526 84.002 465.69 84.002 465.69Z" fill="#FFD700"/>
<path d="M58.2373 481.34C61.4064 477.172 66.127 471.512 70.1713 468.701" stroke="#263238" stroke-miterlimit="10" stroke-linecap="round"/>
<path d="M54.5645 486.403C54.5645 486.403 55.3733 485.159 56.6861 483.405" stroke="#263238" stroke-miterlimit="10" stroke-linecap="round"/>
<path d="M72.5059 469.571C72.5059 469.571 78.022 476.04 79.4011 482.957" stroke="#263238" stroke-miterlimit="10" stroke-linecap="round"/>
<path d="M66.9893 473.888C66.9893 473.888 68.3153 473.017 68.3153 481.65" stroke="#263238" stroke-miterlimit="10" stroke-linecap="round"/>
<path d="M70.1982 465.69C70.1982 465.69 72.9696 463.09 71.1264 458.351" stroke="#263238" stroke-miterlimit="10" stroke-linecap="round"/>
<path d="M66.525 470.007L64.2178 466.548" stroke="#263238" stroke-miterlimit="10" stroke-linecap="round"/>
<path d="M62.3884 473.888C62.3884 473.888 55.4799 469.571 51.3428 469.571" stroke="#263238" stroke-miterlimit="10" stroke-linecap="round"/>
<path d="M130.465 562.398H94.9014V580.013H130.465V562.398Z" fill="#263238" stroke="#263238" stroke-width="2" stroke-miterlimit="10" stroke-linecap="round"/>
<path opacity="0.2" d="M424.639 36.8828H88.8693C81.1798 36.8828 74.9463 42.7309 74.9463 49.9448V431.716C74.9463 438.93 81.1798 444.778 88.8693 444.778H424.639C432.328 444.778 438.562 438.93 438.562 431.716V49.9448C438.562 42.7309 432.328 36.8828 424.639 36.8828Z" fill="black"/>
<path d="M414.031 29.4189H78.2609C70.5714 29.4189 64.3379 35.267 64.3379 42.4809V424.252C64.3379 431.466 70.5714 437.314 78.2609 437.314H414.031C421.72 437.314 427.954 431.466 427.954 424.252V42.4809C427.954 35.267 421.72 29.4189 414.031 29.4189Z" fill="#E3E3E3" stroke="#263238" stroke-linecap="round" stroke-linejoin="round"/>
<path d="M374.834 29.4189H103.812V437.314H374.834V29.4189Z" fill="white" stroke="#263238" stroke-linecap="round" stroke-linejoin="round"/>
<path d="M415.887 30.377V438.11C419.209 437.764 422.278 436.281 424.507 433.944C426.735 431.608 427.967 428.582 427.967 425.446V43.0409C427.964 39.906 426.732 36.8818 424.503 34.5457C422.275 32.2097 419.207 30.7256 415.887 30.377Z" fill="#B2B2B2" stroke="#263238" stroke-linecap="round" stroke-linejoin="round"/>
<path d="M427.967 188.514H415.887V252.456H427.967V188.514Z" fill="#808080" stroke="#263238" stroke-linecap="round" stroke-linejoin="round"/>
<path d="M427.967 82.9732V43.0408C427.967 41.3669 427.615 39.7094 426.932 38.1631C426.249 36.6168 425.247 35.2119 423.985 34.0289C422.723 32.8458 421.225 31.9078 419.576 31.2683C417.927 30.6289 416.16 30.3006 414.375 30.3023H77.9294C76.1452 30.3006 74.3781 30.6289 72.7292 31.2683C71.0802 31.9078 69.5818 32.8458 68.3196 34.0289C67.0573 35.2119 66.0559 36.6168 65.3727 38.1631C64.6895 39.7094 64.3379 41.3669 64.3379 43.0408V82.9732H427.967Z" fill="#B2B2B2" stroke="#263238" stroke-linecap="round" stroke-linejoin="round"/>
<path d="M238.998 50.9399H84.2939V60.5934H238.998V50.9399Z" fill="white" stroke="#263238" stroke-linecap="round" stroke-linejoin="round"/>
<path d="M427.954 65.7812H64.3379V82.9733H427.954V65.7812Z" fill="#263238" stroke="#263238" stroke-linecap="round" stroke-linejoin="round"/>
<path d="M72.7715 70.2471H82.2259" stroke="white" stroke-linecap="round" stroke-linejoin="round"/>
<path d="M72.7715 74.1035H82.2259" stroke="white" stroke-linecap="round" stroke-linejoin="round"/>
<path d="M72.7715 77.96H82.2259" stroke="white" stroke-linecap="round" stroke-linejoin="round"/>
<path d="M121.688 70.0854V80.1121" stroke="white" stroke-linecap="round" stroke-linejoin="round"/>
<path d="M177.419 70.0854V80.1121" stroke="white" stroke-linecap="round" stroke-linejoin="round"/>
<path d="M233.151 70.0854V80.1121" stroke="white" stroke-linecap="round" stroke-linejoin="round"/>
<path d="M288.869 70.0854V80.1121" stroke="white" stroke-linecap="round" stroke-linejoin="round"/>
<path d="M344.602 70.0854V80.1121" stroke="white" stroke-linecap="round" stroke-linejoin="round"/>
<path d="M427.967 45.1556V43.0408C427.967 41.3669 427.615 39.7094 426.932 38.1631C426.249 36.6168 425.247 35.2119 423.985 34.0289C422.723 32.8458 421.225 31.9078 419.576 31.2683C417.927 30.6289 416.16 30.3006 414.375 30.3023H77.9294C76.1452 30.3006 74.3781 30.6289 72.7292 31.2683C71.0802 31.9078 69.5818 32.8458 68.3196 34.0289C67.0573 35.2119 66.0559 36.6168 65.3727 38.1631C64.6895 39.7094 64.3379 41.3669 64.3379 43.0408V45.1556H427.967Z" fill="#263238" stroke="#263238" stroke-linecap="round" stroke-linejoin="round"/>
<path d="M375.961 41.5728C378.202 41.5728 380.018 39.8685 380.018 37.7661C380.018 35.6638 378.202 33.9595 375.961 33.9595C373.72 33.9595 371.903 35.6638 371.903 37.7661C371.903 39.8685 373.72 41.5728 375.961 41.5728Z" fill="white" stroke="#263238" stroke-linecap="round" stroke-linejoin="round"/>
<path d="M388.757 41.5728C390.998 41.5728 392.814 39.8685 392.814 37.7661C392.814 35.6638 390.998 33.9595 388.757 33.9595C386.516 33.9595 384.699 35.6638 384.699 37.7661C384.699 39.8685 386.516 41.5728 388.757 41.5728Z" fill="white" stroke="#263238" stroke-linecap="round" stroke-linejoin="round"/>
<path d="M405.61 37.7661C405.61 37.0132 405.372 36.2773 404.926 35.6513C404.481 35.0253 403.847 34.5374 403.105 34.2492C402.364 33.9611 401.548 33.8857 400.761 34.0326C399.974 34.1795 399.251 34.542 398.684 35.0744C398.116 35.6068 397.73 36.2851 397.573 37.0235C397.417 37.7619 397.497 38.5273 397.804 39.2229C398.111 39.9184 398.631 40.5129 399.298 40.9312C399.966 41.3495 400.75 41.5728 401.553 41.5728C402.629 41.5728 403.661 41.1717 404.422 40.4578C405.183 39.7439 405.61 38.7757 405.61 37.7661Z" fill="white" stroke="#263238" stroke-linecap="round" stroke-linejoin="round"/>
<path d="M64.3379 413.517V425.447C64.3379 428.828 65.7698 432.072 68.3187 434.463C70.8676 436.854 74.3247 438.198 77.9294 438.198H414.375C417.98 438.198 421.437 436.854 423.986 434.463C426.535 432.072 427.967 428.828 427.967 425.447V413.517H64.3379Z" fill="#B2B2B2" stroke="#263238" stroke-linecap="round" stroke-linejoin="round"/>
<path d="M331.632 140.981H130.094V246.97H331.632V140.981Z" fill="#FFD700" stroke="#263238" stroke-linecap="round" stroke-linejoin="round"/>
<path d="M331.619 200.432L286.588 173.213L240.775 216.181L208.712 181.087L132.215 245.775L130.094 246.982H331.619V200.432Z" fill="white" stroke="#263238" stroke-linecap="round" stroke-linejoin="round"/>
<path d="M161.388 180.378C170.242 180.378 177.419 173.645 177.419 165.338C177.419 157.032 170.242 150.298 161.388 150.298C152.534 150.298 145.356 157.032 145.356 165.338C145.356 173.645 152.534 180.378 161.388 180.378Z" fill="white" stroke="#263238" stroke-linecap="round" stroke-linejoin="round"/>
<path d="M130.85 254.135H330.863" stroke="#263238" stroke-miterlimit="10"/>
<path d="M130.85 262.731H250.707" stroke="#263238" stroke-miterlimit="10"/>
<path d="M305.922 278.816H331.62" stroke="#263238" stroke-miterlimit="10"/>
<path d="M275.345 278.816H302.952" stroke="#263238" stroke-miterlimit="10"/>
<path d="M264.352 278.816H272.374" stroke="#263238" stroke-miterlimit="10"/>
<path d="M226.641 278.816H262.27" stroke="#263238" stroke-miterlimit="10"/>
<path d="M180.31 278.816H222.781" stroke="#263238" stroke-miterlimit="10"/>
<path d="M146.457 278.816H175.854" stroke="#263238" stroke-miterlimit="10"/>
<path d="M130.373 278.816H142.599" stroke="#263238" stroke-miterlimit="10"/>
<path d="M156.071 288.78H130.373" stroke="#263238" stroke-miterlimit="10"/>
<path d="M186.662 288.78H159.041" stroke="#263238" stroke-miterlimit="10"/>
<path d="M197.654 288.78H189.632" stroke="#263238" stroke-miterlimit="10"/>
<path d="M235.366 288.78H199.723" stroke="#263238" stroke-miterlimit="10"/>
<path d="M281.682 288.78H239.224" stroke="#263238" stroke-miterlimit="10"/>
<path d="M315.535 288.78H286.138" stroke="#263238" stroke-miterlimit="10"/>
<path d="M331.619 288.78H319.394" stroke="#263238" stroke-miterlimit="10"/>
<path d="M305.922 298.31H331.62" stroke="#263238" stroke-miterlimit="10"/>
<path d="M275.345 298.31H302.952" stroke="#263238" stroke-miterlimit="10"/>
<path d="M264.352 298.31H272.374" stroke="#263238" stroke-miterlimit="10"/>
<path d="M226.641 298.31H262.27" stroke="#263238" stroke-miterlimit="10"/>
<path d="M180.31 298.31H222.781" stroke="#263238" stroke-miterlimit="10"/>
<path d="M146.457 298.31H175.854" stroke="#263238" stroke-miterlimit="10"/>
<path d="M130.373 298.31H142.599" stroke="#263238" stroke-miterlimit="10"/>
<path d="M156.071 308.274H130.373" stroke="#263238" stroke-miterlimit="10"/>
<path d="M186.662 308.274H159.041" stroke="#263238" stroke-miterlimit="10"/>
<path d="M197.654 308.274H189.632" stroke="#263238" stroke-miterlimit="10"/>
<path d="M235.366 308.274H199.723" stroke="#263238" stroke-miterlimit="10"/>
<path d="M281.682 308.274H239.224" stroke="#263238" stroke-miterlimit="10"/>
<path d="M315.535 308.274H286.138" stroke="#263238" stroke-miterlimit="10"/>
<path d="M331.619 308.274H319.394" stroke="#263238" stroke-miterlimit="10"/>
<path d="M305.922 317.803H331.62" stroke="#263238" stroke-miterlimit="10"/>
<path d="M275.345 317.803H302.952" stroke="#263238" stroke-miterlimit="10"/>
<path d="M264.352 317.803H272.374" stroke="#263238" stroke-miterlimit="10"/>
<path d="M226.641 317.803H262.27" stroke="#263238" stroke-miterlimit="10"/>
<path d="M180.31 317.803H222.781" stroke="#263238" stroke-miterlimit="10"/>
<path d="M146.457 317.803H175.854" stroke="#263238" stroke-miterlimit="10"/>
<path d="M130.373 317.803H142.599" stroke="#263238" stroke-miterlimit="10"/>
<path d="M156.071 327.768H130.373" stroke="#263238" stroke-miterlimit="10"/>
<path d="M186.662 327.768H159.041" stroke="#263238" stroke-miterlimit="10"/>
<path d="M197.654 327.768H189.632" stroke="#263238" stroke-miterlimit="10"/>
<path d="M235.366 327.768H199.723" stroke="#263238" stroke-miterlimit="10"/>
<path d="M281.682 327.768H239.224" stroke="#263238" stroke-miterlimit="10"/>
<path d="M315.535 327.768H286.138" stroke="#263238" stroke-miterlimit="10"/>
<path d="M331.619 327.768H319.394" stroke="#263238" stroke-miterlimit="10"/>
<path d="M305.922 337.296H331.62" stroke="#263238" stroke-miterlimit="10"/>
<path d="M275.345 337.296H302.952" stroke="#263238" stroke-miterlimit="10"/>
<path d="M264.352 337.296H272.374" stroke="#263238" stroke-miterlimit="10"/>
<path d="M226.641 337.296H262.27" stroke="#263238" stroke-miterlimit="10"/>
<path d="M180.31 337.296H222.781" stroke="#263238" stroke-miterlimit="10"/>
<path d="M146.457 337.296H175.854" stroke="#263238" stroke-miterlimit="10"/>
<path d="M130.373 337.296H142.599" stroke="#263238" stroke-miterlimit="10"/>
<path d="M156.071 347.261H130.373" stroke="#263238" stroke-miterlimit="10"/>
<path d="M186.662 347.261H159.041" stroke="#263238" stroke-miterlimit="10"/>
<path d="M197.654 347.261H189.632" stroke="#263238" stroke-miterlimit="10"/>
<path d="M235.366 347.261H199.723" stroke="#263238" stroke-miterlimit="10"/>
<path d="M281.682 347.261H239.224" stroke="#263238" stroke-miterlimit="10"/>
<path d="M315.535 347.261H286.138" stroke="#263238" stroke-miterlimit="10"/>
<path d="M331.619 347.261H319.394" stroke="#263238" stroke-miterlimit="10"/>
<path d="M305.922 356.79H331.62" stroke="#263238" stroke-miterlimit="10"/>
<path d="M275.345 356.79H302.952" stroke="#263238" stroke-miterlimit="10"/>
<path d="M264.352 356.79H272.374" stroke="#263238" stroke-miterlimit="10"/>
<path d="M226.641 356.79H262.27" stroke="#263238" stroke-miterlimit="10"/>
<path d="M180.31 356.79H222.781" stroke="#263238" stroke-miterlimit="10"/>
<path d="M146.457 356.79H175.854" stroke="#263238" stroke-miterlimit="10"/>
<path d="M130.373 356.79H142.599" stroke="#263238" stroke-miterlimit="10"/>
<path d="M156.071 366.754H130.373" stroke="#263238" stroke-miterlimit="10"/>
<path d="M186.662 366.754H159.041" stroke="#263238" stroke-miterlimit="10"/>
<path d="M197.654 366.754H189.632" stroke="#263238" stroke-miterlimit="10"/>
<path d="M235.366 366.754H199.723" stroke="#263238" stroke-miterlimit="10"/>
<path d="M281.682 366.754H239.224" stroke="#263238" stroke-miterlimit="10"/>
<path d="M315.535 366.754H286.138" stroke="#263238" stroke-miterlimit="10"/>
<path d="M331.619 366.754H319.394" stroke="#263238" stroke-miterlimit="10"/>
<path d="M305.922 376.284H331.62" stroke="#263238" stroke-miterlimit="10"/>
<path d="M275.345 376.284H302.952" stroke="#263238" stroke-miterlimit="10"/>
<path d="M264.352 376.284H272.374" stroke="#263238" stroke-miterlimit="10"/>
<path d="M226.641 376.284H262.27" stroke="#263238" stroke-miterlimit="10"/>
<path d="M180.31 376.284H222.781" stroke="#263238" stroke-miterlimit="10"/>
<path d="M146.457 376.284H175.854" stroke="#263238" stroke-miterlimit="10"/>
<path d="M130.373 376.284H142.599" stroke="#263238" stroke-miterlimit="10"/>
<path d="M156.071 386.235H130.373" stroke="#263238" stroke-miterlimit="10"/>
<path d="M186.662 386.235H159.041" stroke="#263238" stroke-miterlimit="10"/>
<path d="M197.654 386.235H189.632" stroke="#263238" stroke-miterlimit="10"/>
<path d="M235.366 386.235H199.723" stroke="#263238" stroke-miterlimit="10"/>
<path d="M281.682 386.235H239.224" stroke="#263238" stroke-miterlimit="10"/>
<path d="M315.535 386.235H286.138" stroke="#263238" stroke-miterlimit="10"/>
<path d="M331.619 386.235H319.394" stroke="#263238" stroke-miterlimit="10"/>
<path d="M305.922 395.765H331.62" stroke="#263238" stroke-miterlimit="10"/>
<path d="M275.345 395.765H302.952" stroke="#263238" stroke-miterlimit="10"/>
<path d="M264.352 395.765H272.374" stroke="#263238" stroke-miterlimit="10"/>
<path d="M226.641 395.765H262.27" stroke="#263238" stroke-miterlimit="10"/>
<path d="M180.31 395.765H222.781" stroke="#263238" stroke-miterlimit="10"/>
<path d="M146.457 395.765H175.854" stroke="#263238" stroke-miterlimit="10"/>
<path d="M130.373 395.765H142.599" stroke="#263238" stroke-miterlimit="10"/>
<path d="M156.071 405.729H130.373" stroke="#263238" stroke-miterlimit="10"/>
<path d="M186.662 405.729H159.041" stroke="#263238" stroke-miterlimit="10"/>
<path d="M197.654 405.729H189.632" stroke="#263238" stroke-miterlimit="10"/>
<path d="M235.366 405.729H199.723" stroke="#263238" stroke-miterlimit="10"/>
<path d="M281.682 405.729H239.224" stroke="#263238" stroke-miterlimit="10"/>
<path d="M315.535 405.729H286.138" stroke="#263238" stroke-miterlimit="10"/>
<path d="M331.619 405.729H319.394" stroke="#263238" stroke-miterlimit="10"/>
<path d="M137.467 127.197L136.061 134.089H132.309L139.23 99.8291H145.118L152.093 134.027H148.035L146.682 127.197H137.467ZM137.984 123.925H146.112L142.002 104.196L137.984 123.925Z" fill="#263238"/>
<path d="M163.443 99.8291C169.172 99.8291 171.572 102.566 171.572 107.654V110.428C171.572 114.16 170.166 116.536 167.037 117.469C170.365 118.39 171.625 120.927 171.625 124.597V129.921C171.506 131.325 171.756 132.735 172.354 134.027H168.243C167.661 132.714 167.425 131.289 167.554 129.872V124.522C167.554 120.666 165.631 119.447 162.25 119.447H159.386V134.052H155.328V99.8291H163.443ZM162.409 116.001C165.631 116.001 167.554 115.018 167.554 111.311V108.015C167.554 104.942 166.36 103.325 163.337 103.325H159.359V116.001H162.409Z" fill="#263238"/>
<path d="M181.092 134.052V103.325H174.383V99.8291H191.82V103.3H185.11V134.027L181.092 134.052Z" fill="#263238"/>
<path d="M198.648 99.8291V134.027H194.577V99.8291H198.648Z" fill="#263238"/>
<path d="M218.897 108.115V111.187H215.038V107.916C215.038 104.843 213.712 102.94 210.768 102.94C207.825 102.94 206.499 104.793 206.499 107.916V125.954C206.499 129.026 207.825 130.93 210.768 130.93C213.712 130.93 215.038 129.076 215.038 125.954V121.55H218.897V125.792C218.897 130.967 216.245 134.388 210.676 134.388C205.106 134.388 202.494 130.967 202.494 125.792V108.115C202.494 102.94 205.146 99.5186 210.676 99.5186C216.205 99.5186 218.897 102.94 218.897 108.115Z" fill="#263238"/>
<path d="M222.596 134.052V99.8291H226.653V130.556H237.062V134.027L222.596 134.052Z" fill="#263238"/>
<path d="M253.107 114.993V118.414H244.196V130.581H255.136V134.052H240.139V99.8291H255.136V103.3H244.196V114.969L253.107 114.993Z" fill="#263238"/>
<path d="M414.601 406.015C414.601 406.015 384.103 412.857 373.495 427.163C362.887 441.469 337.693 486.253 331.063 494.961C324.433 503.669 301.891 516.109 297.913 534.147C293.935 552.185 298.576 564.625 319.129 574.577C339.682 584.529 366.865 564.003 382.777 558.405L383.44 580.797H549.19L555.157 554.051C555.157 554.051 591.622 557.161 601.567 554.051C611.512 550.941 624.772 558.405 626.098 550.941C627.424 543.477 621.457 527.927 613.501 514.865C605.545 501.803 605.545 505.535 597.589 487.497C589.633 469.459 583.666 452.665 577.036 437.115C570.406 421.565 556.575 408.342 543.74 404.348C530.904 400.355 501.454 402.905 490.183 401.661C478.912 400.417 414.601 406.015 414.601 406.015Z" fill="#FFD700" stroke="#263238" stroke-linecap="round" stroke-linejoin="round"/>
<path d="M551.616 536.635C551.616 536.635 563.099 519.63 583.878 514.243" stroke="#263238" stroke-linecap="round" stroke-linejoin="round"/>
<path d="M583.321 499.153C585.088 498.305 586.903 497.549 588.758 496.889" stroke="#263238" stroke-linecap="round" stroke-linejoin="round"/>
<path d="M548.526 530.005C548.526 530.005 560.341 512.502 577.977 501.965" stroke="#263238" stroke-linecap="round" stroke-linejoin="round"/>
<path d="M556.483 467.63C549.853 483.267 540.12 510.001 541.897 528.338" stroke="#263238" stroke-linecap="round" stroke-linejoin="round"/>
<path d="M562.225 454.942C562.225 454.942 561.005 457.43 559.175 461.423" stroke="#263238" stroke-linecap="round" stroke-linejoin="round"/>
<path d="M331.978 517.9C341.032 520.261 349.158 525.042 355.368 531.659" stroke="#263238" stroke-linecap="round" stroke-linejoin="round"/>
<path d="M316.914 516.731C319.914 516.377 322.95 516.397 325.944 516.793" stroke="#263238" stroke-linecap="round" stroke-linejoin="round"/>
<path d="M341.591 506.468C349.374 511.668 359.346 520.302 363.324 532.07" stroke="#263238" stroke-linecap="round" stroke-linejoin="round"/>
<path d="M331.062 500.559C333.346 501.597 335.56 502.764 337.692 504.055" stroke="#263238" stroke-linecap="round" stroke-linejoin="round"/>
<path d="M443.004 437.339C443.004 437.339 451.557 450.712 472.945 450.264C494.333 449.817 503.35 427.972 503.35 416.826C503.35 405.679 495.752 398.103 475.796 402.557C455.84 407.011 433.496 407.471 443.004 437.339Z" fill="white" stroke="#263238" stroke-linecap="round" stroke-linejoin="round"/>
<path d="M446.332 411.029C446.332 411.029 440.63 429.315 443.004 437.339C444.69 442.652 447.087 447.743 450.138 452.491C450.138 452.491 466.288 438.222 468.702 436.444C471.115 434.665 485.807 450.264 487.717 452.043C489.626 453.822 500.539 447.59 503.867 432.873C507.196 418.157 504.822 400.778 501.494 396.325C498.166 391.871 494.36 391.423 494.36 391.423C494.36 391.423 458.691 387.853 446.332 411.029Z" fill="white" stroke="#263238" stroke-linecap="round" stroke-linejoin="round"/>
<path d="M449.66 412.82C449.66 412.82 463.437 434.664 467.72 435.1C472.003 435.535 490.992 420.843 496.229 408.802C501.467 396.76 497.171 383.834 497.171 383.834C497.171 383.834 481.02 403.005 470.094 409.249C459.168 415.494 449.66 412.82 449.66 412.82Z" fill="white" stroke="#263238" stroke-linecap="round" stroke-linejoin="round"/>
<path d="M470.093 409.25C464.25 412.775 457.206 414.108 450.363 412.982L449.898 413.206C450.8 414.611 454.221 419.923 457.934 424.974C461.003 425.606 464.213 425.117 466.911 423.605C480.622 416.813 491.27 393.961 491.27 393.961L485.183 396.797C480.304 401.624 474.708 406.6 470.093 409.25Z" fill="#263238" stroke="#263238" stroke-linecap="round" stroke-linejoin="round"/>
<path d="M402.136 294.229C402.136 294.229 371.559 339.996 377.26 366.294C382.962 392.592 409.27 423.966 401.195 432.425C393.119 440.885 388.836 437.775 392.629 442.688C396.421 447.602 419.719 452.939 436.824 447.59C453.93 442.24 455.839 419.537 446.862 407.471C437.885 395.404 421.204 349.513 428.298 338.814C435.392 328.116 463.941 334.361 473.913 338.814C483.884 343.268 496.733 369.578 495.301 381.608C493.869 393.637 499.584 421.292 519.063 421.727C538.542 422.162 543.766 404.311 543.766 404.311C543.766 404.311 530.944 406.986 530.944 400.293C530.944 393.6 541.393 385.141 536.646 366.419C531.899 347.696 520.959 344.126 519.54 324.508C518.121 304.89 510.033 285.72 493.869 274.587C477.705 263.453 434.928 247.43 402.136 294.229Z" fill="#263238" stroke="#263238" stroke-linecap="round" stroke-linejoin="round"/>
<path d="M404.868 356.429C403.225 362.412 403.116 368.674 404.55 374.704C409.244 397.506 431.428 420.321 427.158 434.329C422.888 448.336 409.668 447.129 401.964 441.133" stroke="#6B6B6B" stroke-linecap="round" stroke-linejoin="round"/>
<path d="M413.514 344.288C411.002 345.916 408.935 348.077 407.48 350.595" stroke="#6B6B6B" stroke-linecap="round" stroke-linejoin="round"/>
<path d="M419.428 416.751C422.111 420.245 423.617 424.414 423.751 428.718" stroke="#6B6B6B" stroke-linecap="round" stroke-linejoin="round"/>
<path d="M427.092 300.798C417.372 308.262 405.69 318.687 397.31 331.077C380.244 356.293 381.942 362.699 391.33 382.703C397.337 395.516 408.939 404.224 416.524 413.032" stroke="#6B6B6B" stroke-linecap="round" stroke-linejoin="round"/>
<path d="M445.073 288.656C445.073 288.656 440.233 291.381 433.324 296.232" stroke="#6B6B6B" stroke-linecap="round" stroke-linejoin="round"/>
<path d="M451.052 274.25C451.052 274.25 442.951 298.26 444.224 303.062" stroke="#6B6B6B" stroke-linecap="round" stroke-linejoin="round"/>
<path d="M519.062 412.21C521.078 413.627 523.314 414.743 525.692 415.519" stroke="#6B6B6B" stroke-linecap="round" stroke-linejoin="round"/>
<path d="M502.461 330.542C509.939 335.627 516.252 342.07 521.025 349.488C537.242 373.497 524.87 379.095 517.193 392.306C512.95 399.608 513.135 404.958 515.747 408.826" stroke="#6B6B6B" stroke-linecap="round" stroke-linejoin="round"/>
<path d="M486.881 324.272C490.161 324.701 493.338 325.661 496.269 327.108" stroke="#6B6B6B" stroke-linecap="round" stroke-linejoin="round"/>
<path d="M510.789 320.018C512.689 322.107 514.392 324.346 515.881 326.71" stroke="#6B6B6B" stroke-linecap="round" stroke-linejoin="round"/>
<path d="M450.628 295.063C450.628 295.063 453.187 303.871 476.22 304.269C487.932 304.419 499.122 308.841 507.421 316.597" stroke="#6B6B6B" stroke-linecap="round" stroke-linejoin="round"/>
<path d="M445.854 305.375C445.854 305.375 419.719 327.22 414.494 341.041C409.27 354.862 426.428 387.405 428.272 392.306C430.3 397.531 435.856 402.395 439.675 406.475C445.881 413.093 455.176 421.864 465.479 420.557C478.328 418.928 491.508 400.268 497.171 390.527C502.833 380.787 503.88 366.045 503.88 366.045C503.88 366.045 510.51 366.493 510.51 358.022C510.51 349.55 511.452 336.625 506.704 336.625C503.57 336.775 500.57 337.87 498.152 339.747C486.715 335.596 475.992 329.887 466.328 322.804C450.601 311.173 445.854 305.375 445.854 305.375Z" fill="white" stroke="#263238" stroke-linecap="round" stroke-linejoin="round"/>
<path d="M447.286 384.283C447.475 385.136 447.858 385.94 448.408 386.642C448.958 387.343 449.663 387.925 450.475 388.348C451.287 388.77 452.186 389.024 453.112 389.091C454.037 389.158 454.968 389.037 455.839 388.736C462.959 386.957 463.914 384.731 463.914 384.731" stroke="#263238" stroke-linecap="round" stroke-linejoin="round"/>
<path d="M446.862 393.65C446.862 393.65 462.536 398.999 471.566 390.08" stroke="#263238" stroke-linecap="round" stroke-linejoin="round"/>
<path d="M460.122 348.169C460.122 348.169 466.301 341.489 480.556 345.495" stroke="#263238" stroke-width="2" stroke-linecap="round" stroke-linejoin="round"/>
<path d="M439.198 353.083C439.198 353.083 429.704 349.96 421.615 349.96" stroke="#263238" stroke-width="2" stroke-linecap="round" stroke-linejoin="round"/>
<path d="M448.706 358.432C441.644 355.532 434.076 353.866 426.376 353.519C414.017 353.083 412.121 354.862 412.599 356.641C413.076 358.42 413.54 377.155 424.466 378.934C435.392 380.712 445.855 378.934 447.751 374.032C449.647 369.131 448.706 358.432 448.706 358.432Z" stroke="#263238" stroke-linecap="round" stroke-linejoin="round"/>
<path d="M455.349 357.586C461.839 353.701 469.028 350.953 476.565 349.475C488.684 347.236 490.859 348.716 490.687 350.545C490.514 352.374 493.166 370.934 482.664 374.305C472.162 377.677 461.541 377.428 458.796 372.862C456.051 368.297 455.349 357.586 455.349 357.586Z" stroke="#263238" stroke-linecap="round" stroke-linejoin="round"/>
<path d="M448.705 358.432C449.595 357.689 450.702 357.211 451.883 357.061C453.064 356.91 454.266 357.093 455.335 357.586" stroke="#263238" stroke-linecap="round" stroke-linejoin="round"/>
<path d="M439.185 366.133C439.556 368.621 438.8 370.686 437.501 370.86C436.201 371.034 434.849 369.205 434.477 366.767C434.106 364.329 434.849 362.214 436.148 362.04C437.448 361.866 438.8 363.694 439.185 366.133Z" fill="#263238"/>
<path d="M472.918 363.906C473.289 366.394 472.547 368.459 471.247 368.633C469.948 368.807 468.595 366.979 468.211 364.54C467.826 362.102 468.582 359.987 469.881 359.813C471.181 359.639 472.547 361.468 472.918 363.906Z" fill="#263238"/>
<path d="M490.527 348.617L498.125 339.71" stroke="#263238" stroke-linecap="round" stroke-linejoin="round"/>
<path d="M500.791 520.463C500.791 520.463 499.465 515.487 492.835 510.511C486.205 505.535 470.293 501.803 470.293 506.157C470.293 510.511 486.205 523.573 490.846 529.793C495.487 536.013 500.128 549.697 510.073 556.539C520.018 563.381 569.743 578.309 590.959 579.553C612.175 580.797 626.098 567.735 625.435 554.051C624.772 540.367 614.164 527.927 596.926 525.439C579.688 522.951 571.732 531.037 561.787 533.525C551.842 536.013 543.886 538.501 543.886 538.501C543.886 538.501 549.19 521.707 547.864 516.731C546.538 511.755 537.521 508.608 537.521 508.608L530.626 502.388C530.626 502.388 516.703 491.814 514.714 491.814C512.725 491.814 504.769 483.106 494.824 483.106C484.879 483.106 472.282 489.948 476.26 493.68C480.238 497.412 488.857 494.924 493.498 494.924C498.139 494.924 502.78 504.254 502.78 504.254C502.78 504.254 496.813 507.986 498.802 510.474C500.791 512.962 502.117 514.828 502.117 514.828L500.791 520.463Z" fill="white" stroke="#263238" stroke-linecap="round" stroke-linejoin="round"/>
<path d="M501.771 514.082C501.771 514.082 502.739 519.058 506.85 519.058C510.961 519.058 509.263 513.397 510.709 511.594C512.154 509.79 516.013 503.209 516.013 503.209" stroke="#263238" stroke-linecap="round" stroke-linejoin="round"/>
<path d="M535.346 509.516C535.346 509.516 525.931 517.901 525.202 518.361C524.473 518.821 522.311 523.573 520.614 526.061C518.917 528.549 514.819 529.234 513.613 526.061C512.406 522.889 514.09 517.901 515.535 515.637C516.981 513.373 521.582 506.568 521.582 506.568C521.582 506.568 524.725 502.264 529.074 502.264" stroke="#263238" stroke-linecap="round" stroke-linejoin="round"/>
<path d="M530.28 514.504C530.28 514.504 525.202 521.073 525.202 523.573C525.202 526.074 523.518 532.406 525.693 533.314C527.867 534.222 530.758 534.222 532.216 531.274C533.675 528.325 535.346 524.929 535.346 524.929C535.346 524.929 538.74 524.705 540.186 522.441" stroke="#263238" stroke-linecap="round" stroke-linejoin="round"/>
<path d="M535.347 524.929C536.065 526.446 537.36 527.657 538.98 528.325" stroke="#263238" stroke-linecap="round" stroke-linejoin="round"/>
<path d="M513.162 491.615C512.308 491.528 511.449 491.732 510.742 492.188C510.034 492.645 509.524 493.324 509.303 494.103C508.097 497.051 502.819 504.291 502.819 504.291" stroke="#263238" stroke-linecap="round" stroke-linejoin="round"/>
<path d="M508.773 507.476C509.205 509.114 509.528 510.776 509.741 512.452" stroke="#263238" stroke-linecap="round" stroke-linejoin="round"/>
<path d="M514.329 506.344C514.827 508.132 516.037 509.672 517.71 510.648" stroke="#263238" stroke-linecap="round" stroke-linejoin="round"/>
<path d="M543.886 538.501C543.886 538.501 538.807 554.461 534.829 558.616" stroke="#263238" stroke-linecap="round" stroke-linejoin="round"/>
<path d="M361.507 483.405L399.126 579.802C399.59 581.006 400.439 582.047 401.557 582.781C402.674 583.516 404.007 583.909 405.371 583.907H503.88C504.956 583.915 506.018 583.678 506.975 583.214C507.931 582.751 508.753 582.076 509.369 581.248C509.985 580.42 510.377 579.464 510.511 578.462C510.646 577.46 510.518 576.443 510.139 575.498L473.382 482.422C472.461 480.082 470.796 478.066 468.611 476.646C466.426 475.226 463.828 474.471 461.17 474.485L367.66 475.008C366.594 475.016 365.547 475.266 364.606 475.735C363.665 476.205 362.858 476.88 362.254 477.704C361.651 478.528 361.267 479.476 361.137 480.468C361.007 481.461 361.134 482.468 361.507 483.405Z" fill="#263238" stroke="#263238" stroke-linecap="round" stroke-linejoin="round"/>
<path d="M350.952 538.501L352.941 523.573C352.941 523.573 359.571 521.707 356.256 511.133C352.941 500.559 350.952 499.315 354.93 499.315C358.908 499.315 366.864 501.181 368.853 507.401C370.842 513.621 371.505 524.817 371.505 524.817C371.505 524.817 418.578 518.597 421.893 518.597C425.208 518.597 428.523 521.707 423.219 524.195C417.915 526.683 391.395 537.879 391.395 537.879C391.395 537.879 425.208 531.037 427.197 531.037C429.186 531.037 435.816 531.037 432.501 534.147C429.186 537.257 420.567 540.989 420.567 540.989C420.567 540.989 435.816 538.501 435.153 542.855C434.49 547.209 418.578 551.563 418.578 551.563C418.578 551.563 425.871 551.563 423.882 554.673C421.893 557.783 392.721 567.735 386.754 570.223C380.787 572.711 362.886 572.711 362.886 572.711C355.079 576.94 346.558 579.885 337.692 581.419C323.106 583.907 307.857 583.285 301.227 568.979C294.597 554.673 299.901 534.769 313.161 528.549C326.421 522.329 335.703 524.195 341.007 527.927C346.311 531.659 350.952 538.501 350.952 538.501Z" fill="white" stroke="#263238" stroke-linecap="round" stroke-linejoin="round"/>
<path d="M391.396 537.879L378.136 541.611" stroke="#263238" stroke-linecap="round" stroke-linejoin="round"/>
<path d="M420.567 540.989L382.113 552.185" stroke="#263238" stroke-linecap="round" stroke-linejoin="round"/>
<path d="M418.579 551.563L386.092 562.137" stroke="#263238" stroke-linecap="round" stroke-linejoin="round"/>
<path d="M350.953 538.501C350.953 538.501 348.301 543.477 340.345 538.501" stroke="#263238" stroke-linecap="round" stroke-linejoin="round"/>
<path d="M362.887 572.711L347.638 569.601" stroke="#263238" stroke-linecap="round" stroke-linejoin="round"/>
<path d="M371.506 524.817L357.583 527.305" stroke="#263238" stroke-linecap="round" stroke-linejoin="round"/>
<path d="M222.118 498.88C222 501.002 222.367 503.122 223.192 505.1C226.454 512.763 227.409 515.923 226.083 522.143" stroke="#263238" stroke-miterlimit="10" stroke-linecap="round"/>
<path d="M225.274 489.09C224.263 490.736 223.478 492.496 222.94 494.327" stroke="#263238" stroke-miterlimit="10" stroke-linecap="round"/>
<path d="M236.957 489.09C236.957 489.09 231.533 497.3 234.862 505.125C238.19 512.95 239.092 515.948 237.766 522.168" stroke="#263238" stroke-miterlimit="10" stroke-linecap="round"/>
<path d="M250.005 517.652C249.967 519.171 249.776 520.683 249.435 522.168" stroke="#263238" stroke-miterlimit="10" stroke-linecap="round"/>
<path d="M248.626 489.09C248.626 489.09 243.202 497.3 246.544 505.125C247.558 507.402 248.444 509.727 249.196 512.091" stroke="#263238" stroke-miterlimit="10" stroke-linecap="round"/>
<path d="M258.65 538.75C258.65 538.75 264.06 533.675 267.998 537.83C271.936 541.985 270.451 562.71 267.003 569.203C263.556 575.697 255.666 569.539 255.666 569.539V565.048C255.666 565.048 259.193 568.109 263.131 564.426C267.07 560.744 265.996 546.127 264.457 543.826C262.919 541.524 257.085 544.746 257.085 544.746L258.65 538.75Z" fill="white" stroke="#263238" stroke-linecap="round" stroke-linejoin="round"/>
<path d="M255.6 589.244H218.22L213.553 527.704H260.268L255.6 589.244Z" fill="white" stroke="#263238" stroke-linecap="round" stroke-linejoin="round"/>
</svg>
