<svg width="35" height="35" viewBox="0 0 35 35" fill="none" xmlns="http://www.w3.org/2000/svg">
<g id="edit-3_svgrepo.com">
<path id="Vector" d="M31.0327 9.33342L17.1202 23.2458C15.7348 24.6313 11.6222 25.2729 10.7035 24.3542C9.78474 23.4354 10.4118 19.3229 11.7972 17.9375L25.7244 4.01046C26.0678 3.63575 26.4836 3.33455 26.9467 3.12499C27.4098 2.91542 27.9106 2.80182 28.4188 2.79112C28.9269 2.78043 29.432 2.8728 29.9035 3.06269C30.375 3.25258 30.8032 3.53608 31.1621 3.89599C31.521 4.25591 31.8033 4.6848 31.9918 5.15681C32.1804 5.62883 32.2716 6.13414 32.2595 6.6423C32.2473 7.15045 32.1323 7.65094 31.9216 8.11345C31.7107 8.57596 31.4084 8.99099 31.0327 9.33342Z" stroke="black" stroke-width="3.75" stroke-linecap="round" stroke-linejoin="round"/>
<path id="Vector_2" d="M16.042 5.83325H8.75033C7.20322 5.83325 5.71959 6.44782 4.62562 7.54179C3.53166 8.63576 2.91699 10.1195 2.91699 11.6666V26.2499C2.91699 27.7971 3.53166 29.2808 4.62562 30.3747C5.71959 31.4687 7.20322 32.0833 8.75033 32.0833H24.792C28.0149 32.0833 29.167 29.4583 29.167 26.2499V18.9583" stroke="black" stroke-width="3.75" stroke-linecap="round" stroke-linejoin="round"/>
</g>
</svg>
