<svg width="60" height="60" viewBox="0 0 60 60" fill="none" xmlns="http://www.w3.org/2000/svg">
<g id="profile-circle_svgrepo.com">
<path id="Vector" d="M55 30C55 16.225 43.775 5 30 5C16.225 5 5 16.225 5 30C5 37.25 8.125 43.775 13.075 48.35C13.075 48.375 13.075 48.375 13.05 48.4C13.3 48.65 13.6 48.85 13.85 49.075C14 49.2 14.125 49.325 14.275 49.425C14.725 49.8 15.225 50.15 15.7 50.5C15.875 50.625 16.025 50.725 16.2 50.85C16.675 51.175 17.175 51.475 17.7 51.75C17.875 51.85 18.075 51.975 18.25 52.075C18.75 52.35 19.275 52.6 19.825 52.825C20.025 52.925 20.225 53.025 20.425 53.1C20.975 53.325 21.525 53.525 22.075 53.7C22.275 53.775 22.475 53.85 22.675 53.9C23.275 54.075 23.875 54.225 24.475 54.375C24.65 54.425 24.825 54.475 25.025 54.5C25.725 54.65 26.425 54.75 27.15 54.825C27.25 54.825 27.35 54.85 27.45 54.875C28.3 54.95 29.15 55 30 55C30.85 55 31.7 54.95 32.525 54.875C32.625 54.875 32.725 54.85 32.825 54.825C33.55 54.75 34.25 54.65 34.95 54.5C35.125 54.475 35.3 54.4 35.5 54.375C36.1 54.225 36.725 54.1 37.3 53.9C37.5 53.825 37.7 53.75 37.9 53.7C38.45 53.5 39.025 53.325 39.55 53.1C39.75 53.025 39.95 52.925 40.15 52.825C40.675 52.6 41.2 52.35 41.725 52.075C41.925 51.975 42.1 51.85 42.275 51.75C42.775 51.45 43.275 51.175 43.775 50.85C43.95 50.75 44.1 50.625 44.275 50.5C44.775 50.15 45.25 49.8 45.7 49.425C45.85 49.3 45.975 49.175 46.125 49.075C46.4 48.85 46.675 48.625 46.925 48.4C46.925 48.375 46.925 48.375 46.9 48.35C51.875 43.775 55 37.25 55 30ZM42.35 42.425C35.575 37.875 24.475 37.875 17.65 42.425C16.55 43.15 15.65 44 14.9 44.925C11.1 41.075 8.75 35.8 8.75 30C8.75 18.275 18.275 8.75 30 8.75C41.725 8.75 51.25 18.275 51.25 30C51.25 35.8 48.9 41.075 45.1 44.925C44.375 44 43.45 43.15 42.35 42.425Z" fill="#292D32"/>
<path id="Vector_2" d="M30 17.3242C24.825 17.3242 20.625 21.5242 20.625 26.6992C20.625 31.7742 24.6 35.8992 29.875 36.0492C29.95 36.0492 30.05 36.0492 30.1 36.0492C30.15 36.0492 30.225 36.0492 30.275 36.0492C30.3 36.0492 30.325 36.0492 30.325 36.0492C35.375 35.8742 39.35 31.7742 39.375 26.6992C39.375 21.5242 35.175 17.3242 30 17.3242Z" fill="#292D32"/>
</g>
</svg>
