<svg id="Layer_1" data-name="Layer 1" xmlns="http://www.w3.org/2000/svg" viewBox="0 0 23 23.03"><defs><style>.cls-1{fill-opacity:0.8;fill-rule:evenodd;}</style></defs><path fill="#E7E4D5" class="cls-1" d="M551.15,546.35a1.75,1.75,0,0,1-2.57,0l-8.4-8.83-8.4,8.83a1.75,1.75,0,0,1-2.57,0,2,2,0,0,1,0-2.7l9.69-10.18a1.75,1.75,0,0,1,2.57,0l9.68,10.18A2,2,0,0,1,551.15,546.35Z" transform="translate(-528.68 -532.91)"/><path fill="#E7E4D5" class="cls-1" d="M551.15,555.38a1.77,1.77,0,0,1-2.57,0l-8.4-8.83-8.4,8.83a1.77,1.77,0,0,1-2.57,0,2,2,0,0,1,0-2.7l9.69-10.18a1.75,1.75,0,0,1,2.57,0l9.68,10.18A2,2,0,0,1,551.15,555.38Z" transform="translate(-528.68 -532.91)"/></svg>