<svg width="60" height="60" viewBox="0 0 60 60" fill="none" xmlns="http://www.w3.org/2000/svg">
<path d="M30 37.5V5M30 5L37.5 13.75M30 5L22.5 13.75" stroke="#152522" stroke-width="3.75" stroke-linecap="round" stroke-linejoin="round"/>
<path d="M20 55.0005H40C47.071 55.0005 50.6065 55.0005 52.8032 52.8038C55 50.6073 55 47.0715 55 40.0005V37.5005C55 30.4295 55 26.894 52.8032 24.6973C50.8822 22.7763 47.9375 22.5352 42.5 22.5049M17.5 22.5049C12.0624 22.5352 9.11765 22.7763 7.1967 24.6972C5 26.894 5 30.4295 5 37.5005V40.0005C5 47.0715 5 50.6073 7.1967 52.8038C7.9462 53.5533 8.85155 54.047 10 54.3725" stroke="#152522" stroke-width="3.75" stroke-linecap="round"/>
</svg>
