<svg width="26" height="26" viewBox="0 0 26 26" fill="none" xmlns="http://www.w3.org/2000/svg">
<path id="Vector" d="M23.5015 0.417188L12.9074 11.0113L2.31325 0.417188C2.05845 0.184018 1.72351 0.0581488 1.3782 0.0657998C1.0329 0.0734508 0.703861 0.214033 0.459635 0.458259C0.215408 0.702485 0.0748262 1.03152 0.0671753 1.37683C0.0595243 1.72213 0.185394 2.05707 0.418563 2.31188L11.0073 12.906L0.415876 23.4974C0.286479 23.6208 0.18304 23.7687 0.111639 23.9326C0.0402386 24.0964 0.00231644 24.2729 0.000102846 24.4516C-0.00211074 24.6304 0.0314289 24.8077 0.0987495 24.9733C0.16607 25.1389 0.265813 25.2894 0.392116 25.4159C0.518419 25.5423 0.668733 25.6423 0.834222 25.7098C0.99971 25.7774 1.17703 25.8112 1.35577 25.8092C1.53451 25.8073 1.71105 25.7696 1.87501 25.6984C2.03898 25.6273 2.18707 25.524 2.31056 25.3948L12.9074 14.8034L23.5015 25.3975C23.7563 25.6307 24.0913 25.7565 24.4366 25.7489C24.7819 25.7412 25.1109 25.6007 25.3551 25.3564C25.5993 25.1122 25.7399 24.7832 25.7476 24.4379C25.7552 24.0926 25.6294 23.7576 25.3962 23.5028L14.8021 12.9087L25.3962 2.31188C25.5256 2.18856 25.629 2.04062 25.7004 1.87675C25.7718 1.71289 25.8098 1.5364 25.812 1.35767C25.8142 1.17894 25.7806 1.00157 25.7133 0.835982C25.646 0.670398 25.5463 0.519942 25.42 0.39346C25.2937 0.266978 25.1433 0.167021 24.9778 0.0994661C24.8124 0.0319108 24.635 -0.00187959 24.4563 8.06528e-05C24.2776 0.0020409 24.101 0.0397125 23.9371 0.110881C23.7731 0.18205 23.625 0.285279 23.5015 0.4145V0.417188Z" fill="black"/>
</svg>
