<svg width="54" height="63" viewBox="0 0 54 63" fill="none" xmlns="http://www.w3.org/2000/svg">
<g id="loupe-seo-and-web-svgrepo-com 1" clip-path="url(#clip0_369_903)">
<g id="Group">
<g id="Group_2">
<path id="Vector" d="M38.4463 24.595H15.2122C14.712 24.595 14.3066 25.0662 14.3066 25.6475C14.3066 26.2287 14.7121 26.6999 15.2122 26.6999H38.4462C38.9464 26.6999 39.3517 26.2286 39.3517 25.6475C39.3517 25.0664 38.9465 24.595 38.4463 24.595Z" fill="black"/>
</g>
</g>
<g id="Group_3">
<g id="Group_4">
<path id="Vector_2" d="M38.4463 31.5327H15.2122C14.712 31.5327 14.3066 32.004 14.3066 32.5851C14.3066 33.1662 14.7121 33.6376 15.2122 33.6376H38.4462C38.9464 33.6376 39.3517 33.1663 39.3517 32.5851C39.3517 32.0039 38.9465 31.5327 38.4463 31.5327Z" fill="black"/>
</g>
</g>
<g id="Group_5">
<g id="Group_6">
<path id="Vector_3" d="M38.4463 38.4702H15.2122C14.712 38.4702 14.3066 38.9415 14.3066 39.5227C14.3066 40.104 14.7121 40.5752 15.2122 40.5752H38.4462C38.9464 40.5752 39.3517 40.104 39.3517 39.5227C39.3517 38.9415 38.9465 38.4702 38.4463 38.4702Z" fill="black"/>
</g>
</g>
<g id="Group_7">
<g id="Group_8">
<path id="Vector_4" d="M38.4457 54.7493H27.2855C26.7853 54.7493 26.3799 55.2205 26.3799 55.8017C26.3799 56.3828 26.7851 56.8542 27.2855 56.8542H38.4457C38.9459 56.8542 39.3513 56.3829 39.3513 55.8017C39.3513 55.2204 38.9457 54.7493 38.4457 54.7493Z" fill="black"/>
</g>
</g>
<g id="Group_9">
<g id="Group_10">
<path id="Vector_5" d="M45.3619 49.6996C44.8616 49.6996 44.4564 50.1708 44.4564 50.7521V60.2589H9.20179V2.10489H12.7441C13.2443 2.10489 13.6495 1.63363 13.6495 1.05251C13.6495 0.47126 13.2443 0 12.7441 0H8.29621C7.796 0 7.39062 0.47126 7.39062 1.05251V61.3112C7.39062 61.8925 7.79589 62.3636 8.29621 62.3636H45.3619C45.8621 62.3636 46.2673 61.8924 46.2673 61.3112V50.7521C46.2673 50.1707 45.8621 49.6996 45.3619 49.6996Z" fill="black"/>
</g>
</g>
<g id="Group_11">
<g id="Group_12">
<path id="Vector_6" d="M46.0025 9.12129L38.4197 0.308286C38.2498 0.110842 38.0195 0 37.7793 0H16.3664C15.8662 0 15.4609 0.47126 15.4609 1.05251C15.4609 1.63376 15.8662 2.10489 16.3664 2.10489H28.5621V17.0214C28.5621 17.6026 28.9674 18.0739 29.4677 18.0739H44.4567V46.5423C44.4567 47.1235 44.862 47.5947 45.3622 47.5947C45.8624 47.5947 46.2678 47.1234 46.2678 46.5423V9.86551C46.2677 9.58634 46.1723 9.31861 46.0025 9.12129ZM44.4565 15.969H30.3732V2.10489H37.4042L44.4565 10.3013V15.969Z" fill="black"/>
</g>
</g>
</g>
<defs>
<clipPath id="clip0_369_903">
<rect width="53.658" height="62.3636" fill="white"/>
</clipPath>
</defs>
</svg>
