<svg width="1749" height="428" viewBox="0 0 1749 428" fill="none" xmlns="http://www.w3.org/2000/svg">
<path d="M541.737 86.3801C548.937 86.3801 555.27 86.1801 560.737 85.7801C560.737 89.1134 560.404 91.9801 559.737 94.3801C556.67 94.3801 554.27 95.2467 552.537 96.9801C550.937 98.7134 549.737 101.647 548.937 105.78C548.27 109.78 547.937 115.447 547.937 122.78V221.58C545.804 222.38 542.937 222.78 539.337 222.78L456.737 114.98V184.18C456.737 191.913 457.137 197.847 457.937 201.98C458.737 206.113 460.137 209.113 462.137 210.98C464.137 212.713 466.937 213.58 470.537 213.58C471.204 215.58 471.537 218.447 471.537 222.18C465.537 221.78 458.937 221.58 451.737 221.58C443.47 221.58 436.804 221.78 431.737 222.18C431.737 218.447 432.07 215.58 432.737 213.58C436.337 213.58 439.137 212.713 441.137 210.98C443.137 209.113 444.537 206.113 445.337 201.98C446.137 197.847 446.537 191.913 446.537 184.18V101.58L445.737 100.58C443.87 98.3134 442.07 96.7801 440.337 95.9801C438.737 95.1801 436.204 94.6467 432.737 94.3801C432.07 91.9801 431.737 89.1134 431.737 85.7801C435.737 86.1801 440.67 86.3801 446.537 86.3801C451.87 86.3801 456.337 86.1801 459.937 85.7801L537.737 188.98V122.78C537.737 115.313 537.337 109.58 536.537 105.58C535.737 101.58 534.337 98.7134 532.337 96.9801C530.337 95.2467 527.537 94.3801 523.937 94.3801C523.27 90.5134 522.937 87.6467 522.937 85.7801C528.67 86.1801 534.937 86.3801 541.737 86.3801ZM723.014 167.78C723.014 179.78 722.214 189.047 720.614 195.58C719.014 202.113 716.014 207.58 711.614 211.98C704.014 219.58 693.214 223.38 679.214 223.38C661.347 223.38 648.68 219.447 641.214 211.58C633.88 203.713 630.214 191.647 630.214 175.38V111.78C630.214 106.98 629.88 103.447 629.214 101.18C628.68 98.9134 627.614 97.3134 626.014 96.3801C624.414 95.4467 621.88 94.7801 618.414 94.3801C617.747 91.9801 617.414 89.1134 617.414 85.7801C622.747 86.1801 630.48 86.3801 640.614 86.3801C650.08 86.3801 657.814 86.1801 663.814 85.7801C663.814 89.1134 663.48 91.9801 662.814 94.3801C658.547 94.7801 655.48 95.4467 653.614 96.3801C651.88 97.1801 650.68 98.7134 650.014 100.98C649.347 103.113 649.014 106.713 649.014 111.78V172.58C649.014 185.113 651.547 194.98 656.614 202.18C661.814 209.247 670.614 212.78 683.014 212.78C686.747 212.78 690.547 212.18 694.414 210.98C698.414 209.647 701.68 207.713 704.214 205.18C707.414 201.98 709.614 197.847 710.814 192.78C712.147 187.58 712.814 179.78 712.814 169.38V119.78C712.814 112.98 712.48 107.913 711.814 104.58C711.147 101.247 709.814 98.8467 707.814 97.3801C705.947 95.7801 703.014 94.7801 699.014 94.3801C698.347 91.0467 698.014 88.1801 698.014 85.7801C702.547 86.1801 708.814 86.3801 716.814 86.3801C724.28 86.3801 730.614 86.1801 735.814 85.7801C735.814 87.7801 735.48 90.6467 734.814 94.3801C731.614 94.7801 729.147 95.7134 727.414 97.1801C725.814 98.6467 724.68 101.18 724.014 104.78C723.347 108.247 723.014 113.247 723.014 119.78V167.78ZM854.614 223.38C842.347 223.38 831.347 220.447 821.614 214.58C812.014 208.58 804.48 200.247 799.014 189.58C793.68 178.913 791.014 166.713 791.014 152.98C791.014 138.313 794.08 125.847 800.214 115.58C806.48 105.313 814.68 97.5801 824.814 92.3801C835.08 87.1801 846.08 84.5801 857.814 84.5801C865.947 84.5801 873.48 85.4467 880.414 87.1801C887.347 88.7801 894.614 91.3801 902.214 94.9801C900.747 101.913 900.014 112.247 900.014 125.98C897.08 127.18 893.547 127.78 889.414 127.78C888.88 114.447 886.147 105.313 881.214 100.38C876.28 95.3134 869.014 92.7801 859.414 92.7801C848.614 92.7801 839.68 95.3134 832.614 100.38C825.547 105.447 820.347 112.113 817.014 120.38C813.68 128.647 812.014 137.713 812.014 147.58C812.014 159.58 814.014 170.447 818.014 180.18C822.147 189.78 828.08 197.38 835.814 202.98C843.547 208.447 852.614 211.18 863.014 211.18C869.28 211.18 875.747 210.113 882.414 207.98C889.08 205.847 895.28 202.98 901.014 199.38C901.814 200.047 902.547 201.047 903.214 202.38C904.014 203.58 904.48 204.647 904.614 205.58C896.48 211.847 888.547 216.38 880.814 219.18C873.214 221.98 864.48 223.38 854.614 223.38ZM1018.92 212.58C1026.25 212.58 1032.05 211.78 1036.32 210.18C1040.58 208.58 1043.98 206.047 1046.52 202.58C1049.05 199.113 1051.52 194.047 1053.92 187.38C1057.78 188.58 1060.72 190.18 1062.72 192.18C1060.18 200.047 1058.12 209.98 1056.52 221.98C1046.12 221.713 1033.18 221.58 1017.72 221.58C993.183 221.58 975.917 221.78 965.917 222.18C965.917 218.313 966.25 215.447 966.917 213.58C970.65 213.313 973.45 212.647 975.317 211.58C977.317 210.513 978.717 208.647 979.517 205.98C980.45 203.18 980.917 199.18 980.917 193.98V111.78C980.917 105.113 979.917 100.647 977.917 98.3801C976.05 95.9801 972.45 94.6467 967.117 94.3801C966.45 92.5134 966.117 89.6467 966.117 85.7801C973.85 86.1801 981.917 86.3801 990.317 86.3801C998.45 86.3801 1006.52 86.1801 1014.52 85.7801C1014.52 89.6467 1014.18 92.5134 1013.52 94.3801C1009.78 94.6467 1006.92 95.3134 1004.92 96.3801C1003.05 97.3134 1001.72 99.0467 1000.92 101.58C1000.12 104.113 999.717 107.713 999.717 112.38V193.98C999.717 199.18 1000.18 203.047 1001.12 205.58C1002.05 208.113 1003.78 209.913 1006.32 210.98C1008.85 212.047 1012.65 212.58 1017.72 212.58H1018.92ZM1209.87 187.38C1213.74 188.58 1216.67 190.18 1218.67 192.18C1216.14 200.047 1214.07 209.98 1212.47 221.98C1202.07 221.713 1187.8 221.58 1169.67 221.58C1145.14 221.58 1127.87 221.78 1117.87 222.18C1117.87 218.313 1118.2 215.447 1118.87 213.58C1122.6 213.313 1125.4 212.647 1127.27 211.58C1129.27 210.513 1130.67 208.647 1131.47 205.98C1132.27 203.313 1132.67 199.313 1132.67 193.98V111.78C1132.67 105.113 1131.67 100.647 1129.67 98.3801C1127.8 95.9801 1124.2 94.6467 1118.87 94.3801C1118.2 92.5134 1117.87 89.6467 1117.87 85.7801C1125.74 86.1801 1136.94 86.3801 1151.47 86.3801C1175.74 86.3801 1194.47 86.1801 1207.67 85.7801C1209 100.447 1210.4 110.98 1211.87 117.38C1209.87 118.98 1206.87 119.78 1202.87 119.78C1202.2 112.313 1199.47 106.247 1194.67 101.58C1190 96.7801 1181.8 94.3801 1170.07 94.3801H1151.47V149.18H1164.07C1172.47 149.18 1178.2 148.113 1181.27 145.98C1184.47 143.713 1186.14 139.38 1186.27 132.98C1189.47 132.047 1192.67 131.58 1195.87 131.58C1195.6 136.113 1195.47 143.38 1195.47 153.38C1195.47 164.313 1195.6 172.047 1195.87 176.58C1192.27 176.58 1189.2 176.247 1186.67 175.58C1186.14 168.647 1184.27 163.98 1181.07 161.58C1178 159.047 1172.34 157.78 1164.07 157.78H1151.47V193.98C1151.47 199.047 1151.94 202.913 1152.87 205.58C1153.8 208.113 1155.54 209.913 1158.07 210.98C1160.74 212.047 1164.6 212.58 1169.67 212.58H1170.87C1180.07 212.58 1187.14 211.647 1192.07 209.78C1197 207.913 1200.6 205.313 1202.87 201.98C1205.27 198.647 1207.6 193.78 1209.87 187.38ZM1380.83 167.78C1380.83 179.78 1380.03 189.047 1378.43 195.58C1376.83 202.113 1373.83 207.58 1369.43 211.98C1361.83 219.58 1351.03 223.38 1337.03 223.38C1319.16 223.38 1306.49 219.447 1299.03 211.58C1291.69 203.713 1288.03 191.647 1288.03 175.38V111.78C1288.03 106.98 1287.69 103.447 1287.03 101.18C1286.49 98.9134 1285.43 97.3134 1283.83 96.3801C1282.23 95.4467 1279.69 94.7801 1276.23 94.3801C1275.56 91.9801 1275.23 89.1134 1275.23 85.7801C1280.56 86.1801 1288.29 86.3801 1298.43 86.3801C1307.89 86.3801 1315.63 86.1801 1321.63 85.7801C1321.63 89.1134 1321.29 91.9801 1320.63 94.3801C1316.36 94.7801 1313.29 95.4467 1311.43 96.3801C1309.69 97.1801 1308.49 98.7134 1307.83 100.98C1307.16 103.113 1306.83 106.713 1306.83 111.78V172.58C1306.83 185.113 1309.36 194.98 1314.43 202.18C1319.63 209.247 1328.43 212.78 1340.83 212.78C1344.56 212.78 1348.36 212.18 1352.23 210.98C1356.23 209.647 1359.49 207.713 1362.03 205.18C1365.23 201.98 1367.43 197.847 1368.63 192.78C1369.96 187.58 1370.63 179.78 1370.63 169.38V119.78C1370.63 112.98 1370.29 107.913 1369.63 104.58C1368.96 101.247 1367.63 98.8467 1365.63 97.3801C1363.76 95.7801 1360.83 94.7801 1356.83 94.3801C1356.16 91.0467 1355.83 88.1801 1355.83 85.7801C1360.36 86.1801 1366.63 86.3801 1374.63 86.3801C1382.09 86.3801 1388.43 86.1801 1393.63 85.7801C1393.63 87.7801 1393.29 90.6467 1392.63 94.3801C1389.43 94.7801 1386.96 95.7134 1385.23 97.1801C1383.63 98.6467 1382.49 101.18 1381.83 104.78C1381.16 108.247 1380.83 113.247 1380.83 119.78V167.78ZM1496.03 223.38C1488.29 223.38 1481.36 222.38 1475.23 220.38C1469.09 218.247 1462.49 214.98 1455.43 210.58C1456.63 203.113 1457.23 193.647 1457.23 182.18C1460.29 181.38 1463.89 180.98 1468.03 180.98C1468.56 191.647 1471.23 199.78 1476.03 205.38C1480.96 210.98 1488.56 213.78 1498.83 213.78C1507.49 213.78 1513.89 211.913 1518.03 208.18C1522.29 204.313 1524.43 199.247 1524.43 192.98C1524.43 187.78 1523.09 183.38 1520.43 179.78C1517.76 176.18 1514.49 173.247 1510.63 170.98C1506.76 168.58 1501.36 165.78 1494.43 162.58C1486.43 158.713 1480.03 155.247 1475.23 152.18C1470.43 149.113 1466.29 145.047 1462.83 139.98C1459.49 134.78 1457.83 128.313 1457.83 120.58C1457.83 109.38 1461.43 100.58 1468.63 94.1801C1475.83 87.7801 1485.63 84.5801 1498.03 84.5801C1504.56 84.5801 1510.83 85.4467 1516.83 87.1801C1522.83 88.7801 1527.69 90.8467 1531.43 93.3801C1531.43 105.247 1531.83 114.047 1532.63 119.78C1529.69 120.98 1525.96 121.58 1521.43 121.58C1519.56 110.647 1516.76 103.247 1513.03 99.3801C1509.29 95.3801 1504.23 93.3801 1497.83 93.3801C1490.76 93.3801 1485.23 95.1134 1481.23 98.5801C1477.23 102.047 1475.23 106.913 1475.23 113.18C1475.23 118.38 1476.56 122.847 1479.23 126.58C1482.03 130.313 1485.36 133.38 1489.23 135.78C1493.23 138.18 1498.69 141.113 1505.63 144.58C1513.49 148.313 1519.76 151.713 1524.43 154.78C1529.23 157.847 1533.29 161.847 1536.63 166.78C1539.96 171.713 1541.63 177.78 1541.63 184.98C1541.63 191.913 1539.96 198.313 1536.63 204.18C1533.43 209.913 1528.36 214.58 1521.43 218.18C1514.63 221.647 1506.16 223.38 1496.03 223.38Z" fill="#152522"/>
<path d="M101.974 0.800539C82.1122 5.13404 71.5995 28.1524 73.8331 62.2319C74.5152 72.1027 74.4082 71.1397 76.4546 83.7523C77.3106 88.8348 77.8857 93.1148 77.7654 93.2352C77.6584 93.409 74.1675 94.265 70.1149 95.228C43.1107 101.447 23.2355 110.81 11.305 122.914C3.25323 131.02 -0.117268 138.563 0.00310707 148.086C0.0566071 153.449 1.83548 159.334 5.08561 164.992C7.88098 169.847 17.8721 179.718 24.4392 184.172C38.2021 193.427 42.4286 194.738 46.187 190.966C47.792 189.375 48.1263 188.572 48.1263 186.686C48.1263 183.035 46.8691 181.269 42.5891 178.915C23.7437 168.47 13.873 157.622 13.873 147.23C13.873 143.458 15.1837 140.034 18.3269 135.928C26.606 124.907 46.5882 115.036 73.365 108.697C80.4404 107.038 81.818 106.931 81.818 108.122C81.818 109.66 87.5291 127.93 91.1805 137.921L94.8319 147.966L90.3245 156.593C87.8635 161.327 84.3325 168.523 82.5001 172.643C56.2985 230.369 51.9516 276.205 70.904 295.051C75.3579 299.504 79.0092 301.564 85.0012 303.102C98.8176 306.647 117.088 301.337 137.578 287.801C144.721 283.067 146.312 281.288 146.312 278.158C146.312 274.386 142.206 270.735 138.541 271.31C137.511 271.484 133.512 273.704 129.687 276.219C121.234 281.863 111.765 286.557 104.903 288.604C97.8813 290.664 90.2844 290.771 85.9509 288.885C72.6427 283 69.5665 259.259 77.8456 226.316C81.7244 210.668 90.6321 187.154 98.6839 171.104L101.88 164.658L103.646 168.657C106.963 176.307 119.856 201.252 124.885 209.758C152.692 257.025 184.03 291.68 211.836 305.844C231.538 315.889 247.802 314.979 258.876 303.156C267.035 294.529 271.034 281.97 271.716 263.138C272.8 230.703 262.233 188.519 241.569 143.298C238.827 137.239 236.085 131.769 235.577 131.193C234.32 129.829 231.123 128.906 228.956 129.361C226.79 129.816 224.155 132.451 223.767 134.671C223.312 136.784 223.82 138.215 228.903 149.223C243.067 179.771 252.991 211.858 256.816 239.424C258.074 248.506 258.301 268.194 257.164 274.252C256.027 280.365 253.794 286.705 251.4 290.356C247.574 296.241 243.174 298.635 235.925 298.582C214.404 298.528 180.485 268.956 150.338 224.069C136.468 203.338 123.682 179.932 113.798 157.047L110.253 148.889L115.215 140.502C121.609 129.655 128.35 119.383 135.88 108.817L141.872 100.431H151.127C214.618 100.431 277.641 114.822 309.848 136.57C317.218 141.532 324.293 148.795 326.754 153.811C328.466 157.355 328.694 158.318 328.694 162.371C328.64 166.196 328.413 167.4 327.102 169.901C323.17 177.551 313.165 185.148 299.295 191.194C292.782 193.989 290.735 195.928 290.735 199.245C290.735 202.322 291.993 204.555 294.387 205.692C297.008 206.949 297.931 206.829 302.158 205.117C322.086 197.065 336.465 185.188 340.985 173.084C349.318 150.815 331.85 128.318 293.317 111.532C259.639 96.8063 210.138 87.6043 158.631 86.5209L152.973 86.4005L159.42 78.9774C166.843 70.3505 183.227 53.9662 190.249 48.0945C206.914 34.0508 221.827 25.143 234.667 21.4917C241.007 19.6593 248.832 19.7262 252.884 21.5452C258.368 24.0062 262.193 29.5434 264.306 38.1034C265.617 43.2929 265.617 59.169 264.306 66.8196C262.822 75.2726 262.996 76.7572 265.283 79.0309C266.941 80.6894 267.623 80.9703 270.018 80.9703C275.1 80.9703 276.411 79.0844 277.949 69.8423C278.751 65.1075 279.032 60.5868 279.032 51.2912C279.032 40.444 278.858 38.3843 277.722 33.8769C274.124 19.6593 265.336 9.84204 253.566 7.04666C226.281 0.653414 184.538 26.9085 143.035 76.7037C139.611 80.7563 136.415 84.7554 135.893 85.4375C135.037 86.6948 134.462 86.8018 126.183 87.3234C121.381 87.6043 112.594 88.4068 106.602 89.0889C90.7257 90.9213 91.983 91.0818 91.0735 86.9757C88.6794 75.4999 87.8769 67.4482 87.8234 55.0094C87.7699 41.5408 88.2246 37.5417 90.6722 30.065C93.2937 22.1337 97.7476 16.7569 103.405 14.8844C106.147 13.908 112.888 14.0284 116.874 15.0583C123.548 16.8238 132.977 21.8528 141.537 28.2995C146.62 32.1248 148.385 32.8069 151.074 31.8974C154.15 30.921 155.982 28.353 155.982 25.1564C155.982 22.7623 155.755 22.3075 153.24 19.9C149.696 16.476 139.424 9.62804 133.205 6.53841C121.448 0.653412 111.163 -1.23246 101.921 0.773791L101.974 0.800539ZM123.387 101.969C123.334 102.25 119.616 107.854 115.229 114.475C110.842 121.095 106.495 127.783 105.585 129.321L103.927 132.116L102.563 128.411C100.851 123.904 95.5407 106.436 95.5407 105.34C95.5407 104.31 98.0552 103.908 116.66 101.969C120.539 101.568 123.628 101.568 123.401 101.969H123.387ZM166.843 137.252C162.79 138.563 158.845 141.479 156.504 144.956C149.482 155.295 152.906 168.764 163.927 174.181C167.351 175.893 168.207 176.067 172.888 176.067C177.57 176.067 178.426 175.893 181.85 174.181C196.749 166.878 196.415 145.184 181.274 138.215C177.275 136.383 170.829 135.995 166.829 137.239L166.843 137.252Z" fill="#395143"/>
</svg>
