<svg width="52" height="47" viewBox="0 0 52 47" fill="none" xmlns="http://www.w3.org/2000/svg">
<path fill-rule="evenodd" clip-rule="evenodd" d="M11.2928 4.7248C7.3492 6.62063 4.46016 11.1299 4.46016 16.5071C4.46016 22.0006 6.59769 26.2348 9.66192 29.8638C12.1874 32.8546 15.2446 35.3333 18.2262 37.7508C18.9343 38.3251 19.6382 38.8958 20.3297 39.4691C21.5801 40.5058 22.6955 41.4156 23.7707 42.0763C24.8463 42.7376 25.7123 43.0393 26.4482 43.0393C27.1842 43.0393 28.0501 42.7376 29.1258 42.0763C30.2009 41.4156 31.3163 40.5058 32.5668 39.4691C33.2583 38.8958 33.9622 38.3251 34.6703 37.7508C37.6519 35.3333 40.7091 32.8546 43.2345 29.8638C46.2988 26.2348 48.4363 22.0006 48.4363 16.5071C48.4363 11.1299 45.5472 6.62063 41.6036 4.7248C37.7724 2.88303 32.6246 3.37078 27.7328 8.71618C27.3967 9.0834 26.9329 9.2909 26.4482 9.2909C25.9635 9.2909 25.4998 9.0834 25.1636 8.71618C20.2717 3.37078 15.1239 2.88303 11.2928 4.7248ZM26.4482 4.81138C20.9523 -0.36007 14.798 -1.0835 9.81042 1.31423C4.54267 3.84663 0.894531 9.7269 0.894531 16.5071C0.894531 23.1708 3.53429 28.2546 6.99585 32.3538C9.76789 35.6366 13.1608 38.3843 16.1574 40.8108C16.8367 41.3608 17.4956 41.8946 18.1223 42.4141C19.3399 43.4236 20.647 44.5001 21.9717 45.3141C23.296 46.1278 24.8071 46.7893 26.4482 46.7893C28.0894 46.7893 29.6005 46.1278 30.9248 45.3141C32.2495 44.5001 33.5564 43.4236 34.7742 42.4141C35.4008 41.8946 36.0597 41.3608 36.7391 40.8108C39.7357 38.3843 43.1285 35.6366 45.9006 32.3538C49.3622 28.2546 52.0019 23.1708 52.0019 16.5071C52.0019 9.7269 48.3538 3.84663 43.0859 1.31423C38.0983 -1.0835 31.9443 -0.36007 26.4482 4.81138Z" fill="#152522"/>
</svg>
