<svg width="52" height="47" viewBox="0 0 52 47" fill="none" xmlns="http://www.w3.org/2000/svg">
<path d="M28.4148 42.4499C28.5183 42.391 28.7312 42.2623 28.7312 42.2623C28.7312 42.2623 30.9217 40.6918 32.1723 39.6551C32.8618 39.0835 33.5636 38.5144 34.2697 37.9418L34.2707 37.941L34.2758 37.9368C37.2574 35.5193 40.3146 33.0406 42.84 30.0498C45.9043 26.4208 48.0417 22.1866 48.0417 16.6931C48.0417 11.3159 45.1526 6.80666 41.209 4.91084C37.3779 3.06906 32.2301 3.55681 27.3383 8.90221L40 6.5L44 13L42.84 14.2712C48.0942 19.6629 33.3398 38.2265 28.4148 42.4499Z" fill="#152522"/>
<path d="M27.3383 8.90221C27.0021 9.26944 26.5384 9.47694 26.0537 9.47694C25.569 9.47694 31.6854 12.0249 35.5 13C38.3185 13.7205 41.6124 13.0115 42.84 14.2712L44 13L40 6.5L27.3383 8.90221Z" fill="#152522"/>
<path fill-rule="evenodd" clip-rule="evenodd" d="M26.0537 4.99741C20.5577 -0.174035 14.4035 -0.897461 9.41588 1.50026C4.14814 4.03266 0.5 9.91294 0.5 16.6931C0.5 23.3568 3.13976 28.4406 6.60132 32.5398C9.37336 35.8226 12.7663 38.5703 15.7629 40.9968C16.4422 41.5468 17.1011 42.0806 17.7278 42.6001C18.9454 43.6096 20.2525 44.6861 21.5772 45.5001C22.9014 46.3138 24.4125 46.9753 26.0537 46.9753C27.6948 46.9753 29.2059 46.3138 30.5302 45.5001C31.855 44.6861 33.1619 43.6096 34.3797 42.6001C35.0063 42.0806 35.6652 41.5468 36.3446 40.9968C39.3411 38.5703 42.7339 35.8226 45.5061 32.5398C48.9676 28.4406 51.6074 23.3568 51.6074 16.6931C51.6074 9.91294 47.9593 4.03266 42.6914 1.50026C37.7038 -0.897461 31.5498 -0.174035 26.0537 4.99741Z" fill="#152522"/>
</svg>
