<svg width="934" height="667" viewBox="0 0 934 667" fill="none" xmlns="http://www.w3.org/2000/svg">
<mask id="mask0_1361_10" style="mask-type:luminance" maskUnits="userSpaceOnUse" x="0" y="-1" width="934" height="668">
<path d="M0 -0.000123024H933.333V666.667H0V-0.000123024Z" fill="white"/>
</mask>
<g mask="url(#mask0_1361_10)">
<path d="M695.697 294.37C695.697 416.546 556.755 515.59 385.359 515.59C213.964 515.59 75.0215 416.546 75.0215 294.37C75.0215 172.194 213.964 73.1496 385.359 73.1496C556.755 73.1496 695.697 172.194 695.697 294.37Z" fill="#F5F5FF"/>
</g>
<mask id="mask1_1361_10" style="mask-type:luminance" maskUnits="userSpaceOnUse" x="0" y="-1" width="934" height="668">
<path d="M0 -0.000123024H933.333V666.667H0V-0.000123024Z" fill="white"/>
</mask>
<g mask="url(#mask1_1361_10)">
<path d="M862.046 586.278C862.046 597.133 798.619 605.933 720.378 605.933C642.137 605.933 578.71 597.133 578.71 586.278C578.71 575.424 642.137 566.624 720.378 566.624C798.619 566.624 862.046 575.424 862.046 586.278Z" fill="#DFDFEB"/>
<path d="M679.371 595.762C679.371 607.8 564.787 617.557 423.44 617.557C282.094 617.557 167.51 607.8 167.51 595.762C167.51 583.725 282.094 573.968 423.44 573.968C564.787 573.968 679.371 583.725 679.371 595.762Z" fill="#DFDFEB"/>
<path d="M472.371 209.466C472.371 209.466 467.635 236.955 433.125 272.338C433.125 272.338 429.312 267.618 435.911 248.063C442.508 228.507 470.403 202.807 472.371 209.466Z" fill="#395143"/>
<path d="M472.371 209.466C472.371 209.466 441.317 231.678 433.125 272.338C433.125 272.338 431.537 286.283 436.316 298.365" stroke="black" stroke-width="1.33333" stroke-miterlimit="10" stroke-linecap="round"/>
<path d="M388.904 231.672C388.904 231.672 397.616 225.071 382.628 208.584C368.391 192.921 353.318 178.877 323.856 173.73C323.856 173.73 332.748 213.637 351.946 223.149C371.143 232.661 388.904 231.672 388.904 231.672Z" fill="#395143"/>
<path d="M317.395 261.014C317.395 261.014 348.132 267.72 400.264 250.322C400.264 250.322 397.032 244.933 373.737 243.121C350.443 241.308 311.327 256.537 317.395 261.014Z" fill="#395143"/>
<path d="M317.396 261.014C317.396 261.014 354.274 241.492 400.265 250.322C400.265 250.322 404.996 251.506 409.813 257.941" stroke="black" stroke-width="1.33333" stroke-miterlimit="10" stroke-linecap="round"/>
<path d="M342.872 288.863C342.872 288.863 375.766 310.515 427.896 293.119C427.896 293.119 417.759 274.778 394.464 272.966C371.17 271.153 336.806 284.385 342.872 288.863Z" fill="#395143"/>
<path d="M342.872 288.863C342.872 288.863 378.325 272.32 427.896 293.119C427.896 293.119 433.727 295.714 438.543 302.148" stroke="black" stroke-width="1.33333" stroke-miterlimit="10" stroke-linecap="round"/>
<path d="M454.211 183.437C454.211 183.437 463.919 182.274 440.23 204.187C417.861 224.881 420.705 225.042 420.705 225.042C420.705 225.042 429.191 194.078 454.211 183.437Z" fill="black"/>
<path d="M404.432 235.524C404.432 235.524 411.681 238.32 424.76 226.318C437.837 214.316 442.712 187.57 454.212 183.437C454.212 183.437 425.361 192.757 404.432 235.524Z" fill="#395143"/>
<path d="M451.979 327.42C437.229 297.708 416.75 263.954 388.903 231.672C388.903 231.672 382.063 222.712 358.295 199.487C334.529 176.263 323.855 173.731 323.855 173.731" stroke="black" stroke-width="1.33333" stroke-miterlimit="10" stroke-linecap="round"/>
<path d="M450.803 184.861C450.803 184.861 423.35 196.841 404.431 235.524C399.847 244.894 405.331 252.312 409.811 257.941" stroke="black" stroke-width="1.33333" stroke-miterlimit="10" stroke-linecap="round"/>
<path d="M701.146 505.538C701.146 505.538 678.201 522.47 625.33 510.043C625.33 510.043 625.47 501.563 644.445 493.407C663.419 485.25 704.145 497.684 701.146 505.538Z" fill="#395143"/>
<path d="M699.506 503.993C699.506 503.993 663.295 491.892 625.567 509.125C625.567 509.125 613.346 516.027 606.37 526.987" stroke="black" stroke-width="1.33333" stroke-miterlimit="10" stroke-linecap="round"/>
<path d="M624.64 468.287C624.64 468.287 635.099 471.464 639.648 449.654C643.972 428.934 646.493 408.487 633.365 381.614C633.365 381.614 606.277 412.236 609.845 433.362C613.413 454.488 624.64 468.287 624.64 468.287Z" fill="#395143"/>
<path d="M702.41 476.463C702.41 476.463 710.479 481.981 678.221 482.865C647.761 483.7 649.794 485.695 649.794 485.695C649.794 485.695 676.575 467.988 702.41 476.463Z" fill="black"/>
<path d="M630.646 482.862C630.646 482.862 634.259 489.742 652.004 489.326C669.748 488.91 691.035 471.998 702.41 476.462C702.41 476.462 674.564 464.47 630.646 482.862Z" fill="#395143"/>
<path d="M584.147 575.556C599.545 546.173 614.85 509.78 624.639 468.287C624.639 468.287 627.878 457.489 632.729 424.615C637.581 391.74 633.366 381.613 633.366 381.613" stroke="black" stroke-width="1.33333" stroke-miterlimit="10" stroke-linecap="round"/>
<path d="M698.908 475.29C698.908 475.29 670.361 466.219 630.645 482.862C621.024 486.894 618.293 493.26 614.228 505.064" stroke="black" stroke-width="1.33333" stroke-miterlimit="10" stroke-linecap="round"/>
<path d="M335.482 309.775C328.056 309.775 320.866 307.169 315.164 302.411L299.344 289.209C293.65 284.459 286.888 281.913 279.96 281.913H201.442C194.317 281.913 188.541 287.689 188.541 294.815V309.775V579.065C188.541 591.36 198.509 601.328 210.804 601.328H602.205C611.768 601.328 619.52 593.575 619.52 584.012V327.091C619.52 317.527 611.768 309.775 602.205 309.775H335.482Z" fill="#263238"/>
<path d="M619.519 585.463C619.519 585.463 592.881 535.497 590.217 529.759L517.419 381.449C515.589 377.509 511.639 374.988 507.293 374.988H236.768C226.933 374.988 212.709 369.832 205.159 363.532L194.241 354.423C188.549 349.672 181.785 347.127 174.857 347.127H100.136C92.1827 347.127 86.78 355.207 89.82 362.556L180.173 581.088C185.239 593.339 197.187 601.328 210.443 601.328H614.633C617.268 601.328 619.701 599.071 619.7 596.436L619.519 585.463Z" fill="#6E9E7C"/>
<path d="M509.482 389.09L616.306 596.745" stroke="black" stroke-width="1.33333" stroke-miterlimit="10" stroke-linejoin="round"/>
<path d="M465.466 424.875H373.449C370.94 424.875 368.604 423.612 367.257 421.528C364.148 416.716 367.657 410.42 373.449 410.42H465.466C467.976 410.42 470.31 411.683 471.658 413.767C474.766 418.579 471.257 424.875 465.466 424.875Z" stroke="black" stroke-width="1.33333" stroke-miterlimit="10" stroke-linejoin="round"/>
<path d="M293.336 496.245L364.981 538.929" stroke="black" stroke-width="1.33333" stroke-miterlimit="10" stroke-linecap="round" stroke-linejoin="round"/>
<path d="M351.913 494.188L306.895 539.187" stroke="black" stroke-width="1.33333" stroke-miterlimit="10" stroke-linecap="round" stroke-linejoin="round"/>
<path d="M351.539 482.745C377.864 495.755 388.787 521.747 375.936 540.8C363.084 559.853 331.325 564.752 305 551.741C278.674 538.732 267.752 512.74 280.604 493.687C293.454 474.635 325.213 469.736 351.539 482.745Z" stroke="black" stroke-width="1.33333" stroke-miterlimit="10" stroke-linecap="round" stroke-linejoin="round"/>
<path d="M699.169 309.915C700.888 302.488 692.985 293.229 685.504 294.689C679.413 295.877 676.381 297.337 675.402 297.66C673.49 298.291 659.212 297.363 657.577 299.74C656.393 301.461 663.842 303.452 668.606 303.925C669.588 304.023 669.877 305.305 669.038 305.824C664.357 308.727 655.038 314.627 654.245 316.084C653.182 318.039 648.341 325.633 649.705 326.477C651.069 327.32 655.194 323.527 657.874 320.832C660.556 318.139 668.389 315.849 668.389 315.849C668.389 315.849 654.768 329.52 652.973 333.309C650.3 338.955 658.056 336.479 658.056 336.479C656.842 339.668 663.204 338.969 664.708 337.767C667.678 335.389 676.861 324.308 676.888 325.437C676.916 326.567 667.401 338.639 668.365 341.46C669.329 344.28 673.176 340.741 675.402 337.767C677.629 334.791 684.166 326.477 684.166 326.477C684.166 326.477 691.593 321.055 697.793 311.692C697.844 311.616 699.149 310.003 699.169 309.915Z" fill="#DB9C7F"/>
<path d="M658.396 336.172L671.392 320.684" stroke="black" stroke-width="1.33333" stroke-miterlimit="10" stroke-linecap="round"/>
<path d="M601.472 265.983L648.221 236.816C648.511 236.627 648.787 236.417 649.047 236.189L664.464 220.327C667.819 217.387 672.996 218.071 675.471 221.784L683.027 233.117C684.627 235.517 684.683 238.629 683.169 241.085L672.319 258.689C671.52 259.985 670.351 260.997 668.952 261.597C660.223 265.336 626.871 279.421 606.977 285.041C602.036 286.437 597.235 282.416 597.668 277.3L598.156 271.539C598.347 269.275 599.571 267.225 601.472 265.983Z" fill="#FFD700"/>
<path d="M709.139 557.414L706.667 574.208C706.667 574.208 660.343 592.003 664.64 592.26C668.937 592.518 735.508 588.644 735.508 588.644L731.591 558.155L709.139 557.414Z" fill="black"/>
<path d="M722.043 285.635C722.043 285.635 725.735 321.165 728.503 323.011C731.272 324.856 734.963 325.779 734.963 325.779L728.964 285.173L722.043 285.635Z" stroke="#424242" stroke-width="1.33333" stroke-miterlimit="10"/>
<path d="M795.195 261.213C795.195 261.213 813.971 299.447 808.52 320.75L704.438 306.434L706.609 266.713L795.195 261.213Z" fill="black"/>
<path d="M798.053 268.958C798.053 268.958 783.341 296.202 755.189 298.381" stroke="#424242" stroke-width="1.33333" stroke-miterlimit="10" stroke-linecap="round"/>
<path d="M774.502 292.569C774.502 292.569 780.205 310.229 796.761 310.593" stroke="#424242" stroke-width="1.33333" stroke-miterlimit="10" stroke-linecap="round"/>
<path d="M704.437 306.434C704.437 306.434 676.552 405.71 675.829 437.67L696.204 560.794C696.204 560.794 715.64 570.458 735.882 562.648C736.713 562.328 725.621 498.79 724.84 433.368L783.032 311.61L704.437 306.434Z" fill="black"/>
<path d="M808.979 316.586L804.88 436.386L850.716 561.633C850.716 561.633 831.536 577.837 807.308 563.089L757.546 443.831L762.65 357.057L740.963 343.925L737.732 306.342L808.979 316.586Z" fill="black"/>
<path d="M728.432 294.69L750.528 311.338L782.204 275.974L705.26 286.966L724.088 311.931L728.432 294.69Z" fill="white"/>
<path d="M818.328 555.388L814.329 569.878C814.329 569.878 785.105 601.574 789.412 601.574C793.718 601.574 841.706 581.953 841.706 581.953L835.554 551.765L818.328 555.388Z" fill="black"/>
<path d="M791.455 278.16C791.455 278.16 804.095 309.229 794.988 439.565C794.988 439.565 826.912 509.825 843.466 565.397" stroke="#424242" stroke-width="1.33333" stroke-miterlimit="10" stroke-linecap="round"/>
<path d="M745.001 347.029L713.141 435.775L726.803 565.397" stroke="#424242" stroke-width="1.33333" stroke-miterlimit="10" stroke-linecap="round"/>
<path d="M606.048 283.504C606.048 283.504 606.667 286.612 599.786 288.985C592.904 291.358 588.855 290.605 588.855 290.605C588.855 290.605 573.418 272.397 572.732 271.754C572.047 271.11 573.214 264.109 577.78 261.305C580.554 259.602 591.308 262.378 599.331 264.821C604.923 266.525 608.374 272.125 607.434 277.894C607.064 280.162 606.603 282.265 606.048 283.504Z" fill="#DB9C7F"/>
<path d="M593.386 278.672C593.386 278.672 580.765 276.84 575.432 272.442C575.432 272.442 567.461 270.836 565.768 271.841C564.074 272.848 562.686 274.274 559.021 274.893C555.356 275.512 556.461 273.07 560.312 269.609C561.412 268.62 564.356 265.064 566.908 264.582C570.345 263.936 577.781 261.305 577.781 261.305L592.7 279.142" fill="#DB9C7F"/>
<path d="M588.855 290.605C588.855 290.605 583.738 293.815 581.938 293.727C580.138 293.641 578.438 292.567 577.998 289.61C577.998 289.61 568.467 291.359 571.487 284.147C571.487 284.147 565.73 283.214 565.577 279.455C565.577 279.455 560.463 276.909 561.581 272.823C562.699 268.738 578.743 269.109 578.743 269.109L595.766 277.751L588.855 290.605Z" fill="#DB9C7F"/>
<path d="M585.24 291.288C585.24 291.288 590.101 286.977 589.83 285.248C589.561 283.518 588.648 282.568 587.544 282.9C586.062 283.344 580.428 287.641 577.997 289.61" stroke="#1A1C30" stroke-width="1.04" stroke-miterlimit="10" stroke-linecap="round" stroke-linejoin="round"/>
<path d="M571.487 284.147C571.487 284.147 584.436 282.126 584.556 280.207C584.675 278.29 583.771 275.758 581.066 276.297C577.851 276.938 568.634 279.145 565.576 279.085" stroke="#1A1C30" stroke-width="1.04" stroke-miterlimit="10" stroke-linecap="round" stroke-linejoin="round"/>
<path d="M587.543 282.899C587.543 282.899 589.923 281.422 588.981 279.771C588.04 278.121 586.755 277.541 584 278.257" stroke="#1A1C30" stroke-width="1.04" stroke-miterlimit="10" stroke-linecap="round" stroke-linejoin="round"/>
<path d="M565.316 273.677C565.316 273.677 566.024 272.756 567.026 271.814" stroke="#1A1C30" stroke-width="1.04" stroke-miterlimit="10" stroke-linecap="round" stroke-linejoin="round"/>
<path d="M593.398 297.688L593.175 297.813C591.433 298.793 589.223 298.174 588.242 296.43L554.578 236.573L561.117 232.896L594.779 292.754C595.761 294.498 595.142 296.706 593.398 297.688Z" fill="#263238"/>
<path d="M571.219 246.194L574.044 251.218C574.811 252.58 574.464 254.228 573.269 254.9L567.165 258.334C565.971 259.004 564.381 258.444 563.616 257.082L560.668 251.84" fill="#263238"/>
<path d="M558.157 197.033C546.479 175.37 531.842 160.458 522.539 159.761L522.847 157.703L517.985 160.873C509.63 166.562 514.071 191.975 527.902 217.637C541.734 243.297 559.719 259.486 568.074 253.797L572.646 250.75L571.329 248.989C574.545 239.05 569.529 218.13 558.157 197.033Z" fill="#263238"/>
<path d="M563.019 193.864C576.851 219.524 581.291 244.938 572.936 250.628C564.582 256.317 546.596 240.128 532.764 214.468C518.934 188.806 514.492 163.393 522.847 157.704C531.202 152.014 549.187 168.204 563.019 193.864Z" fill="#6E9E7C"/>
<path d="M558.402 197.007C569.66 217.89 574.078 238.025 568.274 241.978C562.469 245.931 548.637 232.206 537.381 211.323C526.124 190.441 521.705 170.306 527.509 166.353C533.314 162.399 547.145 176.123 558.402 197.007Z" fill="#8E8E8E"/>
<path d="M593.386 278.672C593.386 278.672 580.765 276.84 575.432 272.442C575.432 272.442 567.461 270.836 565.768 271.841C564.074 272.848 562.686 274.274 559.021 274.893C555.356 275.512 556.461 273.07 560.312 269.609C561.412 268.62 564.356 265.064 566.908 264.582C570.345 263.936 577.781 261.305 577.781 261.305L592.7 279.142" fill="#DB9C7F"/>
<path d="M593.387 278.672C593.387 278.672 580.765 276.84 575.432 272.442C575.432 272.442 567.461 270.836 565.768 271.841C564.075 272.848 562.687 274.274 559.021 274.893" stroke="#1A1C30" stroke-width="1.04" stroke-miterlimit="10" stroke-linecap="round" stroke-linejoin="round"/>
<path d="M558.402 197.007C547.145 176.123 533.314 162.399 527.509 166.353C527.05 166.665 526.663 167.089 526.33 167.595C533.041 168.003 544.779 180.746 554.571 198.911C564.939 218.146 569.499 236.734 565.621 242.639C566.625 242.701 567.518 242.493 568.274 241.978C574.078 238.025 569.659 217.89 558.402 197.007Z" fill="#263238"/>
<path d="M550.565 188.823C556.553 199.932 558.904 210.643 555.816 212.746C552.728 214.848 545.371 207.548 539.383 196.439C533.395 185.33 531.044 174.619 534.132 172.516C537.22 170.414 544.577 177.714 550.565 188.823Z" fill="white"/>
<path d="M774.48 224.578L765.193 191.442C761.784 179.277 755.809 168.022 747.913 158.16C733.928 140.69 697.193 142.28 697.193 142.28L668.929 162.617C668.842 162.665 668.757 162.712 668.67 162.76C652.029 171.944 648.972 186.108 649.409 207.942L650.438 237.424L669.572 219.15L674.401 225.773C674.38 225.582 674.362 225.405 674.345 225.233L676.633 228.832L674.401 225.773C675.078 231.856 678.25 247.346 692.997 254.584L701.397 267.804L699.169 286.074C778.017 314.746 797.652 258.446 797.652 258.446L774.48 224.578Z" fill="#FFD700"/>
<path d="M665.525 216.112L675.849 228.738C675.849 228.738 674.437 248.197 694.045 254.436" stroke="black" stroke-width="1.33333" stroke-miterlimit="10" stroke-linecap="round"/>
<path d="M743.88 241.809L683.869 294.096C683.869 294.096 695.753 310.732 701.1 311.326L772.993 265.576" fill="#FFD700"/>
<path d="M701.695 278.053C701.695 278.053 734.374 241.214 745.663 235.868" stroke="black" stroke-width="1.33333" stroke-miterlimit="10" stroke-linecap="round"/>
<path d="M728.357 202.075C728.357 202.075 729.917 210.319 740.389 239.284" stroke="black" stroke-width="1.33333" stroke-miterlimit="10" stroke-linecap="round"/>
<path d="M709.418 306.573C709.418 306.573 776.558 263.793 777.153 251.315C777.746 238.838 760.219 180.907 760.219 180.907" stroke="black" stroke-width="1.33333" stroke-miterlimit="10" stroke-linecap="round"/>
<path d="M716.771 245.968C716.771 245.968 732.931 247.49 737.938 232.823" stroke="black" stroke-width="1.33333" stroke-miterlimit="10" stroke-linecap="round"/>
<path d="M651.33 235.047C651.33 235.047 655.786 230.591 660.242 235.641" stroke="black" stroke-width="1.33333" stroke-miterlimit="10" stroke-linecap="round"/>
<path d="M598.459 264.462L607.966 260.006C607.966 260.006 619.552 272.631 615.392 283.475L603.807 286.891C603.807 286.891 609.154 275.008 598.459 264.462Z" fill="white"/>
<path d="M687.657 287.411C687.657 287.411 700.134 292.759 709.046 308.133L699.466 315.486C699.466 315.486 687.657 298.551 679.413 295.878L687.657 287.411Z" fill="white"/>
<path d="M677.185 140.356L716.548 143.252C716.548 143.252 718.041 164.904 694.271 183.998L683.596 173.626L677.78 186.254C677.78 186.254 668.747 181.173 667.529 166.588L669.448 148.88L677.185 140.356Z" fill="white"/>
<path d="M697.193 142.28C698.629 143.504 699.31 145.389 698.977 147.246C697.713 154.293 693.891 171.349 686.23 173.493C676.542 176.204 670.498 157.068 670.498 157.068L675.329 123.645L697.193 142.28Z" fill="#DB9C7F"/>
<path d="M666.497 150.205L666.378 155.072C666.287 155.122 664.633 169.488 669.461 170.042C689.639 166.393 690.909 147.262 692.635 128.276C692.635 128.276 664.538 146.414 666.497 150.205Z" fill="black"/>
<path d="M632.903 114.37C632.903 114.37 627.986 161.234 657.099 169.298C686.214 177.363 693.189 129.883 692.185 113.463C691.181 97.0428 683.862 90.9362 663.457 90.2002C633.269 89.1122 632.903 114.37 632.903 114.37Z" fill="#DB9C7F"/>
<path d="M659.06 137.013C659.143 138.7 658.342 140.112 657.27 140.167C656.198 140.221 655.262 138.897 655.179 137.211C655.095 135.524 655.896 134.112 656.968 134.057C658.04 134.003 658.978 135.327 659.06 137.013Z" fill="black"/>
<path d="M662.258 128.38C662.258 128.38 652.639 132.567 651.695 125.295" stroke="black" stroke-width="1.33333" stroke-miterlimit="10" stroke-linecap="round"/>
<path d="M640.022 128.399C640.022 128.399 636.845 133.915 633.191 131.464" stroke="black" stroke-width="1.33333" stroke-miterlimit="10" stroke-linecap="round"/>
<path d="M634.912 138.196C634.912 138.196 636.729 137.61 639.396 139.018" stroke="black" stroke-width="1.33333" stroke-miterlimit="10" stroke-linecap="round"/>
<path d="M663.419 155.677C663.419 155.677 666.042 153.169 668.207 152.599" stroke="black" stroke-width="1.33333" stroke-miterlimit="10" stroke-linecap="round"/>
<path d="M643.741 143.595C643.741 143.595 642.069 147.395 646.325 149.219" stroke="black" stroke-width="1.33333" stroke-miterlimit="10" stroke-linecap="round"/>
<path d="M632.562 124.445C632.562 124.445 633.056 110.722 639.136 102.969C639.136 102.969 647.496 121.97 683.522 125.846L694.01 123.642C694.01 123.642 698.304 101.639 683.256 92.9753C668.208 84.3099 645.177 89.0993 637.768 96.8886C625.206 110.097 632.562 124.445 632.562 124.445Z" fill="black"/>
<path d="M676.529 123.338L682.761 135.65L687.169 121.818L676.529 123.338Z" fill="black"/>
<path d="M698.312 134.371C696.517 140.921 691.364 145.25 686.804 144.042C682.244 142.833 680.001 136.543 681.797 129.994C683.592 123.446 688.745 119.115 693.305 120.325C697.865 121.533 700.106 127.822 698.312 134.371Z" fill="#DB9C7F"/>
<path d="M693.735 128.669C693.735 128.669 688.605 124.255 685.803 132.325C685.803 132.325 688.8 135.505 686.909 138.001C686.909 138.001 689.863 138.671 691.32 136.066" stroke="black" stroke-width="1.33333" stroke-miterlimit="10" stroke-linecap="round" stroke-linejoin="round"/>
<path d="M691.515 131.756C691.515 131.756 691.229 129.963 689.237 127.917" stroke="black" stroke-width="1.33333" stroke-miterlimit="10" stroke-linecap="round" stroke-linejoin="round"/>
<path d="M694.01 143.821C694.01 146.277 692.019 148.267 689.563 148.267C687.109 148.267 685.118 146.277 685.118 143.821C685.118 141.365 687.109 139.374 689.563 139.374C692.019 139.374 694.01 141.365 694.01 143.821Z" fill="white"/>
<path d="M681.546 98.7128C681.546 98.7128 687.018 70.1354 699.787 75.6074C712.555 81.0808 718.331 108.441 706.171 110.569C694.01 112.697 684.586 106.921 684.586 106.921L681.546 98.7128Z" fill="black"/>
<path d="M681.697 106.921C681.697 106.921 702.827 124.553 709.667 108.289" stroke="black" stroke-width="1.33333" stroke-miterlimit="10" stroke-linecap="round"/>
<path d="M761.547 356.38L737.088 342.576" stroke="#424242" stroke-width="1.33333" stroke-miterlimit="10" stroke-linecap="round"/>
<path d="M206.381 175.11C232.809 175.83 254.675 196.998 256.197 223.393C257.09 238.913 251.075 253.035 240.954 262.999C239.458 264.471 238.764 266.57 239.113 268.639L242.914 291.134L219.526 277.506C218.194 276.73 216.625 276.446 215.113 276.75C209.395 277.903 203.338 278.115 197.094 277.17C173.989 273.67 155.962 254.541 153.831 231.27C150.991 200.253 175.765 174.275 206.381 175.11Z" fill="#8E8E8E"/>
<path d="M201.734 253.349C201.734 252.72 201.903 252.2 202.242 251.788C202.581 251.377 203.041 251.17 203.622 251.17C204.299 251.17 204.783 251.365 205.075 251.752C205.366 252.14 205.51 252.672 205.51 253.349C205.51 253.929 205.353 254.438 205.039 254.874C204.722 255.31 204.251 255.528 203.622 255.528C202.991 255.528 202.521 255.333 202.206 254.946C201.89 254.56 201.734 254.028 201.734 253.349ZM202.605 244.198L202.461 231.925C204.251 231.489 205.885 230.921 207.362 230.218C208.838 229.517 210.134 228.706 211.247 227.785C212.361 226.866 213.293 225.837 214.043 224.698C214.794 223.562 215.362 222.338 215.751 221.032C216.138 219.724 216.331 218.345 216.331 216.892C216.331 214.81 215.822 212.849 214.806 211.009C213.79 209.171 212.337 207.681 210.449 206.544C208.561 205.407 206.31 204.836 203.695 204.836C200.886 204.836 198.285 205.612 195.887 207.16C193.49 208.711 191.662 211.349 190.405 215.076L189.097 214.205C190.21 210.672 192.075 207.959 194.69 206.072C197.305 204.183 200.281 203.239 203.622 203.239C206.479 203.239 208.983 203.845 211.139 205.055C213.293 206.265 214.975 207.9 216.186 209.957C217.395 212.015 218.002 214.326 218.002 216.892C218.002 218.829 217.675 220.645 217.022 222.339C216.369 224.035 215.447 225.583 214.261 226.987C213.075 228.392 211.635 229.613 209.939 230.653C208.245 231.696 206.333 232.482 204.203 233.014L204.058 244.198H202.605Z" fill="black"/>
</g>
</svg>
