<svg width="50" height="50" viewBox="0 0 50 50" fill="none" xmlns="http://www.w3.org/2000/svg">
<g clip-path="url(#clip0_388_227)">
<path d="M27.6462 0C15.3203 0 5.2924 10.0279 5.2924 22.3539C5.2924 25.9935 6.1673 29.4325 7.7169 32.4723L2.02873 38.1605C-0.676244 40.8653 -0.676244 45.2665 2.02873 47.9713C3.38107 49.3238 5.15763 49.9999 6.93409 49.9999C8.71065 49.9999 10.4873 49.3237 11.8396 47.9713L17.5276 42.2831C20.5678 43.8328 24.0067 44.7076 27.6462 44.7076C39.972 44.7076 49.9999 34.6797 49.9999 22.3539C49.9999 10.028 39.9721 0 27.6462 0ZM8.56944 44.701C7.66759 45.6028 6.2007 45.6025 5.29904 44.701C4.39728 43.7993 4.39728 42.3322 5.29904 41.4307L10.2971 36.4328C11.272 37.632 12.3683 38.7281 13.5674 39.7031L8.56944 44.701ZM27.6462 40.0827C17.8705 40.0827 9.91729 32.1295 9.91729 22.3539C9.91729 12.5782 17.8705 4.62499 27.6462 4.62499C37.4218 4.62499 45.375 12.5781 45.375 22.3539C45.375 32.1296 37.4219 40.0827 27.6462 40.0827Z" fill="#152522"/>
</g>
<defs>
<clipPath id="clip0_388_227">
<rect width="50" height="50" fill="white"/>
</clipPath>
</defs>
</svg>
