<svg width="476" height="476" viewBox="0 0 476 476" fill="none" xmlns="http://www.w3.org/2000/svg">
<circle cx="238" cy="238" r="238" fill="#D9D9D9"/>
<path d="M167.974 82.8005C148.112 87.134 137.599 110.152 139.833 144.232C140.515 154.103 140.408 153.14 142.455 165.752C143.311 170.835 143.886 175.115 143.765 175.235C143.658 175.409 140.167 176.265 136.115 177.228C109.111 183.447 89.2355 192.81 77.305 204.914C69.2532 213.02 65.8827 220.563 66.0031 230.086C66.0566 235.449 67.8355 241.334 71.0856 246.992C73.881 251.847 83.8721 261.718 90.4392 266.172C104.202 275.427 108.429 276.738 112.187 272.966C113.792 271.375 114.126 270.572 114.126 268.686C114.126 265.035 112.869 263.269 108.589 260.915C89.7437 250.47 79.873 239.622 79.873 229.23C79.873 225.458 81.1837 222.034 84.3269 217.928C92.606 206.907 112.588 197.036 139.365 190.697C146.44 189.038 147.818 188.931 147.818 190.122C147.818 191.66 153.529 209.93 157.18 219.921L160.832 229.966L156.324 238.593C153.863 243.327 150.332 250.523 148.5 254.643C122.298 312.369 117.952 358.205 136.904 377.051C141.358 381.504 145.009 383.564 151.001 385.102C164.818 388.647 183.088 383.337 203.578 369.801C210.721 365.067 212.312 363.288 212.312 360.158C212.312 356.386 208.206 352.735 204.541 353.31C203.511 353.484 199.512 355.704 195.687 358.219C187.234 363.863 177.765 368.557 170.903 370.604C163.881 372.664 156.284 372.771 151.951 370.885C138.643 365 135.566 341.259 143.846 308.316C147.724 292.668 156.632 269.154 164.684 253.104L167.88 246.658L169.646 250.657C172.963 258.307 185.856 283.252 190.885 291.758C218.692 339.025 250.03 373.68 277.836 387.844C297.538 397.889 313.802 396.979 324.876 385.156C333.035 376.529 337.034 363.97 337.716 345.138C338.8 312.703 328.233 270.519 307.569 225.298C304.827 219.239 302.085 213.769 301.577 213.193C300.32 211.829 297.123 210.906 294.956 211.361C292.79 211.816 290.155 214.451 289.767 216.671C289.312 218.784 289.82 220.215 294.903 231.223C309.067 261.771 318.991 293.858 322.816 321.424C324.074 330.506 324.301 350.194 323.164 356.252C322.027 362.365 319.794 368.705 317.4 372.356C313.574 378.241 309.174 380.635 301.925 380.582C280.404 380.528 246.485 350.956 216.338 306.069C202.468 285.338 189.682 261.932 179.798 239.047L176.253 230.889L181.215 222.502C187.609 211.655 194.35 201.383 201.88 190.817L207.872 182.431H217.127C280.618 182.431 343.641 196.822 375.848 218.57C383.218 223.532 390.293 230.795 392.754 235.811C394.466 239.355 394.694 240.318 394.694 244.371C394.64 248.196 394.413 249.4 393.102 251.901C389.17 259.551 379.165 267.148 365.295 273.194C358.782 275.989 356.735 277.928 356.735 281.245C356.735 284.322 357.993 286.555 360.387 287.692C363.008 288.949 363.931 288.829 368.158 287.117C388.086 279.065 402.465 267.188 406.985 255.084C415.318 232.815 397.85 210.318 359.317 193.532C325.639 178.806 276.138 169.604 224.631 168.521L218.973 168.401L225.42 160.977C232.843 152.351 249.227 135.966 256.249 130.095C272.914 116.051 287.827 107.143 300.667 103.492C307.007 101.659 314.832 101.726 318.884 103.545C324.368 106.006 328.193 111.543 330.306 120.103C331.617 125.293 331.617 141.169 330.306 148.82C328.822 157.273 328.996 158.757 331.283 161.031C332.941 162.689 333.623 162.97 336.018 162.97C341.1 162.97 342.411 161.084 343.949 151.842C344.751 147.108 345.032 142.587 345.032 133.291C345.032 122.444 344.858 120.384 343.722 115.877C340.124 101.659 331.336 91.842 319.566 89.0467C292.281 82.6534 250.538 108.909 209.035 158.704C205.611 162.756 202.415 166.755 201.893 167.438C201.037 168.695 200.462 168.802 192.183 169.323C187.381 169.604 178.594 170.407 172.602 171.089C156.726 172.921 157.983 173.082 157.073 168.976C154.679 157.5 153.877 149.448 153.823 137.009C153.77 123.541 154.225 119.542 156.672 112.065C159.294 104.134 163.748 98.7569 169.405 96.8844C172.147 95.908 178.888 96.0284 182.874 97.0583C189.548 98.8238 198.977 103.853 207.537 110.3C212.62 114.125 214.385 114.807 217.074 113.897C220.15 112.921 221.982 110.353 221.982 107.156C221.982 104.762 221.755 104.308 219.24 101.9C215.696 98.476 205.424 91.628 199.205 88.5384C187.448 82.6534 177.163 80.7675 167.921 82.7738L167.974 82.8005ZM189.387 183.969C189.334 184.25 185.616 189.854 181.229 196.475C176.842 203.095 172.495 209.783 171.585 211.321L169.927 214.116L168.563 210.411C166.851 205.904 161.541 188.436 161.541 187.34C161.541 186.31 164.055 185.908 182.66 183.969C186.539 183.568 189.628 183.568 189.401 183.969H189.387ZM232.843 219.252C228.79 220.563 224.845 223.479 222.504 226.956C215.482 237.295 218.906 250.764 229.927 256.181C233.351 257.893 234.207 258.067 238.888 258.067C243.57 258.067 244.426 257.893 247.85 256.181C262.749 248.878 262.415 227.184 247.274 220.215C243.275 218.383 236.829 217.995 232.829 219.239L232.843 219.252Z" fill="#395143"/>
</svg>
